%
M48
M72
T01C0.0200
T02C0.0200
T03C0.0350
T04C0.0420
T05C0.0420
T06C0.0420
T07C0.0600
T08C0.0600
T09C0.1250
T10C0.1250
T11C0.1250
%
T01
X22381Y3967
T02
X20412Y3967
X19900Y3967
X19822Y4754
X20412Y4754
X20412Y2589
X21200Y2589
X22656Y2549
X23759Y2589
X24271Y3337
X25530Y3770
X25727Y4360
X24349Y5738
X25924Y7510
X26711Y7510
X27499Y7904
X27696Y7313
X27696Y6723
X28286Y5541
X28286Y4754
X30255Y4951
X30649Y5345
X30845Y5935
X30845Y6762
X30137Y7707
X31593Y8691
X32105Y8691
X32617Y8691
X31593Y10069
X31633Y10660
X30255Y10856
X30058Y10069
X29664Y9478
X30255Y9282
X28680Y9400
X28247Y10502
X28680Y10856
X28286Y11250
X29074Y11250
X27302Y12234
X27696Y13022
X28680Y12628
X29271Y13219
X31042Y12234
X31436Y11841
X31908Y13179
X31633Y14203
X31633Y14793
X32223Y14793
X32578Y14045
X26711Y11053
X26908Y10423
X24940Y10463
X23050Y10935
X21397Y11250
X20609Y11289
X21082Y10738
X20845Y9833
X21397Y8967
X19625Y7904
X19625Y7116
X19034Y7116
X18837Y8494
X18837Y9085
X17066Y7904
X14507Y6919
X16869Y10266
X16869Y11447
X18247Y11408
X18956Y10463
X19034Y13022
X20924Y13612
X21003Y14793
X22381Y15974
X24743Y15974
X24743Y15384
X24546Y14597
X25137Y13219
X25137Y12234
X24152Y12234
X19231Y16171
X18641Y18140
X12145Y15581
X15491Y13809
X16672Y13415
X14704Y10974
X12735Y11053
X12145Y10463
X24546Y7904
X30255Y3179
X31239Y2392
X32420Y2392
X24940Y1998
X24940Y1211
X18641Y2589
X16869Y2392
X17263Y1191
X14113Y1604
T03
X13070Y8016
X14070Y8516
X13070Y9016
X14070Y9516
X13070Y10016
X14070Y11516
X15070Y12016
X14070Y12516
X13070Y12016
T04
X13030Y14695
X10471Y14695
X10471Y16467
X13030Y16467
T05
X13129Y18230
X14129Y18230
X14129Y19230
X13129Y19230
X12129Y19230
X12129Y18230
X15970Y12416
X15970Y11416
X15970Y9116
X15970Y8116
X26286Y2301
X27286Y2301
X28286Y2301
X29286Y2301
X30286Y2301
X30286Y1301
X29286Y1301
X28286Y1301
X27286Y1301
X26286Y1301
X31830Y17352
X30286Y18230
X29286Y18230
X28286Y18230
X27286Y18230
X26286Y18230
X26286Y19230
X27286Y19230
X28286Y19230
X29286Y19230
X30286Y19230
T06
X23798Y14833
T07
X11770Y12916
X11770Y7616
T08
X23798Y6526
T09
X10570Y1604
X31830Y1604
X31830Y18927
X10570Y18927
T10
X10570Y12516
X10570Y8016
T11
X11103Y4724
X13463Y4724
X12283Y2754
M30
