G75*
G70*
%OFA0B0*%
%FSLAX24Y24*%
%IPPOS*%
%LPD*%
%AMOC8*
5,1,8,0,0,1.08239X$1,22.5*
%
%ADD10C,0.0080*%
%ADD11C,0.0550*%
%ADD12R,0.0550X0.0550*%
%ADD13C,0.0930*%
%ADD14C,0.0600*%
%ADD15C,0.0594*%
%ADD16OC8,0.0600*%
%ADD17R,0.1575X0.0472*%
%ADD18R,0.1575X0.0276*%
%ADD19R,0.1102X0.0787*%
%ADD20OC8,0.1900*%
%ADD21R,0.0318X0.0318*%
%ADD22OC8,0.0396*%
%ADD23C,0.0100*%
D10*
X019464Y018573D02*
X019464Y018733D01*
X019517Y018786D01*
X019624Y018786D01*
X019677Y018733D01*
X019816Y018786D02*
X019923Y018786D01*
X019869Y018840D02*
X019869Y018626D01*
X019816Y018573D01*
X019677Y018573D02*
X019677Y018893D01*
X020115Y018893D02*
X020115Y018946D01*
X020115Y018786D02*
X020115Y018573D01*
X020168Y018573D02*
X020061Y018573D01*
X020115Y018786D02*
X020168Y018786D01*
X020323Y018733D02*
X020323Y018573D01*
X020430Y018573D02*
X020430Y018733D01*
X020376Y018786D01*
X020323Y018733D01*
X020430Y018733D02*
X020483Y018786D01*
X020536Y018786D01*
X020536Y018573D01*
X020691Y018626D02*
X020745Y018573D01*
X020851Y018573D01*
X020905Y018626D01*
X020851Y018733D02*
X020745Y018733D01*
X020691Y018680D01*
X020691Y018626D01*
X020851Y018733D02*
X020905Y018786D01*
X020905Y018840D01*
X020851Y018893D01*
X020745Y018893D01*
X020691Y018840D01*
X021428Y018733D02*
X021428Y018573D01*
X021428Y018733D02*
X021481Y018786D01*
X021641Y018786D01*
X021641Y018573D01*
X021780Y018573D02*
X021887Y018573D01*
X021834Y018573D02*
X021834Y018786D01*
X021887Y018786D01*
X021834Y018893D02*
X021834Y018946D01*
X022034Y018786D02*
X022087Y018786D01*
X022194Y018680D01*
X022194Y018786D02*
X022194Y018573D01*
X022349Y018680D02*
X022349Y018733D01*
X022402Y018786D01*
X022509Y018786D01*
X022562Y018733D01*
X022562Y018626D01*
X022509Y018573D01*
X022402Y018573D01*
X022349Y018680D02*
X022562Y018680D01*
X022717Y018786D02*
X022824Y018573D01*
X022930Y018786D01*
X023085Y018733D02*
X023085Y018680D01*
X023299Y018680D01*
X023299Y018733D02*
X023299Y018626D01*
X023245Y018573D01*
X023139Y018573D01*
X023085Y018733D02*
X023139Y018786D01*
X023245Y018786D01*
X023299Y018733D01*
X023454Y018680D02*
X023507Y018733D01*
X023614Y018733D01*
X023667Y018786D01*
X023667Y018840D01*
X023614Y018893D01*
X023507Y018893D01*
X023454Y018840D01*
X023454Y018680D02*
X023454Y018626D01*
X023507Y018573D01*
X023614Y018573D01*
X023667Y018626D01*
X023639Y019406D02*
X023639Y019620D01*
X023533Y019726D01*
X023426Y019620D01*
X023426Y019406D01*
X023271Y019406D02*
X023271Y019620D01*
X023111Y019620D01*
X023058Y019566D01*
X023058Y019406D01*
X022903Y019459D02*
X022849Y019513D01*
X022689Y019513D01*
X022689Y019566D02*
X022689Y019406D01*
X022849Y019406D01*
X022903Y019459D01*
X022849Y019620D02*
X022743Y019620D01*
X022689Y019566D01*
X022534Y019620D02*
X022428Y019620D01*
X022481Y019673D02*
X022481Y019459D01*
X022428Y019406D01*
X022289Y019406D02*
X022182Y019406D01*
X022236Y019406D02*
X022236Y019620D01*
X022289Y019620D01*
X022236Y019726D02*
X022236Y019780D01*
X022043Y019566D02*
X021990Y019620D01*
X021830Y019620D01*
X021830Y019726D02*
X021830Y019406D01*
X021990Y019406D01*
X022043Y019459D01*
X022043Y019566D01*
X021675Y019459D02*
X021622Y019513D01*
X021462Y019513D01*
X021462Y019566D02*
X021462Y019406D01*
X021622Y019406D01*
X021675Y019459D01*
X021622Y019620D02*
X021515Y019620D01*
X021462Y019566D01*
X021307Y019566D02*
X021253Y019620D01*
X021147Y019620D01*
X021093Y019566D01*
X021093Y019513D01*
X021307Y019513D01*
X021307Y019566D02*
X021307Y019459D01*
X021253Y019406D01*
X021147Y019406D01*
X020570Y019620D02*
X020463Y019406D01*
X020357Y019620D01*
X020202Y019673D02*
X020202Y019459D01*
X019988Y019673D01*
X019988Y019459D01*
X020042Y019406D01*
X020149Y019406D01*
X020202Y019459D01*
X020202Y019673D02*
X020149Y019726D01*
X020042Y019726D01*
X019988Y019673D01*
X019834Y019673D02*
X019780Y019726D01*
X019673Y019726D01*
X019620Y019673D01*
X019620Y019620D01*
X019834Y019406D01*
X019620Y019406D01*
X023426Y019566D02*
X023639Y019566D01*
D11*
X013203Y012758D03*
X012203Y012258D03*
X013203Y011758D03*
X014203Y012258D03*
X012203Y010258D03*
X013203Y009758D03*
X012203Y009258D03*
X013203Y008758D03*
D12*
X012203Y008258D03*
D13*
X010903Y007858D03*
X010903Y013158D03*
D14*
X015103Y012658D03*
X015103Y011658D03*
X015103Y009358D03*
X015103Y008358D03*
D15*
X012460Y014937D02*
X011867Y014937D01*
X009901Y014937D02*
X009308Y014937D01*
X009308Y016709D02*
X009901Y016709D01*
X011867Y016709D02*
X012460Y016709D01*
D16*
X012262Y018472D03*
X011262Y018472D03*
X011262Y019472D03*
X012262Y019472D03*
X013262Y019472D03*
X013262Y018472D03*
X025420Y018472D03*
X026420Y018472D03*
X027420Y018472D03*
X028420Y018472D03*
X029420Y018472D03*
X030963Y017594D03*
X029420Y019472D03*
X028420Y019472D03*
X027420Y019472D03*
X026420Y019472D03*
X025420Y019472D03*
X025420Y002543D03*
X026420Y002543D03*
X027420Y002543D03*
X028420Y002543D03*
X029420Y002543D03*
X029420Y001543D03*
X028420Y001543D03*
X027420Y001543D03*
X026420Y001543D03*
X025420Y001543D03*
D17*
X021750Y006807D03*
X021750Y007791D03*
X021750Y008775D03*
X021750Y009760D03*
X021750Y010744D03*
X021750Y011728D03*
X021750Y012712D03*
X021750Y013697D03*
D18*
X021750Y014327D03*
X021750Y014838D03*
X021750Y015311D03*
D19*
X022498Y015980D03*
X030687Y015941D03*
X022459Y005901D03*
X030687Y004957D03*
D20*
X012597Y004966D03*
X010237Y004966D03*
X011417Y002996D03*
D21*
X021514Y004209D03*
D22*
X019546Y004209D03*
X019034Y004209D03*
X018955Y004996D03*
X019546Y004996D03*
X019546Y002831D03*
X020333Y002831D03*
X021790Y002791D03*
X022892Y002831D03*
X024073Y002240D03*
X024073Y001453D03*
X023404Y003579D03*
X024664Y004012D03*
X024860Y004602D03*
X023483Y005980D03*
X025057Y007752D03*
X025845Y007752D03*
X026632Y008146D03*
X026829Y007555D03*
X026829Y006964D03*
X027420Y005783D03*
X027420Y004996D03*
X029388Y005193D03*
X029782Y005586D03*
X029979Y006177D03*
X029979Y007004D03*
X029270Y007949D03*
X030727Y008933D03*
X031238Y008933D03*
X031750Y008933D03*
X030727Y010311D03*
X030766Y010901D03*
X030569Y012083D03*
X030175Y012476D03*
X031042Y013421D03*
X031711Y014287D03*
X030766Y014445D03*
X030766Y015035D03*
X031357Y015035D03*
X028404Y013460D03*
X027813Y012870D03*
X026829Y013264D03*
X026435Y012476D03*
X027420Y011492D03*
X027813Y011098D03*
X028207Y011492D03*
X027380Y010744D03*
X026042Y010665D03*
X025845Y011295D03*
X024073Y010705D03*
X022183Y011177D03*
X020530Y011492D03*
X020215Y010980D03*
X019742Y011531D03*
X018089Y010705D03*
X017380Y011649D03*
X016002Y011689D03*
X016002Y010508D03*
X013837Y011216D03*
X011868Y011295D03*
X011278Y010705D03*
X015805Y013657D03*
X014624Y014051D03*
X011278Y015823D03*
X017774Y018382D03*
X018364Y016413D03*
X020136Y015035D03*
X021514Y016216D03*
X023679Y014838D03*
X023876Y015626D03*
X023876Y016216D03*
X020057Y013854D03*
X018168Y013264D03*
X019979Y010075D03*
X020530Y009209D03*
X018758Y008146D03*
X017971Y008736D03*
X017971Y009327D03*
X016199Y008146D03*
X018168Y007358D03*
X018758Y007358D03*
X023679Y008146D03*
X027813Y009642D03*
X028797Y009720D03*
X029388Y009523D03*
X029191Y010311D03*
X029388Y011098D03*
X024270Y012476D03*
X023286Y012476D03*
X024270Y013460D03*
X013640Y007161D03*
X017774Y002831D03*
X016002Y002634D03*
X016396Y001433D03*
X013246Y001846D03*
X029388Y003421D03*
X030372Y002634D03*
X031553Y002634D03*
D23*
X008840Y000912D02*
X008572Y000912D01*
X008572Y001199D01*
X008585Y001166D01*
X008840Y000912D01*
X008791Y000961D02*
X008572Y000961D01*
X008572Y001059D02*
X008692Y001059D01*
X008594Y001158D02*
X008572Y001158D01*
X008837Y001334D02*
X009112Y001059D01*
X009231Y000941D01*
X010963Y000941D01*
X011160Y000941D01*
X012459Y002240D01*
X013640Y002240D01*
X014624Y002240D01*
X016199Y002240D01*
X017380Y003421D01*
X018168Y003421D01*
X018364Y003224D01*
X018561Y003224D01*
X018758Y003421D01*
X018955Y003618D01*
X019939Y003618D01*
X020333Y004012D01*
X020530Y004209D01*
X020530Y004799D01*
X018758Y006571D01*
X018364Y006964D01*
X018168Y006964D01*
X017971Y006964D01*
X017774Y007161D01*
X017774Y007358D01*
X017774Y007752D01*
X018168Y008146D01*
X018758Y008146D01*
X019203Y008154D02*
X019707Y008154D01*
X019619Y008242D02*
X019486Y008242D01*
X019203Y008242D01*
X019203Y007961D01*
X019184Y007942D01*
X019207Y007920D01*
X019403Y007723D01*
X019449Y007614D01*
X019449Y007496D01*
X019449Y007087D01*
X019600Y006936D01*
X019994Y006542D01*
X020233Y006303D01*
X020233Y007629D01*
X020165Y007697D01*
X020165Y007697D01*
X019619Y008242D01*
X019806Y008056D02*
X019203Y008056D01*
X019199Y007957D02*
X019904Y007957D01*
X020003Y007859D02*
X019268Y007859D01*
X019366Y007760D02*
X020101Y007760D01*
X020200Y007662D02*
X019429Y007662D01*
X019449Y007563D02*
X020233Y007563D01*
X020233Y007465D02*
X019449Y007465D01*
X019449Y007366D02*
X020233Y007366D01*
X020233Y007268D02*
X019449Y007268D01*
X019449Y007169D02*
X020233Y007169D01*
X020233Y007071D02*
X019465Y007071D01*
X019564Y006972D02*
X020233Y006972D01*
X020233Y006873D02*
X019663Y006873D01*
X019761Y006775D02*
X020233Y006775D01*
X020233Y006676D02*
X019860Y006676D01*
X019958Y006578D02*
X020233Y006578D01*
X020233Y006479D02*
X020057Y006479D01*
X020155Y006381D02*
X020233Y006381D01*
X019742Y006374D02*
X019349Y006768D01*
X019152Y006964D01*
X019152Y007555D01*
X018955Y007752D01*
X018561Y007752D01*
X018168Y007358D01*
X018758Y007358D02*
X018758Y006964D01*
X019152Y006571D01*
X020727Y004996D01*
X020727Y004012D01*
X020530Y003815D01*
X020136Y003421D01*
X019152Y003421D01*
X018955Y003224D01*
X018758Y003027D01*
X018168Y003027D01*
X017971Y003224D01*
X017577Y003224D01*
X016396Y002043D01*
X014821Y002043D01*
X013443Y002043D01*
X013246Y001846D01*
X012801Y001848D02*
X012486Y001848D01*
X012582Y001943D02*
X012801Y001943D01*
X012801Y001662D01*
X013062Y001401D01*
X013431Y001401D01*
X013691Y001662D01*
X013691Y001746D01*
X014880Y001746D01*
X016080Y001746D01*
X015951Y001617D01*
X015951Y001249D01*
X016212Y000988D01*
X016580Y000988D01*
X016728Y001136D01*
X023760Y001136D01*
X023889Y001008D01*
X024257Y001008D01*
X024473Y001223D01*
X024784Y000912D01*
X011551Y000912D01*
X012582Y001943D01*
X012388Y001749D02*
X012801Y001749D01*
X012813Y001651D02*
X012289Y001651D01*
X012191Y001552D02*
X012911Y001552D01*
X013010Y001454D02*
X012092Y001454D01*
X011994Y001355D02*
X015951Y001355D01*
X015951Y001256D02*
X011895Y001256D01*
X011797Y001158D02*
X016042Y001158D01*
X016140Y001059D02*
X011698Y001059D01*
X011599Y000961D02*
X024736Y000961D01*
X024637Y001059D02*
X024309Y001059D01*
X024408Y001158D02*
X024539Y001158D01*
X024664Y001453D02*
X025254Y000862D01*
X031553Y000862D01*
X031947Y001256D01*
X031947Y003027D01*
X031553Y003421D01*
X031553Y008618D01*
X031238Y008933D01*
X030727Y008933D02*
X030727Y009090D01*
X031750Y010114D01*
X031750Y013264D01*
X031750Y013657D01*
X031357Y014051D01*
X031357Y014642D01*
X031357Y015035D01*
X031673Y015348D02*
X032094Y015348D01*
X032094Y015250D02*
X031771Y015250D01*
X031801Y015220D02*
X031541Y015480D01*
X031384Y015480D01*
X031388Y015485D01*
X031388Y015891D01*
X030737Y015891D01*
X030737Y015991D01*
X030637Y015991D01*
X030637Y016484D01*
X030273Y016484D01*
X030836Y017047D01*
X031189Y017047D01*
X031510Y017368D01*
X031510Y017821D01*
X031189Y018141D01*
X030736Y018141D01*
X030436Y017840D01*
X030472Y017929D01*
X030472Y018423D01*
X030788Y018292D01*
X031137Y018292D01*
X031459Y018426D01*
X031706Y018672D01*
X031840Y018995D01*
X031840Y019344D01*
X031706Y019666D01*
X031459Y019912D01*
X031137Y020046D01*
X030788Y020046D01*
X030466Y019912D01*
X030356Y019802D01*
X030344Y019814D01*
X030055Y020103D01*
X032094Y020103D01*
X032094Y014533D01*
X031895Y014732D01*
X031683Y014732D01*
X031801Y014851D01*
X031801Y015220D01*
X031801Y015151D02*
X032094Y015151D01*
X032094Y015053D02*
X031801Y015053D01*
X031801Y014954D02*
X032094Y014954D01*
X032094Y014855D02*
X031801Y014855D01*
X031707Y014757D02*
X032094Y014757D01*
X032094Y014658D02*
X031969Y014658D01*
X032068Y014560D02*
X032094Y014560D01*
X031711Y014287D02*
X031947Y014051D01*
X031947Y013264D01*
X031947Y009130D01*
X031750Y008933D01*
X032094Y008647D02*
X032094Y008647D01*
X032094Y003300D01*
X031850Y003544D01*
X031850Y008488D01*
X031935Y008488D01*
X032094Y008647D01*
X032094Y008549D02*
X031995Y008549D01*
X032094Y008450D02*
X031850Y008450D01*
X031850Y008352D02*
X032094Y008352D01*
X032094Y008253D02*
X031850Y008253D01*
X031850Y008154D02*
X032094Y008154D01*
X032094Y008056D02*
X031850Y008056D01*
X031850Y007957D02*
X032094Y007957D01*
X032094Y007859D02*
X031850Y007859D01*
X031850Y007760D02*
X032094Y007760D01*
X032094Y007662D02*
X031850Y007662D01*
X031850Y007563D02*
X032094Y007563D01*
X032094Y007465D02*
X031850Y007465D01*
X031850Y007366D02*
X032094Y007366D01*
X032094Y007268D02*
X031850Y007268D01*
X031850Y007169D02*
X032094Y007169D01*
X032094Y007071D02*
X031850Y007071D01*
X031850Y006972D02*
X032094Y006972D01*
X032094Y006873D02*
X031850Y006873D01*
X031850Y006775D02*
X032094Y006775D01*
X032094Y006676D02*
X031850Y006676D01*
X031850Y006578D02*
X032094Y006578D01*
X032094Y006479D02*
X031850Y006479D01*
X031850Y006381D02*
X032094Y006381D01*
X032094Y006282D02*
X031850Y006282D01*
X031850Y006184D02*
X032094Y006184D01*
X032094Y006085D02*
X031850Y006085D01*
X031850Y005987D02*
X032094Y005987D01*
X032094Y005888D02*
X031850Y005888D01*
X031850Y005789D02*
X032094Y005789D01*
X032094Y005691D02*
X031850Y005691D01*
X031850Y005592D02*
X032094Y005592D01*
X032094Y005494D02*
X031850Y005494D01*
X031850Y005395D02*
X032094Y005395D01*
X032094Y005297D02*
X031850Y005297D01*
X031850Y005198D02*
X032094Y005198D01*
X032094Y005100D02*
X031850Y005100D01*
X031850Y005001D02*
X032094Y005001D01*
X032094Y004903D02*
X031850Y004903D01*
X031850Y004804D02*
X032094Y004804D01*
X032094Y004705D02*
X031850Y004705D01*
X031850Y004607D02*
X032094Y004607D01*
X032094Y004508D02*
X031850Y004508D01*
X031850Y004410D02*
X032094Y004410D01*
X032094Y004311D02*
X031850Y004311D01*
X031850Y004213D02*
X032094Y004213D01*
X032094Y004114D02*
X031850Y004114D01*
X031850Y004016D02*
X032094Y004016D01*
X032094Y003917D02*
X031850Y003917D01*
X031850Y003819D02*
X032094Y003819D01*
X032094Y003720D02*
X031850Y003720D01*
X031850Y003621D02*
X032094Y003621D01*
X032094Y003523D02*
X031871Y003523D01*
X031970Y003424D02*
X032094Y003424D01*
X032094Y003326D02*
X032068Y003326D01*
X031265Y003342D02*
X030291Y004316D01*
X031257Y004316D01*
X031257Y003480D01*
X031257Y003362D01*
X031265Y003342D01*
X031257Y003424D02*
X031182Y003424D01*
X031257Y003523D02*
X031084Y003523D01*
X030985Y003621D02*
X031257Y003621D01*
X031257Y003720D02*
X030887Y003720D01*
X030788Y003819D02*
X031257Y003819D01*
X031257Y003917D02*
X030690Y003917D01*
X030591Y004016D02*
X031257Y004016D01*
X031257Y004114D02*
X030493Y004114D01*
X030394Y004213D02*
X031257Y004213D01*
X031257Y004311D02*
X030296Y004311D01*
X029889Y004718D02*
X029716Y004891D01*
X029833Y005008D01*
X029833Y005141D01*
X029889Y005141D01*
X029889Y004718D01*
X029889Y004804D02*
X029803Y004804D01*
X029727Y004903D02*
X029889Y004903D01*
X029889Y005001D02*
X029826Y005001D01*
X029833Y005100D02*
X029889Y005100D01*
X029388Y005193D02*
X029388Y004799D01*
X031553Y002634D01*
X031044Y002723D02*
X030817Y002723D01*
X030817Y002818D01*
X030669Y002966D01*
X030669Y003086D01*
X030661Y003107D01*
X031044Y002723D01*
X031033Y002735D02*
X030817Y002735D01*
X030802Y002833D02*
X030934Y002833D01*
X030836Y002932D02*
X030704Y002932D01*
X030737Y003030D02*
X030669Y003030D01*
X030372Y003027D02*
X030372Y002634D01*
X029979Y002831D02*
X029782Y003027D01*
X029191Y003027D01*
X028797Y003421D01*
X028207Y004012D01*
X028207Y004209D01*
X028207Y008342D01*
X029388Y009523D01*
X028797Y009720D02*
X028404Y009327D01*
X028010Y008933D01*
X028010Y003775D01*
X028404Y003382D01*
X028916Y002870D01*
X028916Y002039D01*
X028420Y001543D01*
X028049Y001098D02*
X027892Y001256D01*
X027892Y002071D01*
X027420Y002543D01*
X027177Y003074D02*
X027159Y003117D01*
X026732Y003544D01*
X026732Y005323D01*
X026774Y005221D01*
X026975Y005021D01*
X026975Y004812D01*
X027235Y004551D01*
X027516Y004551D01*
X027516Y003209D01*
X027516Y003090D01*
X027517Y003090D01*
X027193Y003090D01*
X027177Y003074D01*
X027147Y003129D02*
X027516Y003129D01*
X027516Y003227D02*
X027049Y003227D01*
X026950Y003326D02*
X027516Y003326D01*
X027516Y003424D02*
X026852Y003424D01*
X026753Y003523D02*
X027516Y003523D01*
X027516Y003621D02*
X026732Y003621D01*
X026732Y003720D02*
X027516Y003720D01*
X027516Y003819D02*
X026732Y003819D01*
X026732Y003917D02*
X027516Y003917D01*
X027516Y004016D02*
X026732Y004016D01*
X026732Y004114D02*
X027516Y004114D01*
X027516Y004213D02*
X026732Y004213D01*
X026732Y004311D02*
X027516Y004311D01*
X027516Y004410D02*
X026732Y004410D01*
X026732Y004508D02*
X027516Y004508D01*
X027179Y004607D02*
X026732Y004607D01*
X026732Y004705D02*
X027081Y004705D01*
X026982Y004804D02*
X026732Y004804D01*
X026732Y004903D02*
X026975Y004903D01*
X026975Y005001D02*
X026732Y005001D01*
X026732Y005100D02*
X026896Y005100D01*
X026797Y005198D02*
X026732Y005198D01*
X026732Y005297D02*
X026743Y005297D01*
X027026Y005390D02*
X027420Y004996D01*
X027026Y005390D02*
X027026Y005980D01*
X027420Y006374D01*
X027420Y006964D01*
X027420Y008342D01*
X027223Y008539D01*
X023286Y008539D01*
X022538Y007791D01*
X021750Y007791D01*
X020914Y007308D02*
X022587Y007308D01*
X022677Y007346D01*
X022747Y007415D01*
X022784Y007506D01*
X022784Y007618D01*
X023409Y008242D01*
X026187Y008242D01*
X026187Y008039D01*
X026029Y008197D01*
X025660Y008197D01*
X025451Y007987D01*
X025242Y008197D01*
X024873Y008197D01*
X024612Y007936D01*
X024612Y007567D01*
X024873Y007307D01*
X025082Y007307D01*
X025351Y007038D01*
X025351Y005122D01*
X025225Y005248D01*
X025116Y005293D01*
X024998Y005293D01*
X021637Y005293D01*
X020827Y006103D01*
X020827Y006360D01*
X020914Y006324D01*
X021758Y006324D01*
X021758Y005951D01*
X022409Y005951D01*
X022409Y005851D01*
X022509Y005851D01*
X022509Y005358D01*
X023072Y005358D01*
X023160Y005446D01*
X023160Y005851D01*
X022509Y005851D01*
X022509Y005951D01*
X023160Y005951D01*
X023160Y006254D01*
X023250Y006291D01*
X023408Y006449D01*
X023493Y006656D01*
X023493Y006879D01*
X023408Y007086D01*
X023250Y007244D01*
X023043Y007329D01*
X022820Y007329D01*
X022656Y007261D01*
X022587Y007290D01*
X020914Y007290D01*
X020827Y007254D01*
X020827Y007344D01*
X020914Y007308D01*
X020860Y007268D02*
X020827Y007268D01*
X020530Y007752D02*
X020530Y005980D01*
X021514Y004996D01*
X025057Y004996D01*
X025451Y004602D01*
X025451Y003815D01*
X024664Y003027D01*
X024664Y001453D01*
X024367Y001788D02*
X024309Y001846D01*
X024367Y001904D01*
X024367Y001788D01*
X024367Y001848D02*
X024310Y001848D01*
X024073Y002240D02*
X023876Y002043D01*
X023483Y002043D01*
X019742Y002043D01*
X019546Y002240D01*
X019546Y002634D01*
X019546Y002831D01*
X019349Y003224D02*
X018955Y002831D01*
X018561Y002831D01*
X017774Y002831D01*
X018106Y002534D02*
X018620Y002534D01*
X019014Y002534D01*
X019123Y002579D01*
X019146Y002601D01*
X019249Y002498D01*
X019249Y002181D01*
X019294Y002072D01*
X019377Y001988D01*
X019574Y001791D01*
X019683Y001746D01*
X019801Y001746D01*
X023423Y001746D01*
X023738Y001746D01*
X023721Y001730D01*
X016728Y001730D01*
X016615Y001843D01*
X017374Y002601D01*
X017590Y002386D01*
X017958Y002386D01*
X018106Y002534D01*
X018011Y002439D02*
X019249Y002439D01*
X019249Y002340D02*
X017113Y002340D01*
X017014Y002242D02*
X019249Y002242D01*
X019264Y002143D02*
X016916Y002143D01*
X016817Y002045D02*
X019321Y002045D01*
X019377Y001988D02*
X019377Y001988D01*
X019419Y001946D02*
X016719Y001946D01*
X016620Y001848D02*
X019518Y001848D01*
X019676Y001749D02*
X016709Y001749D01*
X016396Y001433D02*
X024053Y001433D01*
X024073Y001453D01*
X023837Y001059D02*
X016652Y001059D01*
X015951Y001454D02*
X013483Y001454D01*
X013581Y001552D02*
X015951Y001552D01*
X015984Y001651D02*
X013680Y001651D01*
X013581Y002537D02*
X012513Y002537D01*
X012517Y002540D01*
X012517Y002946D01*
X011467Y002946D01*
X011467Y003046D01*
X012517Y003046D01*
X012517Y003451D01*
X012199Y003769D01*
X013092Y003769D01*
X013794Y004470D01*
X013794Y005462D01*
X013092Y006163D01*
X012101Y006163D01*
X011400Y005462D01*
X011400Y004470D01*
X011774Y004096D01*
X011467Y004096D01*
X011467Y003046D01*
X011367Y003046D01*
X011367Y004096D01*
X010961Y004096D01*
X010317Y003451D01*
X010317Y003046D01*
X011366Y003046D01*
X011366Y002946D01*
X010317Y002946D01*
X010317Y002540D01*
X010961Y001896D01*
X011367Y001896D01*
X011367Y002946D01*
X011467Y002946D01*
X011467Y001896D01*
X011695Y001896D01*
X011037Y001238D01*
X010904Y001238D01*
X010334Y001238D01*
X010446Y001350D01*
X010580Y001672D01*
X010580Y002021D01*
X010446Y002343D01*
X010200Y002590D01*
X009877Y002723D01*
X009529Y002723D01*
X009206Y002590D01*
X009134Y002517D01*
X009134Y007573D01*
X009201Y007506D01*
X009527Y007371D01*
X009879Y007371D01*
X010205Y007506D01*
X010257Y007557D01*
X010300Y007454D01*
X010500Y007254D01*
X010761Y007146D01*
X011045Y007146D01*
X011306Y007254D01*
X011506Y007454D01*
X011615Y007716D01*
X011615Y007999D01*
X011506Y008261D01*
X011306Y008461D01*
X011045Y008570D01*
X010761Y008570D01*
X010567Y008489D01*
X010455Y008760D01*
X010205Y009010D01*
X009879Y009145D01*
X009527Y009145D01*
X009201Y009010D01*
X009134Y008943D01*
X009134Y008943D01*
X009134Y012073D01*
X009201Y012006D01*
X009527Y011871D01*
X009879Y011871D01*
X010205Y012006D01*
X010455Y012255D01*
X010567Y012526D01*
X010761Y012446D01*
X011045Y012446D01*
X011306Y012554D01*
X011375Y012623D01*
X011375Y012614D01*
X011375Y012023D01*
X011420Y011914D01*
X011503Y011831D01*
X011639Y011695D01*
X011423Y011479D01*
X011423Y011149D01*
X011093Y011149D01*
X010833Y010889D01*
X010833Y010520D01*
X010981Y010372D01*
X010981Y009858D01*
X010981Y009124D01*
X011026Y009015D01*
X011110Y008931D01*
X011681Y008360D01*
X011681Y007934D01*
X011719Y007843D01*
X011788Y007773D01*
X011879Y007736D01*
X012527Y007736D01*
X012618Y007773D01*
X012687Y007843D01*
X012725Y007934D01*
X012725Y008549D01*
X012761Y008462D01*
X012907Y008315D01*
X013099Y008236D01*
X013307Y008236D01*
X013499Y008315D01*
X013645Y008462D01*
X013725Y008654D01*
X013725Y008860D01*
X013934Y009069D01*
X013934Y008008D01*
X013934Y007890D01*
X013979Y007780D01*
X017719Y004040D01*
X018041Y003718D01*
X017321Y003718D01*
X017212Y003673D01*
X017129Y003589D01*
X016076Y002537D01*
X014565Y002537D01*
X013581Y002537D01*
X012514Y002538D02*
X016077Y002538D01*
X016002Y002634D02*
X011779Y002634D01*
X011417Y002996D01*
X010237Y004176D01*
X010237Y004966D01*
X010237Y005726D01*
X011573Y007063D01*
X011671Y007161D01*
X013640Y007161D01*
X014196Y007563D02*
X011551Y007563D01*
X011511Y007465D02*
X014295Y007465D01*
X014393Y007366D02*
X011418Y007366D01*
X011320Y007268D02*
X014492Y007268D01*
X014590Y007169D02*
X011101Y007169D01*
X010705Y007169D02*
X009134Y007169D01*
X009134Y007071D02*
X014689Y007071D01*
X014787Y006972D02*
X009134Y006972D01*
X009134Y006873D02*
X014886Y006873D01*
X014984Y006775D02*
X009134Y006775D01*
X009134Y006676D02*
X015083Y006676D01*
X015182Y006578D02*
X009134Y006578D01*
X009134Y006479D02*
X015280Y006479D01*
X015379Y006381D02*
X009134Y006381D01*
X009134Y006282D02*
X015477Y006282D01*
X015576Y006184D02*
X009134Y006184D01*
X009134Y006085D02*
X012023Y006085D01*
X011925Y005987D02*
X010772Y005987D01*
X010692Y006066D02*
X010287Y006066D01*
X010287Y005016D01*
X011337Y005016D01*
X011337Y005421D01*
X010692Y006066D01*
X010870Y005888D02*
X011826Y005888D01*
X011728Y005789D02*
X010969Y005789D01*
X011067Y005691D02*
X011629Y005691D01*
X011531Y005592D02*
X011166Y005592D01*
X011264Y005494D02*
X011432Y005494D01*
X011400Y005395D02*
X011337Y005395D01*
X011337Y005297D02*
X011400Y005297D01*
X011400Y005198D02*
X011337Y005198D01*
X011337Y005100D02*
X011400Y005100D01*
X011400Y005001D02*
X010287Y005001D01*
X010287Y005016D02*
X010287Y004916D01*
X011337Y004916D01*
X011337Y004510D01*
X010692Y003866D01*
X010287Y003866D01*
X010287Y004916D01*
X010187Y004916D01*
X010187Y003866D01*
X009781Y003866D01*
X009137Y004510D01*
X009137Y004916D01*
X010186Y004916D01*
X010186Y005016D01*
X009137Y005016D01*
X009137Y005421D01*
X009781Y006066D01*
X010187Y006066D01*
X010187Y005016D01*
X010287Y005016D01*
X010287Y005100D02*
X010187Y005100D01*
X010187Y005198D02*
X010287Y005198D01*
X010287Y005297D02*
X010187Y005297D01*
X010187Y005395D02*
X010287Y005395D01*
X010287Y005494D02*
X010187Y005494D01*
X010187Y005592D02*
X010287Y005592D01*
X010287Y005691D02*
X010187Y005691D01*
X010187Y005789D02*
X010287Y005789D01*
X010287Y005888D02*
X010187Y005888D01*
X010187Y005987D02*
X010287Y005987D01*
X009702Y005987D02*
X009134Y005987D01*
X009134Y005888D02*
X009603Y005888D01*
X009505Y005789D02*
X009134Y005789D01*
X009134Y005691D02*
X009406Y005691D01*
X009308Y005592D02*
X009134Y005592D01*
X009134Y005494D02*
X009209Y005494D01*
X009137Y005395D02*
X009134Y005395D01*
X009134Y005297D02*
X009137Y005297D01*
X009134Y005198D02*
X009137Y005198D01*
X009134Y005100D02*
X009137Y005100D01*
X009134Y005001D02*
X010186Y005001D01*
X010187Y004903D02*
X010287Y004903D01*
X010287Y004804D02*
X010187Y004804D01*
X010187Y004705D02*
X010287Y004705D01*
X010287Y004607D02*
X010187Y004607D01*
X010187Y004508D02*
X010287Y004508D01*
X010287Y004410D02*
X010187Y004410D01*
X010187Y004311D02*
X010287Y004311D01*
X010287Y004213D02*
X010187Y004213D01*
X010187Y004114D02*
X010287Y004114D01*
X010287Y004016D02*
X010187Y004016D01*
X010187Y003917D02*
X010287Y003917D01*
X010585Y003720D02*
X009134Y003720D01*
X009134Y003621D02*
X010487Y003621D01*
X010388Y003523D02*
X009134Y003523D01*
X009134Y003424D02*
X010317Y003424D01*
X010317Y003326D02*
X009134Y003326D01*
X009134Y003227D02*
X010317Y003227D01*
X010317Y003129D02*
X009134Y003129D01*
X009134Y003030D02*
X011366Y003030D01*
X011367Y002932D02*
X011467Y002932D01*
X011467Y003030D02*
X016569Y003030D01*
X016471Y002932D02*
X012517Y002932D01*
X012517Y002833D02*
X016372Y002833D01*
X016274Y002735D02*
X012517Y002735D01*
X012517Y002636D02*
X016175Y002636D01*
X016668Y003129D02*
X012517Y003129D01*
X012517Y003227D02*
X016767Y003227D01*
X016865Y003326D02*
X012517Y003326D01*
X012517Y003424D02*
X016964Y003424D01*
X017062Y003523D02*
X012445Y003523D01*
X012347Y003621D02*
X017161Y003621D01*
X017744Y004016D02*
X013339Y004016D01*
X013438Y004114D02*
X017645Y004114D01*
X017547Y004213D02*
X013536Y004213D01*
X013635Y004311D02*
X017448Y004311D01*
X017350Y004410D02*
X013733Y004410D01*
X013794Y004508D02*
X017251Y004508D01*
X017152Y004607D02*
X013794Y004607D01*
X013794Y004705D02*
X017054Y004705D01*
X016955Y004804D02*
X013794Y004804D01*
X013794Y004903D02*
X016857Y004903D01*
X016758Y005001D02*
X013794Y005001D01*
X013794Y005100D02*
X016660Y005100D01*
X016561Y005198D02*
X013794Y005198D01*
X013794Y005297D02*
X016463Y005297D01*
X016364Y005395D02*
X013794Y005395D01*
X013761Y005494D02*
X016266Y005494D01*
X016167Y005592D02*
X013663Y005592D01*
X013564Y005691D02*
X016068Y005691D01*
X015970Y005789D02*
X013466Y005789D01*
X013367Y005888D02*
X015871Y005888D01*
X015773Y005987D02*
X013269Y005987D01*
X013170Y006085D02*
X015674Y006085D01*
X016808Y006972D02*
X017543Y006972D01*
X017522Y006993D02*
X017606Y006910D01*
X017803Y006713D01*
X017912Y006668D01*
X018030Y006668D01*
X018108Y006668D01*
X018241Y006668D01*
X018590Y006319D01*
X019231Y005678D01*
X019211Y005686D01*
X019093Y005686D01*
X018094Y005686D01*
X017942Y005838D01*
X016102Y007678D01*
X016102Y007701D01*
X016383Y007701D01*
X016644Y007961D01*
X016644Y008330D01*
X016383Y008590D01*
X016299Y008590D01*
X016299Y009189D01*
X016299Y009858D01*
X016299Y009976D01*
X016254Y010085D01*
X016231Y010108D01*
X016335Y010211D01*
X017845Y010211D01*
X017409Y009775D01*
X017409Y009775D01*
X017325Y009692D01*
X017280Y009583D01*
X017280Y008598D01*
X017280Y008480D01*
X017325Y008371D01*
X017522Y008174D01*
X017606Y008091D01*
X017667Y008065D01*
X017522Y007920D01*
X017477Y007811D01*
X017477Y007693D01*
X017477Y007299D01*
X017477Y007102D01*
X017522Y006993D01*
X017490Y007071D02*
X016710Y007071D01*
X016611Y007169D02*
X017477Y007169D01*
X017477Y007268D02*
X016512Y007268D01*
X016414Y007366D02*
X017477Y007366D01*
X017477Y007465D02*
X016315Y007465D01*
X016217Y007563D02*
X017477Y007563D01*
X017477Y007662D02*
X016118Y007662D01*
X015805Y007555D02*
X015805Y009720D01*
X015215Y010311D01*
X015215Y010508D01*
X014427Y011295D01*
X014427Y012033D01*
X014203Y012258D01*
X013959Y012721D02*
X013907Y012700D01*
X013794Y012587D01*
X013725Y012656D01*
X013725Y012861D01*
X013658Y013023D01*
X013959Y012721D01*
X013895Y012687D02*
X013725Y012687D01*
X013725Y012786D02*
X013895Y012786D01*
X013796Y012885D02*
X013715Y012885D01*
X013698Y012983D02*
X013674Y012983D01*
X013203Y012758D02*
X013640Y012321D01*
X013640Y012083D01*
X014231Y011492D01*
X014231Y011098D01*
X015018Y010311D01*
X015018Y010114D01*
X015609Y009523D01*
X015609Y007358D01*
X017774Y005193D01*
X017971Y004996D01*
X018955Y004996D01*
X019152Y005390D02*
X019546Y004996D01*
X019884Y004705D02*
X020204Y004705D01*
X020233Y004676D02*
X019990Y004919D01*
X019990Y004812D01*
X019781Y004602D01*
X019990Y004393D01*
X019990Y004089D01*
X020081Y004180D01*
X020233Y004331D01*
X020233Y004676D01*
X020233Y004607D02*
X019786Y004607D01*
X019875Y004508D02*
X020233Y004508D01*
X020233Y004410D02*
X019973Y004410D01*
X019990Y004311D02*
X020213Y004311D01*
X020114Y004213D02*
X019990Y004213D01*
X019990Y004114D02*
X020016Y004114D01*
X019546Y004209D02*
X019152Y003815D01*
X018364Y003815D01*
X017971Y004209D01*
X014231Y007949D01*
X014231Y009917D01*
X014034Y010114D01*
X012459Y011689D01*
X012459Y012002D01*
X012203Y012258D01*
X012671Y012490D02*
X012749Y012490D01*
X012761Y012462D02*
X012907Y012315D01*
X013046Y012258D01*
X012907Y012200D01*
X012761Y012053D01*
X012756Y012041D01*
X012756Y012061D01*
X012721Y012145D01*
X012725Y012154D01*
X012725Y012361D01*
X012645Y012553D01*
X012499Y012700D01*
X012307Y012780D01*
X012198Y012780D01*
X012582Y013164D01*
X012871Y013164D01*
X012761Y013053D01*
X012681Y012861D01*
X012681Y012654D01*
X012761Y012462D01*
X012712Y012392D02*
X012831Y012392D01*
X012725Y012293D02*
X012961Y012293D01*
X012902Y012195D02*
X012725Y012195D01*
X012741Y012096D02*
X012804Y012096D01*
X013203Y011758D02*
X013203Y011338D01*
X013246Y011295D01*
X014427Y010114D01*
X014427Y008539D01*
X014427Y008146D01*
X017774Y004799D01*
X017971Y004602D01*
X018364Y004209D01*
X019034Y004209D01*
X018704Y004508D02*
X018484Y004508D01*
X018487Y004505D02*
X018294Y004699D01*
X018623Y004699D01*
X018759Y004563D01*
X018701Y004505D01*
X018487Y004505D01*
X018386Y004607D02*
X018715Y004607D01*
X019230Y004642D02*
X019250Y004662D01*
X019310Y004602D01*
X019290Y004582D01*
X019230Y004642D01*
X019264Y004607D02*
X019305Y004607D01*
X019983Y004804D02*
X020105Y004804D01*
X020006Y004903D02*
X019990Y004903D01*
X019152Y005390D02*
X017971Y005390D01*
X017774Y005586D01*
X015805Y007555D01*
X015312Y007681D02*
X015182Y007811D01*
X015212Y007811D01*
X015312Y007852D01*
X015312Y007681D01*
X015312Y007760D02*
X015232Y007760D01*
X016002Y008342D02*
X016199Y008146D01*
X016002Y008342D02*
X016002Y009130D01*
X016002Y009917D01*
X015412Y010508D01*
X015412Y011295D01*
X015609Y011492D01*
X015609Y011886D01*
X016199Y012476D01*
X017971Y012476D01*
X018561Y013067D01*
X018758Y013264D01*
X018758Y015232D01*
X020333Y016807D01*
X020530Y017004D01*
X023286Y017004D01*
X023876Y016413D01*
X023876Y016216D01*
X023876Y015626D02*
X024467Y016216D01*
X023483Y017201D01*
X020333Y017201D01*
X018955Y015823D01*
X017774Y015823D01*
X016888Y016709D01*
X012164Y016709D01*
X010687Y016709D01*
X010687Y018897D01*
X011262Y019472D01*
X010715Y019487D02*
X010520Y019487D01*
X010480Y019586D02*
X010715Y019586D01*
X010715Y019684D02*
X010428Y019684D01*
X010446Y019666D02*
X010334Y019778D01*
X010794Y019778D01*
X010715Y019699D01*
X010715Y019345D01*
X010580Y019210D01*
X010580Y019344D01*
X010446Y019666D01*
X010561Y019388D02*
X010715Y019388D01*
X010660Y019290D02*
X010580Y019290D01*
X010390Y018617D02*
X010390Y017005D01*
X010367Y017005D01*
X010362Y017016D01*
X010209Y017169D01*
X010010Y017252D01*
X009200Y017252D01*
X009134Y017225D01*
X009134Y018499D01*
X009206Y018426D01*
X009529Y018292D01*
X009877Y018292D01*
X010200Y018426D01*
X010390Y018617D01*
X010390Y018600D02*
X010374Y018600D01*
X010390Y018502D02*
X010275Y018502D01*
X010390Y018403D02*
X010144Y018403D01*
X009907Y018304D02*
X010390Y018304D01*
X010390Y018206D02*
X009134Y018206D01*
X009134Y018304D02*
X009499Y018304D01*
X009261Y018403D02*
X009134Y018403D01*
X009134Y018107D02*
X010390Y018107D01*
X010390Y018009D02*
X009134Y018009D01*
X009134Y017910D02*
X010390Y017910D01*
X010390Y017812D02*
X009134Y017812D01*
X009134Y017713D02*
X010390Y017713D01*
X010390Y017615D02*
X009134Y017615D01*
X009134Y017516D02*
X010390Y017516D01*
X010390Y017418D02*
X009134Y017418D01*
X009134Y017319D02*
X010390Y017319D01*
X010390Y017220D02*
X010086Y017220D01*
X010257Y017122D02*
X010390Y017122D01*
X010390Y017023D02*
X010355Y017023D01*
X010687Y016709D02*
X009605Y016709D01*
X010010Y016165D02*
X010209Y016248D01*
X010362Y016401D01*
X010367Y016412D01*
X010628Y016412D01*
X010746Y016412D01*
X011401Y016412D01*
X011406Y016401D01*
X011559Y016248D01*
X011759Y016165D01*
X012569Y016165D01*
X012768Y016248D01*
X012921Y016401D01*
X012926Y016412D01*
X016765Y016412D01*
X017522Y015654D01*
X017606Y015571D01*
X017715Y015526D01*
X018632Y015526D01*
X018506Y015400D01*
X018461Y015291D01*
X018461Y015173D01*
X018461Y013599D01*
X018352Y013709D01*
X017983Y013709D01*
X017723Y013448D01*
X017723Y013238D01*
X017454Y012970D01*
X015943Y012970D01*
X015834Y012925D01*
X015751Y012841D01*
X015650Y012740D01*
X015650Y012766D01*
X015567Y012967D01*
X015413Y013121D01*
X015212Y013205D01*
X014994Y013205D01*
X014981Y013199D01*
X014574Y013606D01*
X014649Y013606D01*
X014850Y013406D01*
X014959Y013360D01*
X015077Y013360D01*
X015473Y013360D01*
X015621Y013212D01*
X015990Y013212D01*
X016250Y013473D01*
X016250Y013842D01*
X015990Y014102D01*
X015621Y014102D01*
X015473Y013954D01*
X015141Y013954D01*
X015069Y014026D01*
X015069Y014235D01*
X014809Y014496D01*
X014440Y014496D01*
X014179Y014235D01*
X014179Y014001D01*
X013346Y014834D01*
X013346Y015370D01*
X013346Y015488D01*
X013301Y015597D01*
X012824Y016074D01*
X012715Y016119D01*
X012597Y016119D01*
X011610Y016119D01*
X011462Y016268D01*
X011093Y016268D01*
X010833Y016007D01*
X010833Y015638D01*
X011093Y015378D01*
X011462Y015378D01*
X011610Y015526D01*
X012533Y015526D01*
X012753Y015306D01*
X012753Y015277D01*
X012714Y015316D01*
X012549Y015384D01*
X012212Y015384D01*
X012212Y014986D01*
X012115Y014986D01*
X012115Y015384D01*
X011778Y015384D01*
X011614Y015316D01*
X011488Y015190D01*
X011420Y015026D01*
X011420Y014985D01*
X012115Y014985D01*
X012115Y014888D01*
X012212Y014888D01*
X012212Y014490D01*
X012549Y014490D01*
X012714Y014558D01*
X012769Y014613D01*
X012798Y014543D01*
X012881Y014460D01*
X013584Y013757D01*
X013581Y013757D01*
X012518Y013757D01*
X012400Y013757D01*
X012291Y013712D01*
X011615Y013036D01*
X011615Y013299D01*
X011506Y013561D01*
X011306Y013761D01*
X011045Y013870D01*
X010761Y013870D01*
X010500Y013761D01*
X010300Y013561D01*
X010257Y013458D01*
X010205Y013510D01*
X009879Y013645D01*
X009527Y013645D01*
X009201Y013510D01*
X009134Y013443D01*
X009134Y014525D01*
X009219Y014490D01*
X009556Y014490D01*
X009556Y014888D01*
X009653Y014888D01*
X009653Y014490D01*
X009990Y014490D01*
X010155Y014558D01*
X010280Y014684D01*
X010348Y014848D01*
X010348Y014888D01*
X009653Y014888D01*
X009653Y014985D01*
X010348Y014985D01*
X010348Y015026D01*
X010280Y015190D01*
X010155Y015316D01*
X009990Y015384D01*
X009653Y015384D01*
X009653Y014986D01*
X009556Y014986D01*
X009556Y015384D01*
X009219Y015384D01*
X009134Y015348D01*
X009134Y016192D01*
X009200Y016165D01*
X010010Y016165D01*
X010179Y016235D02*
X011061Y016235D01*
X010962Y016136D02*
X009134Y016136D01*
X009134Y016038D02*
X010864Y016038D01*
X010833Y015939D02*
X009134Y015939D01*
X009134Y015841D02*
X010833Y015841D01*
X010833Y015742D02*
X009134Y015742D01*
X009134Y015644D02*
X010833Y015644D01*
X010926Y015545D02*
X009134Y015545D01*
X009134Y015447D02*
X011024Y015447D01*
X011278Y015823D02*
X012656Y015823D01*
X013049Y015429D01*
X013049Y014711D01*
X015103Y012658D01*
X014497Y013264D01*
X014705Y013476D02*
X014780Y013476D01*
X014803Y013377D02*
X014918Y013377D01*
X014902Y013279D02*
X015555Y013279D01*
X015452Y013082D02*
X017566Y013082D01*
X017664Y013180D02*
X015271Y013180D01*
X015551Y012983D02*
X017467Y012983D01*
X017723Y013279D02*
X016056Y013279D01*
X016155Y013377D02*
X017723Y013377D01*
X017751Y013476D02*
X016250Y013476D01*
X016250Y013574D02*
X017849Y013574D01*
X017948Y013673D02*
X016250Y013673D01*
X016250Y013771D02*
X018461Y013771D01*
X018461Y013673D02*
X018387Y013673D01*
X018461Y013870D02*
X016222Y013870D01*
X016123Y013969D02*
X018461Y013969D01*
X018461Y014067D02*
X016025Y014067D01*
X015586Y014067D02*
X015069Y014067D01*
X015069Y014166D02*
X018461Y014166D01*
X018461Y014264D02*
X015040Y014264D01*
X014942Y014363D02*
X018461Y014363D01*
X018461Y014461D02*
X014843Y014461D01*
X014405Y014461D02*
X013719Y014461D01*
X013818Y014363D02*
X014307Y014363D01*
X014208Y014264D02*
X013916Y014264D01*
X014015Y014166D02*
X014179Y014166D01*
X014179Y014067D02*
X014113Y014067D01*
X014624Y014051D02*
X015018Y013657D01*
X015805Y013657D01*
X015487Y013969D02*
X015126Y013969D01*
X014681Y013574D02*
X014606Y013574D01*
X013640Y013460D02*
X014939Y012161D01*
X015490Y012161D01*
X016002Y012673D01*
X017577Y012673D01*
X018168Y013264D01*
X018955Y013067D02*
X019546Y013657D01*
X019546Y013854D01*
X019546Y014051D01*
X019939Y014445D01*
X020136Y014445D01*
X020333Y014445D01*
X020530Y014642D01*
X020530Y015232D01*
X020530Y015823D01*
X020923Y016216D01*
X021514Y016216D01*
X021182Y015920D02*
X021330Y015771D01*
X021698Y015771D01*
X021700Y015773D01*
X021700Y015695D01*
X020914Y015695D01*
X020827Y015659D01*
X020827Y015700D01*
X021046Y015920D01*
X021182Y015920D01*
X021260Y015841D02*
X020968Y015841D01*
X020869Y015742D02*
X021700Y015742D01*
X020857Y016510D02*
X020844Y016505D01*
X020850Y016510D01*
X020857Y016510D01*
X020727Y016807D02*
X023089Y016807D01*
X023286Y016610D01*
X023286Y015626D01*
X023286Y015429D01*
X023483Y015232D01*
X023679Y015035D01*
X023679Y014838D01*
X023996Y015151D02*
X024163Y015151D01*
X024129Y015250D02*
X024261Y015250D01*
X024299Y015287D02*
X024079Y015068D01*
X023966Y015181D01*
X024061Y015181D01*
X024321Y015441D01*
X024321Y015651D01*
X024564Y015893D01*
X024564Y015685D01*
X024564Y015552D01*
X024299Y015287D01*
X024299Y015287D01*
X024360Y015348D02*
X024228Y015348D01*
X024321Y015447D02*
X024458Y015447D01*
X024557Y015545D02*
X024321Y015545D01*
X024321Y015644D02*
X024564Y015644D01*
X024564Y015742D02*
X024412Y015742D01*
X024511Y015841D02*
X024564Y015841D01*
X024860Y015626D02*
X024860Y015429D01*
X024467Y015035D01*
X023581Y014149D01*
X023128Y013697D01*
X021750Y013697D01*
X021514Y013657D01*
X020716Y013673D02*
X020502Y013673D01*
X020502Y013670D02*
X020502Y014038D01*
X020393Y014148D01*
X020501Y014193D01*
X020698Y014390D01*
X020716Y014408D01*
X020716Y014140D01*
X020749Y014061D01*
X020716Y013982D01*
X020716Y013560D01*
X020456Y013560D01*
X020424Y013592D01*
X020502Y013670D01*
X020502Y013771D02*
X020716Y013771D01*
X020716Y013870D02*
X020502Y013870D01*
X020502Y013969D02*
X020716Y013969D01*
X020746Y014067D02*
X020474Y014067D01*
X020435Y014166D02*
X020716Y014166D01*
X020716Y014264D02*
X020572Y014264D01*
X020671Y014363D02*
X020716Y014363D01*
X020057Y013854D02*
X020057Y013539D01*
X020254Y013342D01*
X020333Y013264D01*
X024073Y013264D01*
X024270Y013460D01*
X023853Y013673D02*
X023524Y013673D01*
X023426Y013574D02*
X023825Y013574D01*
X023825Y013560D02*
X023412Y013560D01*
X023833Y013981D01*
X024564Y014712D01*
X024564Y013796D01*
X024454Y013905D01*
X024086Y013905D01*
X023825Y013645D01*
X023825Y013560D01*
X023952Y013771D02*
X023623Y013771D01*
X023721Y013870D02*
X024050Y013870D01*
X023918Y014067D02*
X024564Y014067D01*
X024564Y013969D02*
X023820Y013969D01*
X024017Y014166D02*
X024564Y014166D01*
X024564Y014264D02*
X024115Y014264D01*
X024214Y014363D02*
X024564Y014363D01*
X024564Y014461D02*
X024313Y014461D01*
X024411Y014560D02*
X024564Y014560D01*
X024564Y014658D02*
X024510Y014658D01*
X024490Y013870D02*
X024564Y013870D01*
X024564Y013125D02*
X024454Y013016D01*
X024245Y013016D01*
X024241Y013012D01*
X024132Y012967D01*
X022688Y012967D01*
X022688Y012762D01*
X021800Y012762D01*
X021800Y012662D01*
X021800Y012326D01*
X022600Y012326D01*
X022688Y012414D01*
X022688Y012662D01*
X021800Y012662D01*
X021700Y012662D01*
X021700Y012326D01*
X020901Y012326D01*
X020813Y012414D01*
X020813Y012662D01*
X021700Y012662D01*
X021700Y012762D01*
X020813Y012762D01*
X020813Y012967D01*
X020392Y012967D01*
X020274Y012967D01*
X020165Y013012D01*
X020086Y013091D01*
X019889Y013288D01*
X019806Y013371D01*
X019769Y013461D01*
X019714Y013406D01*
X019123Y012815D01*
X017900Y011592D01*
X018108Y011592D01*
X018227Y011592D01*
X018336Y011547D01*
X018729Y011153D01*
X018842Y011041D01*
X018975Y011041D01*
X019770Y011041D01*
X019770Y011164D01*
X020030Y011425D01*
X020399Y011425D01*
X020516Y011308D01*
X020516Y011308D01*
X020716Y011507D01*
X020716Y012014D01*
X020754Y012104D01*
X020823Y012174D01*
X020914Y012211D01*
X022587Y012211D01*
X022677Y012174D01*
X022747Y012104D01*
X022784Y012014D01*
X022784Y011443D01*
X022747Y011352D01*
X022677Y011283D01*
X022628Y011262D01*
X022628Y011210D01*
X022677Y011189D01*
X022747Y011120D01*
X022784Y011029D01*
X022784Y010459D01*
X022747Y010368D01*
X022677Y010298D01*
X022587Y010261D01*
X020914Y010261D01*
X020904Y010265D01*
X020462Y009823D01*
X020353Y009778D01*
X020311Y009778D01*
X020163Y009630D01*
X019953Y009630D01*
X019399Y009075D01*
X019290Y009030D01*
X019171Y009030D01*
X018303Y009030D01*
X018155Y008882D01*
X017874Y008882D01*
X017874Y008662D01*
X017897Y008639D01*
X017912Y008639D01*
X018045Y008639D01*
X018113Y008707D01*
X018196Y008791D01*
X018305Y008836D01*
X018896Y008836D01*
X019486Y008836D01*
X019683Y008836D01*
X019801Y008836D01*
X019911Y008791D01*
X020585Y008117D01*
X020585Y008117D01*
X020698Y008003D01*
X020716Y007985D01*
X020716Y008076D01*
X020754Y008167D01*
X020823Y008237D01*
X020914Y008274D01*
X022587Y008274D01*
X022597Y008270D01*
X022642Y008315D01*
X022587Y008292D01*
X020914Y008292D01*
X020823Y008330D01*
X020754Y008399D01*
X020716Y008490D01*
X020716Y008766D01*
X020714Y008764D01*
X020345Y008764D01*
X020085Y009024D01*
X020085Y009393D01*
X020345Y009653D01*
X020714Y009653D01*
X020744Y009623D01*
X020813Y009623D01*
X020813Y009710D01*
X021700Y009710D01*
X021700Y009810D01*
X021700Y010146D01*
X020901Y010146D01*
X020813Y010058D01*
X020813Y009810D01*
X021700Y009810D01*
X021800Y009810D01*
X021800Y010146D01*
X022600Y010146D01*
X022688Y010058D01*
X022688Y009810D01*
X021800Y009810D01*
X021800Y009710D01*
X022688Y009710D01*
X022688Y009623D01*
X023163Y009623D01*
X023186Y009646D01*
X023186Y011827D01*
X023186Y011945D01*
X023231Y012054D01*
X023428Y012251D01*
X023511Y012334D01*
X023620Y012379D01*
X024344Y012379D01*
X024564Y012599D01*
X024564Y012929D01*
X024564Y013125D01*
X024564Y013082D02*
X024520Y013082D01*
X024564Y012983D02*
X024172Y012983D01*
X024034Y012712D02*
X023286Y012712D01*
X023286Y012476D01*
X023286Y010508D01*
X022498Y009720D01*
X021593Y009720D01*
X021750Y009760D01*
X021671Y009681D01*
X021278Y009681D01*
X020097Y009681D01*
X019546Y009130D01*
X019152Y008736D01*
X017971Y008736D01*
X017874Y008746D02*
X018151Y008746D01*
X018053Y008647D02*
X017889Y008647D01*
X017874Y008844D02*
X020265Y008844D01*
X020166Y008943D02*
X018216Y008943D01*
X018364Y008539D02*
X018955Y008539D01*
X019546Y008539D01*
X019742Y008539D01*
X020333Y007949D01*
X020530Y007752D01*
X020645Y008056D02*
X020716Y008056D01*
X020748Y008154D02*
X020547Y008154D01*
X020448Y008253D02*
X020863Y008253D01*
X020801Y008352D02*
X020350Y008352D01*
X020251Y008450D02*
X020733Y008450D01*
X020716Y008549D02*
X020153Y008549D01*
X020054Y008647D02*
X020716Y008647D01*
X020716Y008746D02*
X019956Y008746D01*
X020085Y009041D02*
X019318Y009041D01*
X019464Y009140D02*
X020085Y009140D01*
X020085Y009238D02*
X019562Y009238D01*
X019661Y009337D02*
X020085Y009337D01*
X020128Y009436D02*
X019759Y009436D01*
X019858Y009534D02*
X020226Y009534D01*
X020166Y009633D02*
X020325Y009633D01*
X020264Y009731D02*
X021700Y009731D01*
X021700Y009830D02*
X021800Y009830D01*
X021800Y009928D02*
X021700Y009928D01*
X021700Y010027D02*
X021800Y010027D01*
X021800Y010125D02*
X021700Y010125D01*
X021800Y009731D02*
X023186Y009731D01*
X023186Y009830D02*
X022688Y009830D01*
X022688Y009928D02*
X023186Y009928D01*
X023186Y010027D02*
X022688Y010027D01*
X022620Y010125D02*
X023186Y010125D01*
X023186Y010224D02*
X020863Y010224D01*
X020880Y010125D02*
X020764Y010125D01*
X020813Y010027D02*
X020665Y010027D01*
X020567Y009928D02*
X020813Y009928D01*
X020813Y009830D02*
X020468Y009830D01*
X020735Y009633D02*
X020813Y009633D01*
X020648Y009327D02*
X020530Y009209D01*
X020648Y009327D02*
X023286Y009327D01*
X023483Y009523D01*
X023483Y011886D01*
X023679Y012083D01*
X024467Y012083D01*
X024860Y012476D01*
X024860Y011295D01*
X024860Y009720D01*
X025057Y009523D01*
X026829Y009523D01*
X027223Y009996D01*
X028010Y009996D01*
X029112Y011098D01*
X029388Y011098D01*
X029782Y011295D02*
X029880Y011394D01*
X029782Y011295D01*
X029782Y007949D01*
X029388Y007555D01*
X028601Y006768D01*
X028601Y006374D01*
X028601Y005390D01*
X028601Y004405D01*
X029191Y003815D01*
X029388Y003815D01*
X029585Y003815D01*
X029782Y003618D01*
X030372Y003027D01*
X029979Y002831D02*
X029979Y001256D01*
X029821Y001098D01*
X028049Y001098D01*
X027420Y001543D02*
X026908Y002055D01*
X026908Y002949D01*
X026435Y003421D01*
X026435Y006177D01*
X026435Y006571D01*
X026829Y006964D01*
X027123Y006629D02*
X027123Y006497D01*
X026858Y006232D01*
X026774Y006148D01*
X026732Y006047D01*
X026732Y006118D01*
X026732Y006448D01*
X026804Y006519D01*
X027013Y006519D01*
X027123Y006629D01*
X027123Y006578D02*
X027072Y006578D01*
X027105Y006479D02*
X026764Y006479D01*
X026732Y006381D02*
X027007Y006381D01*
X026908Y006282D02*
X026732Y006282D01*
X026732Y006184D02*
X026809Y006184D01*
X026858Y006232D02*
X026858Y006232D01*
X026748Y006085D02*
X026732Y006085D01*
X027420Y005783D02*
X027616Y005980D01*
X027616Y006768D01*
X027616Y006964D01*
X027616Y008539D01*
X027380Y008775D01*
X021750Y008775D01*
X022762Y008435D02*
X022805Y008479D01*
X022780Y008479D01*
X022762Y008435D01*
X022768Y008450D02*
X022777Y008450D01*
X023222Y008056D02*
X024732Y008056D01*
X024634Y007957D02*
X023124Y007957D01*
X023025Y007859D02*
X024612Y007859D01*
X024612Y007760D02*
X022927Y007760D01*
X022828Y007662D02*
X024612Y007662D01*
X024617Y007563D02*
X022784Y007563D01*
X022767Y007465D02*
X024715Y007465D01*
X024814Y007366D02*
X022698Y007366D01*
X022671Y007268D02*
X022641Y007268D01*
X023192Y007268D02*
X025122Y007268D01*
X025220Y007169D02*
X023324Y007169D01*
X023414Y007071D02*
X025319Y007071D01*
X025351Y006972D02*
X023455Y006972D01*
X023493Y006873D02*
X025351Y006873D01*
X025351Y006775D02*
X023493Y006775D01*
X023493Y006676D02*
X025351Y006676D01*
X025351Y006578D02*
X023461Y006578D01*
X023420Y006479D02*
X025351Y006479D01*
X025351Y006381D02*
X023339Y006381D01*
X023228Y006282D02*
X025351Y006282D01*
X025351Y006184D02*
X023160Y006184D01*
X023160Y006085D02*
X025351Y006085D01*
X025351Y005987D02*
X023160Y005987D01*
X023160Y005789D02*
X025351Y005789D01*
X025351Y005691D02*
X023160Y005691D01*
X023160Y005592D02*
X025351Y005592D01*
X025351Y005494D02*
X023160Y005494D01*
X023110Y005395D02*
X025351Y005395D01*
X025351Y005297D02*
X021633Y005297D01*
X021534Y005395D02*
X021808Y005395D01*
X021846Y005358D02*
X022409Y005358D01*
X022409Y005851D01*
X021758Y005851D01*
X021758Y005446D01*
X021846Y005358D01*
X021758Y005494D02*
X021436Y005494D01*
X021337Y005592D02*
X021758Y005592D01*
X021758Y005691D02*
X021239Y005691D01*
X021140Y005789D02*
X021758Y005789D01*
X021758Y005987D02*
X020943Y005987D01*
X020845Y006085D02*
X021758Y006085D01*
X021758Y006184D02*
X020827Y006184D01*
X020827Y006282D02*
X021758Y006282D01*
X022409Y005888D02*
X021042Y005888D01*
X021514Y004602D02*
X019742Y006374D01*
X019120Y005789D02*
X017991Y005789D01*
X018089Y005691D02*
X019218Y005691D01*
X019021Y005888D02*
X017892Y005888D01*
X017794Y005987D02*
X018922Y005987D01*
X018824Y006085D02*
X017695Y006085D01*
X017596Y006184D02*
X018725Y006184D01*
X018627Y006282D02*
X017498Y006282D01*
X017399Y006381D02*
X018528Y006381D01*
X018430Y006479D02*
X017301Y006479D01*
X017202Y006578D02*
X018331Y006578D01*
X017890Y006676D02*
X017104Y006676D01*
X017005Y006775D02*
X017740Y006775D01*
X017642Y006873D02*
X016907Y006873D01*
X017606Y006910D02*
X017606Y006910D01*
X017477Y007760D02*
X016443Y007760D01*
X016542Y007859D02*
X017497Y007859D01*
X017560Y007957D02*
X016640Y007957D01*
X016644Y008056D02*
X017658Y008056D01*
X017542Y008154D02*
X016644Y008154D01*
X016644Y008253D02*
X017443Y008253D01*
X017345Y008352D02*
X016622Y008352D01*
X016524Y008450D02*
X017293Y008450D01*
X017280Y008549D02*
X016425Y008549D01*
X016299Y008647D02*
X017280Y008647D01*
X017280Y008746D02*
X016299Y008746D01*
X016299Y008844D02*
X017280Y008844D01*
X017280Y008943D02*
X016299Y008943D01*
X016299Y009041D02*
X017280Y009041D01*
X017280Y009140D02*
X016299Y009140D01*
X016299Y009238D02*
X017280Y009238D01*
X017280Y009337D02*
X016299Y009337D01*
X016299Y009436D02*
X017280Y009436D01*
X017280Y009534D02*
X016299Y009534D01*
X016299Y009633D02*
X017301Y009633D01*
X017365Y009731D02*
X016299Y009731D01*
X016299Y009830D02*
X017464Y009830D01*
X017562Y009928D02*
X016299Y009928D01*
X016278Y010027D02*
X017661Y010027D01*
X017759Y010125D02*
X016249Y010125D01*
X016002Y010508D02*
X017892Y010508D01*
X018089Y010705D01*
X017753Y010998D02*
X017644Y010889D01*
X017644Y010805D01*
X016335Y010805D01*
X016186Y010953D01*
X015818Y010953D01*
X015708Y010843D01*
X015708Y011172D01*
X015777Y011240D01*
X015799Y011263D01*
X015818Y011244D01*
X016027Y011244D01*
X016144Y011127D01*
X016228Y011043D01*
X016337Y010998D01*
X017321Y010998D01*
X017753Y010998D01*
X017669Y010914D02*
X016225Y010914D01*
X016303Y011012D02*
X015708Y011012D01*
X015708Y010914D02*
X015779Y010914D01*
X015708Y011111D02*
X016160Y011111D01*
X016062Y011209D02*
X015746Y011209D01*
X016002Y011689D02*
X016396Y011295D01*
X017380Y011295D01*
X018168Y011295D01*
X018561Y010901D01*
X018719Y010744D01*
X018916Y010744D01*
X019979Y010744D01*
X020215Y010980D01*
X019815Y011209D02*
X018673Y011209D01*
X018772Y011111D02*
X019770Y011111D01*
X019913Y011308D02*
X018575Y011308D01*
X018476Y011406D02*
X020012Y011406D01*
X019742Y011531D02*
X020372Y012161D01*
X020609Y012397D01*
X020609Y011571D01*
X020530Y011492D01*
X020615Y011406D02*
X020418Y011406D01*
X020714Y011505D02*
X018377Y011505D01*
X018109Y011801D02*
X020716Y011801D01*
X020716Y011899D02*
X018207Y011899D01*
X018306Y011998D02*
X020716Y011998D01*
X020750Y012096D02*
X018404Y012096D01*
X018503Y012195D02*
X020874Y012195D01*
X020835Y012392D02*
X018700Y012392D01*
X018798Y012490D02*
X020813Y012490D01*
X020813Y012589D02*
X018897Y012589D01*
X018995Y012687D02*
X021700Y012687D01*
X021750Y012712D02*
X020923Y012712D01*
X020609Y012397D01*
X020813Y012786D02*
X019094Y012786D01*
X019193Y012885D02*
X020813Y012885D01*
X020234Y012983D02*
X019291Y012983D01*
X019390Y013082D02*
X020095Y013082D01*
X019996Y013180D02*
X019488Y013180D01*
X019587Y013279D02*
X019898Y013279D01*
X019803Y013377D02*
X019685Y013377D01*
X019249Y013780D02*
X019055Y013586D01*
X019055Y015109D01*
X019839Y015893D01*
X019839Y015764D01*
X019839Y015368D01*
X019691Y015220D01*
X019691Y014851D01*
X019824Y014718D01*
X019771Y014696D01*
X019688Y014613D01*
X019294Y014219D01*
X019249Y014110D01*
X019249Y013992D01*
X019249Y013795D01*
X019249Y013780D01*
X019240Y013771D02*
X019055Y013771D01*
X019055Y013673D02*
X019141Y013673D01*
X019055Y013870D02*
X019249Y013870D01*
X019249Y013969D02*
X019055Y013969D01*
X019055Y014067D02*
X019249Y014067D01*
X019272Y014166D02*
X019055Y014166D01*
X019055Y014264D02*
X019339Y014264D01*
X019437Y014363D02*
X019055Y014363D01*
X019055Y014461D02*
X019536Y014461D01*
X019634Y014560D02*
X019055Y014560D01*
X019055Y014658D02*
X019733Y014658D01*
X019785Y014757D02*
X019055Y014757D01*
X019055Y014855D02*
X019691Y014855D01*
X019691Y014954D02*
X019055Y014954D01*
X019055Y015053D02*
X019691Y015053D01*
X019691Y015151D02*
X019097Y015151D01*
X019195Y015250D02*
X019721Y015250D01*
X019820Y015348D02*
X019294Y015348D01*
X019392Y015447D02*
X019839Y015447D01*
X019839Y015545D02*
X019491Y015545D01*
X019590Y015644D02*
X019839Y015644D01*
X019839Y015742D02*
X019688Y015742D01*
X019787Y015841D02*
X019839Y015841D01*
X020136Y015823D02*
X020136Y016216D01*
X020727Y016807D01*
X019813Y017101D02*
X018832Y016119D01*
X018700Y016119D01*
X018809Y016229D01*
X018809Y016598D01*
X018549Y016858D01*
X018180Y016858D01*
X018032Y016710D01*
X017700Y016710D01*
X017309Y017101D01*
X019813Y017101D01*
X019736Y017023D02*
X017387Y017023D01*
X017485Y016925D02*
X019637Y016925D01*
X019539Y016826D02*
X018581Y016826D01*
X018679Y016728D02*
X019440Y016728D01*
X019342Y016629D02*
X018778Y016629D01*
X018809Y016531D02*
X019243Y016531D01*
X019145Y016432D02*
X018809Y016432D01*
X018809Y016334D02*
X019046Y016334D01*
X018948Y016235D02*
X018809Y016235D01*
X018849Y016136D02*
X018717Y016136D01*
X018364Y016413D02*
X017577Y016413D01*
X016986Y017004D01*
X014731Y017004D01*
X013262Y018472D01*
X012854Y018107D02*
X012670Y018107D01*
X012762Y018199D02*
X012489Y017925D01*
X012036Y017925D01*
X011715Y018246D01*
X011715Y018509D01*
X011702Y018522D01*
X011312Y018522D01*
X011312Y018422D01*
X011312Y018022D01*
X011448Y018022D01*
X011712Y018286D01*
X011712Y018422D01*
X011312Y018422D01*
X011212Y018422D01*
X011212Y018022D01*
X011076Y018022D01*
X010984Y018114D01*
X010984Y017005D01*
X011401Y017005D01*
X011406Y017016D01*
X011559Y017169D01*
X011759Y017252D01*
X012569Y017252D01*
X012768Y017169D01*
X012921Y017016D01*
X012926Y017005D01*
X014309Y017005D01*
X013389Y017925D01*
X013036Y017925D01*
X012762Y018199D01*
X012572Y018009D02*
X012952Y018009D01*
X013404Y017910D02*
X010984Y017910D01*
X010984Y017812D02*
X013503Y017812D01*
X013601Y017713D02*
X010984Y017713D01*
X010984Y017615D02*
X013700Y017615D01*
X013798Y017516D02*
X010984Y017516D01*
X010984Y017418D02*
X013897Y017418D01*
X013995Y017319D02*
X010984Y017319D01*
X010984Y017220D02*
X011682Y017220D01*
X011511Y017122D02*
X010984Y017122D01*
X010984Y017023D02*
X011413Y017023D01*
X011473Y016334D02*
X010295Y016334D01*
X011495Y016235D02*
X011589Y016235D01*
X011593Y016136D02*
X017040Y016136D01*
X017139Y016038D02*
X012860Y016038D01*
X012959Y015939D02*
X017237Y015939D01*
X017336Y015841D02*
X013057Y015841D01*
X013156Y015742D02*
X017434Y015742D01*
X017533Y015644D02*
X013254Y015644D01*
X013323Y015545D02*
X017668Y015545D01*
X018485Y015348D02*
X013346Y015348D01*
X013346Y015250D02*
X018461Y015250D01*
X018461Y015151D02*
X013346Y015151D01*
X013346Y015053D02*
X018461Y015053D01*
X018461Y014954D02*
X013346Y014954D01*
X013346Y014855D02*
X018461Y014855D01*
X018461Y014757D02*
X013424Y014757D01*
X013522Y014658D02*
X018461Y014658D01*
X018461Y014560D02*
X013621Y014560D01*
X013077Y014264D02*
X009134Y014264D01*
X009134Y014166D02*
X013175Y014166D01*
X013274Y014067D02*
X009134Y014067D01*
X009134Y013969D02*
X013372Y013969D01*
X013471Y013870D02*
X009134Y013870D01*
X009134Y013771D02*
X010525Y013771D01*
X010412Y013673D02*
X009134Y013673D01*
X009134Y013574D02*
X009357Y013574D01*
X009167Y013476D02*
X009134Y013476D01*
X010049Y013574D02*
X010313Y013574D01*
X010264Y013476D02*
X010239Y013476D01*
X011281Y013771D02*
X013569Y013771D01*
X013640Y013460D02*
X012459Y013460D01*
X011671Y012673D01*
X011671Y012083D01*
X013837Y009917D01*
X013837Y009392D01*
X013203Y008758D01*
X013681Y008549D02*
X013934Y008549D01*
X013934Y008647D02*
X013722Y008647D01*
X013725Y008746D02*
X013934Y008746D01*
X013934Y008844D02*
X013725Y008844D01*
X013808Y008943D02*
X013934Y008943D01*
X013934Y009041D02*
X013906Y009041D01*
X013934Y008450D02*
X013633Y008450D01*
X013535Y008352D02*
X013934Y008352D01*
X013934Y008253D02*
X013348Y008253D01*
X013058Y008253D02*
X012725Y008253D01*
X012725Y008154D02*
X013934Y008154D01*
X013934Y008056D02*
X012725Y008056D01*
X012725Y007957D02*
X013934Y007957D01*
X013946Y007859D02*
X012694Y007859D01*
X012586Y007760D02*
X013999Y007760D01*
X014098Y007662D02*
X011592Y007662D01*
X011615Y007760D02*
X011820Y007760D01*
X011712Y007859D02*
X011615Y007859D01*
X011615Y007957D02*
X011681Y007957D01*
X011681Y008056D02*
X011591Y008056D01*
X011551Y008154D02*
X011681Y008154D01*
X011671Y008146D02*
X010884Y008933D01*
X010884Y012279D01*
X011671Y013067D01*
X011671Y014445D01*
X012164Y014937D01*
X012115Y014954D02*
X009653Y014954D01*
X009653Y015053D02*
X009556Y015053D01*
X009556Y015151D02*
X009653Y015151D01*
X009653Y015250D02*
X009556Y015250D01*
X009556Y015348D02*
X009653Y015348D01*
X010076Y015348D02*
X011692Y015348D01*
X011548Y015250D02*
X010221Y015250D01*
X010296Y015151D02*
X011472Y015151D01*
X011431Y015053D02*
X010337Y015053D01*
X010348Y014855D02*
X011420Y014855D01*
X011420Y014848D02*
X011488Y014684D01*
X011614Y014558D01*
X011778Y014490D01*
X012115Y014490D01*
X012115Y014888D01*
X011420Y014888D01*
X011420Y014848D01*
X011458Y014757D02*
X010310Y014757D01*
X010255Y014658D02*
X011513Y014658D01*
X011612Y014560D02*
X010156Y014560D01*
X009653Y014560D02*
X009556Y014560D01*
X009556Y014658D02*
X009653Y014658D01*
X009653Y014757D02*
X009556Y014757D01*
X009556Y014855D02*
X009653Y014855D01*
X009134Y014461D02*
X012880Y014461D01*
X012791Y014560D02*
X012715Y014560D01*
X012978Y014363D02*
X009134Y014363D01*
X011394Y013673D02*
X012252Y013673D01*
X012153Y013574D02*
X011493Y013574D01*
X011542Y013476D02*
X012054Y013476D01*
X011956Y013377D02*
X011583Y013377D01*
X011615Y013279D02*
X011857Y013279D01*
X011759Y013180D02*
X011615Y013180D01*
X011615Y013082D02*
X011660Y013082D01*
X011375Y012589D02*
X011341Y012589D01*
X011375Y012490D02*
X011152Y012490D01*
X011375Y012392D02*
X010511Y012392D01*
X010552Y012490D02*
X010654Y012490D01*
X010471Y012293D02*
X011375Y012293D01*
X011375Y012195D02*
X010394Y012195D01*
X010296Y012096D02*
X011375Y012096D01*
X011385Y011998D02*
X010186Y011998D01*
X009948Y011899D02*
X011435Y011899D01*
X011534Y011801D02*
X009134Y011801D01*
X009134Y011899D02*
X009458Y011899D01*
X009220Y011998D02*
X009134Y011998D01*
X009134Y011702D02*
X011632Y011702D01*
X011548Y011604D02*
X009134Y011604D01*
X009134Y011505D02*
X011449Y011505D01*
X011423Y011406D02*
X009134Y011406D01*
X009134Y011308D02*
X011423Y011308D01*
X011423Y011209D02*
X009134Y011209D01*
X009134Y011111D02*
X011055Y011111D01*
X010956Y011012D02*
X009134Y011012D01*
X009134Y010914D02*
X010858Y010914D01*
X010833Y010815D02*
X009134Y010815D01*
X009134Y010717D02*
X010833Y010717D01*
X010833Y010618D02*
X009134Y010618D01*
X009134Y010520D02*
X010834Y010520D01*
X010932Y010421D02*
X009134Y010421D01*
X009134Y010322D02*
X010981Y010322D01*
X010981Y010224D02*
X009134Y010224D01*
X009134Y010125D02*
X010981Y010125D01*
X010981Y010027D02*
X009134Y010027D01*
X009134Y009928D02*
X010981Y009928D01*
X010981Y009830D02*
X009134Y009830D01*
X009134Y009731D02*
X010981Y009731D01*
X010981Y009633D02*
X009134Y009633D01*
X009134Y009534D02*
X010981Y009534D01*
X010981Y009436D02*
X009134Y009436D01*
X009134Y009337D02*
X010981Y009337D01*
X010981Y009238D02*
X009134Y009238D01*
X009134Y009140D02*
X009515Y009140D01*
X009278Y009041D02*
X009134Y009041D01*
X009891Y009140D02*
X010981Y009140D01*
X011015Y009041D02*
X010128Y009041D01*
X010272Y008943D02*
X011098Y008943D01*
X011197Y008844D02*
X010371Y008844D01*
X010461Y008746D02*
X011295Y008746D01*
X011394Y008647D02*
X010502Y008647D01*
X010542Y008549D02*
X010711Y008549D01*
X011095Y008549D02*
X011492Y008549D01*
X011591Y008450D02*
X011317Y008450D01*
X011416Y008352D02*
X011681Y008352D01*
X011681Y008253D02*
X011510Y008253D01*
X011671Y008146D02*
X011671Y007161D01*
X010486Y007268D02*
X009134Y007268D01*
X009134Y007366D02*
X010388Y007366D01*
X010295Y007465D02*
X010106Y007465D01*
X009300Y007465D02*
X009134Y007465D01*
X009134Y007563D02*
X009143Y007563D01*
X011278Y009183D02*
X011278Y009917D01*
X011278Y010705D01*
X011723Y010717D02*
X011947Y010717D01*
X011907Y010700D02*
X012004Y010740D01*
X011893Y010850D01*
X011723Y010850D01*
X011723Y010520D01*
X011575Y010372D01*
X011575Y009858D01*
X011575Y009306D01*
X011681Y009199D01*
X011681Y009361D01*
X011761Y009553D01*
X011907Y009700D01*
X012046Y009758D01*
X011907Y009815D01*
X011761Y009962D01*
X011681Y010154D01*
X011681Y010361D01*
X011761Y010553D01*
X011907Y010700D01*
X011825Y010618D02*
X011723Y010618D01*
X011722Y010520D02*
X011747Y010520D01*
X011706Y010421D02*
X011623Y010421D01*
X011575Y010322D02*
X011681Y010322D01*
X011681Y010224D02*
X011575Y010224D01*
X011575Y010125D02*
X011693Y010125D01*
X011734Y010027D02*
X011575Y010027D01*
X011575Y009928D02*
X011794Y009928D01*
X011893Y009830D02*
X011575Y009830D01*
X011575Y009731D02*
X011982Y009731D01*
X011840Y009633D02*
X011575Y009633D01*
X011575Y009534D02*
X011753Y009534D01*
X011712Y009436D02*
X011575Y009436D01*
X011575Y009337D02*
X011681Y009337D01*
X011681Y009238D02*
X011642Y009238D01*
X011278Y009183D02*
X012203Y008258D01*
X012725Y008352D02*
X012871Y008352D01*
X012773Y008450D02*
X012725Y008450D01*
X012681Y008679D02*
X012618Y008742D01*
X012527Y008780D01*
X012412Y008780D01*
X012499Y008815D01*
X012645Y008962D01*
X012725Y009154D01*
X012725Y009360D01*
X012794Y009429D01*
X012907Y009315D01*
X013047Y009258D01*
X012907Y009200D01*
X012761Y009053D01*
X012681Y008861D01*
X012681Y008679D01*
X012681Y008746D02*
X012609Y008746D01*
X012681Y008844D02*
X012528Y008844D01*
X012626Y008943D02*
X012715Y008943D01*
X012678Y009041D02*
X012756Y009041D01*
X012719Y009140D02*
X012847Y009140D01*
X012725Y009238D02*
X013000Y009238D01*
X012886Y009337D02*
X012725Y009337D01*
X012656Y009710D02*
X012203Y009258D01*
X012656Y009710D02*
X012656Y010508D01*
X011868Y011295D01*
X011928Y010815D02*
X011723Y010815D01*
X012953Y010382D02*
X013068Y010266D01*
X012953Y010219D01*
X012953Y010382D01*
X012953Y010322D02*
X013012Y010322D01*
X012965Y010224D02*
X012953Y010224D01*
X013837Y011098D02*
X014821Y010114D01*
X014821Y009917D01*
X015018Y009720D01*
X015018Y009443D01*
X015103Y009358D01*
X014724Y008963D02*
X014793Y008894D01*
X014881Y008858D01*
X014793Y008821D01*
X014724Y008752D01*
X014724Y008963D01*
X014724Y008943D02*
X014744Y008943D01*
X014724Y008844D02*
X014849Y008844D01*
X017577Y008539D02*
X017774Y008342D01*
X017971Y008342D01*
X018168Y008342D01*
X018364Y008539D01*
X017577Y008539D02*
X017577Y009523D01*
X018522Y010468D01*
X020254Y010468D01*
X020333Y010468D01*
X020609Y010744D01*
X020727Y010862D01*
X020727Y011098D01*
X021357Y011728D01*
X021750Y011728D01*
X021738Y011245D02*
X021293Y011245D01*
X021275Y011227D01*
X021738Y011227D01*
X021738Y011245D01*
X022183Y011177D02*
X021750Y010744D01*
X021514Y010705D01*
X020923Y010705D01*
X020294Y010075D01*
X019979Y010075D01*
X019231Y009327D01*
X017971Y009327D01*
X018294Y009633D02*
X019117Y009633D01*
X019108Y009623D02*
X018303Y009623D01*
X018200Y009727D01*
X018645Y010171D01*
X019534Y010171D01*
X019534Y010049D01*
X019108Y009623D01*
X019215Y009731D02*
X018205Y009731D01*
X018303Y009830D02*
X019314Y009830D01*
X019412Y009928D02*
X018402Y009928D01*
X018500Y010027D02*
X019511Y010027D01*
X019534Y010125D02*
X018599Y010125D01*
X017644Y010815D02*
X016324Y010815D01*
X015115Y011027D02*
X015031Y011111D01*
X015115Y011111D01*
X015115Y011027D01*
X015115Y011111D02*
X015031Y011111D01*
X013837Y011098D02*
X013837Y011216D01*
X013792Y012589D02*
X013796Y012589D01*
X012789Y013082D02*
X012500Y013082D01*
X012401Y012983D02*
X012732Y012983D01*
X012691Y012885D02*
X012303Y012885D01*
X012204Y012786D02*
X012681Y012786D01*
X012681Y012687D02*
X012511Y012687D01*
X012610Y012589D02*
X012708Y012589D01*
X012212Y014560D02*
X012115Y014560D01*
X012115Y014658D02*
X012212Y014658D01*
X012212Y014757D02*
X012115Y014757D01*
X012115Y014855D02*
X012212Y014855D01*
X012212Y015053D02*
X012115Y015053D01*
X012115Y015151D02*
X012212Y015151D01*
X012212Y015250D02*
X012115Y015250D01*
X012115Y015348D02*
X012212Y015348D01*
X012612Y015447D02*
X011531Y015447D01*
X012635Y015348D02*
X012710Y015348D01*
X013346Y015447D02*
X018553Y015447D01*
X020136Y015823D02*
X020136Y015035D01*
X020442Y013574D02*
X020716Y013574D01*
X021750Y012712D02*
X022105Y012712D01*
X023286Y012712D01*
X023470Y012293D02*
X018601Y012293D01*
X017648Y012179D02*
X017563Y012094D01*
X017196Y012094D01*
X016935Y011834D01*
X016935Y011592D01*
X016519Y011592D01*
X016447Y011664D01*
X016447Y011873D01*
X016231Y012089D01*
X016322Y012179D01*
X017648Y012179D01*
X017565Y012096D02*
X016239Y012096D01*
X016323Y011998D02*
X017099Y011998D01*
X017001Y011899D02*
X016421Y011899D01*
X016447Y011801D02*
X016935Y011801D01*
X016935Y011702D02*
X016447Y011702D01*
X016507Y011604D02*
X016935Y011604D01*
X017380Y011649D02*
X017538Y011649D01*
X018955Y013067D01*
X018010Y011702D02*
X020716Y011702D01*
X020716Y011604D02*
X017911Y011604D01*
X015794Y012885D02*
X015601Y012885D01*
X015642Y012786D02*
X015695Y012786D01*
X016942Y016235D02*
X012738Y016235D01*
X012854Y016334D02*
X016843Y016334D01*
X017584Y016826D02*
X018148Y016826D01*
X018050Y016728D02*
X017682Y016728D01*
X016199Y017791D02*
X024073Y017791D01*
X025254Y016610D01*
X025254Y011098D01*
X025254Y010114D01*
X025451Y009917D01*
X026435Y009917D01*
X026829Y010390D01*
X027616Y010390D01*
X028601Y011374D01*
X028601Y011531D01*
X028601Y012279D01*
X028601Y012476D01*
X028994Y012870D01*
X030175Y012870D01*
X030372Y012870D01*
X030569Y012673D01*
X030569Y012083D01*
X029880Y011394D01*
X029670Y011604D02*
X029644Y011604D01*
X029712Y011645D02*
X030098Y012031D01*
X030072Y012031D01*
X029578Y011538D01*
X029591Y011524D01*
X029712Y011645D01*
X029742Y011702D02*
X029769Y011702D01*
X029841Y011801D02*
X029867Y011801D01*
X029939Y011899D02*
X029966Y011899D01*
X030038Y011998D02*
X030065Y011998D01*
X030097Y012476D02*
X030175Y012476D01*
X030097Y012476D02*
X027813Y010193D01*
X027026Y010193D01*
X026632Y009720D01*
X025254Y009720D01*
X025057Y009917D01*
X025057Y011295D01*
X025057Y016413D01*
X023876Y017594D01*
X016002Y017594D01*
X013837Y019760D01*
X013640Y019957D01*
X012746Y019957D01*
X012262Y019472D01*
X012656Y019093D02*
X012868Y019093D01*
X012770Y019191D02*
X012754Y019191D01*
X012762Y019199D02*
X012535Y018972D01*
X012762Y018746D01*
X012989Y018972D01*
X012762Y019199D01*
X012557Y018994D02*
X012967Y018994D01*
X012912Y018896D02*
X012612Y018896D01*
X012710Y018797D02*
X012814Y018797D01*
X012262Y018472D02*
X012171Y018472D01*
X011750Y018894D01*
X011750Y019720D01*
X012105Y020075D01*
X012026Y019996D01*
X012105Y020075D01*
X009231Y020075D01*
X008837Y019681D01*
X008837Y019484D01*
X008837Y001768D01*
X008837Y001531D01*
X008837Y001334D01*
X010353Y001256D02*
X011056Y001256D01*
X011154Y001355D02*
X010448Y001355D01*
X010489Y001454D02*
X011253Y001454D01*
X011351Y001552D02*
X010530Y001552D01*
X010571Y001651D02*
X011450Y001651D01*
X011548Y001749D02*
X010580Y001749D01*
X010580Y001848D02*
X011647Y001848D01*
X011467Y001946D02*
X011367Y001946D01*
X011367Y002045D02*
X011467Y002045D01*
X011467Y002143D02*
X011367Y002143D01*
X011367Y002242D02*
X011467Y002242D01*
X011467Y002340D02*
X011367Y002340D01*
X011367Y002439D02*
X011467Y002439D01*
X011467Y002538D02*
X011367Y002538D01*
X011367Y002636D02*
X011467Y002636D01*
X011467Y002735D02*
X011367Y002735D01*
X011367Y002833D02*
X011467Y002833D01*
X011467Y003129D02*
X011367Y003129D01*
X011367Y003227D02*
X011467Y003227D01*
X011467Y003326D02*
X011367Y003326D01*
X011367Y003424D02*
X011467Y003424D01*
X011467Y003523D02*
X011367Y003523D01*
X011367Y003621D02*
X011467Y003621D01*
X011467Y003720D02*
X011367Y003720D01*
X011367Y003819D02*
X011467Y003819D01*
X011467Y003917D02*
X011367Y003917D01*
X011367Y004016D02*
X011467Y004016D01*
X011657Y004213D02*
X011039Y004213D01*
X011138Y004311D02*
X011559Y004311D01*
X011460Y004410D02*
X011236Y004410D01*
X011335Y004508D02*
X011400Y004508D01*
X011400Y004607D02*
X011337Y004607D01*
X011337Y004705D02*
X011400Y004705D01*
X011400Y004804D02*
X011337Y004804D01*
X011337Y004903D02*
X011400Y004903D01*
X011756Y004114D02*
X010941Y004114D01*
X010881Y004016D02*
X010842Y004016D01*
X010782Y003917D02*
X010744Y003917D01*
X010684Y003819D02*
X009134Y003819D01*
X009134Y003917D02*
X009730Y003917D01*
X009631Y004016D02*
X009134Y004016D01*
X009134Y004114D02*
X009533Y004114D01*
X009434Y004213D02*
X009134Y004213D01*
X009134Y004311D02*
X009336Y004311D01*
X009237Y004410D02*
X009134Y004410D01*
X009134Y004508D02*
X009139Y004508D01*
X009134Y004607D02*
X009137Y004607D01*
X009134Y004705D02*
X009137Y004705D01*
X009134Y004804D02*
X009137Y004804D01*
X009134Y004903D02*
X009137Y004903D01*
X009134Y002932D02*
X010317Y002932D01*
X010317Y002833D02*
X009134Y002833D01*
X009134Y002735D02*
X010317Y002735D01*
X010317Y002636D02*
X010087Y002636D01*
X010252Y002538D02*
X010319Y002538D01*
X010350Y002439D02*
X010418Y002439D01*
X010447Y002340D02*
X010517Y002340D01*
X010488Y002242D02*
X010615Y002242D01*
X010529Y002143D02*
X010714Y002143D01*
X010812Y002045D02*
X010570Y002045D01*
X010580Y001946D02*
X010911Y001946D01*
X009319Y002636D02*
X009134Y002636D01*
X009134Y002538D02*
X009154Y002538D01*
X012248Y003720D02*
X018039Y003720D01*
X017941Y003819D02*
X013142Y003819D01*
X013240Y003917D02*
X017842Y003917D01*
X019349Y003224D02*
X019742Y003224D01*
X019939Y003027D01*
X019939Y002437D01*
X020136Y002240D01*
X022695Y002240D01*
X022892Y002437D01*
X022892Y002831D01*
X023337Y002833D02*
X024367Y002833D01*
X024367Y002735D02*
X023337Y002735D01*
X023337Y002646D02*
X023189Y002498D01*
X023189Y002378D01*
X023173Y002340D01*
X023423Y002340D01*
X023628Y002340D01*
X023628Y002424D01*
X023889Y002685D01*
X024257Y002685D01*
X024367Y002575D01*
X024367Y002968D01*
X024367Y003086D01*
X024412Y003196D01*
X024783Y003567D01*
X024638Y003567D01*
X024044Y002973D01*
X023935Y002927D01*
X023817Y002927D01*
X023337Y002927D01*
X023337Y002646D01*
X023327Y002636D02*
X023840Y002636D01*
X023741Y002538D02*
X023228Y002538D01*
X023189Y002439D02*
X023643Y002439D01*
X023628Y002340D02*
X023173Y002340D01*
X022556Y002537D02*
X022188Y002537D01*
X022194Y002540D01*
X022231Y002577D01*
X022447Y002775D01*
X022447Y002646D01*
X022556Y002537D01*
X022556Y002538D02*
X022189Y002538D01*
X022188Y002537D02*
X022188Y002537D01*
X022296Y002636D02*
X022457Y002636D01*
X022447Y002735D02*
X022403Y002735D01*
X022026Y002791D02*
X022498Y003224D01*
X023876Y003224D01*
X024664Y004012D01*
X025109Y004016D02*
X025154Y004016D01*
X025154Y003938D02*
X025109Y003892D01*
X025109Y004196D01*
X025096Y004209D01*
X025154Y004267D01*
X025154Y003938D01*
X025134Y003917D02*
X025109Y003917D01*
X025109Y004114D02*
X025154Y004114D01*
X025154Y004213D02*
X025100Y004213D01*
X024860Y004602D02*
X021514Y004602D01*
X021167Y004529D02*
X021146Y004507D01*
X021108Y004417D01*
X021108Y004000D01*
X021146Y003910D01*
X021180Y003875D01*
X020991Y003875D01*
X021023Y003953D01*
X021023Y004673D01*
X021167Y004529D01*
X021147Y004508D02*
X021023Y004508D01*
X021023Y004410D02*
X021108Y004410D01*
X021108Y004311D02*
X021023Y004311D01*
X021023Y004213D02*
X021108Y004213D01*
X021108Y004114D02*
X021023Y004114D01*
X021023Y004016D02*
X021108Y004016D01*
X021143Y003917D02*
X021009Y003917D01*
X020687Y003579D02*
X023404Y003579D01*
X023071Y003875D02*
X021848Y003875D01*
X021882Y003910D01*
X021920Y004000D01*
X021920Y004305D01*
X024328Y004305D01*
X024219Y004196D01*
X024219Y003986D01*
X023849Y003616D01*
X023849Y003763D01*
X023588Y004024D01*
X023219Y004024D01*
X023071Y003875D01*
X023113Y003917D02*
X021885Y003917D01*
X021920Y004016D02*
X023212Y004016D01*
X023596Y004016D02*
X024219Y004016D01*
X024219Y004114D02*
X021920Y004114D01*
X021920Y004213D02*
X024236Y004213D01*
X024149Y003917D02*
X023694Y003917D01*
X023793Y003819D02*
X024051Y003819D01*
X023952Y003720D02*
X023849Y003720D01*
X023849Y003621D02*
X023854Y003621D01*
X024398Y003326D02*
X024542Y003326D01*
X024496Y003424D02*
X024641Y003424D01*
X024595Y003523D02*
X024739Y003523D01*
X024444Y003227D02*
X024299Y003227D01*
X024384Y003129D02*
X024201Y003129D01*
X024102Y003030D02*
X024367Y003030D01*
X024367Y002932D02*
X023946Y002932D01*
X024306Y002636D02*
X024367Y002636D01*
X024900Y002870D02*
X024900Y002063D01*
X025420Y001543D01*
X025809Y001159D02*
X025919Y001270D01*
X026030Y001159D01*
X025809Y001159D01*
X025906Y001256D02*
X025933Y001256D01*
X026420Y001543D02*
X025923Y002039D01*
X025923Y003106D01*
X026042Y003224D01*
X026042Y007358D01*
X026632Y007949D01*
X026632Y008146D01*
X026187Y008154D02*
X026071Y008154D01*
X026170Y008056D02*
X026187Y008056D01*
X025845Y007752D02*
X025845Y003421D01*
X025420Y002996D01*
X025420Y002543D01*
X024900Y002870D02*
X025648Y003618D01*
X025648Y007161D01*
X025057Y007752D01*
X025382Y008056D02*
X025520Y008056D01*
X025618Y008154D02*
X025284Y008154D01*
X024831Y008154D02*
X023321Y008154D01*
X023483Y007949D02*
X023679Y008146D01*
X023483Y007949D02*
X023483Y005980D01*
X022538Y005980D01*
X022459Y005901D01*
X022509Y005888D02*
X025351Y005888D01*
X025351Y005198D02*
X025275Y005198D01*
X026238Y006768D02*
X026238Y006964D01*
X026829Y007555D01*
X027123Y007890D02*
X027064Y007949D01*
X027077Y007961D01*
X027077Y008242D01*
X027100Y008242D01*
X027123Y008219D01*
X027123Y007890D01*
X027123Y007957D02*
X027073Y007957D01*
X027077Y008056D02*
X027123Y008056D01*
X027123Y008154D02*
X027077Y008154D01*
X027813Y008933D02*
X027813Y003149D01*
X028207Y002756D01*
X028420Y002543D01*
X029212Y002114D02*
X029233Y002093D01*
X029370Y002093D01*
X029370Y002493D01*
X029469Y002493D01*
X029469Y002093D01*
X029606Y002093D01*
X029682Y002169D01*
X029682Y002054D01*
X029646Y002090D01*
X029212Y002090D01*
X029212Y002114D01*
X029370Y002143D02*
X029469Y002143D01*
X029469Y002242D02*
X029370Y002242D01*
X029370Y002340D02*
X029469Y002340D01*
X029469Y002439D02*
X029370Y002439D01*
X029656Y002143D02*
X029682Y002143D01*
X030275Y001294D02*
X030410Y001159D01*
X030260Y001159D01*
X030275Y001197D01*
X030275Y001294D01*
X030275Y001256D02*
X030313Y001256D01*
X032023Y000912D02*
X032094Y000983D01*
X032094Y000912D01*
X032023Y000912D01*
X032072Y000961D02*
X032094Y000961D01*
X029388Y003421D02*
X029191Y003421D01*
X028994Y003618D01*
X028404Y004209D01*
X028404Y005193D01*
X028404Y005980D01*
X028404Y006571D01*
X028404Y007555D01*
X028797Y007949D01*
X029191Y007949D01*
X029270Y007949D01*
X028938Y007652D02*
X029001Y007588D01*
X028701Y007287D01*
X028701Y007432D01*
X028920Y007652D01*
X028938Y007652D01*
X028977Y007563D02*
X028832Y007563D01*
X028878Y007465D02*
X028733Y007465D01*
X028701Y007366D02*
X028779Y007366D01*
X029388Y007240D02*
X029388Y006177D01*
X029388Y005980D01*
X029782Y005586D01*
X030227Y005597D02*
X030227Y005771D01*
X030214Y005783D01*
X030424Y005993D01*
X030424Y006361D01*
X030194Y006590D01*
X030424Y006819D01*
X030424Y007005D01*
X030533Y007103D01*
X030540Y007106D01*
X030576Y007143D01*
X030615Y007177D01*
X030618Y007184D01*
X030624Y007190D01*
X030643Y007237D01*
X030666Y007284D01*
X030666Y007292D01*
X030669Y007299D01*
X030669Y007350D01*
X030672Y007401D01*
X030669Y007409D01*
X030669Y007811D01*
X030669Y008401D01*
X030669Y008488D01*
X030911Y008488D01*
X030983Y008560D01*
X031054Y008488D01*
X031257Y008488D01*
X031257Y005597D01*
X030227Y005597D01*
X030227Y005691D02*
X031257Y005691D01*
X031257Y005789D02*
X030220Y005789D01*
X030319Y005888D02*
X031257Y005888D01*
X031257Y005987D02*
X030417Y005987D01*
X030424Y006085D02*
X031257Y006085D01*
X031257Y006184D02*
X030424Y006184D01*
X030424Y006282D02*
X031257Y006282D01*
X031257Y006381D02*
X030404Y006381D01*
X030306Y006479D02*
X031257Y006479D01*
X031257Y006578D02*
X030207Y006578D01*
X030280Y006676D02*
X031257Y006676D01*
X031257Y006775D02*
X030379Y006775D01*
X030424Y006873D02*
X031257Y006873D01*
X031257Y006972D02*
X030424Y006972D01*
X030496Y007071D02*
X031257Y007071D01*
X031257Y007169D02*
X030606Y007169D01*
X030658Y007268D02*
X031257Y007268D01*
X031257Y007366D02*
X030670Y007366D01*
X030669Y007465D02*
X031257Y007465D01*
X031257Y007563D02*
X030669Y007563D01*
X030669Y007662D02*
X031257Y007662D01*
X031257Y007760D02*
X030669Y007760D01*
X030669Y007859D02*
X031257Y007859D01*
X031257Y007957D02*
X030669Y007957D01*
X030669Y008056D02*
X031257Y008056D01*
X031257Y008154D02*
X030669Y008154D01*
X030669Y008253D02*
X031257Y008253D01*
X031257Y008352D02*
X030669Y008352D01*
X030669Y008450D02*
X031257Y008450D01*
X030993Y008549D02*
X030972Y008549D01*
X030372Y008342D02*
X030372Y007752D01*
X030372Y007358D01*
X029979Y007004D01*
X029585Y007161D02*
X029585Y006571D01*
X029979Y006177D01*
X029311Y005638D02*
X029136Y005812D01*
X029091Y005921D01*
X029091Y006039D01*
X029091Y006236D01*
X029091Y006838D01*
X028897Y006645D01*
X028897Y006315D01*
X028897Y005331D01*
X028897Y004528D01*
X029314Y004112D01*
X029329Y004112D01*
X029526Y004112D01*
X029644Y004112D01*
X029664Y004103D01*
X029220Y004547D01*
X029136Y004631D01*
X029091Y004740D01*
X029091Y004860D01*
X028943Y005008D01*
X028943Y005377D01*
X029204Y005638D01*
X029311Y005638D01*
X029257Y005691D02*
X028897Y005691D01*
X028897Y005789D02*
X029159Y005789D01*
X029105Y005888D02*
X028897Y005888D01*
X028897Y005987D02*
X029091Y005987D01*
X029091Y006085D02*
X028897Y006085D01*
X028897Y006184D02*
X029091Y006184D01*
X029091Y006282D02*
X028897Y006282D01*
X028897Y006381D02*
X029091Y006381D01*
X029091Y006479D02*
X028897Y006479D01*
X028897Y006578D02*
X029091Y006578D01*
X029091Y006676D02*
X028929Y006676D01*
X029028Y006775D02*
X029091Y006775D01*
X029585Y007161D02*
X030175Y007752D01*
X030175Y007831D01*
X030175Y009760D01*
X030727Y010311D01*
X031080Y010586D02*
X031211Y010717D01*
X031211Y011086D01*
X030950Y011346D01*
X030582Y011346D01*
X030321Y011086D01*
X030321Y010876D01*
X030079Y010634D01*
X030079Y011172D01*
X030132Y011225D01*
X030544Y011638D01*
X030753Y011638D01*
X031014Y011898D01*
X031014Y012267D01*
X030866Y012415D01*
X030866Y012732D01*
X030835Y012807D01*
X030855Y012815D01*
X031016Y012976D01*
X031226Y012976D01*
X031257Y013007D01*
X031257Y010631D01*
X031188Y010562D01*
X031146Y010520D01*
X031080Y010586D01*
X031112Y010618D02*
X031244Y010618D01*
X031188Y010562D02*
X031188Y010562D01*
X031210Y010717D02*
X031257Y010717D01*
X031257Y010815D02*
X031211Y010815D01*
X031211Y010914D02*
X031257Y010914D01*
X031257Y011012D02*
X031211Y011012D01*
X031186Y011111D02*
X031257Y011111D01*
X031257Y011209D02*
X031087Y011209D01*
X030989Y011308D02*
X031257Y011308D01*
X031257Y011406D02*
X030313Y011406D01*
X030214Y011308D02*
X030543Y011308D01*
X030445Y011209D02*
X030116Y011209D01*
X030079Y011111D02*
X030346Y011111D01*
X030321Y011012D02*
X030079Y011012D01*
X030079Y010914D02*
X030321Y010914D01*
X030260Y010815D02*
X030079Y010815D01*
X030079Y010717D02*
X030161Y010717D01*
X029979Y010114D02*
X030766Y010901D01*
X031357Y010311D02*
X031553Y010508D01*
X031553Y013067D01*
X031553Y013460D01*
X031160Y013854D01*
X031160Y014051D01*
X030766Y014445D01*
X030449Y014757D02*
X028701Y014757D01*
X028701Y014855D02*
X030547Y014855D01*
X030582Y014890D02*
X030321Y014629D01*
X030321Y014260D01*
X030582Y014000D01*
X030791Y014000D01*
X030863Y013928D01*
X030863Y013913D01*
X030863Y013866D01*
X030857Y013866D01*
X030597Y013605D01*
X030597Y013396D01*
X030564Y013364D01*
X030471Y013364D01*
X030116Y013364D01*
X028857Y013364D01*
X028849Y013364D01*
X028849Y013645D01*
X028701Y013793D01*
X028701Y014912D01*
X029986Y016198D01*
X029986Y015991D01*
X030637Y015991D01*
X030637Y015891D01*
X029986Y015891D01*
X029986Y015485D01*
X030074Y015397D01*
X030637Y015397D01*
X030637Y015891D01*
X030737Y015891D01*
X030737Y015397D01*
X031089Y015397D01*
X030912Y015220D01*
X030912Y014890D01*
X030582Y014890D01*
X030766Y015035D02*
X030766Y015862D01*
X030687Y015941D01*
X030637Y015939D02*
X029728Y015939D01*
X029629Y015841D02*
X029986Y015841D01*
X029986Y015742D02*
X029531Y015742D01*
X029432Y015644D02*
X029986Y015644D01*
X029986Y015545D02*
X029334Y015545D01*
X029235Y015447D02*
X030024Y015447D01*
X030637Y015447D02*
X030737Y015447D01*
X030737Y015545D02*
X030637Y015545D01*
X030637Y015644D02*
X030737Y015644D01*
X030737Y015742D02*
X030637Y015742D01*
X030637Y015841D02*
X030737Y015841D01*
X030737Y015939D02*
X032094Y015939D01*
X032094Y015841D02*
X031388Y015841D01*
X031388Y015742D02*
X032094Y015742D01*
X032094Y015644D02*
X031388Y015644D01*
X031388Y015545D02*
X032094Y015545D01*
X032094Y015447D02*
X031574Y015447D01*
X031040Y015348D02*
X029136Y015348D01*
X029038Y015250D02*
X030942Y015250D01*
X030912Y015151D02*
X028939Y015151D01*
X028841Y015053D02*
X030912Y015053D01*
X030912Y014954D02*
X028742Y014954D01*
X028701Y014658D02*
X030350Y014658D01*
X030321Y014560D02*
X028701Y014560D01*
X028701Y014461D02*
X030321Y014461D01*
X030321Y014363D02*
X028701Y014363D01*
X028701Y014264D02*
X030321Y014264D01*
X030416Y014166D02*
X028701Y014166D01*
X028701Y014067D02*
X030514Y014067D01*
X030822Y013969D02*
X028701Y013969D01*
X028701Y013870D02*
X030863Y013870D01*
X030763Y013771D02*
X028722Y013771D01*
X028821Y013673D02*
X030664Y013673D01*
X030597Y013574D02*
X028849Y013574D01*
X028849Y013476D02*
X030597Y013476D01*
X030578Y013377D02*
X028849Y013377D01*
X028797Y013067D02*
X028207Y012476D01*
X028207Y011492D01*
X028010Y011492D01*
X027420Y012083D01*
X027420Y015626D01*
X029939Y018146D01*
X029939Y018953D01*
X029420Y019472D01*
X029782Y019957D02*
X030175Y019563D01*
X030175Y017988D01*
X027616Y015429D01*
X027616Y013067D01*
X027813Y012870D01*
X028258Y012947D02*
X028326Y013016D01*
X028258Y013016D01*
X028258Y012947D01*
X028258Y012983D02*
X028294Y012983D01*
X027959Y013315D02*
X027913Y013315D01*
X027913Y015306D01*
X030344Y017736D01*
X030416Y017809D01*
X030416Y017467D01*
X028152Y015203D01*
X028107Y015094D01*
X028107Y014976D01*
X028107Y013793D01*
X027959Y013645D01*
X027959Y013315D01*
X027959Y013377D02*
X027913Y013377D01*
X027913Y013476D02*
X027959Y013476D01*
X027959Y013574D02*
X027913Y013574D01*
X027913Y013673D02*
X027987Y013673D01*
X027913Y013771D02*
X028086Y013771D01*
X028107Y013870D02*
X027913Y013870D01*
X027913Y013969D02*
X028107Y013969D01*
X028107Y014067D02*
X027913Y014067D01*
X027913Y014166D02*
X028107Y014166D01*
X028107Y014264D02*
X027913Y014264D01*
X027913Y014363D02*
X028107Y014363D01*
X028107Y014461D02*
X027913Y014461D01*
X027913Y014560D02*
X028107Y014560D01*
X028107Y014658D02*
X027913Y014658D01*
X027913Y014757D02*
X028107Y014757D01*
X028107Y014855D02*
X027913Y014855D01*
X027913Y014954D02*
X028107Y014954D01*
X028107Y015053D02*
X027913Y015053D01*
X027913Y015151D02*
X028130Y015151D01*
X028198Y015250D02*
X027913Y015250D01*
X027955Y015348D02*
X028297Y015348D01*
X028395Y015447D02*
X028054Y015447D01*
X028152Y015545D02*
X028494Y015545D01*
X028592Y015644D02*
X028251Y015644D01*
X028349Y015742D02*
X028691Y015742D01*
X028790Y015841D02*
X028448Y015841D01*
X028547Y015939D02*
X028888Y015939D01*
X028987Y016038D02*
X028645Y016038D01*
X028744Y016136D02*
X029085Y016136D01*
X029184Y016235D02*
X028842Y016235D01*
X028941Y016334D02*
X029282Y016334D01*
X029381Y016432D02*
X029039Y016432D01*
X029138Y016531D02*
X029479Y016531D01*
X029578Y016629D02*
X029236Y016629D01*
X029335Y016728D02*
X029676Y016728D01*
X029775Y016826D02*
X029433Y016826D01*
X029532Y016925D02*
X029874Y016925D01*
X029972Y017023D02*
X029631Y017023D01*
X029729Y017122D02*
X030071Y017122D01*
X030169Y017220D02*
X029828Y017220D01*
X029926Y017319D02*
X030268Y017319D01*
X030366Y017418D02*
X030025Y017418D01*
X030123Y017516D02*
X030416Y017516D01*
X030416Y017615D02*
X030222Y017615D01*
X030320Y017713D02*
X030416Y017713D01*
X030344Y017736D02*
X030344Y017736D01*
X030464Y017910D02*
X030505Y017910D01*
X030472Y018009D02*
X030604Y018009D01*
X030703Y018107D02*
X030472Y018107D01*
X030472Y018206D02*
X032094Y018206D01*
X032094Y018304D02*
X031166Y018304D01*
X031223Y018107D02*
X032094Y018107D01*
X032094Y018009D02*
X031322Y018009D01*
X031420Y017910D02*
X032094Y017910D01*
X032094Y017812D02*
X031510Y017812D01*
X031510Y017713D02*
X032094Y017713D01*
X032094Y017615D02*
X031510Y017615D01*
X031510Y017516D02*
X032094Y017516D01*
X032094Y017418D02*
X031510Y017418D01*
X031461Y017319D02*
X032094Y017319D01*
X032094Y017220D02*
X031362Y017220D01*
X031264Y017122D02*
X032094Y017122D01*
X032094Y017023D02*
X030812Y017023D01*
X030713Y016925D02*
X032094Y016925D01*
X032094Y016826D02*
X030615Y016826D01*
X030516Y016728D02*
X032094Y016728D01*
X032094Y016629D02*
X030417Y016629D01*
X030319Y016531D02*
X032094Y016531D01*
X032094Y016432D02*
X031353Y016432D01*
X031388Y016397D02*
X031301Y016484D01*
X030737Y016484D01*
X030737Y015991D01*
X031388Y015991D01*
X031388Y016397D01*
X031388Y016334D02*
X032094Y016334D01*
X032094Y016235D02*
X031388Y016235D01*
X031388Y016136D02*
X032094Y016136D01*
X032094Y016038D02*
X031388Y016038D01*
X030737Y016038D02*
X030637Y016038D01*
X030637Y016136D02*
X030737Y016136D01*
X030737Y016235D02*
X030637Y016235D01*
X030637Y016334D02*
X030737Y016334D01*
X030737Y016432D02*
X030637Y016432D01*
X029986Y016136D02*
X029925Y016136D01*
X029986Y016038D02*
X029826Y016038D01*
X028404Y015035D02*
X030963Y017594D01*
X030759Y018304D02*
X030472Y018304D01*
X030472Y018403D02*
X030521Y018403D01*
X031404Y018403D02*
X032094Y018403D01*
X032094Y018502D02*
X031535Y018502D01*
X031634Y018600D02*
X032094Y018600D01*
X032094Y018699D02*
X031717Y018699D01*
X031758Y018797D02*
X032094Y018797D01*
X032094Y018896D02*
X031799Y018896D01*
X031839Y018994D02*
X032094Y018994D01*
X032094Y019093D02*
X031840Y019093D01*
X031840Y019191D02*
X032094Y019191D01*
X032094Y019290D02*
X031840Y019290D01*
X031821Y019388D02*
X032094Y019388D01*
X032094Y019487D02*
X031780Y019487D01*
X031739Y019586D02*
X032094Y019586D01*
X032094Y019684D02*
X031688Y019684D01*
X031589Y019783D02*
X032094Y019783D01*
X032094Y019881D02*
X031491Y019881D01*
X031297Y019980D02*
X032094Y019980D01*
X032094Y020078D02*
X030080Y020078D01*
X030178Y019980D02*
X030629Y019980D01*
X030435Y019881D02*
X030277Y019881D01*
X029782Y019957D02*
X027105Y019957D01*
X026908Y019760D01*
X026908Y018960D01*
X026420Y018472D01*
X026011Y018107D02*
X025691Y018107D01*
X025606Y018022D02*
X025469Y018022D01*
X025469Y018422D01*
X025370Y018422D01*
X025370Y018022D01*
X025233Y018022D01*
X024970Y018286D01*
X024970Y018422D01*
X025369Y018422D01*
X025369Y018522D01*
X024970Y018522D01*
X024970Y018659D01*
X025233Y018922D01*
X025370Y018922D01*
X025370Y018522D01*
X025469Y018522D01*
X025469Y018922D01*
X025606Y018922D01*
X025869Y018659D01*
X025869Y018522D01*
X025470Y018522D01*
X025470Y018422D01*
X025869Y018422D01*
X025869Y018286D01*
X025606Y018022D01*
X025469Y018107D02*
X025370Y018107D01*
X025370Y018206D02*
X025469Y018206D01*
X025469Y018304D02*
X025370Y018304D01*
X025370Y018403D02*
X025469Y018403D01*
X025470Y018502D02*
X025873Y018502D01*
X025869Y018600D02*
X025873Y018600D01*
X025873Y018699D02*
X025830Y018699D01*
X025873Y018699D02*
X025873Y018246D01*
X026193Y017925D01*
X026646Y017925D01*
X026920Y018199D01*
X027123Y017996D01*
X027123Y017717D01*
X026267Y016862D01*
X026184Y016778D01*
X026138Y016669D01*
X026138Y016480D01*
X026096Y016581D01*
X026013Y016665D01*
X024438Y018240D01*
X024329Y018285D01*
X024211Y018285D01*
X024103Y018285D01*
X024123Y018333D01*
X024123Y020006D01*
X024085Y020096D01*
X024078Y020103D01*
X026832Y020103D01*
X026697Y019968D01*
X026646Y020019D01*
X026193Y020019D01*
X025920Y019746D01*
X025646Y020019D01*
X025193Y020019D01*
X024873Y019699D01*
X024873Y019246D01*
X025193Y018925D01*
X025646Y018925D01*
X025920Y019199D01*
X026146Y018972D01*
X025873Y018699D01*
X025971Y018797D02*
X025731Y018797D01*
X025632Y018896D02*
X026070Y018896D01*
X026124Y018994D02*
X025715Y018994D01*
X025813Y019093D02*
X026026Y019093D01*
X025927Y019191D02*
X025912Y019191D01*
X025469Y018896D02*
X025370Y018896D01*
X025370Y018797D02*
X025469Y018797D01*
X025469Y018699D02*
X025370Y018699D01*
X025370Y018600D02*
X025469Y018600D01*
X025369Y018502D02*
X024123Y018502D01*
X024123Y018600D02*
X024970Y018600D01*
X025009Y018699D02*
X024123Y018699D01*
X024123Y018797D02*
X025108Y018797D01*
X025207Y018896D02*
X024123Y018896D01*
X024123Y018994D02*
X025124Y018994D01*
X025026Y019093D02*
X024123Y019093D01*
X024123Y019191D02*
X024927Y019191D01*
X024873Y019290D02*
X024123Y019290D01*
X024123Y019388D02*
X024873Y019388D01*
X024873Y019487D02*
X024123Y019487D01*
X024123Y019586D02*
X024873Y019586D01*
X024873Y019684D02*
X024123Y019684D01*
X024123Y019783D02*
X024956Y019783D01*
X025055Y019881D02*
X024123Y019881D01*
X024123Y019980D02*
X025154Y019980D01*
X025685Y019980D02*
X026154Y019980D01*
X026055Y019881D02*
X025784Y019881D01*
X025883Y019783D02*
X025957Y019783D01*
X026685Y019980D02*
X026708Y019980D01*
X026806Y020078D02*
X024093Y020078D01*
X024123Y018403D02*
X024970Y018403D01*
X024970Y018304D02*
X024111Y018304D01*
X024472Y018206D02*
X025049Y018206D01*
X025148Y018107D02*
X024570Y018107D01*
X024669Y018009D02*
X026110Y018009D01*
X025913Y018206D02*
X025790Y018206D01*
X025869Y018304D02*
X025873Y018304D01*
X025869Y018403D02*
X025873Y018403D01*
X026729Y018009D02*
X027110Y018009D01*
X027123Y017910D02*
X024767Y017910D01*
X024866Y017812D02*
X027123Y017812D01*
X027119Y017713D02*
X024965Y017713D01*
X025063Y017615D02*
X027020Y017615D01*
X026921Y017516D02*
X025162Y017516D01*
X025260Y017418D02*
X026823Y017418D01*
X026724Y017319D02*
X025359Y017319D01*
X025457Y017220D02*
X026626Y017220D01*
X026527Y017122D02*
X025556Y017122D01*
X025654Y017023D02*
X026429Y017023D01*
X026330Y016925D02*
X025753Y016925D01*
X025851Y016826D02*
X026232Y016826D01*
X026163Y016728D02*
X025950Y016728D01*
X026049Y016629D02*
X026138Y016629D01*
X026138Y016531D02*
X026117Y016531D01*
X025845Y016413D02*
X025845Y011295D01*
X025648Y011098D01*
X025648Y010311D01*
X025845Y010114D01*
X026120Y010114D01*
X026357Y010350D01*
X026750Y010744D01*
X027380Y010744D01*
X026860Y011041D02*
X026732Y011041D01*
X026732Y011118D01*
X026732Y011229D01*
X026774Y011127D01*
X026860Y011041D01*
X026790Y011111D02*
X026732Y011111D01*
X026732Y011209D02*
X026740Y011209D01*
X027026Y011295D02*
X027223Y011098D01*
X027813Y011098D01*
X027420Y011492D02*
X027223Y011689D01*
X027223Y015823D01*
X029420Y018020D01*
X029420Y018472D01*
X028916Y018976D02*
X028916Y017909D01*
X027026Y016020D01*
X027026Y013460D01*
X026829Y013264D01*
X026435Y013067D02*
X026435Y013460D01*
X026829Y013854D01*
X026829Y016216D01*
X028420Y017807D01*
X028420Y018472D01*
X027931Y018382D02*
X027931Y018264D01*
X027931Y018382D02*
X027931Y017712D01*
X026632Y016413D01*
X026632Y014051D01*
X026238Y013657D01*
X026238Y012870D01*
X026238Y012673D01*
X026435Y012476D01*
X026042Y012279D02*
X026435Y011886D01*
X026435Y011059D01*
X026042Y010665D01*
X027026Y011295D02*
X027026Y012476D01*
X026435Y013067D01*
X026042Y013854D02*
X026042Y012279D01*
X026664Y012076D02*
X026729Y012141D01*
X026729Y011952D01*
X026687Y012054D01*
X026664Y012076D01*
X026684Y012096D02*
X026729Y012096D01*
X026729Y011998D02*
X026710Y011998D01*
X027716Y012205D02*
X027716Y012425D01*
X027910Y012425D01*
X027910Y012012D01*
X027716Y012205D01*
X027727Y012195D02*
X027910Y012195D01*
X027910Y012293D02*
X027716Y012293D01*
X027716Y012392D02*
X027910Y012392D01*
X027910Y012096D02*
X027826Y012096D01*
X028897Y012096D02*
X029297Y012096D01*
X029198Y011998D02*
X028897Y011998D01*
X028897Y011899D02*
X029100Y011899D01*
X029001Y011801D02*
X028897Y011801D01*
X028897Y011702D02*
X028903Y011702D01*
X028897Y011697D02*
X028897Y012220D01*
X028897Y012353D01*
X029117Y012573D01*
X029730Y012573D01*
X029730Y012530D01*
X028897Y011697D01*
X028897Y012195D02*
X029395Y012195D01*
X029494Y012293D02*
X028897Y012293D01*
X028936Y012392D02*
X029593Y012392D01*
X029691Y012490D02*
X029035Y012490D01*
X028797Y013067D02*
X030175Y013067D01*
X030530Y013067D01*
X030687Y013067D01*
X031042Y013421D01*
X031233Y012983D02*
X031257Y012983D01*
X031257Y012885D02*
X030925Y012885D01*
X030844Y012786D02*
X031257Y012786D01*
X031257Y012687D02*
X030866Y012687D01*
X030866Y012589D02*
X031257Y012589D01*
X031257Y012490D02*
X030866Y012490D01*
X030889Y012392D02*
X031257Y012392D01*
X031257Y012293D02*
X030988Y012293D01*
X031014Y012195D02*
X031257Y012195D01*
X031257Y012096D02*
X031014Y012096D01*
X031014Y011998D02*
X031257Y011998D01*
X031257Y011899D02*
X031014Y011899D01*
X030916Y011801D02*
X031257Y011801D01*
X031257Y011702D02*
X030818Y011702D01*
X030510Y011604D02*
X031257Y011604D01*
X031257Y011505D02*
X030411Y011505D01*
X029485Y010653D02*
X029478Y010653D01*
X029485Y010646D01*
X029485Y010653D01*
X029191Y010311D02*
X028797Y010311D01*
X028207Y009720D01*
X028207Y009523D01*
X027813Y009130D01*
X027813Y008933D01*
X027498Y009327D02*
X027813Y009642D01*
X027498Y009327D02*
X024860Y009327D01*
X024073Y010114D01*
X024073Y010705D01*
X024395Y011012D02*
X024564Y011012D01*
X024564Y010914D02*
X024493Y010914D01*
X024518Y010889D02*
X024257Y011149D01*
X023889Y011149D01*
X023779Y011040D01*
X023779Y011763D01*
X023802Y011786D01*
X024408Y011786D01*
X024526Y011786D01*
X024564Y011801D01*
X024564Y011354D01*
X024564Y010043D01*
X024370Y010237D01*
X024370Y010372D01*
X024518Y010520D01*
X024518Y010889D01*
X024518Y010815D02*
X024564Y010815D01*
X024564Y010717D02*
X024518Y010717D01*
X024518Y010618D02*
X024564Y010618D01*
X024564Y010520D02*
X024517Y010520D01*
X024564Y010421D02*
X024419Y010421D01*
X024370Y010322D02*
X024564Y010322D01*
X024564Y010224D02*
X024383Y010224D01*
X024481Y010125D02*
X024564Y010125D01*
X024036Y009731D02*
X023779Y009731D01*
X023779Y009633D02*
X024135Y009633D01*
X024233Y009534D02*
X023779Y009534D01*
X023779Y009464D02*
X023779Y010047D01*
X023821Y009946D01*
X023905Y009862D01*
X024609Y009158D01*
X024692Y009075D01*
X024699Y009072D01*
X023447Y009072D01*
X023454Y009075D01*
X023651Y009272D01*
X023734Y009355D01*
X023779Y009464D01*
X023767Y009436D02*
X024332Y009436D01*
X024430Y009337D02*
X023716Y009337D01*
X023617Y009238D02*
X024529Y009238D01*
X024627Y009140D02*
X023519Y009140D01*
X023172Y009633D02*
X022688Y009633D01*
X023779Y009830D02*
X023938Y009830D01*
X023839Y009928D02*
X023779Y009928D01*
X023779Y010027D02*
X023788Y010027D01*
X023186Y010322D02*
X022701Y010322D01*
X022769Y010421D02*
X023186Y010421D01*
X023186Y010520D02*
X022784Y010520D01*
X022784Y010618D02*
X023186Y010618D01*
X023186Y010717D02*
X022784Y010717D01*
X022784Y010815D02*
X023186Y010815D01*
X023186Y010914D02*
X022784Y010914D01*
X022784Y011012D02*
X023186Y011012D01*
X023186Y011111D02*
X022751Y011111D01*
X022629Y011209D02*
X023186Y011209D01*
X023186Y011308D02*
X022703Y011308D01*
X022769Y011406D02*
X023186Y011406D01*
X023186Y011505D02*
X022784Y011505D01*
X022784Y011604D02*
X023186Y011604D01*
X023186Y011702D02*
X022784Y011702D01*
X022784Y011801D02*
X023186Y011801D01*
X023186Y011899D02*
X022784Y011899D01*
X022784Y011998D02*
X023208Y011998D01*
X023273Y012096D02*
X022750Y012096D01*
X022626Y012195D02*
X023372Y012195D01*
X022665Y012392D02*
X024356Y012392D01*
X024270Y012476D02*
X024034Y012712D01*
X024455Y012490D02*
X022688Y012490D01*
X022688Y012589D02*
X024553Y012589D01*
X024564Y012687D02*
X021800Y012687D01*
X021800Y012589D02*
X021700Y012589D01*
X021700Y012490D02*
X021800Y012490D01*
X021800Y012392D02*
X021700Y012392D01*
X022105Y012712D02*
X022459Y012712D01*
X022688Y012786D02*
X024564Y012786D01*
X024564Y012885D02*
X022688Y012885D01*
X022780Y013994D02*
X022752Y014061D01*
X022784Y014140D01*
X022784Y014514D01*
X022756Y014582D01*
X022778Y014636D01*
X022839Y014611D01*
X023024Y014611D01*
X023194Y014682D01*
X023234Y014722D01*
X023234Y014654D01*
X023450Y014438D01*
X023413Y014401D01*
X023005Y013994D01*
X022780Y013994D01*
X022754Y014067D02*
X023079Y014067D01*
X023177Y014166D02*
X022784Y014166D01*
X022784Y014264D02*
X023276Y014264D01*
X023374Y014363D02*
X022784Y014363D01*
X022784Y014461D02*
X023427Y014461D01*
X023329Y014560D02*
X022765Y014560D01*
X023137Y014658D02*
X023234Y014658D01*
X024860Y015626D02*
X024860Y016216D01*
X024467Y016610D01*
X023679Y017397D01*
X015337Y017397D01*
X013262Y019472D01*
X013809Y019368D02*
X015482Y017694D01*
X015460Y017694D01*
X013809Y019345D01*
X013809Y019368D01*
X013864Y019290D02*
X013887Y019290D01*
X013963Y019191D02*
X013985Y019191D01*
X014061Y019093D02*
X014084Y019093D01*
X014160Y018994D02*
X014182Y018994D01*
X014258Y018896D02*
X014281Y018896D01*
X014357Y018797D02*
X014380Y018797D01*
X014455Y018699D02*
X014478Y018699D01*
X014554Y018600D02*
X014577Y018600D01*
X014653Y018502D02*
X014675Y018502D01*
X014751Y018403D02*
X014774Y018403D01*
X014850Y018304D02*
X014872Y018304D01*
X014948Y018206D02*
X014971Y018206D01*
X015047Y018107D02*
X015069Y018107D01*
X015145Y018009D02*
X015168Y018009D01*
X015244Y017910D02*
X015266Y017910D01*
X015342Y017812D02*
X015365Y017812D01*
X015441Y017713D02*
X015464Y017713D01*
X015014Y017301D02*
X014854Y017301D01*
X013809Y018345D01*
X013809Y018506D01*
X015014Y017301D01*
X014996Y017319D02*
X014835Y017319D01*
X014897Y017418D02*
X014737Y017418D01*
X014798Y017516D02*
X014638Y017516D01*
X014700Y017615D02*
X014539Y017615D01*
X014601Y017713D02*
X014441Y017713D01*
X014503Y017812D02*
X014342Y017812D01*
X014404Y017910D02*
X014244Y017910D01*
X014306Y018009D02*
X014145Y018009D01*
X014207Y018107D02*
X014047Y018107D01*
X014109Y018206D02*
X013948Y018206D01*
X014010Y018304D02*
X013850Y018304D01*
X013809Y018403D02*
X013912Y018403D01*
X013813Y018502D02*
X013809Y018502D01*
X014923Y019487D02*
X018511Y019487D01*
X018511Y019586D02*
X014824Y019586D01*
X014726Y019684D02*
X018511Y019684D01*
X018511Y019783D02*
X014627Y019783D01*
X014529Y019881D02*
X018511Y019881D01*
X018511Y019980D02*
X014430Y019980D01*
X014332Y020078D02*
X018541Y020078D01*
X018549Y020096D02*
X018511Y020006D01*
X018511Y018333D01*
X018531Y018285D01*
X018291Y018285D01*
X018219Y018357D01*
X018219Y018566D01*
X017958Y018827D01*
X017590Y018827D01*
X017329Y018566D01*
X017329Y018197D01*
X017438Y018088D01*
X016322Y018088D01*
X014307Y020103D01*
X018556Y020103D01*
X018549Y020096D01*
X018511Y019388D02*
X015022Y019388D01*
X015120Y019290D02*
X018511Y019290D01*
X018511Y019191D02*
X015219Y019191D01*
X015317Y019093D02*
X018511Y019093D01*
X018511Y018994D02*
X015416Y018994D01*
X015514Y018896D02*
X018511Y018896D01*
X018511Y018797D02*
X017988Y018797D01*
X018086Y018699D02*
X018511Y018699D01*
X018511Y018600D02*
X018185Y018600D01*
X018219Y018502D02*
X018511Y018502D01*
X018511Y018403D02*
X018219Y018403D01*
X018271Y018304D02*
X018523Y018304D01*
X018168Y017988D02*
X024270Y017988D01*
X025845Y016413D01*
X026435Y016610D02*
X026435Y014248D01*
X026042Y013854D01*
X024860Y012870D02*
X024860Y015626D01*
X026435Y016610D02*
X027420Y017594D01*
X027420Y018472D01*
X027011Y018107D02*
X026828Y018107D01*
X027931Y018382D02*
X027931Y018960D01*
X027420Y019472D01*
X028420Y019472D02*
X028916Y018976D01*
X028404Y015035D02*
X028404Y013460D01*
X030175Y013067D02*
X030372Y013067D01*
X030530Y013067D01*
X031357Y010311D02*
X030569Y009523D01*
X030372Y009327D01*
X030372Y008342D01*
X029979Y007831D02*
X029506Y007358D01*
X029388Y007240D01*
X029979Y007831D02*
X029979Y010114D01*
X029485Y009975D02*
X029485Y009968D01*
X029478Y009968D01*
X029485Y009975D01*
X029485Y009079D02*
X029363Y009079D01*
X028504Y008219D01*
X028504Y008075D01*
X028546Y008117D01*
X028629Y008200D01*
X028738Y008245D01*
X028938Y008245D01*
X029086Y008394D01*
X029454Y008394D01*
X029485Y008363D01*
X029485Y009079D01*
X029485Y009041D02*
X029326Y009041D01*
X029227Y008943D02*
X029485Y008943D01*
X029485Y008844D02*
X029129Y008844D01*
X029030Y008746D02*
X029485Y008746D01*
X029485Y008647D02*
X028932Y008647D01*
X028833Y008549D02*
X029485Y008549D01*
X029485Y008450D02*
X028734Y008450D01*
X028636Y008352D02*
X029044Y008352D01*
X028945Y008253D02*
X028537Y008253D01*
X028504Y008154D02*
X028584Y008154D01*
X027368Y009623D02*
X027299Y009623D01*
X027362Y009699D01*
X027368Y009699D01*
X027368Y009623D01*
X027368Y009633D02*
X027306Y009633D01*
X024564Y011111D02*
X024296Y011111D01*
X024564Y011209D02*
X023779Y011209D01*
X023779Y011111D02*
X023850Y011111D01*
X023779Y011308D02*
X024564Y011308D01*
X024564Y011406D02*
X023779Y011406D01*
X023779Y011505D02*
X024564Y011505D01*
X024564Y011604D02*
X023779Y011604D01*
X023779Y011702D02*
X024564Y011702D01*
X024562Y011801D02*
X024564Y011801D01*
X024860Y012476D02*
X024860Y012870D01*
X031428Y009372D02*
X031650Y009594D01*
X031650Y009378D01*
X031566Y009378D01*
X031494Y009306D01*
X031428Y009372D01*
X031464Y009337D02*
X031525Y009337D01*
X031492Y009436D02*
X031650Y009436D01*
X031650Y009534D02*
X031590Y009534D01*
X026238Y006768D02*
X026238Y003224D01*
X026420Y003043D01*
X026420Y002543D01*
X026919Y001270D02*
X026809Y001159D01*
X027030Y001159D01*
X026919Y001270D01*
X026906Y001256D02*
X026933Y001256D01*
X029312Y004114D02*
X029653Y004114D01*
X029554Y004213D02*
X029213Y004213D01*
X029114Y004311D02*
X029456Y004311D01*
X029357Y004410D02*
X029016Y004410D01*
X028917Y004508D02*
X029259Y004508D01*
X029160Y004607D02*
X028897Y004607D01*
X028897Y004705D02*
X029105Y004705D01*
X029091Y004804D02*
X028897Y004804D01*
X028897Y004903D02*
X029049Y004903D01*
X028950Y005001D02*
X028897Y005001D01*
X028897Y005100D02*
X028943Y005100D01*
X028943Y005198D02*
X028897Y005198D01*
X028897Y005297D02*
X028943Y005297D01*
X028961Y005395D02*
X028897Y005395D01*
X028897Y005494D02*
X029060Y005494D01*
X029158Y005592D02*
X028897Y005592D01*
X022509Y005592D02*
X022409Y005592D01*
X022409Y005494D02*
X022509Y005494D01*
X022509Y005395D02*
X022409Y005395D01*
X022409Y005691D02*
X022509Y005691D01*
X022509Y005789D02*
X022409Y005789D01*
X021089Y004607D02*
X021023Y004607D01*
X020687Y003579D02*
X020333Y003224D01*
X020333Y002831D01*
X020778Y002833D02*
X021345Y002833D01*
X021345Y002735D02*
X020778Y002735D01*
X020778Y002646D02*
X020778Y003015D01*
X020661Y003132D01*
X020810Y003282D01*
X022122Y003282D01*
X022021Y003189D01*
X021974Y003236D01*
X021605Y003236D01*
X021345Y002975D01*
X021345Y002607D01*
X021415Y002537D01*
X020668Y002537D01*
X020778Y002646D01*
X020768Y002636D02*
X021345Y002636D01*
X021414Y002538D02*
X020669Y002538D01*
X020778Y002932D02*
X021345Y002932D01*
X021399Y003030D02*
X020762Y003030D01*
X020664Y003129D02*
X021498Y003129D01*
X021596Y003227D02*
X020756Y003227D01*
X021790Y002791D02*
X022026Y002791D01*
X022062Y003227D02*
X021983Y003227D01*
X019209Y002538D02*
X019023Y002538D01*
X017536Y002439D02*
X017211Y002439D01*
X017310Y002538D02*
X017438Y002538D01*
X014291Y017023D02*
X012914Y017023D01*
X012816Y017122D02*
X014193Y017122D01*
X014094Y017220D02*
X012645Y017220D01*
X011952Y018009D02*
X010984Y018009D01*
X010984Y018107D02*
X010991Y018107D01*
X011212Y018107D02*
X011312Y018107D01*
X011312Y018206D02*
X011212Y018206D01*
X011212Y018304D02*
X011312Y018304D01*
X011312Y018403D02*
X011212Y018403D01*
X011312Y018502D02*
X011715Y018502D01*
X011712Y018403D02*
X011715Y018403D01*
X011712Y018304D02*
X011715Y018304D01*
X011755Y018206D02*
X011632Y018206D01*
X011534Y018107D02*
X011854Y018107D01*
X012026Y019996D02*
X012105Y020075D01*
X012183Y020153D01*
X013837Y020153D01*
X014034Y019957D01*
X016199Y017791D01*
X016303Y018107D02*
X017419Y018107D01*
X017329Y018206D02*
X016204Y018206D01*
X016106Y018304D02*
X017329Y018304D01*
X017329Y018403D02*
X016007Y018403D01*
X015908Y018502D02*
X017329Y018502D01*
X017363Y018600D02*
X015810Y018600D01*
X015711Y018699D02*
X017461Y018699D01*
X017560Y018797D02*
X015613Y018797D01*
X017774Y018382D02*
X018168Y017988D01*
X008840Y020103D02*
X008669Y019933D01*
X008585Y019849D01*
X008572Y019817D01*
X008572Y020103D01*
X008840Y020103D01*
X008814Y020078D02*
X008572Y020078D01*
X008572Y019980D02*
X008716Y019980D01*
X008617Y019881D02*
X008572Y019881D01*
M02*
