G75*
G70*
%OFA0B0*%
%FSLAX24Y24*%
%IPPOS*%
%LPD*%
%AMOC8*
5,1,8,0,0,1.08239X$1,22.5*
%
%ADD10C,0.0080*%
%ADD11C,0.0040*%
%ADD12C,0.0050*%
%ADD13C,0.0060*%
%ADD14R,0.0276X0.0118*%
%ADD15C,0.0028*%
%ADD16R,0.0079X0.0079*%
%ADD17R,0.0118X0.0276*%
%ADD18C,0.0100*%
%ADD19C,0.0176*%
D10*
X013925Y001934D02*
X016505Y001934D01*
X016505Y003334D01*
X013925Y003334D01*
X013925Y001934D01*
X019266Y008653D02*
X019266Y012366D01*
X022975Y012366D01*
X022975Y008653D01*
X019266Y008653D01*
X019388Y011955D02*
X019390Y011976D01*
X019396Y011996D01*
X019405Y012016D01*
X019417Y012033D01*
X019432Y012047D01*
X019450Y012059D01*
X019470Y012067D01*
X019490Y012072D01*
X019511Y012073D01*
X019532Y012070D01*
X019552Y012064D01*
X019571Y012053D01*
X019588Y012040D01*
X019601Y012024D01*
X019612Y012006D01*
X019620Y011986D01*
X019624Y011966D01*
X019624Y011944D01*
X019620Y011924D01*
X019612Y011904D01*
X019601Y011886D01*
X019588Y011870D01*
X019571Y011857D01*
X019552Y011846D01*
X019532Y011840D01*
X019511Y011837D01*
X019490Y011838D01*
X019470Y011843D01*
X019450Y011851D01*
X019432Y011863D01*
X019417Y011877D01*
X019405Y011894D01*
X019396Y011914D01*
X019390Y011934D01*
X019388Y011955D01*
X012105Y015429D02*
X012105Y016216D01*
X011475Y017043D02*
X010294Y017043D01*
X009664Y016216D02*
X009664Y015429D01*
X010294Y014602D02*
X011475Y014602D01*
X010195Y015823D02*
X010197Y015875D01*
X010203Y015927D01*
X010213Y015978D01*
X010226Y016028D01*
X010244Y016078D01*
X010265Y016125D01*
X010289Y016171D01*
X010318Y016215D01*
X010349Y016257D01*
X010383Y016296D01*
X010420Y016333D01*
X010460Y016366D01*
X010503Y016397D01*
X010547Y016424D01*
X010593Y016448D01*
X010642Y016468D01*
X010691Y016484D01*
X010742Y016497D01*
X010793Y016506D01*
X010845Y016511D01*
X010897Y016512D01*
X010949Y016509D01*
X011001Y016502D01*
X011052Y016491D01*
X011102Y016477D01*
X011151Y016458D01*
X011198Y016436D01*
X011243Y016411D01*
X011287Y016382D01*
X011328Y016350D01*
X011367Y016315D01*
X011402Y016277D01*
X011435Y016236D01*
X011465Y016194D01*
X011491Y016149D01*
X011514Y016102D01*
X011533Y016053D01*
X011549Y016003D01*
X011561Y015953D01*
X011569Y015901D01*
X011573Y015849D01*
X011573Y015797D01*
X011569Y015745D01*
X011561Y015693D01*
X011549Y015643D01*
X011533Y015593D01*
X011514Y015544D01*
X011491Y015497D01*
X011465Y015452D01*
X011435Y015410D01*
X011402Y015369D01*
X011367Y015331D01*
X011328Y015296D01*
X011287Y015264D01*
X011243Y015235D01*
X011198Y015210D01*
X011151Y015188D01*
X011102Y015169D01*
X011052Y015155D01*
X011001Y015144D01*
X010949Y015137D01*
X010897Y015134D01*
X010845Y015135D01*
X010793Y015140D01*
X010742Y015149D01*
X010691Y015162D01*
X010642Y015178D01*
X010593Y015198D01*
X010547Y015222D01*
X010503Y015249D01*
X010460Y015280D01*
X010420Y015313D01*
X010383Y015350D01*
X010349Y015389D01*
X010318Y015431D01*
X010289Y015475D01*
X010265Y015521D01*
X010244Y015568D01*
X010226Y015618D01*
X010213Y015668D01*
X010203Y015719D01*
X010197Y015771D01*
X010195Y015823D01*
X012893Y017556D02*
X012999Y017556D01*
X012946Y017556D02*
X012946Y017876D01*
X012893Y017876D02*
X012999Y017876D01*
X013138Y017822D02*
X013138Y017769D01*
X013191Y017716D01*
X013298Y017716D01*
X013352Y017662D01*
X013352Y017609D01*
X013298Y017556D01*
X013191Y017556D01*
X013138Y017609D01*
X013138Y017822D02*
X013191Y017876D01*
X013298Y017876D01*
X013352Y017822D01*
X013506Y017876D02*
X013506Y017556D01*
X013506Y017662D02*
X013667Y017662D01*
X013720Y017716D01*
X013720Y017822D01*
X013667Y017876D01*
X013506Y017876D01*
X015499Y017682D02*
X015499Y019082D01*
X018080Y019082D01*
X018080Y017682D01*
X015499Y017682D01*
X027263Y017758D02*
X027263Y017437D01*
X027263Y017544D02*
X027423Y017544D01*
X027476Y017598D01*
X027476Y017704D01*
X027423Y017758D01*
X027263Y017758D01*
X027631Y017704D02*
X027631Y017491D01*
X027684Y017437D01*
X027791Y017437D01*
X027844Y017491D01*
X027844Y017704D01*
X027791Y017758D01*
X027684Y017758D01*
X027631Y017704D01*
X027999Y017758D02*
X028159Y017758D01*
X028213Y017704D01*
X028213Y017598D01*
X028159Y017544D01*
X027999Y017544D01*
X027999Y017437D02*
X027999Y017758D01*
X028106Y017544D02*
X028213Y017437D01*
X028474Y017437D02*
X028474Y017758D01*
X028368Y017758D02*
X028581Y017758D01*
X029104Y017704D02*
X029104Y017491D01*
X029158Y017437D01*
X029264Y017437D01*
X029318Y017491D01*
X029318Y017704D02*
X029264Y017758D01*
X029158Y017758D01*
X029104Y017704D01*
X027690Y003584D02*
X027529Y003584D01*
X027529Y003264D01*
X027690Y003264D01*
X027743Y003318D01*
X027743Y003531D01*
X027690Y003584D01*
X027006Y003584D02*
X026793Y003584D01*
X026900Y003584D02*
X026900Y003264D01*
X026638Y003264D02*
X026531Y003371D01*
X026585Y003371D02*
X026424Y003371D01*
X026424Y003264D02*
X026424Y003584D01*
X026585Y003584D01*
X026638Y003531D01*
X026638Y003424D01*
X026585Y003371D01*
X026270Y003318D02*
X026216Y003264D01*
X026110Y003264D01*
X026056Y003318D01*
X026056Y003531D01*
X026110Y003584D01*
X026216Y003584D01*
X026270Y003531D01*
X026270Y003318D01*
X025901Y003424D02*
X025901Y003531D01*
X025848Y003584D01*
X025688Y003584D01*
X025688Y003264D01*
X025688Y003371D02*
X025848Y003371D01*
X025901Y003424D01*
D11*
X030034Y002763D02*
X030034Y002663D01*
X030234Y002663D01*
X030234Y002763D01*
X030201Y002796D01*
X030067Y002796D01*
X030034Y002763D01*
X030034Y002575D02*
X030234Y002575D01*
X030034Y002442D01*
X030234Y002442D01*
X030201Y002354D02*
X030134Y002354D01*
X030134Y002287D01*
X030067Y002221D02*
X030034Y002254D01*
X030034Y002321D01*
X030067Y002354D01*
X030067Y002221D02*
X030201Y002221D01*
X030234Y002254D01*
X030234Y002321D01*
X030201Y002354D01*
X030207Y001891D02*
X030073Y001891D01*
X030207Y001891D02*
X030274Y001824D01*
X030207Y001757D01*
X030073Y001757D01*
X030073Y001670D02*
X030073Y001536D01*
X030173Y001536D01*
X030140Y001603D01*
X030140Y001636D01*
X030173Y001670D01*
X030240Y001670D01*
X030274Y001636D01*
X030274Y001569D01*
X030240Y001536D01*
X030173Y001449D02*
X030173Y001315D01*
X030107Y001382D02*
X030240Y001382D01*
X021794Y003756D02*
X021661Y003756D01*
X021661Y003956D01*
X021794Y003956D01*
X021728Y003856D02*
X021661Y003856D01*
X021573Y003789D02*
X021573Y003923D01*
X021540Y003956D01*
X021473Y003956D01*
X021440Y003923D01*
X021440Y003789D01*
X021473Y003756D01*
X021540Y003756D01*
X021573Y003789D01*
X021352Y003856D02*
X021352Y003923D01*
X021319Y003956D01*
X021219Y003956D01*
X021219Y003756D01*
X021219Y003823D02*
X021319Y003823D01*
X021352Y003856D01*
X015907Y002820D02*
X015873Y002854D01*
X015807Y002854D01*
X015773Y002820D01*
X015773Y002687D01*
X015807Y002654D01*
X015873Y002654D01*
X015907Y002687D01*
X015907Y002754D01*
X015840Y002754D01*
X015907Y002754D01*
X015907Y002687D01*
X015873Y002654D01*
X015807Y002654D01*
X015773Y002687D01*
X015773Y002820D01*
X015807Y002854D01*
X015873Y002854D01*
X015907Y002820D01*
X015686Y002854D02*
X015552Y002854D01*
X015552Y002654D01*
X015686Y002654D01*
X015552Y002654D01*
X015552Y002854D01*
X015686Y002854D01*
X015619Y002754D02*
X015552Y002754D01*
X015619Y002754D01*
X015465Y002754D02*
X015431Y002720D01*
X015331Y002720D01*
X015431Y002720D01*
X015465Y002754D01*
X015465Y002820D01*
X015431Y002854D01*
X015331Y002854D01*
X015331Y002654D01*
X015331Y002854D01*
X015431Y002854D01*
X015465Y002820D01*
X015465Y002754D01*
X015398Y002720D02*
X015465Y002654D01*
X015398Y002720D01*
X015023Y002720D02*
X014956Y002654D01*
X014889Y002720D01*
X014889Y002854D01*
X014889Y002720D01*
X014956Y002654D01*
X015023Y002720D01*
X015023Y002854D01*
X015023Y002720D01*
X014802Y002687D02*
X014768Y002654D01*
X014702Y002654D01*
X014668Y002687D01*
X014702Y002654D01*
X014768Y002654D01*
X014802Y002687D01*
X014802Y002754D01*
X014768Y002787D01*
X014735Y002787D01*
X014668Y002754D01*
X014668Y002854D01*
X014802Y002854D01*
X014668Y002854D01*
X014668Y002754D01*
X014735Y002787D01*
X014768Y002787D01*
X014802Y002754D01*
X014802Y002687D01*
X014581Y002754D02*
X014447Y002754D01*
X014581Y002754D01*
X014514Y002820D02*
X014514Y002687D01*
X014514Y002820D01*
X009608Y009302D02*
X009408Y009302D01*
X009408Y009402D01*
X009441Y009436D01*
X009508Y009436D01*
X009541Y009402D01*
X009541Y009302D01*
X009508Y009523D02*
X009475Y009556D01*
X009475Y009623D01*
X009508Y009656D01*
X009575Y009656D01*
X009608Y009623D01*
X009608Y009556D01*
X009575Y009523D01*
X009508Y009523D01*
X009508Y009744D02*
X009508Y009811D01*
X009608Y009877D02*
X009608Y009744D01*
X009408Y009744D01*
X009408Y009877D01*
X009475Y010186D02*
X009408Y010253D01*
X009608Y010253D01*
X009608Y010319D02*
X009608Y010186D01*
X009575Y010407D02*
X009441Y010407D01*
X009408Y010440D01*
X009408Y010507D01*
X009441Y010540D01*
X009575Y010407D01*
X009608Y010440D01*
X009608Y010507D01*
X009575Y010540D01*
X009441Y010540D01*
X009608Y010628D02*
X009408Y010761D01*
X009475Y010849D02*
X009408Y010916D01*
X009608Y010916D01*
X009608Y010982D02*
X009608Y010849D01*
X009802Y010934D02*
X010002Y010934D01*
X009935Y010934D02*
X009868Y011034D01*
X009935Y010934D02*
X010002Y011034D01*
X010002Y010847D02*
X010002Y010746D01*
X009968Y010713D01*
X009902Y010713D01*
X009868Y010746D01*
X009868Y010847D01*
X009902Y010626D02*
X010002Y010626D01*
X010002Y010525D01*
X009968Y010492D01*
X009935Y010525D01*
X009935Y010626D01*
X009902Y010626D02*
X009868Y010592D01*
X009868Y010525D01*
X009802Y010405D02*
X009802Y010338D01*
X009802Y010371D02*
X009968Y010371D01*
X010002Y010338D01*
X010002Y010304D01*
X009968Y010271D01*
X010002Y010184D02*
X010002Y010084D01*
X009968Y010050D01*
X009902Y010050D01*
X009868Y010084D01*
X009868Y010184D01*
X010035Y010184D01*
X010068Y010150D01*
X010068Y010117D01*
X010002Y009963D02*
X010002Y009863D01*
X009968Y009829D01*
X009935Y009863D01*
X009935Y009963D01*
X009902Y009963D02*
X010002Y009963D01*
X009902Y009963D02*
X009868Y009929D01*
X009868Y009863D01*
X009802Y009742D02*
X010002Y009742D01*
X010002Y009608D02*
X009802Y009608D01*
X009868Y009675D01*
X009802Y009742D01*
X009575Y011070D02*
X009441Y011070D01*
X009408Y011103D01*
X009408Y011170D01*
X009441Y011203D01*
X009575Y011070D01*
X009608Y011103D01*
X009608Y011170D01*
X009575Y011203D01*
X009441Y011203D01*
X009441Y011291D02*
X009408Y011324D01*
X009408Y011391D01*
X009441Y011424D01*
X009575Y011291D01*
X009608Y011324D01*
X009608Y011391D01*
X009575Y011424D01*
X009441Y011424D01*
X009441Y011291D02*
X009575Y011291D01*
X020550Y010728D02*
X020550Y010528D01*
X020616Y010594D01*
X020683Y010528D01*
X020683Y010728D01*
X020771Y010728D02*
X020837Y010728D01*
X020804Y010728D02*
X020804Y010528D01*
X020771Y010528D02*
X020837Y010528D01*
X020918Y010528D02*
X021051Y010528D01*
X021139Y010528D02*
X021139Y010728D01*
X021272Y010528D01*
X021272Y010728D01*
X021360Y010728D02*
X021360Y010528D01*
X021493Y010528D01*
X021427Y010628D02*
X021360Y010628D01*
X021360Y010728D02*
X021493Y010728D01*
X021581Y010728D02*
X021714Y010728D01*
X021648Y010728D02*
X021648Y010528D01*
X021051Y010694D02*
X020918Y010561D01*
X020918Y010528D01*
X020918Y010728D02*
X021051Y010728D01*
X021051Y010694D01*
X024280Y014662D02*
X024247Y014695D01*
X024247Y014762D01*
X024280Y014795D01*
X024313Y014795D01*
X024447Y014662D01*
X024447Y014795D01*
X024413Y014883D02*
X024447Y014916D01*
X024447Y014983D01*
X024413Y015016D01*
X024347Y015016D01*
X024313Y014983D01*
X024313Y014949D01*
X024347Y014883D01*
X024247Y014883D01*
X024247Y015016D01*
X024247Y015104D02*
X024313Y015170D01*
X024247Y015237D01*
X024447Y015237D01*
X024447Y015325D02*
X024247Y015325D01*
X024347Y015325D02*
X024347Y015458D01*
X024313Y015546D02*
X024313Y015679D01*
X024447Y015546D01*
X024447Y015679D01*
X024447Y015458D02*
X024247Y015458D01*
X024247Y015104D02*
X024447Y015104D01*
X028577Y015082D02*
X028611Y015049D01*
X028577Y015082D02*
X028577Y015149D01*
X028611Y015182D01*
X028644Y015182D01*
X028777Y015049D01*
X028777Y015182D01*
X028744Y015270D02*
X028611Y015403D01*
X028744Y015403D01*
X028777Y015370D01*
X028777Y015303D01*
X028744Y015270D01*
X028611Y015270D01*
X028577Y015303D01*
X028577Y015370D01*
X028611Y015403D01*
X028577Y015491D02*
X028644Y015558D01*
X028577Y015624D01*
X028777Y015624D01*
X028777Y015712D02*
X028577Y015712D01*
X028677Y015712D02*
X028677Y015845D01*
X028644Y015933D02*
X028644Y016066D01*
X028777Y015933D01*
X028777Y016066D01*
X028777Y015845D02*
X028577Y015845D01*
X028577Y015491D02*
X028777Y015491D01*
X028577Y014961D02*
X028777Y014828D01*
X028744Y014740D02*
X028711Y014740D01*
X028677Y014707D01*
X028677Y014607D01*
X028744Y014607D01*
X028777Y014640D01*
X028777Y014707D01*
X028744Y014740D01*
X028611Y014674D02*
X028677Y014607D01*
X028611Y014674D02*
X028577Y014740D01*
X028577Y014453D02*
X028777Y014453D01*
X028777Y014519D02*
X028777Y014386D01*
X028644Y014386D02*
X028577Y014453D01*
X028630Y010728D02*
X028496Y010728D01*
X028496Y010528D01*
X028630Y010528D01*
X028717Y010561D02*
X028751Y010528D01*
X028817Y010528D01*
X028851Y010561D01*
X028851Y010628D01*
X028784Y010628D01*
X028851Y010694D02*
X028817Y010728D01*
X028751Y010728D01*
X028717Y010694D01*
X028717Y010561D01*
X028563Y010628D02*
X028496Y010628D01*
X028409Y010728D02*
X028409Y010528D01*
X028275Y010528D02*
X028275Y010728D01*
X028342Y010661D01*
X028409Y010728D01*
X028188Y010728D02*
X028054Y010728D01*
X028121Y010728D02*
X028121Y010528D01*
X027967Y010528D02*
X027967Y010661D01*
X027900Y010728D01*
X027833Y010661D01*
X027833Y010528D01*
X027833Y010628D02*
X027967Y010628D01*
X028938Y010628D02*
X029072Y010628D01*
X029072Y010661D02*
X029072Y010528D01*
X029072Y010661D02*
X029005Y010728D01*
X028938Y010661D01*
X028938Y010528D01*
X024610Y018205D02*
X024477Y018205D01*
X024443Y018238D01*
X024443Y018305D01*
X024477Y018338D01*
X024544Y018338D02*
X024544Y018272D01*
X024544Y018338D02*
X024610Y018338D01*
X024644Y018305D01*
X024644Y018238D01*
X024610Y018205D01*
X024644Y018426D02*
X024443Y018426D01*
X024644Y018559D01*
X024443Y018559D01*
X024443Y018647D02*
X024443Y018747D01*
X024477Y018780D01*
X024610Y018780D01*
X024644Y018747D01*
X024644Y018647D01*
X024443Y018647D01*
X024544Y018992D02*
X024544Y019126D01*
X024477Y019059D02*
X024610Y019059D01*
X024610Y019213D02*
X024644Y019247D01*
X024644Y019313D01*
X024610Y019347D01*
X024577Y019347D01*
X024544Y019313D01*
X024544Y019280D01*
X024544Y019313D02*
X024510Y019347D01*
X024477Y019347D01*
X024443Y019313D01*
X024443Y019247D01*
X024477Y019213D01*
X024443Y019434D02*
X024577Y019434D01*
X024644Y019501D01*
X024577Y019568D01*
X024443Y019568D01*
X024477Y019655D02*
X024443Y019689D01*
X024443Y019755D01*
X024477Y019789D01*
X024510Y019789D01*
X024544Y019755D01*
X024577Y019789D01*
X024610Y019789D01*
X024644Y019755D01*
X024644Y019689D01*
X024610Y019655D01*
X024544Y019722D02*
X024544Y019755D01*
X017703Y018569D02*
X017669Y018602D01*
X017602Y018602D01*
X017569Y018569D01*
X017569Y018435D01*
X017602Y018402D01*
X017669Y018402D01*
X017703Y018435D01*
X017703Y018502D01*
X017636Y018502D01*
X017482Y018602D02*
X017348Y018602D01*
X017348Y018402D01*
X017482Y018402D01*
X017415Y018502D02*
X017348Y018502D01*
X017261Y018502D02*
X017227Y018468D01*
X017127Y018468D01*
X017127Y018402D02*
X017127Y018602D01*
X017227Y018602D01*
X017261Y018569D01*
X017261Y018502D01*
X017194Y018468D02*
X017261Y018402D01*
X016819Y018435D02*
X016785Y018402D01*
X016719Y018402D01*
X016685Y018435D01*
X016598Y018468D02*
X016598Y018602D01*
X016685Y018569D02*
X016719Y018602D01*
X016785Y018602D01*
X016819Y018569D01*
X016819Y018535D01*
X016785Y018502D01*
X016819Y018468D01*
X016819Y018435D01*
X016785Y018502D02*
X016752Y018502D01*
X016598Y018468D02*
X016531Y018402D01*
X016464Y018468D01*
X016464Y018602D01*
X016377Y018569D02*
X016377Y018535D01*
X016343Y018502D01*
X016377Y018468D01*
X016377Y018435D01*
X016343Y018402D01*
X016277Y018402D01*
X016243Y018435D01*
X016310Y018502D02*
X016343Y018502D01*
X016377Y018569D02*
X016343Y018602D01*
X016277Y018602D01*
X016243Y018569D01*
X016156Y018502D02*
X016022Y018502D01*
X016089Y018569D02*
X016089Y018435D01*
D12*
X010347Y002996D02*
X007287Y002996D01*
X007287Y006536D01*
X008657Y006536D01*
X008657Y003006D01*
X012472Y002996D02*
X012597Y002996D01*
X012597Y003871D01*
X012597Y005996D02*
X012597Y006536D01*
X008657Y006536D01*
X006453Y007333D02*
X006453Y013683D01*
X005453Y013683D01*
X005453Y007333D01*
X006453Y007333D01*
X015453Y007333D01*
X015453Y013683D01*
X006453Y013683D01*
X013443Y014760D02*
X013443Y015744D01*
X016514Y011098D02*
X017498Y011098D01*
X017459Y009917D02*
X016475Y009917D01*
X024624Y014248D02*
X025884Y014248D01*
X025884Y016216D01*
X024624Y016216D01*
X024624Y014248D01*
X028955Y014248D02*
X030215Y014248D01*
X030215Y016216D01*
X028955Y016216D01*
X028955Y014248D01*
X025870Y017698D02*
X025870Y017743D01*
X026050Y017923D01*
X026050Y017968D01*
X025870Y017968D01*
X029964Y019869D02*
X030144Y020049D01*
X030144Y019869D01*
X030099Y019824D01*
X030009Y019824D01*
X029964Y019869D01*
X029964Y020049D01*
X030009Y020094D01*
X030099Y020094D01*
X030144Y020049D01*
X028924Y003362D02*
X028744Y003362D01*
X028924Y003362D02*
X028924Y003317D01*
X028744Y003137D01*
X028744Y003092D01*
X024850Y001068D02*
X024850Y000888D01*
X024805Y000843D01*
X024715Y000843D01*
X024670Y000888D01*
X024850Y001068D01*
X024805Y001113D01*
X024715Y001113D01*
X024670Y001068D01*
X024670Y000888D01*
D13*
X024920Y001293D02*
X024920Y002793D01*
X025170Y003043D01*
X025670Y003043D01*
X025920Y002793D01*
X025920Y001293D01*
X026170Y001043D01*
X026670Y001043D01*
X026920Y001293D01*
X026920Y002793D01*
X027170Y003043D01*
X027670Y003043D01*
X027920Y002793D01*
X027920Y001293D01*
X028170Y001043D01*
X028670Y001043D01*
X028920Y001293D01*
X029170Y001043D01*
X029670Y001043D01*
X029920Y001293D01*
X029920Y002793D01*
X029670Y003043D01*
X029170Y003043D01*
X028920Y002793D01*
X028920Y001293D01*
X027920Y001293D02*
X027670Y001043D01*
X027170Y001043D01*
X026920Y001293D01*
X025920Y001293D02*
X025670Y001043D01*
X025170Y001043D01*
X024920Y001293D01*
X025920Y002793D02*
X026170Y003043D01*
X026670Y003043D01*
X026920Y002793D01*
X027920Y002793D02*
X028170Y003043D01*
X028670Y003043D01*
X028920Y002793D01*
X029784Y009128D02*
X027164Y009128D01*
X027024Y009268D01*
X027024Y011888D01*
X029784Y011888D01*
X029784Y009128D01*
X027183Y009428D02*
X027185Y009451D01*
X027191Y009474D01*
X027200Y009495D01*
X027213Y009515D01*
X027229Y009532D01*
X027247Y009546D01*
X027267Y009557D01*
X027289Y009565D01*
X027312Y009569D01*
X027336Y009569D01*
X027359Y009565D01*
X027381Y009557D01*
X027401Y009546D01*
X027419Y009532D01*
X027435Y009515D01*
X027448Y009495D01*
X027457Y009474D01*
X027463Y009451D01*
X027465Y009428D01*
X027463Y009405D01*
X027457Y009382D01*
X027448Y009361D01*
X027435Y009341D01*
X027419Y009324D01*
X027401Y009310D01*
X027381Y009299D01*
X027359Y009291D01*
X027336Y009287D01*
X027312Y009287D01*
X027289Y009291D01*
X027267Y009299D01*
X027247Y009310D01*
X027229Y009324D01*
X027213Y009341D01*
X027200Y009361D01*
X027191Y009382D01*
X027185Y009405D01*
X027183Y009428D01*
X030713Y017094D02*
X031213Y017094D01*
X031463Y017344D01*
X031463Y017844D01*
X031213Y018094D01*
X030713Y018094D01*
X030463Y017844D01*
X030463Y017344D01*
X030713Y017094D01*
X029670Y017972D02*
X029170Y017972D01*
X028920Y018222D01*
X028920Y019722D01*
X028670Y019972D01*
X028170Y019972D01*
X027920Y019722D01*
X027920Y018222D01*
X027670Y017972D01*
X027170Y017972D01*
X026920Y018222D01*
X026920Y019722D01*
X026670Y019972D01*
X026170Y019972D01*
X025920Y019722D01*
X025670Y019972D01*
X025170Y019972D01*
X024920Y019722D01*
X024920Y018222D01*
X025170Y017972D01*
X025670Y017972D01*
X025920Y018222D01*
X025920Y019722D01*
X026920Y019722D02*
X027170Y019972D01*
X027670Y019972D01*
X027920Y019722D01*
X028920Y019722D02*
X029170Y019972D01*
X029670Y019972D01*
X029920Y019722D01*
X029920Y018222D01*
X029670Y017972D01*
X028920Y018222D02*
X028670Y017972D01*
X028170Y017972D01*
X027920Y018222D01*
X026920Y018222D02*
X026670Y017972D01*
X026170Y017972D01*
X025920Y018222D01*
X013762Y018222D02*
X013512Y017972D01*
X013012Y017972D01*
X012762Y018222D01*
X012762Y019722D01*
X012512Y019972D01*
X012012Y019972D01*
X011762Y019722D01*
X011512Y019972D01*
X011012Y019972D01*
X010762Y019722D01*
X010762Y018222D01*
X011012Y017972D01*
X011512Y017972D01*
X011762Y018222D01*
X011762Y019722D01*
X012762Y019722D02*
X013012Y019972D01*
X013512Y019972D01*
X013762Y019722D01*
X013762Y018222D01*
X012762Y018222D02*
X012512Y017972D01*
X012012Y017972D01*
X011762Y018222D01*
X011723Y001550D02*
X011723Y001507D01*
X011723Y001420D02*
X011723Y001246D01*
X011766Y001246D02*
X011679Y001246D01*
X011570Y001246D02*
X011526Y001290D01*
X011526Y001463D01*
X011483Y001420D02*
X011570Y001420D01*
X011679Y001420D02*
X011723Y001420D01*
X011876Y001376D02*
X011919Y001420D01*
X012049Y001420D01*
X012049Y001507D02*
X012049Y001246D01*
X011919Y001246D01*
X011876Y001290D01*
X011876Y001376D01*
X012171Y001290D02*
X012214Y001333D01*
X012344Y001333D01*
X012344Y001376D02*
X012344Y001246D01*
X012214Y001246D01*
X012171Y001290D01*
X012214Y001420D02*
X012301Y001420D01*
X012344Y001376D01*
X012465Y001376D02*
X012509Y001420D01*
X012595Y001420D01*
X012639Y001376D01*
X012639Y001333D01*
X012465Y001333D01*
X012465Y001290D02*
X012465Y001376D01*
X012465Y001290D02*
X012509Y001246D01*
X012595Y001246D01*
X013054Y001420D02*
X013141Y001246D01*
X013228Y001420D01*
X013349Y001463D02*
X013349Y001290D01*
X013523Y001463D01*
X013523Y001290D01*
X013479Y001246D01*
X013392Y001246D01*
X013349Y001290D01*
X013349Y001463D02*
X013392Y001507D01*
X013479Y001507D01*
X013523Y001463D01*
X013644Y001463D02*
X013687Y001507D01*
X013774Y001507D01*
X013817Y001463D01*
X013817Y001420D01*
X013644Y001246D01*
X013817Y001246D01*
X011362Y001246D02*
X011232Y001246D01*
X011188Y001290D01*
X011232Y001333D01*
X011362Y001333D01*
X011362Y001376D02*
X011362Y001246D01*
X011362Y001376D02*
X011319Y001420D01*
X011232Y001420D01*
X011067Y001376D02*
X011067Y001246D01*
X011067Y001376D02*
X011024Y001420D01*
X010894Y001420D01*
X010894Y001246D01*
X010773Y001246D02*
X010773Y001420D01*
X010686Y001507D01*
X010599Y001420D01*
X010599Y001246D01*
X010599Y001376D02*
X010773Y001376D01*
D14*
X016986Y009917D03*
X016986Y011098D03*
D15*
X016593Y011344D02*
X017380Y011344D01*
X017380Y010852D02*
X016593Y010852D01*
X016593Y010163D02*
X017380Y010163D01*
X017380Y009671D02*
X016593Y009671D01*
X013689Y014838D02*
X013689Y015626D01*
X013197Y015626D02*
X013197Y014838D01*
D16*
X018955Y018736D03*
X019939Y018736D03*
X020923Y018736D03*
X021908Y018736D03*
X022892Y018736D03*
X023876Y018736D03*
X014821Y019130D03*
X031357Y011453D03*
X017183Y001886D03*
D17*
X013443Y015232D03*
D18*
X020530Y005193D02*
X020569Y005193D01*
X020530Y005193D02*
X020530Y004838D01*
X020530Y003579D02*
X020530Y003224D01*
X020569Y003224D01*
X022459Y003224D02*
X022498Y003224D01*
X022498Y003579D01*
X022498Y004838D02*
X022498Y005193D01*
X022459Y005193D01*
D19*
X022734Y003500D03*
M02*
