G75*
G70*
%OFA0B0*%
%FSLAX24Y24*%
%IPPOS*%
%LPD*%
%AMOC8*
5,1,8,0,0,1.08239X$1,22.5*
%
%ADD10C,0.1340*%
%ADD11C,0.0630*%
%ADD12R,0.0630X0.0630*%
%ADD13C,0.1010*%
%ADD14C,0.1360*%
%ADD15C,0.0680*%
%ADD16C,0.0674*%
%ADD17OC8,0.0680*%
%ADD18R,0.1655X0.0552*%
%ADD19R,0.1655X0.0356*%
%ADD20R,0.1182X0.0867*%
%ADD21C,0.0513*%
%ADD22C,0.0710*%
%ADD23OC8,0.1980*%
%ADD24R,0.0400X0.0400*%
%ADD25OC8,0.0476*%
D10*
X010570Y001604D03*
X031830Y001604D03*
X031830Y018927D03*
X010570Y018927D03*
D11*
X014070Y012516D03*
X015070Y012016D03*
X014070Y011516D03*
X013070Y012016D03*
X013070Y010016D03*
X014070Y009516D03*
X013070Y009016D03*
X014070Y008516D03*
D12*
X013070Y008016D03*
D13*
X011770Y007616D03*
X011770Y012916D03*
D14*
X010570Y012516D03*
X010570Y008016D03*
D15*
X015970Y008116D03*
X015970Y009116D03*
X015970Y011416D03*
X015970Y012416D03*
D16*
X013327Y014695D02*
X012734Y014695D01*
X010768Y014695D02*
X010174Y014695D01*
X010174Y016467D02*
X010768Y016467D01*
X012734Y016467D02*
X013327Y016467D01*
D17*
X013129Y018230D03*
X014129Y018230D03*
X014129Y019230D03*
X013129Y019230D03*
X012129Y019230D03*
X012129Y018230D03*
X026286Y018230D03*
X027286Y018230D03*
X028286Y018230D03*
X029286Y018230D03*
X030286Y018230D03*
X031830Y017352D03*
X030286Y019230D03*
X029286Y019230D03*
X028286Y019230D03*
X027286Y019230D03*
X026286Y019230D03*
X026286Y002301D03*
X027286Y002301D03*
X028286Y002301D03*
X029286Y002301D03*
X030286Y002301D03*
X030286Y001301D03*
X029286Y001301D03*
X028286Y001301D03*
X027286Y001301D03*
X026286Y001301D03*
D18*
X022617Y006565D03*
X022617Y007549D03*
X022617Y008534D03*
X022617Y009518D03*
X022617Y010502D03*
X022617Y011486D03*
X022617Y012471D03*
X022617Y013455D03*
D19*
X022617Y014085D03*
X022617Y014597D03*
X022617Y015069D03*
D20*
X023365Y015738D03*
X031554Y015699D03*
X023326Y005660D03*
X031554Y004715D03*
D21*
X023798Y014833D03*
D22*
X023798Y006526D03*
D23*
X013463Y004724D03*
X011103Y004724D03*
X012283Y002754D03*
D24*
X022381Y003967D03*
D25*
X020412Y003967D03*
X019900Y003967D03*
X019822Y004754D03*
X020412Y004754D03*
X020412Y002589D03*
X021200Y002589D03*
X022656Y002549D03*
X023759Y002589D03*
X024271Y003337D03*
X025530Y003770D03*
X025727Y004360D03*
X024349Y005738D03*
X025924Y007510D03*
X026711Y007510D03*
X027499Y007904D03*
X027696Y007313D03*
X027696Y006723D03*
X028286Y005541D03*
X028286Y004754D03*
X030255Y004951D03*
X030649Y005345D03*
X030845Y005935D03*
X030845Y006762D03*
X030137Y007707D03*
X031593Y008691D03*
X032105Y008691D03*
X032617Y008691D03*
X031593Y010069D03*
X031633Y010660D03*
X030255Y010856D03*
X030058Y010069D03*
X029664Y009478D03*
X030255Y009282D03*
X028680Y009400D03*
X028247Y010502D03*
X028680Y010856D03*
X028286Y011250D03*
X029074Y011250D03*
X027302Y012234D03*
X027696Y013022D03*
X028680Y012628D03*
X029271Y013219D03*
X031042Y012234D03*
X031436Y011841D03*
X031908Y013179D03*
X031633Y014203D03*
X031633Y014793D03*
X032223Y014793D03*
X032578Y014045D03*
X026711Y011053D03*
X026908Y010423D03*
X024940Y010463D03*
X023050Y010935D03*
X021397Y011250D03*
X020609Y011289D03*
X021082Y010738D03*
X020845Y009833D03*
X021397Y008967D03*
X019625Y007904D03*
X019625Y007116D03*
X019034Y007116D03*
X018837Y008494D03*
X018837Y009085D03*
X017066Y007904D03*
X014507Y006919D03*
X016869Y010266D03*
X016869Y011447D03*
X018247Y011408D03*
X018956Y010463D03*
X019034Y013022D03*
X020924Y013612D03*
X021003Y014793D03*
X022381Y015974D03*
X024743Y015974D03*
X024743Y015384D03*
X024546Y014597D03*
X025137Y013219D03*
X025137Y012234D03*
X024152Y012234D03*
X019231Y016171D03*
X018641Y018140D03*
X012145Y015581D03*
X015491Y013809D03*
X016672Y013415D03*
X014704Y010974D03*
X012735Y011053D03*
X012145Y010463D03*
X024546Y007904D03*
X030255Y003179D03*
X031239Y002392D03*
X032420Y002392D03*
X024940Y001998D03*
X024940Y001211D03*
X018641Y002589D03*
X016869Y002392D03*
X017263Y001191D03*
X014113Y001604D03*
M02*
