M48
INCH,TZ
T1C0.020
T2C0.020
T3C0.035
T4C0.042
T5C0.042
T6C0.060
T7C0.125
T8C0.125
T9C0.125
%
T1
X022381Y003967
T2
X020412Y003967
X019900Y003967
X019900Y004754
X020412Y004754
X020412Y002589
X021200Y002589
X022656Y002549
X023759Y002589
X024271Y003337
X025727Y003770
X025727Y004360
X024349Y005738
X024349Y007510
X025924Y007510
X026711Y007510
X027499Y007904
X027696Y007313
X027696Y006723
X029861Y006329
X030845Y007116
X030452Y007510
X030845Y007904
X031830Y008297
X030255Y009282
X029664Y009478
X030058Y010069
X030255Y010856
X029074Y011250
X028680Y010856
X028286Y011250
X028247Y010502
X026908Y010423
X026711Y011053
X027105Y012037
X027696Y012628
X028680Y012628
X029428Y013219
X031042Y012037
X031633Y011841
X031633Y010660
X028680Y009400
X024940Y010463
X023168Y010463
X023168Y011250
X021790Y011053
X021200Y010856
X020609Y011289
X021790Y011644
X021987Y010069
X021003Y009478
X021200Y008888
X019625Y007904
X019625Y007116
X019034Y007116
X018837Y008494
X018837Y009085
X017066Y010266
X016869Y011447
X018247Y011408
X018956Y010463
X019034Y013022
X020609Y013415
X021200Y013534
X024074Y013415
X024743Y012943
X025137Y013809
X020412Y016368
X019034Y016171
X019428Y017943
X017066Y017943
X012145Y015581
X015491Y013809
X016672Y013415
X014704Y010974
X012735Y011053
X012145Y010463
X017066Y007904
X014507Y006919
X018641Y002589
X016869Y002392
X017263Y001191
X014113Y001604
X024940Y001998
X025530Y001408
X023168Y009675
X032026Y014203
X032026Y014793
X025530Y017352
X024940Y017352
X024743Y019518
T3
X014070Y012516
X015070Y012016
X014070Y011516
X013070Y012016
X013070Y010016
X014070Y009516
X013070Y009016
X014070Y008516
X013070Y008016
T4
X013030Y014695
X010471Y014695
X010471Y016467
X013030Y016467
T5
X013129Y018230
X014129Y018230
X014129Y019230
X013129Y019230
X012129Y019230
X012129Y018230
X020684Y018230
X021684Y018230
X022684Y018230
X023684Y018230
X023684Y019230
X022684Y019230
X021684Y019230
X020684Y019230
X026286Y019230
X027286Y019230
X028286Y019230
X029286Y019230
X030286Y019230
X030286Y018230
X029286Y018230
X028286Y018230
X027286Y018230
X026286Y018230
X031830Y017549
X015970Y012416
X015970Y011416
X015970Y009116
X015970Y008116
X026286Y002301
X027286Y002301
X028286Y002301
X029286Y002301
X030286Y002301
X030286Y001301
X029286Y001301
X028286Y001301
X027286Y001301
X026286Y001301
T6
X011770Y007616
X011770Y012916
T7
X010570Y001604
X031830Y001604
X031830Y018927
X010570Y018927
T8
X010570Y012516
X010570Y008016
T9
X011103Y004724
X013463Y004724
X012283Y002754
M30

