G75*
G70*
%OFA0B0*%
%FSLAX24Y24*%
%IPPOS*%
%LPD*%
%AMOC8*
5,1,8,0,0,1.08239X$1,22.5*
%
%ADD10C,0.0090*%
%ADD11C,0.0070*%
%ADD12C,0.0590*%
%ADD13R,0.0590X0.0590*%
%ADD14C,0.0930*%
%ADD15C,0.0640*%
%ADD16C,0.0634*%
%ADD17OC8,0.0640*%
%ADD18OC8,0.1900*%
%ADD19R,0.0358X0.0358*%
%ADD20OC8,0.0436*%
%ADD21C,0.0100*%
D10*
X032229Y002642D02*
X032458Y002642D01*
X032572Y002756D01*
X032458Y002871D01*
X032229Y002871D01*
X032229Y003041D02*
X032458Y003041D01*
X032458Y003212D01*
X032401Y003270D01*
X032229Y003270D01*
X032286Y003439D02*
X032343Y003497D01*
X032343Y003668D01*
X032401Y003668D02*
X032229Y003668D01*
X032229Y003497D01*
X032286Y003439D01*
X032458Y003497D02*
X032458Y003611D01*
X032401Y003668D01*
X032458Y003838D02*
X032458Y003953D01*
X032515Y003895D02*
X032286Y003895D01*
X032229Y003953D01*
X032229Y004104D02*
X032229Y004218D01*
X032229Y004161D02*
X032458Y004161D01*
X032458Y004104D01*
X032572Y004161D02*
X032629Y004161D01*
X032401Y004370D02*
X032458Y004427D01*
X032458Y004599D01*
X032572Y004599D02*
X032229Y004599D01*
X032229Y004427D01*
X032286Y004370D01*
X032401Y004370D01*
X032286Y004769D02*
X032343Y004826D01*
X032343Y004997D01*
X032401Y004997D02*
X032229Y004997D01*
X032229Y004826D01*
X032286Y004769D01*
X032458Y004826D02*
X032458Y004940D01*
X032401Y004997D01*
X032401Y005167D02*
X032458Y005224D01*
X032458Y005339D01*
X032401Y005396D01*
X032343Y005396D01*
X032343Y005167D01*
X032286Y005167D02*
X032401Y005167D01*
X032286Y005167D02*
X032229Y005224D01*
X032229Y005339D01*
X032458Y005965D02*
X032229Y006079D01*
X032458Y006194D01*
X032515Y006363D02*
X032572Y006421D01*
X032572Y006535D01*
X032515Y006592D01*
X032286Y006363D01*
X032229Y006421D01*
X032229Y006535D01*
X032286Y006592D01*
X032515Y006592D01*
X032515Y006762D02*
X032572Y006819D01*
X032572Y006934D01*
X032515Y006991D01*
X032458Y006991D01*
X032401Y006934D01*
X032343Y006991D01*
X032286Y006991D01*
X032229Y006934D01*
X032229Y006819D01*
X032286Y006762D01*
X032401Y006877D02*
X032401Y006934D01*
X032286Y006363D02*
X032515Y006363D01*
X032401Y002871D02*
X032401Y002642D01*
D11*
X031992Y002762D02*
X031947Y002718D01*
X031903Y002718D01*
X031859Y002762D01*
X031859Y002850D01*
X031815Y002894D01*
X031771Y002894D01*
X031727Y002850D01*
X031727Y002762D01*
X031771Y002718D01*
X031992Y002762D02*
X031992Y002850D01*
X031947Y002894D01*
X031859Y003026D02*
X031903Y003070D01*
X031903Y003158D01*
X031859Y003202D01*
X031815Y003202D01*
X031815Y003026D01*
X031771Y003026D02*
X031859Y003026D01*
X031771Y003026D02*
X031727Y003070D01*
X031727Y003158D01*
X031903Y003334D02*
X031727Y003422D01*
X031903Y003510D01*
X031859Y003642D02*
X031903Y003686D01*
X031903Y003774D01*
X031859Y003818D01*
X031815Y003818D01*
X031815Y003642D01*
X031771Y003642D02*
X031859Y003642D01*
X031771Y003642D02*
X031727Y003686D01*
X031727Y003774D01*
X031727Y003950D02*
X031903Y003950D01*
X031815Y003950D02*
X031903Y004038D01*
X031903Y004082D01*
X031903Y004207D02*
X031903Y004251D01*
X031727Y004251D01*
X031727Y004207D02*
X031727Y004295D01*
X031727Y004412D02*
X031903Y004412D01*
X031903Y004545D01*
X031859Y004589D01*
X031727Y004589D01*
X031992Y004251D02*
X032036Y004251D01*
X031947Y005028D02*
X031903Y005028D01*
X031859Y005073D01*
X031859Y005161D01*
X031815Y005205D01*
X031771Y005205D01*
X031727Y005161D01*
X031727Y005073D01*
X031771Y005028D01*
X031947Y005028D02*
X031992Y005073D01*
X031992Y005161D01*
X031947Y005205D01*
X031903Y005336D02*
X031727Y005336D01*
X031727Y005425D02*
X031859Y005425D01*
X031903Y005469D01*
X031859Y005513D01*
X031727Y005513D01*
X031727Y005645D02*
X031727Y005733D01*
X031727Y005689D02*
X031903Y005689D01*
X031903Y005645D01*
X031992Y005689D02*
X032036Y005689D01*
X031903Y005850D02*
X031903Y005938D01*
X031947Y005894D02*
X031771Y005894D01*
X031727Y005938D01*
X031727Y006055D02*
X031992Y006055D01*
X031903Y006100D02*
X031903Y006188D01*
X031859Y006232D01*
X031727Y006232D01*
X031859Y006055D02*
X031903Y006100D01*
X031859Y005425D02*
X031903Y005381D01*
X031903Y005336D01*
D12*
X015070Y012016D03*
X014070Y012516D03*
X013070Y012016D03*
X014070Y011516D03*
X013070Y010016D03*
X014070Y009516D03*
X013070Y009016D03*
X014070Y008516D03*
D13*
X013070Y008016D03*
D14*
X011770Y007616D03*
X011770Y012916D03*
D15*
X015970Y012416D03*
X015970Y011416D03*
X015970Y009116D03*
X015970Y008116D03*
D16*
X013347Y014695D02*
X012714Y014695D01*
X010788Y014695D02*
X010154Y014695D01*
X010154Y016467D02*
X010788Y016467D01*
X012714Y016467D02*
X013347Y016467D01*
D17*
X013129Y018230D03*
X014129Y018230D03*
X014129Y019230D03*
X013129Y019230D03*
X012129Y019230D03*
X012129Y018230D03*
X020684Y018230D03*
X021684Y018230D03*
X022684Y018230D03*
X023684Y018230D03*
X023684Y019230D03*
X022684Y019230D03*
X021684Y019230D03*
X020684Y019230D03*
X026286Y019230D03*
X027286Y019230D03*
X028286Y019230D03*
X029286Y019230D03*
X030286Y019230D03*
X030286Y018230D03*
X029286Y018230D03*
X028286Y018230D03*
X027286Y018230D03*
X026286Y018230D03*
X031830Y017549D03*
X030286Y002301D03*
X029286Y002301D03*
X028286Y002301D03*
X027286Y002301D03*
X026286Y002301D03*
X026286Y001301D03*
X027286Y001301D03*
X028286Y001301D03*
X029286Y001301D03*
X030286Y001301D03*
D18*
X013463Y004724D03*
X011103Y004724D03*
X012283Y002754D03*
D19*
X022381Y003967D03*
D20*
X020412Y003967D03*
X019900Y003967D03*
X019900Y004754D03*
X020412Y004754D03*
X020412Y002589D03*
X021200Y002589D03*
X022656Y002549D03*
X023759Y002589D03*
X024271Y003337D03*
X025727Y003770D03*
X025727Y004360D03*
X024349Y005738D03*
X024349Y007510D03*
X025924Y007510D03*
X026711Y007510D03*
X027499Y007904D03*
X027696Y007313D03*
X027696Y006723D03*
X029861Y006329D03*
X030845Y007116D03*
X030452Y007510D03*
X030845Y007904D03*
X031830Y008297D03*
X030255Y009282D03*
X029664Y009478D03*
X030058Y010069D03*
X030255Y010856D03*
X029074Y011250D03*
X028680Y010856D03*
X028286Y011250D03*
X028247Y010502D03*
X026908Y010423D03*
X026711Y011053D03*
X027105Y012037D03*
X027696Y012628D03*
X028680Y012628D03*
X029428Y013219D03*
X031042Y012037D03*
X031633Y011841D03*
X031633Y010660D03*
X028680Y009400D03*
X024940Y010463D03*
X023168Y010463D03*
X023168Y011250D03*
X021790Y011053D03*
X021200Y010856D03*
X020609Y011289D03*
X021790Y011644D03*
X021987Y010069D03*
X021003Y009478D03*
X021200Y008888D03*
X019625Y007904D03*
X019625Y007116D03*
X019034Y007116D03*
X018837Y008494D03*
X018837Y009085D03*
X017066Y010266D03*
X016869Y011447D03*
X018247Y011408D03*
X018956Y010463D03*
X019034Y013022D03*
X020609Y013415D03*
X021200Y013534D03*
X024074Y013415D03*
X024743Y012943D03*
X025137Y013809D03*
X020412Y016368D03*
X019034Y016171D03*
X019428Y017943D03*
X017066Y017943D03*
X012145Y015581D03*
X015491Y013809D03*
X016672Y013415D03*
X014704Y010974D03*
X012735Y011053D03*
X012145Y010463D03*
X017066Y007904D03*
X014507Y006919D03*
X018641Y002589D03*
X016869Y002392D03*
X017263Y001191D03*
X014113Y001604D03*
X024940Y001998D03*
X025530Y001408D03*
X023168Y009675D03*
X032026Y014203D03*
X032026Y014793D03*
X025530Y017352D03*
X024940Y017352D03*
X024743Y019518D03*
D21*
X009704Y001093D02*
X010097Y000699D01*
X012026Y000699D01*
X013326Y001998D01*
X017066Y001998D01*
X018444Y003376D01*
X020609Y003376D01*
X021003Y003770D01*
X021003Y004951D01*
X019231Y006723D01*
X018837Y006723D01*
X018641Y006919D01*
X018641Y007510D01*
X019034Y007904D01*
X019625Y007904D01*
X020090Y007913D02*
X025669Y007913D01*
X025731Y007975D02*
X025459Y007702D01*
X025459Y007317D01*
X025731Y007045D01*
X025969Y007045D01*
X026218Y006796D01*
X026218Y003499D01*
X025515Y002796D01*
X025470Y002687D01*
X025470Y002569D01*
X025470Y001872D01*
X025405Y001872D01*
X025405Y002191D01*
X025132Y002463D01*
X024747Y002463D01*
X024579Y002295D01*
X024487Y002295D01*
X024122Y002295D01*
X024224Y002396D01*
X024224Y002686D01*
X024881Y002686D01*
X024999Y002686D01*
X025108Y002731D01*
X025682Y003305D01*
X025920Y003305D01*
X026192Y003577D01*
X026192Y003962D01*
X026089Y004065D01*
X026192Y004168D01*
X026218Y004168D01*
X026192Y004168D02*
X026192Y004553D01*
X025920Y004825D01*
X025535Y004825D01*
X025367Y004657D01*
X022504Y004657D01*
X020315Y006845D01*
X020315Y007254D01*
X020315Y007372D01*
X020270Y007481D01*
X020073Y007678D01*
X020065Y007686D01*
X020090Y007711D01*
X020090Y008096D01*
X019817Y008369D01*
X019432Y008369D01*
X019264Y008200D01*
X018975Y008200D01*
X018866Y008155D01*
X018783Y008072D01*
X018472Y007762D01*
X018389Y007678D01*
X018344Y007569D01*
X018344Y006860D01*
X018389Y006751D01*
X018472Y006668D01*
X018669Y006471D01*
X018778Y006426D01*
X018897Y006426D01*
X019108Y006426D01*
X020098Y005436D01*
X020078Y005445D01*
X019959Y005445D01*
X018960Y005445D01*
X018809Y005596D01*
X016969Y007436D01*
X016969Y007439D01*
X017258Y007439D01*
X017531Y007711D01*
X017531Y008096D01*
X017258Y008369D01*
X017166Y008369D01*
X017166Y008947D01*
X017166Y009801D01*
X017258Y009801D01*
X017426Y009969D01*
X018700Y009969D01*
X018818Y009969D01*
X018887Y009998D01*
X019148Y009998D01*
X019421Y010270D01*
X019421Y010655D01*
X019319Y010756D01*
X020092Y010756D01*
X020244Y010605D01*
X020353Y010560D01*
X020471Y010560D01*
X020839Y010560D01*
X021007Y010391D01*
X021392Y010391D01*
X021665Y010664D01*
X021665Y011049D01*
X021392Y011321D01*
X021007Y011321D01*
X020839Y011153D01*
X020535Y011153D01*
X020384Y011305D01*
X020282Y011347D01*
X021430Y011347D01*
X021598Y011179D01*
X021887Y011179D01*
X021887Y010534D01*
X021794Y010534D01*
X021522Y010262D01*
X021522Y009876D01*
X021623Y009775D01*
X021364Y009775D01*
X021195Y009943D01*
X020810Y009943D01*
X020642Y009775D01*
X020550Y009775D01*
X020432Y009775D01*
X020323Y009730D01*
X019974Y009382D01*
X019198Y009382D01*
X019030Y009550D01*
X018645Y009550D01*
X018373Y009277D01*
X018373Y008892D01*
X018645Y008620D01*
X019030Y008620D01*
X019198Y008788D01*
X020038Y008788D01*
X020156Y008788D01*
X020265Y008833D01*
X020614Y009182D01*
X020642Y009182D01*
X020739Y009085D01*
X020735Y009080D01*
X020735Y008695D01*
X021007Y008423D01*
X021392Y008423D01*
X021560Y008591D01*
X023818Y008591D01*
X023927Y008636D01*
X024010Y008720D01*
X024517Y009227D01*
X024517Y009227D01*
X024601Y009310D01*
X024646Y009419D01*
X024646Y009806D01*
X024688Y009704D01*
X024772Y009620D01*
X025279Y009113D01*
X025362Y009030D01*
X025471Y008985D01*
X028399Y008985D01*
X028383Y008947D01*
X028383Y008750D01*
X028383Y004030D01*
X028383Y003911D01*
X028428Y003802D01*
X028989Y003241D01*
X028989Y002806D01*
X028786Y002603D01*
X028521Y002868D01*
X028051Y002868D01*
X028036Y002852D01*
X028026Y002875D01*
X027599Y003302D01*
X027599Y005876D01*
X027599Y006206D01*
X027651Y006258D01*
X027888Y006258D01*
X028161Y006530D01*
X028161Y006915D01*
X028058Y007018D01*
X028161Y007120D01*
X028161Y007506D01*
X027960Y007707D01*
X027964Y007711D01*
X027964Y008096D01*
X027691Y008369D01*
X027306Y008369D01*
X027034Y008096D01*
X027034Y007845D01*
X026904Y007975D01*
X026519Y007975D01*
X026318Y007774D01*
X026117Y007975D01*
X025731Y007975D01*
X025571Y007814D02*
X020090Y007814D01*
X020090Y007716D02*
X025472Y007716D01*
X025459Y007617D02*
X020134Y007617D01*
X020233Y007518D02*
X025459Y007518D01*
X025459Y007420D02*
X020296Y007420D01*
X020315Y007321D02*
X025459Y007321D01*
X025554Y007223D02*
X020315Y007223D01*
X020315Y007124D02*
X025652Y007124D01*
X025988Y007026D02*
X020315Y007026D01*
X020315Y006927D02*
X026087Y006927D01*
X026186Y006829D02*
X020332Y006829D01*
X020431Y006730D02*
X026218Y006730D01*
X026218Y006632D02*
X020529Y006632D01*
X020628Y006533D02*
X026218Y006533D01*
X026218Y006434D02*
X020726Y006434D01*
X020825Y006336D02*
X026218Y006336D01*
X026218Y006237D02*
X020924Y006237D01*
X021022Y006139D02*
X026218Y006139D01*
X026218Y006040D02*
X021121Y006040D01*
X021219Y005942D02*
X026218Y005942D01*
X026218Y005843D02*
X021318Y005843D01*
X021416Y005745D02*
X026218Y005745D01*
X026218Y005646D02*
X021515Y005646D01*
X021613Y005548D02*
X026218Y005548D01*
X026218Y005449D02*
X021712Y005449D01*
X021810Y005350D02*
X026218Y005350D01*
X026218Y005252D02*
X021909Y005252D01*
X022007Y005153D02*
X026218Y005153D01*
X026218Y005055D02*
X022106Y005055D01*
X022205Y004956D02*
X026218Y004956D01*
X026218Y004858D02*
X022303Y004858D01*
X022402Y004759D02*
X025469Y004759D01*
X025370Y004661D02*
X022500Y004661D01*
X022381Y004360D02*
X020019Y006723D01*
X020019Y007313D01*
X019822Y007510D01*
X019428Y007510D01*
X019034Y007116D01*
X019625Y007116D02*
X019625Y006723D01*
X021200Y005148D01*
X021200Y003573D01*
X020806Y003179D01*
X018641Y003179D01*
X017066Y001604D01*
X014113Y001604D01*
X013383Y002298D02*
X013383Y002704D01*
X012334Y002704D01*
X012334Y002804D01*
X013383Y002804D01*
X013383Y003210D01*
X013066Y003527D01*
X013959Y003527D01*
X014660Y004228D01*
X014660Y005220D01*
X013959Y005921D01*
X012968Y005921D01*
X012267Y005220D01*
X012267Y004228D01*
X012641Y003854D01*
X012333Y003854D01*
X012333Y002804D01*
X012233Y002804D01*
X012233Y002704D01*
X011183Y002704D01*
X011183Y002298D01*
X011828Y001654D01*
X012233Y001654D01*
X012233Y002704D01*
X012333Y002704D01*
X012333Y001654D01*
X012562Y001654D01*
X011903Y000996D01*
X011201Y000996D01*
X011313Y001108D01*
X011446Y001430D01*
X011446Y001779D01*
X011313Y002101D01*
X011066Y002348D01*
X010744Y002481D01*
X010395Y002481D01*
X010073Y002348D01*
X010000Y002275D01*
X010000Y007331D01*
X010067Y007264D01*
X010393Y007129D01*
X010746Y007129D01*
X011072Y007264D01*
X011124Y007316D01*
X011166Y007213D01*
X011367Y007012D01*
X011628Y006904D01*
X011911Y006904D01*
X012173Y007012D01*
X012373Y007213D01*
X012482Y007474D01*
X012482Y007757D01*
X012373Y008019D01*
X012173Y008219D01*
X011911Y008328D01*
X011628Y008328D01*
X011434Y008247D01*
X011322Y008518D01*
X011072Y008768D01*
X010746Y008903D01*
X010393Y008903D01*
X010067Y008768D01*
X010000Y008701D01*
X010001Y008701D01*
X010000Y008701D02*
X010000Y011831D01*
X010067Y011764D01*
X010393Y011629D01*
X010746Y011629D01*
X011072Y011764D01*
X011322Y012013D01*
X011434Y012284D01*
X011628Y012204D01*
X011911Y012204D01*
X012173Y012312D01*
X012241Y012381D01*
X012241Y012372D01*
X012241Y011900D01*
X012241Y011782D01*
X012287Y011672D01*
X012492Y011467D01*
X012270Y011246D01*
X012270Y010928D01*
X011952Y010928D01*
X011680Y010655D01*
X011680Y010270D01*
X011848Y010102D01*
X011848Y009616D01*
X011848Y008882D01*
X011893Y008773D01*
X011976Y008689D01*
X012528Y008138D01*
X012528Y007672D01*
X012565Y007581D01*
X012635Y007512D01*
X012726Y007474D01*
X013414Y007474D01*
X013505Y007512D01*
X013574Y007581D01*
X013612Y007672D01*
X013612Y008208D01*
X013763Y008056D01*
X013962Y007974D01*
X014178Y007974D01*
X014377Y008056D01*
X014529Y008209D01*
X014604Y008389D01*
X014604Y007963D01*
X014604Y007845D01*
X014649Y007735D01*
X018586Y003798D01*
X018711Y003673D01*
X018385Y003673D01*
X018276Y003628D01*
X018192Y003544D01*
X016943Y002295D01*
X013380Y002295D01*
X013383Y002298D01*
X013381Y002296D02*
X016944Y002296D01*
X016869Y002392D02*
X012646Y002392D01*
X012283Y002754D01*
X011103Y003934D01*
X011103Y004724D01*
X012538Y006159D01*
X012538Y007904D01*
X011751Y008691D01*
X011751Y012037D01*
X012538Y012825D01*
X012538Y014203D01*
X013030Y014695D01*
X012982Y014712D02*
X010520Y014712D01*
X010520Y014743D02*
X011253Y014743D01*
X011244Y014804D01*
X011221Y014874D01*
X011187Y014940D01*
X011144Y014999D01*
X011092Y015051D01*
X011033Y015094D01*
X010967Y015128D01*
X010898Y015150D01*
X010825Y015162D01*
X010520Y015162D01*
X010520Y014744D01*
X010423Y014744D01*
X010423Y015162D01*
X010118Y015162D01*
X010045Y015150D01*
X010000Y015136D01*
X010000Y015920D01*
X010042Y015903D01*
X010900Y015903D01*
X011107Y015989D01*
X011266Y016147D01*
X011275Y016170D01*
X011495Y016170D01*
X011613Y016170D01*
X012226Y016170D01*
X012236Y016147D01*
X012394Y015989D01*
X012601Y015903D01*
X013459Y015903D01*
X013667Y015989D01*
X013825Y016147D01*
X013834Y016170D01*
X017435Y016170D01*
X018192Y015413D01*
X018276Y015329D01*
X018385Y015284D01*
X019566Y015284D01*
X019684Y015284D01*
X019722Y015300D01*
X019722Y013538D01*
X019570Y013387D01*
X019448Y013265D01*
X019227Y013487D01*
X018842Y013487D01*
X018569Y013214D01*
X018569Y012977D01*
X018321Y012728D01*
X016810Y012728D01*
X016701Y012683D01*
X016617Y012599D01*
X016537Y012519D01*
X016537Y012529D01*
X016450Y012737D01*
X016291Y012896D01*
X016083Y012983D01*
X015857Y012983D01*
X015833Y012973D01*
X015461Y013344D01*
X015684Y013344D01*
X015852Y013512D01*
X016155Y013512D01*
X016207Y013461D01*
X016207Y013223D01*
X016480Y012950D01*
X016865Y012950D01*
X017137Y013223D01*
X017137Y013608D01*
X016865Y013880D01*
X016627Y013880D01*
X016530Y013977D01*
X016447Y014061D01*
X016337Y014106D01*
X015852Y014106D01*
X015684Y014274D01*
X015298Y014274D01*
X015026Y014002D01*
X015026Y013779D01*
X014213Y014592D01*
X014213Y015128D01*
X014213Y015246D01*
X014168Y015355D01*
X013774Y015749D01*
X013691Y015832D01*
X013582Y015878D01*
X012505Y015878D01*
X012337Y016046D01*
X011952Y016046D01*
X011680Y015773D01*
X011680Y015388D01*
X011952Y015116D01*
X012337Y015116D01*
X012505Y015284D01*
X013400Y015284D01*
X013587Y015097D01*
X013526Y015128D01*
X013457Y015150D01*
X013384Y015162D01*
X013079Y015162D01*
X013079Y014744D01*
X012982Y014744D01*
X012982Y015162D01*
X012677Y015162D01*
X012604Y015150D01*
X012534Y015128D01*
X012469Y015094D01*
X012409Y015051D01*
X012357Y014999D01*
X012314Y014940D01*
X012281Y014874D01*
X012258Y014804D01*
X012249Y014743D01*
X012982Y014743D01*
X012982Y014646D01*
X013079Y014646D01*
X013079Y014228D01*
X013384Y014228D01*
X013457Y014240D01*
X013526Y014262D01*
X013592Y014296D01*
X013650Y014338D01*
X013665Y014301D01*
X013748Y014218D01*
X014450Y013515D01*
X014448Y013515D01*
X013267Y013515D01*
X013157Y013470D01*
X013074Y013387D01*
X013074Y013387D01*
X012482Y012794D01*
X012482Y013057D01*
X012373Y013319D01*
X012173Y013519D01*
X011911Y013628D01*
X011628Y013628D01*
X011367Y013519D01*
X011166Y013319D01*
X011124Y013216D01*
X011072Y013268D01*
X010746Y013403D01*
X010393Y013403D01*
X010067Y013268D01*
X010000Y013201D01*
X010000Y014254D01*
X010045Y014240D01*
X010118Y014228D01*
X010423Y014228D01*
X010423Y014646D01*
X010520Y014646D01*
X010520Y014228D01*
X010825Y014228D01*
X010898Y014240D01*
X010967Y014262D01*
X011033Y014296D01*
X011092Y014339D01*
X011144Y014391D01*
X011187Y014450D01*
X011221Y014516D01*
X011244Y014586D01*
X011253Y014646D01*
X010520Y014646D01*
X010520Y014743D01*
X010520Y014811D02*
X010423Y014811D01*
X010423Y014909D02*
X010520Y014909D01*
X010520Y015008D02*
X010423Y015008D01*
X010423Y015106D02*
X010520Y015106D01*
X011009Y015106D02*
X012493Y015106D01*
X012426Y015205D02*
X013479Y015205D01*
X013568Y015106D02*
X013577Y015106D01*
X013916Y015187D02*
X013523Y015581D01*
X012145Y015581D01*
X011764Y015303D02*
X010000Y015303D01*
X010000Y015205D02*
X011863Y015205D01*
X011680Y015402D02*
X010000Y015402D01*
X010000Y015500D02*
X011680Y015500D01*
X011680Y015599D02*
X010000Y015599D01*
X010000Y015698D02*
X011680Y015698D01*
X011702Y015796D02*
X010000Y015796D01*
X010000Y015895D02*
X011801Y015895D01*
X011899Y015993D02*
X011112Y015993D01*
X011210Y016092D02*
X012291Y016092D01*
X012390Y015993D02*
X012390Y015993D01*
X012488Y015895D02*
X017710Y015895D01*
X017612Y015993D02*
X013671Y015993D01*
X013769Y016092D02*
X017513Y016092D01*
X017558Y016467D02*
X018444Y015581D01*
X019625Y015581D01*
X019822Y015778D01*
X019822Y016368D01*
X019822Y016959D01*
X020019Y017156D01*
X024152Y017156D01*
X024546Y016762D01*
X025334Y015974D01*
X025727Y015581D01*
X025727Y013022D01*
X025530Y012825D01*
X025137Y012431D01*
X023759Y012431D01*
X023168Y011841D01*
X023168Y011250D01*
X023633Y011263D02*
X024052Y011263D01*
X024052Y011165D02*
X023633Y011165D01*
X023633Y011066D02*
X024052Y011066D01*
X024052Y010967D02*
X023543Y010967D01*
X023633Y011057D02*
X023633Y011443D01*
X023465Y011611D01*
X023465Y011718D01*
X023882Y012134D01*
X024068Y012134D01*
X024052Y012097D01*
X024052Y011978D01*
X024052Y009601D01*
X023636Y009185D01*
X023038Y009185D01*
X023100Y009210D01*
X023361Y009210D01*
X023633Y009483D01*
X023633Y009868D01*
X023361Y010140D01*
X022976Y010140D01*
X022703Y009868D01*
X022703Y009775D01*
X022351Y009775D01*
X022452Y009876D01*
X022452Y010137D01*
X022481Y010207D01*
X022481Y011782D01*
X022481Y011900D01*
X022436Y012009D01*
X022042Y012402D01*
X021958Y012486D01*
X021849Y012531D01*
X020929Y012531D01*
X020512Y012948D01*
X020512Y012950D01*
X020654Y012950D01*
X020913Y012691D01*
X021022Y012646D01*
X021141Y012646D01*
X023554Y012646D01*
X023507Y012599D01*
X022917Y012009D01*
X022871Y011900D01*
X022871Y011782D01*
X022871Y011611D01*
X022703Y011443D01*
X022703Y011057D01*
X022976Y010785D01*
X023361Y010785D01*
X023633Y011057D01*
X023445Y010869D02*
X024052Y010869D01*
X024052Y010770D02*
X022481Y010770D01*
X022481Y010672D02*
X024052Y010672D01*
X024052Y010573D02*
X022481Y010573D01*
X022481Y010475D02*
X024052Y010475D01*
X024052Y010376D02*
X022481Y010376D01*
X022481Y010278D02*
X024052Y010278D01*
X024052Y010179D02*
X022469Y010179D01*
X022452Y010081D02*
X022916Y010081D01*
X022817Y009982D02*
X022452Y009982D01*
X022452Y009883D02*
X022719Y009883D01*
X022703Y009785D02*
X022361Y009785D01*
X022184Y009675D02*
X022971Y010463D01*
X023168Y010463D01*
X023420Y010081D02*
X024052Y010081D01*
X024052Y009982D02*
X023519Y009982D01*
X023617Y009883D02*
X024052Y009883D01*
X024052Y009785D02*
X023633Y009785D01*
X023633Y009686D02*
X024052Y009686D01*
X024039Y009588D02*
X023633Y009588D01*
X023633Y009489D02*
X023940Y009489D01*
X023842Y009391D02*
X023541Y009391D01*
X023443Y009292D02*
X023743Y009292D01*
X023645Y009194D02*
X023059Y009194D01*
X022971Y009478D02*
X021003Y009478D01*
X020491Y009478D01*
X020097Y009085D01*
X018837Y009085D01*
X018465Y008799D02*
X017166Y008799D01*
X017166Y008701D02*
X018564Y008701D01*
X018373Y008898D02*
X017166Y008898D01*
X017166Y008997D02*
X018373Y008997D01*
X018373Y009095D02*
X017166Y009095D01*
X017166Y009194D02*
X018373Y009194D01*
X018387Y009292D02*
X017166Y009292D01*
X017166Y009391D02*
X018486Y009391D01*
X018585Y009489D02*
X017166Y009489D01*
X017166Y009588D02*
X020181Y009588D01*
X020279Y009686D02*
X017166Y009686D01*
X017166Y009785D02*
X020652Y009785D01*
X020750Y009883D02*
X017341Y009883D01*
X016869Y009872D02*
X016475Y010266D01*
X016475Y010856D01*
X016475Y011250D01*
X016475Y011644D01*
X017066Y012234D01*
X018837Y012234D01*
X019428Y012825D01*
X019625Y013022D01*
X019822Y013219D01*
X020019Y013415D01*
X020019Y016565D01*
X020019Y016762D01*
X020215Y016959D01*
X023956Y016959D01*
X024349Y016565D01*
X024743Y016171D01*
X025530Y015384D01*
X025530Y013612D01*
X025334Y013415D01*
X024074Y013415D01*
X024743Y012943D02*
X021082Y012943D01*
X020609Y013415D01*
X020666Y012938D02*
X020522Y012938D01*
X020620Y012840D02*
X020765Y012840D01*
X020719Y012741D02*
X020864Y012741D01*
X020817Y012643D02*
X023550Y012643D01*
X023452Y012544D02*
X020916Y012544D01*
X020806Y012234D02*
X020215Y012825D01*
X020215Y016171D01*
X020412Y016368D01*
X019625Y015974D02*
X019625Y017156D01*
X019822Y017352D01*
X024349Y017352D01*
X025924Y015778D01*
X025924Y012825D01*
X025924Y009675D01*
X026121Y009478D01*
X027696Y009478D01*
X027971Y009754D01*
X028877Y009754D01*
X029979Y010856D01*
X030255Y010856D01*
X029467Y011447D02*
X029271Y011250D01*
X029074Y011250D01*
X028877Y011250D01*
X028286Y011841D01*
X028286Y015384D01*
X030806Y017904D01*
X030806Y018711D01*
X030286Y019230D01*
X030649Y019715D02*
X031042Y019321D01*
X031042Y017746D01*
X028483Y015187D01*
X028483Y012825D01*
X028680Y012628D01*
X027893Y012825D02*
X027696Y012628D01*
X027893Y012825D02*
X027893Y015778D01*
X029782Y017667D01*
X029782Y018734D01*
X029286Y019230D01*
X029782Y018738D02*
X029782Y018734D01*
X029290Y018226D02*
X029286Y018230D01*
X029290Y018226D02*
X029290Y017569D01*
X029286Y017565D01*
X027696Y015974D01*
X027696Y013219D01*
X027302Y012825D01*
X027302Y012431D01*
X027696Y012037D01*
X027696Y011250D01*
X027893Y011053D01*
X028089Y010856D01*
X028680Y010856D01*
X028286Y011250D02*
X028089Y011447D01*
X028089Y015581D01*
X030286Y017778D01*
X030286Y018230D01*
X030290Y017782D02*
X030286Y017778D01*
X031830Y017549D02*
X029428Y015148D01*
X029428Y013219D01*
X030649Y012628D02*
X029467Y011447D01*
X030767Y012037D02*
X031042Y012037D01*
X030767Y012037D02*
X028680Y009951D01*
X027774Y009951D01*
X027499Y009675D01*
X026318Y009675D01*
X026121Y009872D01*
X026121Y016171D01*
X024940Y017352D01*
X025530Y017352D02*
X026318Y016565D01*
X026318Y010069D01*
X026515Y009872D01*
X027302Y009872D01*
X027578Y010148D01*
X028483Y010148D01*
X030767Y012431D01*
X031436Y012431D01*
X031633Y012234D01*
X031633Y011841D01*
X032026Y011959D02*
X032026Y012431D01*
X031830Y012628D01*
X030649Y012628D01*
X032026Y011959D02*
X032026Y010463D01*
X032026Y008691D01*
X032026Y008494D01*
X031830Y008297D01*
X031633Y007904D02*
X031239Y008297D01*
X030649Y008297D01*
X030452Y008100D01*
X030452Y007510D01*
X030845Y007116D02*
X031239Y007510D01*
X032420Y007510D01*
X032617Y007707D01*
X032617Y019518D01*
X032223Y019911D01*
X024365Y019911D01*
X023684Y019230D01*
X024743Y019518D02*
X024743Y018730D01*
X024243Y018230D01*
X023684Y018230D01*
X024349Y017549D02*
X024743Y017943D01*
X025530Y017943D01*
X026515Y016959D01*
X026515Y011447D01*
X026711Y011250D01*
X026711Y011053D01*
X026711Y010856D01*
X026515Y010660D01*
X026515Y010266D01*
X026711Y010069D01*
X027105Y010069D01*
X027538Y010502D01*
X028247Y010502D01*
X027105Y010620D02*
X027105Y011250D01*
X026711Y011644D01*
X026711Y013022D01*
X026908Y013219D01*
X027302Y013612D01*
X027302Y016368D01*
X028286Y017352D01*
X028290Y017356D01*
X028290Y018226D01*
X028286Y018230D01*
X028798Y018140D02*
X028798Y018022D01*
X028798Y018140D02*
X028798Y017471D01*
X027499Y016171D01*
X027499Y013415D01*
X027105Y013022D01*
X027105Y012431D01*
X027105Y012234D01*
X027105Y012037D01*
X025924Y012825D02*
X025334Y012234D01*
X024546Y012234D01*
X024349Y012037D01*
X024349Y009478D01*
X023759Y008888D01*
X021200Y008888D01*
X020828Y008602D02*
X017166Y008602D01*
X017166Y008504D02*
X020926Y008504D01*
X020735Y008701D02*
X019111Y008701D01*
X018837Y008494D02*
X023365Y008494D01*
X024349Y007510D01*
X024349Y005738D01*
X025986Y004759D02*
X026218Y004759D01*
X026218Y004661D02*
X026084Y004661D01*
X026183Y004562D02*
X026218Y004562D01*
X026218Y004464D02*
X026192Y004464D01*
X026192Y004365D02*
X026218Y004365D01*
X026218Y004266D02*
X026192Y004266D01*
X026218Y004069D02*
X026094Y004069D01*
X026184Y003971D02*
X026218Y003971D01*
X026218Y003872D02*
X026192Y003872D01*
X026192Y003774D02*
X026218Y003774D01*
X026218Y003675D02*
X026192Y003675D01*
X026192Y003577D02*
X026218Y003577D01*
X026197Y003478D02*
X026093Y003478D01*
X026098Y003380D02*
X025995Y003380D01*
X026000Y003281D02*
X025658Y003281D01*
X025560Y003183D02*
X025901Y003183D01*
X025803Y003084D02*
X025461Y003084D01*
X025363Y002985D02*
X025704Y002985D01*
X025606Y002887D02*
X025264Y002887D01*
X025166Y002788D02*
X025512Y002788D01*
X025471Y002690D02*
X025009Y002690D01*
X024940Y002982D02*
X025727Y003770D01*
X025727Y004360D02*
X022381Y004360D01*
X021554Y003337D02*
X024271Y003337D01*
X024940Y002982D02*
X023326Y002982D01*
X022893Y002549D01*
X022656Y002549D01*
X023562Y002195D02*
X021003Y002195D01*
X020806Y002392D01*
X020806Y002786D01*
X020609Y002982D01*
X020215Y002982D01*
X019822Y002589D01*
X019428Y002589D01*
X018641Y002589D01*
X017830Y003183D02*
X013383Y003183D01*
X013383Y003084D02*
X017732Y003084D01*
X017633Y002985D02*
X013383Y002985D01*
X013383Y002887D02*
X017535Y002887D01*
X017436Y002788D02*
X012334Y002788D01*
X012333Y002690D02*
X012233Y002690D01*
X012233Y002788D02*
X010000Y002788D01*
X010000Y002690D02*
X011183Y002690D01*
X011183Y002591D02*
X010000Y002591D01*
X010000Y002493D02*
X011183Y002493D01*
X011183Y002394D02*
X010954Y002394D01*
X011118Y002296D02*
X011186Y002296D01*
X011217Y002197D02*
X011285Y002197D01*
X011314Y002099D02*
X011383Y002099D01*
X011355Y002000D02*
X011482Y002000D01*
X011396Y001901D02*
X011580Y001901D01*
X011679Y001803D02*
X011437Y001803D01*
X011446Y001704D02*
X011777Y001704D01*
X011446Y001606D02*
X012514Y001606D01*
X012415Y001507D02*
X011446Y001507D01*
X011438Y001409D02*
X012317Y001409D01*
X012218Y001310D02*
X011397Y001310D01*
X011356Y001212D02*
X012119Y001212D01*
X012021Y001113D02*
X011315Y001113D01*
X011220Y001015D02*
X011922Y001015D01*
X012233Y001704D02*
X012333Y001704D01*
X012333Y001803D02*
X012233Y001803D01*
X012233Y001901D02*
X012333Y001901D01*
X012333Y002000D02*
X012233Y002000D01*
X012233Y002099D02*
X012333Y002099D01*
X012333Y002197D02*
X012233Y002197D01*
X012233Y002296D02*
X012333Y002296D01*
X012333Y002394D02*
X012233Y002394D01*
X012233Y002493D02*
X012333Y002493D01*
X012333Y002591D02*
X012233Y002591D01*
X012233Y002804D02*
X011183Y002804D01*
X011183Y003210D01*
X011828Y003854D01*
X012233Y003854D01*
X012233Y002804D01*
X012233Y002887D02*
X012333Y002887D01*
X012333Y002985D02*
X012233Y002985D01*
X012233Y003084D02*
X012333Y003084D01*
X012333Y003183D02*
X012233Y003183D01*
X012233Y003281D02*
X012333Y003281D01*
X012333Y003380D02*
X012233Y003380D01*
X012233Y003478D02*
X012333Y003478D01*
X012333Y003577D02*
X012233Y003577D01*
X012233Y003675D02*
X012333Y003675D01*
X012333Y003774D02*
X012233Y003774D01*
X012524Y003971D02*
X011906Y003971D01*
X012004Y004069D02*
X012425Y004069D01*
X012327Y004168D02*
X012103Y004168D01*
X012202Y004266D02*
X012267Y004266D01*
X012203Y004268D02*
X012203Y004674D01*
X011154Y004674D01*
X011154Y004774D01*
X012203Y004774D01*
X012203Y005180D01*
X011559Y005824D01*
X011153Y005824D01*
X011153Y004774D01*
X011053Y004774D01*
X011053Y004674D01*
X010003Y004674D01*
X010003Y004268D01*
X010648Y003624D01*
X011053Y003624D01*
X011053Y004674D01*
X011153Y004674D01*
X011153Y003624D01*
X011559Y003624D01*
X012203Y004268D01*
X012203Y004365D02*
X012267Y004365D01*
X012267Y004464D02*
X012203Y004464D01*
X012203Y004562D02*
X012267Y004562D01*
X012267Y004661D02*
X012203Y004661D01*
X012267Y004759D02*
X011154Y004759D01*
X011153Y004661D02*
X011053Y004661D01*
X011053Y004759D02*
X010000Y004759D01*
X010003Y004774D02*
X011053Y004774D01*
X011053Y005824D01*
X010648Y005824D01*
X010003Y005180D01*
X010003Y004774D01*
X010000Y004858D02*
X010003Y004858D01*
X010000Y004956D02*
X010003Y004956D01*
X010000Y005055D02*
X010003Y005055D01*
X010000Y005153D02*
X010003Y005153D01*
X010000Y005252D02*
X010076Y005252D01*
X010000Y005350D02*
X010174Y005350D01*
X010273Y005449D02*
X010000Y005449D01*
X010000Y005548D02*
X010371Y005548D01*
X010470Y005646D02*
X010000Y005646D01*
X010000Y005745D02*
X010569Y005745D01*
X011053Y005745D02*
X011153Y005745D01*
X011153Y005646D02*
X011053Y005646D01*
X011053Y005548D02*
X011153Y005548D01*
X011153Y005449D02*
X011053Y005449D01*
X011053Y005350D02*
X011153Y005350D01*
X011153Y005252D02*
X011053Y005252D01*
X011053Y005153D02*
X011153Y005153D01*
X011153Y005055D02*
X011053Y005055D01*
X011053Y004956D02*
X011153Y004956D01*
X011153Y004858D02*
X011053Y004858D01*
X011053Y004562D02*
X011153Y004562D01*
X011153Y004464D02*
X011053Y004464D01*
X011053Y004365D02*
X011153Y004365D01*
X011153Y004266D02*
X011053Y004266D01*
X011053Y004168D02*
X011153Y004168D01*
X011153Y004069D02*
X011053Y004069D01*
X011053Y003971D02*
X011153Y003971D01*
X011153Y003872D02*
X011053Y003872D01*
X011053Y003774D02*
X011153Y003774D01*
X011153Y003675D02*
X011053Y003675D01*
X010597Y003675D02*
X010000Y003675D01*
X010000Y003577D02*
X011551Y003577D01*
X011610Y003675D02*
X011649Y003675D01*
X011709Y003774D02*
X011748Y003774D01*
X011807Y003872D02*
X012623Y003872D01*
X013115Y003478D02*
X018126Y003478D01*
X018028Y003380D02*
X013213Y003380D01*
X013312Y003281D02*
X017929Y003281D01*
X018225Y003577D02*
X014009Y003577D01*
X014107Y003675D02*
X018709Y003675D01*
X018610Y003774D02*
X014206Y003774D01*
X014304Y003872D02*
X018512Y003872D01*
X018413Y003971D02*
X014403Y003971D01*
X014501Y004069D02*
X018315Y004069D01*
X018216Y004168D02*
X014600Y004168D01*
X014660Y004266D02*
X018118Y004266D01*
X018019Y004365D02*
X014660Y004365D01*
X014660Y004464D02*
X017921Y004464D01*
X017822Y004562D02*
X014660Y004562D01*
X014660Y004661D02*
X017724Y004661D01*
X017625Y004759D02*
X014660Y004759D01*
X014660Y004858D02*
X017526Y004858D01*
X017428Y004956D02*
X014660Y004956D01*
X014660Y005055D02*
X017329Y005055D01*
X017231Y005153D02*
X014660Y005153D01*
X014628Y005252D02*
X017132Y005252D01*
X017034Y005350D02*
X014530Y005350D01*
X014431Y005449D02*
X016935Y005449D01*
X016837Y005548D02*
X014332Y005548D01*
X014234Y005646D02*
X016738Y005646D01*
X016640Y005745D02*
X014135Y005745D01*
X014037Y005843D02*
X016541Y005843D01*
X016443Y005942D02*
X010000Y005942D01*
X010000Y006040D02*
X016344Y006040D01*
X016245Y006139D02*
X010000Y006139D01*
X010000Y006237D02*
X016147Y006237D01*
X016048Y006336D02*
X010000Y006336D01*
X010000Y006434D02*
X015950Y006434D01*
X015851Y006533D02*
X010000Y006533D01*
X010000Y006632D02*
X015753Y006632D01*
X015654Y006730D02*
X010000Y006730D01*
X010000Y006829D02*
X015556Y006829D01*
X015457Y006927D02*
X011967Y006927D01*
X012186Y007026D02*
X015359Y007026D01*
X015260Y007124D02*
X012285Y007124D01*
X012377Y007223D02*
X015161Y007223D01*
X015063Y007321D02*
X012418Y007321D01*
X012459Y007420D02*
X014964Y007420D01*
X014866Y007518D02*
X013511Y007518D01*
X013589Y007617D02*
X014767Y007617D01*
X014669Y007716D02*
X013612Y007716D01*
X013612Y007814D02*
X014616Y007814D01*
X014604Y007913D02*
X013612Y007913D01*
X013612Y008011D02*
X013872Y008011D01*
X013710Y008110D02*
X013612Y008110D01*
X013070Y008016D02*
X012145Y008941D01*
X012145Y009675D01*
X012145Y010463D01*
X011795Y010770D02*
X010000Y010770D01*
X010000Y010672D02*
X011696Y010672D01*
X011680Y010573D02*
X010000Y010573D01*
X010000Y010475D02*
X011680Y010475D01*
X011680Y010376D02*
X010000Y010376D01*
X010000Y010278D02*
X011680Y010278D01*
X011771Y010179D02*
X010000Y010179D01*
X010000Y010081D02*
X011848Y010081D01*
X011848Y009982D02*
X010000Y009982D01*
X010000Y009883D02*
X011848Y009883D01*
X011848Y009785D02*
X010000Y009785D01*
X010000Y009686D02*
X011848Y009686D01*
X011848Y009588D02*
X010000Y009588D01*
X010000Y009489D02*
X011848Y009489D01*
X011848Y009391D02*
X010000Y009391D01*
X010000Y009292D02*
X011848Y009292D01*
X011848Y009194D02*
X010000Y009194D01*
X010000Y009095D02*
X011848Y009095D01*
X011848Y008997D02*
X010000Y008997D01*
X010000Y008898D02*
X010382Y008898D01*
X010144Y008799D02*
X010000Y008799D01*
X010757Y008898D02*
X011848Y008898D01*
X011882Y008799D02*
X010995Y008799D01*
X011139Y008701D02*
X011965Y008701D01*
X012063Y008602D02*
X011237Y008602D01*
X011328Y008504D02*
X012162Y008504D01*
X012260Y008405D02*
X011368Y008405D01*
X011409Y008307D02*
X011578Y008307D01*
X011962Y008307D02*
X012359Y008307D01*
X012458Y008208D02*
X012184Y008208D01*
X012283Y008110D02*
X012528Y008110D01*
X012528Y008011D02*
X012376Y008011D01*
X012417Y007913D02*
X012528Y007913D01*
X012528Y007814D02*
X012458Y007814D01*
X012482Y007716D02*
X012528Y007716D01*
X012551Y007617D02*
X012482Y007617D01*
X012482Y007518D02*
X012628Y007518D01*
X013299Y006919D02*
X012538Y006159D01*
X012890Y005843D02*
X010000Y005843D01*
X011638Y005745D02*
X012792Y005745D01*
X012693Y005646D02*
X011737Y005646D01*
X011835Y005548D02*
X012594Y005548D01*
X012496Y005449D02*
X011934Y005449D01*
X012033Y005350D02*
X012397Y005350D01*
X012299Y005252D02*
X012131Y005252D01*
X012203Y005153D02*
X012267Y005153D01*
X012267Y005055D02*
X012203Y005055D01*
X012203Y004956D02*
X012267Y004956D01*
X012267Y004858D02*
X012203Y004858D01*
X010498Y003774D02*
X010000Y003774D01*
X010000Y003872D02*
X010400Y003872D01*
X010301Y003971D02*
X010000Y003971D01*
X010000Y004069D02*
X010202Y004069D01*
X010104Y004168D02*
X010000Y004168D01*
X010000Y004266D02*
X010005Y004266D01*
X010000Y004365D02*
X010003Y004365D01*
X010000Y004464D02*
X010003Y004464D01*
X010000Y004562D02*
X010003Y004562D01*
X010000Y004661D02*
X010003Y004661D01*
X010000Y003478D02*
X011452Y003478D01*
X011353Y003380D02*
X010000Y003380D01*
X010000Y003281D02*
X011255Y003281D01*
X011183Y003183D02*
X010000Y003183D01*
X010000Y003084D02*
X011183Y003084D01*
X011183Y002985D02*
X010000Y002985D01*
X010000Y002887D02*
X011183Y002887D01*
X010185Y002394D02*
X010000Y002394D01*
X010000Y002296D02*
X010021Y002296D01*
X009704Y001093D02*
X009704Y019439D01*
X010176Y019911D01*
X013050Y019911D01*
X021751Y019911D01*
X022184Y019478D01*
X022184Y018534D01*
X022487Y018230D01*
X022684Y018230D01*
X021684Y018230D02*
X021503Y018230D01*
X021200Y018534D01*
X021200Y019478D01*
X020963Y019715D01*
X013523Y019715D01*
X013129Y019321D01*
X013129Y019230D01*
X012617Y019478D02*
X012617Y018742D01*
X013129Y018230D01*
X012692Y017865D02*
X012429Y017865D01*
X012527Y017964D02*
X012594Y017964D01*
X012562Y017996D02*
X012894Y017664D01*
X013364Y017664D01*
X013393Y017693D01*
X014322Y016763D01*
X013834Y016763D01*
X013825Y016786D01*
X013667Y016944D01*
X013459Y017030D01*
X012601Y017030D01*
X012394Y016944D01*
X012236Y016786D01*
X012226Y016763D01*
X011851Y016763D01*
X011851Y017844D01*
X011934Y017760D01*
X012079Y017760D01*
X012079Y018180D01*
X012179Y018180D01*
X012179Y017760D01*
X012323Y017760D01*
X012562Y017999D01*
X012562Y017996D01*
X012791Y017767D02*
X012330Y017767D01*
X012179Y017767D02*
X012079Y017767D01*
X012079Y017865D02*
X012179Y017865D01*
X012179Y017964D02*
X012079Y017964D01*
X012079Y018063D02*
X012179Y018063D01*
X012179Y018161D02*
X012079Y018161D01*
X011928Y017767D02*
X011851Y017767D01*
X011851Y017668D02*
X012889Y017668D01*
X013368Y017668D02*
X013417Y017668D01*
X013515Y017570D02*
X011851Y017570D01*
X011851Y017471D02*
X013614Y017471D01*
X013712Y017373D02*
X011851Y017373D01*
X011851Y017274D02*
X013811Y017274D01*
X013909Y017176D02*
X011851Y017176D01*
X011851Y017077D02*
X014008Y017077D01*
X014106Y016979D02*
X013584Y016979D01*
X013731Y016880D02*
X014205Y016880D01*
X014304Y016781D02*
X013827Y016781D01*
X014743Y016762D02*
X017656Y016762D01*
X018641Y015778D01*
X019428Y015778D01*
X019625Y015974D01*
X019231Y016171D02*
X019034Y016171D01*
X018641Y016171D01*
X017853Y016959D01*
X014900Y016959D01*
X014129Y017730D01*
X014129Y018230D01*
X014696Y018260D02*
X019722Y018260D01*
X019722Y018358D02*
X014696Y018358D01*
X014696Y018457D02*
X019722Y018457D01*
X019722Y018506D02*
X019722Y017846D01*
X019684Y017846D01*
X019566Y017846D01*
X019457Y017801D01*
X019260Y017604D01*
X019176Y017521D01*
X019131Y017411D01*
X019131Y016636D01*
X018842Y016636D01*
X018719Y016513D01*
X018021Y017210D01*
X017912Y017256D01*
X017794Y017256D01*
X015023Y017256D01*
X014489Y017789D01*
X014696Y017996D01*
X014696Y018465D01*
X014430Y018730D01*
X014696Y018996D01*
X014696Y019418D01*
X020117Y019418D01*
X020117Y019083D01*
X019767Y018733D01*
X019722Y018624D01*
X019722Y018506D01*
X019722Y018555D02*
X014606Y018555D01*
X014507Y018654D02*
X019734Y018654D01*
X019786Y018752D02*
X014452Y018752D01*
X014551Y018851D02*
X019885Y018851D01*
X019983Y018949D02*
X014649Y018949D01*
X014696Y019048D02*
X020082Y019048D01*
X020117Y019147D02*
X014696Y019147D01*
X014696Y019245D02*
X020117Y019245D01*
X020117Y019344D02*
X014696Y019344D01*
X014129Y019230D02*
X013641Y018742D01*
X013641Y017864D01*
X014743Y016762D01*
X015005Y017274D02*
X019131Y017274D01*
X019131Y017176D02*
X018056Y017176D01*
X018155Y017077D02*
X019131Y017077D01*
X019131Y016979D02*
X018253Y016979D01*
X018352Y016880D02*
X019131Y016880D01*
X019131Y016781D02*
X018450Y016781D01*
X018549Y016683D02*
X019131Y016683D01*
X018790Y016584D02*
X018647Y016584D01*
X019231Y016171D02*
X019428Y016368D01*
X019428Y017352D01*
X019625Y017549D01*
X020019Y017549D01*
X024349Y017549D01*
X024664Y018231D02*
X024995Y018562D01*
X025040Y018671D01*
X025040Y018789D01*
X025040Y019157D01*
X025208Y019325D01*
X025208Y019615D01*
X025869Y019615D01*
X025719Y019465D01*
X025719Y018996D01*
X026051Y018664D01*
X026055Y018664D01*
X025816Y018425D01*
X025816Y018280D01*
X026236Y018280D01*
X026236Y018180D01*
X026336Y018180D01*
X026336Y017760D01*
X026481Y017760D01*
X026719Y017999D01*
X026719Y017996D01*
X027051Y017664D01*
X027521Y017664D01*
X027786Y017929D01*
X027993Y017722D01*
X027993Y017479D01*
X027134Y016620D01*
X027050Y016536D01*
X027005Y016427D01*
X027005Y013735D01*
X026811Y013541D01*
X026811Y017018D01*
X026766Y017127D01*
X026683Y017210D01*
X026133Y017760D01*
X026236Y017760D01*
X026236Y018180D01*
X025816Y018180D01*
X025816Y018077D01*
X025699Y018195D01*
X025589Y018240D01*
X025471Y018240D01*
X024684Y018240D01*
X024664Y018231D01*
X024692Y018260D02*
X026236Y018260D01*
X026236Y018161D02*
X026336Y018161D01*
X026336Y018063D02*
X026236Y018063D01*
X026236Y017964D02*
X026336Y017964D01*
X026336Y017865D02*
X026236Y017865D01*
X026236Y017767D02*
X026336Y017767D01*
X026225Y017668D02*
X027047Y017668D01*
X026948Y017767D02*
X026487Y017767D01*
X026586Y017865D02*
X026850Y017865D01*
X026751Y017964D02*
X026685Y017964D01*
X026323Y017570D02*
X027993Y017570D01*
X027993Y017668D02*
X027526Y017668D01*
X027624Y017767D02*
X027948Y017767D01*
X027850Y017865D02*
X027723Y017865D01*
X027985Y017471D02*
X026422Y017471D01*
X026520Y017373D02*
X027887Y017373D01*
X027788Y017274D02*
X026619Y017274D01*
X026717Y017176D02*
X027690Y017176D01*
X027591Y017077D02*
X026787Y017077D01*
X026811Y016979D02*
X027493Y016979D01*
X027394Y016880D02*
X026811Y016880D01*
X026811Y016781D02*
X027296Y016781D01*
X027197Y016683D02*
X026811Y016683D01*
X026811Y016584D02*
X027098Y016584D01*
X027029Y016486D02*
X026811Y016486D01*
X026811Y016387D02*
X027005Y016387D01*
X027005Y016289D02*
X026811Y016289D01*
X026811Y016190D02*
X027005Y016190D01*
X027005Y016092D02*
X026811Y016092D01*
X026811Y015993D02*
X027005Y015993D01*
X027005Y015895D02*
X026811Y015895D01*
X026811Y015796D02*
X027005Y015796D01*
X027005Y015698D02*
X026811Y015698D01*
X026811Y015599D02*
X027005Y015599D01*
X027005Y015500D02*
X026811Y015500D01*
X026811Y015402D02*
X027005Y015402D01*
X027005Y015303D02*
X026811Y015303D01*
X026811Y015205D02*
X027005Y015205D01*
X027005Y015106D02*
X026811Y015106D01*
X026811Y015008D02*
X027005Y015008D01*
X027005Y014909D02*
X026811Y014909D01*
X026811Y014811D02*
X027005Y014811D01*
X027005Y014712D02*
X026811Y014712D01*
X026811Y014614D02*
X027005Y014614D01*
X027005Y014515D02*
X026811Y014515D01*
X026811Y014416D02*
X027005Y014416D01*
X027005Y014318D02*
X026811Y014318D01*
X026811Y014219D02*
X027005Y014219D01*
X027005Y014121D02*
X026811Y014121D01*
X026811Y014022D02*
X027005Y014022D01*
X027005Y013924D02*
X026811Y013924D01*
X026811Y013825D02*
X027005Y013825D01*
X026997Y013727D02*
X026811Y013727D01*
X026811Y013628D02*
X026898Y013628D01*
X025137Y013809D02*
X021475Y013809D01*
X021200Y013534D01*
X021999Y012446D02*
X023353Y012446D01*
X023255Y012347D02*
X022097Y012347D01*
X022196Y012249D02*
X023156Y012249D01*
X023058Y012150D02*
X022294Y012150D01*
X022393Y012051D02*
X022959Y012051D01*
X022893Y011953D02*
X022459Y011953D01*
X022481Y011854D02*
X022871Y011854D01*
X022871Y011756D02*
X022481Y011756D01*
X022481Y011657D02*
X022871Y011657D01*
X022819Y011559D02*
X022481Y011559D01*
X022481Y011460D02*
X022721Y011460D01*
X022703Y011362D02*
X022481Y011362D01*
X022481Y011263D02*
X022703Y011263D01*
X022703Y011165D02*
X022481Y011165D01*
X022481Y011066D02*
X022703Y011066D01*
X022793Y010967D02*
X022481Y010967D01*
X022481Y010869D02*
X022892Y010869D01*
X023633Y011362D02*
X024052Y011362D01*
X024052Y011460D02*
X023616Y011460D01*
X023517Y011559D02*
X024052Y011559D01*
X024052Y011657D02*
X023465Y011657D01*
X023503Y011756D02*
X024052Y011756D01*
X024052Y011854D02*
X023602Y011854D01*
X023700Y011953D02*
X024052Y011953D01*
X024052Y012051D02*
X023799Y012051D01*
X022184Y011841D02*
X021790Y012234D01*
X020806Y012234D01*
X021790Y011644D02*
X018483Y011644D01*
X018247Y011408D01*
X018247Y011053D02*
X020215Y011053D01*
X020412Y010856D01*
X021200Y010856D01*
X021665Y010869D02*
X021887Y010869D01*
X021887Y010967D02*
X021665Y010967D01*
X021648Y011066D02*
X021887Y011066D01*
X021790Y011053D02*
X021554Y011289D01*
X020609Y011289D01*
X020524Y011165D02*
X020850Y011165D01*
X020949Y011263D02*
X020425Y011263D01*
X020177Y010672D02*
X019404Y010672D01*
X019421Y010573D02*
X020320Y010573D01*
X020924Y010475D02*
X019421Y010475D01*
X019421Y010376D02*
X021637Y010376D01*
X021593Y010463D02*
X021790Y010660D01*
X021790Y011053D01*
X021887Y011165D02*
X021549Y011165D01*
X021513Y011263D02*
X021450Y011263D01*
X021665Y010770D02*
X021887Y010770D01*
X021887Y010672D02*
X021665Y010672D01*
X021574Y010573D02*
X021887Y010573D01*
X021735Y010475D02*
X021476Y010475D01*
X021593Y010463D02*
X021593Y009872D01*
X021790Y009675D01*
X022184Y009675D01*
X021987Y010069D02*
X022184Y010266D01*
X022184Y011841D01*
X021538Y010278D02*
X019421Y010278D01*
X019330Y010179D02*
X021522Y010179D01*
X021522Y010081D02*
X019231Y010081D01*
X018849Y009982D02*
X021522Y009982D01*
X021522Y009883D02*
X021255Y009883D01*
X021354Y009785D02*
X021614Y009785D01*
X020729Y009095D02*
X020528Y009095D01*
X020429Y008997D02*
X020735Y008997D01*
X020735Y008898D02*
X020330Y008898D01*
X020184Y008799D02*
X020735Y008799D01*
X021473Y008504D02*
X028383Y008504D01*
X028383Y008602D02*
X023845Y008602D01*
X023992Y008701D02*
X028383Y008701D01*
X028383Y008799D02*
X024090Y008799D01*
X024189Y008898D02*
X028383Y008898D01*
X028680Y008888D02*
X028680Y008691D01*
X028680Y003971D01*
X029286Y003364D01*
X029286Y002301D01*
X028873Y002690D02*
X028699Y002690D01*
X028601Y002788D02*
X028972Y002788D01*
X028989Y002887D02*
X028014Y002887D01*
X027916Y002985D02*
X028989Y002985D01*
X028989Y003084D02*
X027817Y003084D01*
X027719Y003183D02*
X028989Y003183D01*
X028950Y003281D02*
X027620Y003281D01*
X027599Y003380D02*
X028851Y003380D01*
X028753Y003478D02*
X027599Y003478D01*
X027599Y003577D02*
X028654Y003577D01*
X028555Y003675D02*
X027599Y003675D01*
X027599Y003774D02*
X028457Y003774D01*
X028399Y003872D02*
X027599Y003872D01*
X027599Y003971D02*
X028383Y003971D01*
X028383Y004069D02*
X027599Y004069D01*
X027599Y004168D02*
X028383Y004168D01*
X028383Y004266D02*
X027599Y004266D01*
X027599Y004365D02*
X028383Y004365D01*
X028383Y004464D02*
X027599Y004464D01*
X027599Y004562D02*
X028383Y004562D01*
X028383Y004661D02*
X027599Y004661D01*
X027599Y004759D02*
X028383Y004759D01*
X028383Y004858D02*
X027599Y004858D01*
X027599Y004956D02*
X028383Y004956D01*
X028383Y005055D02*
X027599Y005055D01*
X027599Y005153D02*
X028383Y005153D01*
X028383Y005252D02*
X027599Y005252D01*
X027599Y005350D02*
X028383Y005350D01*
X028383Y005449D02*
X027599Y005449D01*
X027599Y005548D02*
X028383Y005548D01*
X028383Y005646D02*
X027599Y005646D01*
X027599Y005745D02*
X028383Y005745D01*
X028383Y005843D02*
X027599Y005843D01*
X027599Y005942D02*
X028383Y005942D01*
X028383Y006040D02*
X027599Y006040D01*
X027599Y006139D02*
X028383Y006139D01*
X028383Y006237D02*
X027630Y006237D01*
X027302Y006329D02*
X027302Y005935D01*
X027302Y003179D01*
X027774Y002707D01*
X027774Y001813D01*
X028286Y001301D01*
X028759Y001014D02*
X028995Y000778D01*
X030609Y000778D01*
X030845Y001014D01*
X030845Y002589D01*
X029074Y004360D01*
X029074Y008100D01*
X030255Y009282D01*
X030649Y009675D02*
X030649Y008888D01*
X029861Y008100D01*
X029861Y006329D01*
X028383Y006336D02*
X027967Y006336D01*
X028065Y006434D02*
X028383Y006434D01*
X028383Y006533D02*
X028161Y006533D01*
X028161Y006632D02*
X028383Y006632D01*
X028383Y006730D02*
X028161Y006730D01*
X028161Y006829D02*
X028383Y006829D01*
X028383Y006927D02*
X028149Y006927D01*
X028066Y007026D02*
X028383Y007026D01*
X028383Y007124D02*
X028161Y007124D01*
X028161Y007223D02*
X028383Y007223D01*
X028383Y007321D02*
X028161Y007321D01*
X028161Y007420D02*
X028383Y007420D01*
X028383Y007518D02*
X028148Y007518D01*
X028049Y007617D02*
X028383Y007617D01*
X028383Y007716D02*
X027964Y007716D01*
X027964Y007814D02*
X028383Y007814D01*
X028383Y007913D02*
X027964Y007913D01*
X027964Y008011D02*
X028383Y008011D01*
X028383Y008110D02*
X027950Y008110D01*
X027852Y008208D02*
X028383Y008208D01*
X028383Y008307D02*
X027753Y008307D01*
X027245Y008307D02*
X019879Y008307D01*
X019978Y008208D02*
X027146Y008208D01*
X027047Y008110D02*
X020076Y008110D01*
X020090Y008011D02*
X027034Y008011D01*
X027034Y007913D02*
X026966Y007913D01*
X027499Y007904D02*
X027499Y007707D01*
X026908Y007116D01*
X026908Y002982D01*
X026790Y002864D01*
X026790Y001797D01*
X027286Y001301D01*
X026286Y001301D02*
X025767Y001821D01*
X025767Y002628D01*
X026515Y003376D01*
X026515Y006919D01*
X025924Y007510D01*
X026277Y007814D02*
X026358Y007814D01*
X026457Y007913D02*
X026179Y007913D01*
X026711Y007510D02*
X026711Y003179D01*
X026286Y002754D01*
X026286Y002301D01*
X025470Y002296D02*
X025300Y002296D01*
X025201Y002394D02*
X025470Y002394D01*
X025470Y002493D02*
X024224Y002493D01*
X024224Y002591D02*
X025470Y002591D01*
X025470Y002197D02*
X025398Y002197D01*
X025405Y002099D02*
X025470Y002099D01*
X025470Y002000D02*
X025405Y002000D01*
X025405Y001901D02*
X025470Y001901D01*
X024940Y001998D02*
X024743Y001998D01*
X024546Y001998D01*
X020609Y001998D01*
X020412Y002195D01*
X020412Y002392D01*
X020412Y002589D01*
X021200Y002589D02*
X021200Y002982D01*
X021554Y003337D01*
X020412Y003967D02*
X020019Y003573D01*
X019231Y003573D01*
X018837Y003967D01*
X014900Y007904D01*
X014900Y009872D01*
X013326Y011447D01*
X013326Y011760D01*
X013070Y012016D01*
X012538Y011841D02*
X012538Y012431D01*
X013326Y013219D01*
X014507Y013219D01*
X015806Y011919D01*
X016357Y011919D01*
X016869Y012431D01*
X018444Y012431D01*
X019034Y013022D01*
X018569Y013037D02*
X016951Y013037D01*
X017050Y013135D02*
X018569Y013135D01*
X018589Y013234D02*
X017137Y013234D01*
X017137Y013332D02*
X018688Y013332D01*
X018786Y013431D02*
X017137Y013431D01*
X017137Y013530D02*
X019713Y013530D01*
X019722Y013628D02*
X017117Y013628D01*
X017018Y013727D02*
X019722Y013727D01*
X019722Y013825D02*
X016920Y013825D01*
X016584Y013924D02*
X019722Y013924D01*
X019722Y014022D02*
X016485Y014022D01*
X016278Y013809D02*
X015491Y013809D01*
X015770Y013431D02*
X016207Y013431D01*
X016207Y013332D02*
X015473Y013332D01*
X015571Y013234D02*
X016207Y013234D01*
X016295Y013135D02*
X015670Y013135D01*
X015769Y013037D02*
X016393Y013037D01*
X016347Y012840D02*
X018433Y012840D01*
X018531Y012938D02*
X016190Y012938D01*
X016446Y012741D02*
X018334Y012741D01*
X019381Y013332D02*
X019516Y013332D01*
X019614Y013431D02*
X019283Y013431D01*
X019722Y014121D02*
X015837Y014121D01*
X015738Y014219D02*
X019722Y014219D01*
X019722Y014318D02*
X014487Y014318D01*
X014389Y014416D02*
X019722Y014416D01*
X019722Y014515D02*
X014290Y014515D01*
X014213Y014614D02*
X019722Y014614D01*
X019722Y014712D02*
X014213Y014712D01*
X014213Y014811D02*
X019722Y014811D01*
X019722Y014909D02*
X014213Y014909D01*
X014213Y015008D02*
X019722Y015008D01*
X019722Y015106D02*
X014213Y015106D01*
X014213Y015205D02*
X019722Y015205D01*
X018338Y015303D02*
X014189Y015303D01*
X014121Y015402D02*
X018203Y015402D01*
X018104Y015500D02*
X014023Y015500D01*
X013924Y015599D02*
X018006Y015599D01*
X017907Y015698D02*
X013826Y015698D01*
X013774Y015749D02*
X013774Y015749D01*
X013727Y015796D02*
X017809Y015796D01*
X017558Y016467D02*
X013030Y016467D01*
X011554Y016467D01*
X011554Y018656D01*
X012129Y019230D01*
X012617Y019478D02*
X013050Y019911D01*
X014696Y018161D02*
X019722Y018161D01*
X019722Y018063D02*
X014696Y018063D01*
X014664Y017964D02*
X019722Y017964D01*
X019722Y017865D02*
X014566Y017865D01*
X014512Y017767D02*
X019423Y017767D01*
X019324Y017668D02*
X014611Y017668D01*
X014709Y017570D02*
X019226Y017570D01*
X019156Y017471D02*
X014808Y017471D01*
X014906Y017373D02*
X019131Y017373D01*
X020019Y017549D02*
X020019Y018565D01*
X020684Y019230D01*
X019428Y017943D02*
X017066Y017943D01*
X012477Y016979D02*
X011851Y016979D01*
X011851Y016880D02*
X012330Y016880D01*
X012234Y016781D02*
X011851Y016781D01*
X011554Y016467D02*
X010471Y016467D01*
X012982Y015106D02*
X013079Y015106D01*
X013079Y015008D02*
X012982Y015008D01*
X012982Y014909D02*
X013079Y014909D01*
X013079Y014811D02*
X012982Y014811D01*
X012982Y014646D02*
X012249Y014646D01*
X012258Y014586D01*
X012281Y014516D01*
X012314Y014450D01*
X012357Y014391D01*
X012409Y014339D01*
X012469Y014296D01*
X012534Y014262D01*
X012604Y014240D01*
X012677Y014228D01*
X012982Y014228D01*
X012982Y014646D01*
X012982Y014614D02*
X013079Y014614D01*
X013079Y014515D02*
X012982Y014515D01*
X012982Y014416D02*
X013079Y014416D01*
X013079Y014318D02*
X012982Y014318D01*
X012438Y014318D02*
X011063Y014318D01*
X011163Y014416D02*
X012339Y014416D01*
X012281Y014515D02*
X011220Y014515D01*
X011248Y014614D02*
X012254Y014614D01*
X012260Y014811D02*
X011241Y014811D01*
X011203Y014909D02*
X012299Y014909D01*
X012366Y015008D02*
X011136Y015008D01*
X010520Y014614D02*
X010423Y014614D01*
X010423Y014515D02*
X010520Y014515D01*
X010520Y014416D02*
X010423Y014416D01*
X010423Y014318D02*
X010520Y014318D01*
X010000Y014219D02*
X013746Y014219D01*
X013658Y014318D02*
X013622Y014318D01*
X013845Y014121D02*
X010000Y014121D01*
X010000Y014022D02*
X013943Y014022D01*
X014042Y013924D02*
X010000Y013924D01*
X010000Y013825D02*
X014141Y013825D01*
X014239Y013727D02*
X010000Y013727D01*
X010000Y013628D02*
X014338Y013628D01*
X014436Y013530D02*
X012148Y013530D01*
X012261Y013431D02*
X013118Y013431D01*
X013020Y013332D02*
X012360Y013332D01*
X012408Y013234D02*
X012921Y013234D01*
X012823Y013135D02*
X012449Y013135D01*
X012482Y013037D02*
X012724Y013037D01*
X012626Y012938D02*
X012482Y012938D01*
X012482Y012840D02*
X012527Y012840D01*
X012241Y012347D02*
X012208Y012347D01*
X012241Y012249D02*
X012019Y012249D01*
X012241Y012150D02*
X011378Y012150D01*
X011337Y012051D02*
X012241Y012051D01*
X012241Y011953D02*
X011261Y011953D01*
X011162Y011854D02*
X012241Y011854D01*
X012252Y011756D02*
X011052Y011756D01*
X010814Y011657D02*
X012302Y011657D01*
X012400Y011559D02*
X010000Y011559D01*
X010000Y011657D02*
X010325Y011657D01*
X010087Y011756D02*
X010000Y011756D01*
X010000Y011460D02*
X012485Y011460D01*
X012386Y011362D02*
X010000Y011362D01*
X010000Y011263D02*
X012287Y011263D01*
X012270Y011165D02*
X010000Y011165D01*
X010000Y011066D02*
X012270Y011066D01*
X012270Y010967D02*
X010000Y010967D01*
X010000Y010869D02*
X011893Y010869D01*
X012735Y011053D02*
X013562Y010226D01*
X013562Y009508D01*
X013070Y009016D01*
X014070Y008516D02*
X014704Y009150D01*
X014704Y009675D01*
X012538Y011841D01*
X011521Y012249D02*
X011419Y012249D01*
X011131Y013234D02*
X011106Y013234D01*
X011180Y013332D02*
X010916Y013332D01*
X011278Y013431D02*
X010000Y013431D01*
X010000Y013332D02*
X010224Y013332D01*
X010034Y013234D02*
X010000Y013234D01*
X010000Y013530D02*
X011391Y013530D01*
X013916Y014469D02*
X013916Y015187D01*
X013916Y014469D02*
X015970Y012416D01*
X015364Y013022D01*
X016278Y013809D02*
X016672Y013415D01*
X016661Y012643D02*
X016489Y012643D01*
X016530Y012544D02*
X016562Y012544D01*
X015294Y011791D02*
X015294Y011053D01*
X016082Y010266D01*
X016278Y010069D01*
X016672Y009675D01*
X016672Y007313D01*
X018641Y005345D01*
X018837Y005148D01*
X020019Y005148D01*
X020412Y004754D01*
X019900Y004754D02*
X018837Y004754D01*
X018641Y004951D01*
X016475Y007116D01*
X016475Y009478D01*
X015885Y010069D01*
X015097Y010856D01*
X015097Y011250D01*
X014507Y011841D01*
X014507Y012079D01*
X014070Y012516D01*
X015070Y012016D02*
X015294Y011791D01*
X014070Y011516D02*
X014070Y011097D01*
X014113Y011053D01*
X015097Y010069D01*
X015097Y008100D01*
X018641Y004557D01*
X018837Y004360D01*
X019231Y003967D01*
X019900Y003967D01*
X020085Y005449D02*
X018956Y005449D01*
X018857Y005548D02*
X019986Y005548D01*
X019888Y005646D02*
X018759Y005646D01*
X018660Y005745D02*
X019789Y005745D01*
X019691Y005843D02*
X018562Y005843D01*
X018463Y005942D02*
X019592Y005942D01*
X019494Y006040D02*
X018365Y006040D01*
X018266Y006139D02*
X019395Y006139D01*
X019296Y006237D02*
X018168Y006237D01*
X018069Y006336D02*
X019198Y006336D01*
X018757Y006434D02*
X017971Y006434D01*
X017872Y006533D02*
X018607Y006533D01*
X018509Y006632D02*
X017773Y006632D01*
X017675Y006730D02*
X018410Y006730D01*
X018357Y006829D02*
X017576Y006829D01*
X017478Y006927D02*
X018344Y006927D01*
X018344Y007026D02*
X017379Y007026D01*
X017281Y007124D02*
X018344Y007124D01*
X018344Y007223D02*
X017182Y007223D01*
X017084Y007321D02*
X018344Y007321D01*
X018344Y007420D02*
X016985Y007420D01*
X017338Y007518D02*
X018344Y007518D01*
X018364Y007617D02*
X017437Y007617D01*
X017531Y007716D02*
X018426Y007716D01*
X018472Y007762D02*
X018472Y007762D01*
X018525Y007814D02*
X017531Y007814D01*
X017531Y007913D02*
X018624Y007913D01*
X018722Y008011D02*
X017531Y008011D01*
X017517Y008110D02*
X018821Y008110D01*
X018783Y008072D02*
X018783Y008072D01*
X019272Y008208D02*
X017419Y008208D01*
X017320Y008307D02*
X019371Y008307D01*
X019189Y009391D02*
X019984Y009391D01*
X020082Y009489D02*
X019090Y009489D01*
X018759Y010266D02*
X018956Y010463D01*
X018759Y010266D02*
X017066Y010266D01*
X016869Y009872D02*
X016869Y008888D01*
X016869Y008100D01*
X017066Y007904D01*
X017166Y008405D02*
X028383Y008405D01*
X028680Y008888D02*
X029074Y009282D01*
X029074Y009478D01*
X029664Y010069D01*
X030058Y010069D01*
X030649Y009675D02*
X031633Y010660D01*
X032223Y010660D02*
X032223Y008888D01*
X032223Y008691D01*
X032223Y008100D01*
X032026Y007904D01*
X031633Y007904D01*
X031239Y007707D02*
X031042Y007904D01*
X030845Y007904D01*
X031239Y007707D02*
X032223Y007707D01*
X032420Y007904D01*
X032420Y008297D01*
X032420Y010266D01*
X032420Y014400D01*
X032026Y014793D01*
X032026Y014203D02*
X032223Y014006D01*
X032223Y012628D01*
X032223Y010660D01*
X029664Y009478D02*
X029271Y009085D01*
X028877Y008691D01*
X028877Y004163D01*
X029782Y003258D01*
X029782Y001797D01*
X029286Y001301D01*
X028759Y001014D02*
X028759Y001829D01*
X028286Y002301D01*
X027286Y002301D02*
X027286Y002801D01*
X027105Y002982D01*
X027105Y006526D01*
X027105Y006723D01*
X027696Y007313D01*
X027696Y006723D02*
X027302Y006329D01*
X025443Y008997D02*
X024287Y008997D01*
X024386Y009095D02*
X025297Y009095D01*
X025198Y009194D02*
X024484Y009194D01*
X024583Y009292D02*
X025100Y009292D01*
X025001Y009391D02*
X024634Y009391D01*
X024646Y009489D02*
X024903Y009489D01*
X024804Y009588D02*
X024646Y009588D01*
X024646Y009686D02*
X024706Y009686D01*
X024655Y009785D02*
X024646Y009785D01*
X024940Y009872D02*
X024940Y010463D01*
X024940Y009872D02*
X025530Y009282D01*
X028562Y009282D01*
X028680Y009400D01*
X027105Y010620D02*
X026908Y010423D01*
X023168Y009675D02*
X022971Y009478D01*
X018247Y011053D02*
X017263Y011053D01*
X016869Y011447D01*
X015970Y009590D02*
X014704Y010856D01*
X014704Y010974D01*
X015970Y009590D02*
X015970Y009116D01*
X014604Y008307D02*
X014570Y008307D01*
X014604Y008208D02*
X014528Y008208D01*
X014604Y008110D02*
X014430Y008110D01*
X014267Y008011D02*
X014604Y008011D01*
X014507Y006919D02*
X013299Y006919D01*
X011572Y006927D02*
X010000Y006927D01*
X010000Y007026D02*
X011353Y007026D01*
X011255Y007124D02*
X010000Y007124D01*
X010000Y007223D02*
X010167Y007223D01*
X010010Y007321D02*
X010000Y007321D01*
X010973Y007223D02*
X011162Y007223D01*
X013383Y002690D02*
X017338Y002690D01*
X017239Y002591D02*
X013383Y002591D01*
X013383Y002493D02*
X017141Y002493D01*
X017042Y002394D02*
X013383Y002394D01*
X017263Y001191D02*
X025314Y001191D01*
X025530Y001408D01*
X024580Y002296D02*
X024123Y002296D01*
X024222Y002394D02*
X024678Y002394D01*
X023759Y002392D02*
X023562Y002195D01*
X023759Y002392D02*
X023759Y002589D01*
X030079Y002759D02*
X030079Y002935D01*
X030336Y002678D01*
X030336Y002351D01*
X030236Y002351D01*
X030236Y002771D01*
X030092Y002771D01*
X030079Y002759D01*
X030079Y002788D02*
X030226Y002788D01*
X030236Y002690D02*
X030324Y002690D01*
X030336Y002591D02*
X030236Y002591D01*
X030236Y002493D02*
X030336Y002493D01*
X030336Y002394D02*
X030236Y002394D01*
X030127Y002887D02*
X030079Y002887D01*
X015026Y013825D02*
X014980Y013825D01*
X015026Y013924D02*
X014882Y013924D01*
X014783Y014022D02*
X015047Y014022D01*
X015145Y014121D02*
X014685Y014121D01*
X014586Y014219D02*
X015244Y014219D01*
X024791Y018358D02*
X025816Y018358D01*
X025848Y018457D02*
X024889Y018457D01*
X024988Y018555D02*
X025947Y018555D01*
X026045Y018654D02*
X025033Y018654D01*
X025040Y018752D02*
X025963Y018752D01*
X025864Y018851D02*
X025040Y018851D01*
X025040Y018949D02*
X025766Y018949D01*
X025719Y019048D02*
X025040Y019048D01*
X025040Y019147D02*
X025719Y019147D01*
X025719Y019245D02*
X025128Y019245D01*
X025208Y019344D02*
X025719Y019344D01*
X025719Y019442D02*
X025208Y019442D01*
X025208Y019541D02*
X025795Y019541D01*
X027774Y019518D02*
X027774Y018719D01*
X027290Y018234D01*
X027286Y018230D01*
X028286Y019230D02*
X028798Y018719D01*
X028798Y018723D01*
X028798Y018719D02*
X028798Y018140D01*
X030806Y018711D02*
X030806Y018715D01*
X030649Y019715D02*
X027971Y019715D01*
X027774Y019518D01*
X025816Y018161D02*
X025732Y018161D01*
M02*
