G75*
G70*
%OFA0B0*%
%FSLAX24Y24*%
%IPPOS*%
%LPD*%
%AMOC8*
5,1,8,0,0,1.08239X$1,22.5*
%
%ADD10C,0.1340*%
%ADD11R,0.0300X0.0580*%
%ADD12R,0.0580X0.0300*%
%ADD13R,0.0560X0.0960*%
%ADD14R,0.1497X0.0946*%
%ADD15R,0.0631X0.0710*%
%ADD16C,0.0630*%
%ADD17R,0.0630X0.0630*%
%ADD18C,0.1010*%
%ADD19C,0.1360*%
%ADD20C,0.0680*%
%ADD21C,0.0674*%
%ADD22R,0.0710X0.0592*%
%ADD23R,0.0671X0.0592*%
%ADD24R,0.0592X0.0710*%
%ADD25R,0.0552X0.0474*%
%ADD26R,0.0513X0.0828*%
%ADD27R,0.0592X0.0671*%
%ADD28R,0.0552X0.0552*%
%ADD29R,0.0710X0.0631*%
%ADD30R,0.0474X0.0552*%
%ADD31OC8,0.0680*%
%ADD32C,0.0513*%
%ADD33C,0.0710*%
%ADD34OC8,0.1980*%
%ADD35R,0.1143X0.0907*%
%ADD36C,0.0174*%
%ADD37R,0.0354X0.1102*%
%ADD38R,0.0394X0.0354*%
%ADD39R,0.1064X0.0749*%
%ADD40R,0.0710X0.0166*%
%ADD41R,0.0166X0.0710*%
%ADD42OC8,0.0476*%
D10*
X010570Y001604D03*
X031830Y001604D03*
X031830Y018927D03*
X010570Y018927D03*
D11*
X028168Y011956D03*
X028483Y011956D03*
X028798Y011956D03*
X029113Y011956D03*
X029428Y011956D03*
X029743Y011956D03*
X030058Y011956D03*
X030373Y011956D03*
X030373Y008576D03*
X030058Y008576D03*
X029743Y008576D03*
X029428Y008576D03*
X029113Y008576D03*
X028798Y008576D03*
X028483Y008576D03*
X028168Y008576D03*
D12*
X027581Y009163D03*
X027581Y009478D03*
X027581Y009793D03*
X027581Y010108D03*
X027581Y010423D03*
X027581Y010738D03*
X027581Y011053D03*
X027581Y011368D03*
X030961Y011368D03*
X030961Y011053D03*
X030961Y010738D03*
X030961Y010423D03*
X030961Y010108D03*
X030961Y009793D03*
X030961Y009478D03*
X030961Y009163D03*
D13*
X018566Y016920D03*
X017656Y016920D03*
X016747Y016920D03*
X016991Y003612D03*
X016082Y003612D03*
X015172Y003612D03*
D14*
X016082Y001172D03*
X017656Y019360D03*
D15*
X019231Y015384D03*
X020215Y015384D03*
X020215Y014203D03*
X019231Y014203D03*
X025924Y006723D03*
X025924Y005541D03*
X019034Y004951D03*
X018050Y004951D03*
X018050Y006132D03*
X019034Y006132D03*
D16*
X014070Y008516D03*
X013070Y009016D03*
X014070Y009516D03*
X013070Y010016D03*
X014070Y011516D03*
X015070Y012016D03*
X014070Y012516D03*
X013070Y012016D03*
D17*
X013070Y008016D03*
D18*
X011770Y007616D03*
X011770Y012916D03*
D19*
X010570Y012516D03*
X010570Y008016D03*
D20*
X015970Y008116D03*
X015970Y009116D03*
X015970Y011416D03*
X015970Y012416D03*
D21*
X013327Y014695D02*
X012734Y014695D01*
X010768Y014695D02*
X010174Y014695D01*
X010174Y016467D02*
X010768Y016467D01*
X012734Y016467D02*
X013327Y016467D01*
D22*
X015688Y016585D03*
X015688Y017333D03*
X016278Y015364D03*
X017263Y015364D03*
X018247Y015364D03*
X018247Y014616D03*
X017263Y014616D03*
X016278Y014616D03*
X019822Y016585D03*
X020806Y016585D03*
X021790Y016585D03*
X022774Y016585D03*
X023759Y016585D03*
X024743Y016585D03*
X024743Y017333D03*
X023759Y017333D03*
X022774Y017333D03*
X021790Y017333D03*
X020806Y017333D03*
X019822Y017333D03*
X024546Y013789D03*
X024546Y013041D03*
X032223Y010049D03*
X032223Y009301D03*
X022381Y006506D03*
X022381Y005758D03*
X019034Y003947D03*
X018050Y003947D03*
X018050Y003199D03*
X019034Y003199D03*
X020412Y001978D03*
X020412Y001230D03*
X023365Y001230D03*
X023365Y001978D03*
X016082Y004971D03*
X015097Y004971D03*
X015097Y005719D03*
X016082Y005719D03*
D23*
X017066Y005719D03*
X017066Y004971D03*
X020412Y005758D03*
X021397Y005758D03*
X021397Y006506D03*
X020412Y006506D03*
X024743Y004931D03*
X024743Y004183D03*
X024940Y005758D03*
X024940Y006506D03*
X026908Y006506D03*
X026908Y005758D03*
X024349Y001978D03*
X024349Y001230D03*
X022381Y001230D03*
X022381Y001978D03*
X021397Y001978D03*
X021397Y001230D03*
X019428Y001230D03*
X019428Y001978D03*
X015294Y014616D03*
X015294Y015364D03*
D24*
X017479Y013219D03*
X018227Y013219D03*
X018227Y012037D03*
X017479Y012037D03*
X025353Y011053D03*
X026101Y011053D03*
X026101Y009872D03*
X025353Y009872D03*
X025353Y008691D03*
X026101Y008691D03*
X031456Y007904D03*
X032204Y007904D03*
X032204Y006919D03*
X031456Y006919D03*
X031456Y005935D03*
X032204Y005935D03*
X032204Y004951D03*
X031456Y004951D03*
X031456Y003967D03*
X032204Y003967D03*
X032204Y002982D03*
X031456Y002982D03*
X018227Y007313D03*
X017479Y007313D03*
D25*
X017420Y009675D03*
X018286Y009675D03*
X018286Y010856D03*
X017420Y010856D03*
D26*
X025688Y014360D03*
X026554Y014360D03*
X026554Y015620D03*
X025688Y015620D03*
X030019Y015620D03*
X030885Y015620D03*
X030885Y014360D03*
X030019Y014360D03*
D27*
X028660Y014203D03*
X027912Y014203D03*
X026495Y013415D03*
X025747Y013415D03*
X025747Y012234D03*
X026495Y012234D03*
X030078Y013415D03*
X030826Y013415D03*
X030826Y016565D03*
X030078Y016565D03*
X028660Y016565D03*
X027912Y016565D03*
X026495Y016565D03*
X025747Y016565D03*
X018227Y008494D03*
X017479Y008494D03*
D28*
X018050Y002018D03*
X018050Y001191D03*
X032223Y010837D03*
X032223Y011663D03*
X024743Y018120D03*
X023759Y018120D03*
X022774Y018120D03*
X021790Y018120D03*
X020806Y018120D03*
X019822Y018120D03*
X019822Y018947D03*
X020806Y018947D03*
X021790Y018947D03*
X022774Y018947D03*
X023759Y018947D03*
X024743Y018947D03*
X015688Y019341D03*
X015688Y018514D03*
D29*
X027696Y015384D03*
X028877Y015384D03*
D30*
X014310Y015423D03*
X014310Y014557D03*
D31*
X014129Y018230D03*
X013129Y018230D03*
X012129Y018230D03*
X012129Y019230D03*
X013129Y019230D03*
X014129Y019230D03*
X026286Y019230D03*
X027286Y019230D03*
X028286Y019230D03*
X029286Y019230D03*
X030286Y019230D03*
X030286Y018230D03*
X029286Y018230D03*
X028286Y018230D03*
X027286Y018230D03*
X026286Y018230D03*
X031830Y017352D03*
X030286Y002301D03*
X029286Y002301D03*
X028286Y002301D03*
X027286Y002301D03*
X026286Y002301D03*
X026286Y001301D03*
X027286Y001301D03*
X028286Y001301D03*
X029286Y001301D03*
X030286Y001301D03*
D32*
X023798Y014833D03*
D33*
X023798Y006526D03*
D34*
X013463Y004724D03*
X011103Y004724D03*
X012283Y002754D03*
D35*
X029271Y005345D03*
X029271Y007313D03*
D36*
X023190Y005061D02*
X023146Y005061D01*
X023190Y005061D02*
X023190Y004761D01*
X023146Y004761D01*
X023146Y005061D01*
X023146Y004934D02*
X023190Y004934D01*
X022875Y005061D02*
X022831Y005061D01*
X022875Y005061D02*
X022875Y004761D01*
X022831Y004761D01*
X022831Y005061D01*
X022831Y004934D02*
X022875Y004934D01*
X022560Y005061D02*
X022516Y005061D01*
X022560Y005061D02*
X022560Y004761D01*
X022516Y004761D01*
X022516Y005061D01*
X022516Y004934D02*
X022560Y004934D01*
X022245Y005061D02*
X022201Y005061D01*
X022245Y005061D02*
X022245Y004761D01*
X022201Y004761D01*
X022201Y005061D01*
X022201Y004934D02*
X022245Y004934D01*
X021930Y005061D02*
X021886Y005061D01*
X021930Y005061D02*
X021930Y004761D01*
X021886Y004761D01*
X021886Y005061D01*
X021886Y004934D02*
X021930Y004934D01*
X021615Y005061D02*
X021571Y005061D01*
X021615Y005061D02*
X021615Y004761D01*
X021571Y004761D01*
X021571Y005061D01*
X021571Y004934D02*
X021615Y004934D01*
X021286Y004461D02*
X021286Y004417D01*
X021286Y004461D02*
X021586Y004461D01*
X021586Y004417D01*
X021286Y004417D01*
X021286Y004146D02*
X021286Y004102D01*
X021286Y004146D02*
X021586Y004146D01*
X021586Y004102D01*
X021286Y004102D01*
X021286Y003831D02*
X021286Y003787D01*
X021286Y003831D02*
X021586Y003831D01*
X021586Y003787D01*
X021286Y003787D01*
X021286Y003516D02*
X021286Y003472D01*
X021286Y003516D02*
X021586Y003516D01*
X021586Y003472D01*
X021286Y003472D01*
X021571Y003172D02*
X021615Y003172D01*
X021615Y002872D01*
X021571Y002872D01*
X021571Y003172D01*
X021571Y003045D02*
X021615Y003045D01*
X021886Y003172D02*
X021930Y003172D01*
X021930Y002872D01*
X021886Y002872D01*
X021886Y003172D01*
X021886Y003045D02*
X021930Y003045D01*
X022201Y003172D02*
X022245Y003172D01*
X022245Y002872D01*
X022201Y002872D01*
X022201Y003172D01*
X022201Y003045D02*
X022245Y003045D01*
X022516Y003172D02*
X022560Y003172D01*
X022560Y002872D01*
X022516Y002872D01*
X022516Y003172D01*
X022516Y003045D02*
X022560Y003045D01*
X022831Y003172D02*
X022875Y003172D01*
X022875Y002872D01*
X022831Y002872D01*
X022831Y003172D01*
X022831Y003045D02*
X022875Y003045D01*
X023146Y003172D02*
X023190Y003172D01*
X023190Y002872D01*
X023146Y002872D01*
X023146Y003172D01*
X023146Y003045D02*
X023190Y003045D01*
X023176Y003472D02*
X023176Y003516D01*
X023476Y003516D01*
X023476Y003472D01*
X023176Y003472D01*
X023176Y003787D02*
X023176Y003831D01*
X023476Y003831D01*
X023476Y003787D01*
X023176Y003787D01*
X023176Y004102D02*
X023176Y004146D01*
X023476Y004146D01*
X023476Y004102D01*
X023176Y004102D01*
X023176Y004417D02*
X023176Y004461D01*
X023476Y004461D01*
X023476Y004417D01*
X023176Y004417D01*
D37*
X022755Y003967D03*
X022007Y003967D03*
D38*
X022381Y004341D03*
X022381Y003593D03*
D39*
X028286Y003967D03*
X029861Y003967D03*
D40*
X024192Y008770D03*
X024192Y008927D03*
X024192Y009085D03*
X024192Y009242D03*
X024192Y009400D03*
X024192Y009557D03*
X024192Y009715D03*
X024192Y009872D03*
X024192Y010030D03*
X024192Y010187D03*
X024192Y010345D03*
X024192Y010502D03*
X024192Y010660D03*
X024192Y010817D03*
X024192Y010974D03*
X024192Y011132D03*
X024192Y011289D03*
X024192Y011447D03*
X024192Y011604D03*
X024192Y011762D03*
X019782Y011762D03*
X019782Y011604D03*
X019782Y011447D03*
X019782Y011289D03*
X019782Y011132D03*
X019782Y010974D03*
X019782Y010817D03*
X019782Y010660D03*
X019782Y010502D03*
X019782Y010345D03*
X019782Y010187D03*
X019782Y010030D03*
X019782Y009872D03*
X019782Y009715D03*
X019782Y009557D03*
X019782Y009400D03*
X019782Y009242D03*
X019782Y009085D03*
X019782Y008927D03*
X019782Y008770D03*
D41*
X020491Y008061D03*
X020649Y008061D03*
X020806Y008061D03*
X020963Y008061D03*
X021121Y008061D03*
X021278Y008061D03*
X021436Y008061D03*
X021593Y008061D03*
X021751Y008061D03*
X021908Y008061D03*
X022066Y008061D03*
X022223Y008061D03*
X022381Y008061D03*
X022538Y008061D03*
X022696Y008061D03*
X022853Y008061D03*
X023011Y008061D03*
X023168Y008061D03*
X023326Y008061D03*
X023483Y008061D03*
X023483Y012471D03*
X023326Y012471D03*
X023168Y012471D03*
X023011Y012471D03*
X022853Y012471D03*
X022696Y012471D03*
X022538Y012471D03*
X022381Y012471D03*
X022223Y012471D03*
X022066Y012471D03*
X021908Y012471D03*
X021751Y012471D03*
X021593Y012471D03*
X021436Y012471D03*
X021278Y012471D03*
X021121Y012471D03*
X020963Y012471D03*
X020806Y012471D03*
X020649Y012471D03*
X020491Y012471D03*
D42*
X020924Y013612D03*
X021003Y014793D03*
X022381Y015974D03*
X024743Y015974D03*
X024743Y015384D03*
X024546Y014597D03*
X025137Y013219D03*
X025137Y012234D03*
X024152Y012234D03*
X023050Y010935D03*
X021397Y011250D03*
X020609Y011289D03*
X021082Y010738D03*
X020845Y009833D03*
X021397Y008967D03*
X019625Y007904D03*
X019625Y007116D03*
X019034Y007116D03*
X018837Y008494D03*
X018837Y009085D03*
X017066Y007904D03*
X014507Y006919D03*
X016869Y010266D03*
X016869Y011447D03*
X018247Y011408D03*
X018956Y010463D03*
X019034Y013022D03*
X016672Y013415D03*
X015491Y013809D03*
X012145Y015581D03*
X018641Y018140D03*
X019231Y016171D03*
X027302Y012234D03*
X027696Y013022D03*
X028680Y012628D03*
X029271Y013219D03*
X031042Y012234D03*
X031436Y011841D03*
X030255Y010856D03*
X030058Y010069D03*
X029664Y009478D03*
X030255Y009282D03*
X031593Y008691D03*
X032105Y008691D03*
X032617Y008691D03*
X031593Y010069D03*
X031633Y010660D03*
X029074Y011250D03*
X028680Y010856D03*
X028286Y011250D03*
X028247Y010502D03*
X026908Y010423D03*
X026711Y011053D03*
X024940Y010463D03*
X028680Y009400D03*
X027499Y007904D03*
X026711Y007510D03*
X025924Y007510D03*
X024546Y007904D03*
X027696Y007313D03*
X027696Y006723D03*
X028286Y005541D03*
X028286Y004754D03*
X030255Y004951D03*
X030649Y005345D03*
X030845Y005935D03*
X030845Y006762D03*
X030137Y007707D03*
X025727Y004360D03*
X025530Y003770D03*
X024271Y003337D03*
X023759Y002589D03*
X022656Y002549D03*
X021200Y002589D03*
X020412Y002589D03*
X018641Y002589D03*
X016869Y002392D03*
X017263Y001191D03*
X014113Y001604D03*
X019900Y003967D03*
X020412Y003967D03*
X020412Y004754D03*
X019822Y004754D03*
X024349Y005738D03*
X030255Y003179D03*
X031239Y002392D03*
X032420Y002392D03*
X024940Y001998D03*
X024940Y001211D03*
X012145Y010463D03*
X012735Y011053D03*
X014704Y010974D03*
X031633Y014203D03*
X031633Y014793D03*
X032223Y014793D03*
X032578Y014045D03*
X031908Y013179D03*
M02*
