%
M48
M72
T01C0.0200
T02C0.0200
T03C0.0350
T04C0.0420
T05C0.0420
T06C0.0420
T07C0.0600
T08C0.0600
T09C0.1250
T10C0.1250
T11C0.1250
%
T01
X21514Y4209
T02
X19546Y4209
X19034Y4209
X18955Y4996
X19546Y4996
X19546Y2831
X20333Y2831
X21790Y2791
X22892Y2831
X24073Y2240
X24073Y1453
X23404Y3579
X24664Y4012
X24860Y4602
X23483Y5980
X25057Y7752
X25845Y7752
X26632Y8146
X26829Y7555
X26829Y6964
X27420Y5783
X27420Y4996
X29388Y5193
X29782Y5586
X29979Y6177
X29979Y7004
X29270Y7949
X30727Y8933
X31238Y8933
X31750Y8933
X30727Y10311
X30766Y10901
X30569Y12083
X30175Y12476
X31042Y13421
X31711Y14287
X30766Y14445
X30766Y15035
X31357Y15035
X28404Y13460
X27813Y12870
X26829Y13264
X26435Y12476
X27420Y11492
X27813Y11098
X28207Y11492
X27380Y10744
X26042Y10665
X25845Y11295
X24073Y10705
X22183Y11177
X20530Y11492
X20215Y10980
X19742Y11531
X18089Y10705
X17380Y11649
X16002Y11689
X16002Y10508
X13837Y11216
X11868Y11295
X11278Y10705
X15805Y13657
X14624Y14051
X11278Y15823
X17774Y18382
X18364Y16413
X20136Y15035
X21514Y16216
X23679Y14838
X23876Y15626
X23876Y16216
X20057Y13854
X18168Y13264
X19979Y10075
X20530Y9209
X18758Y8146
X17971Y8736
X17971Y9327
X16199Y8146
X18168Y7358
X18758Y7358
X23679Y8146
X27813Y9642
X28797Y9720
X29388Y9523
X29191Y10311
X29388Y11098
X24270Y12476
X23286Y12476
X24270Y13460
X13640Y7161
X17774Y2831
X16002Y2634
X16396Y1433
X13246Y1846
X29388Y3421
X30372Y2634
X31553Y2634
T03
X14203Y12258
X13203Y12758
X12203Y12258
X13203Y11758
X12203Y10258
X13203Y9758
X12203Y9258
X13203Y8758
X12203Y8258
T04
X12164Y14937
X9605Y14937
X9605Y16709
X12164Y16709
T05
X12262Y18472
X11262Y18472
X11262Y19472
X12262Y19472
X13262Y19472
X13262Y18472
X15103Y12658
X15103Y11658
X15103Y9358
X15103Y8358
X25420Y2543
X26420Y2543
X27420Y2543
X28420Y2543
X29420Y2543
X29420Y1543
X28420Y1543
X27420Y1543
X26420Y1543
X25420Y1543
X30963Y17594
X29420Y18472
X28420Y18472
X27420Y18472
X26420Y18472
X25420Y18472
X25420Y19472
X26420Y19472
X27420Y19472
X28420Y19472
X29420Y19472
T06
X22931Y15075
T07
X10903Y13158
X10903Y7858
T08
X22931Y6768
T09
X9703Y1846
X30963Y1846
X30963Y19169
X9703Y19169
T10
X9703Y12758
X9703Y8258
T11
X10237Y4966
X12597Y4966
X11417Y2996
M30
