G75*
G70*
%OFA0B0*%
%FSLAX24Y24*%
%IPPOS*%
%LPD*%
%AMOC8*
5,1,8,0,0,1.08239X$1,22.5*
%
%ADD10C,0.1340*%
%ADD11C,0.0630*%
%ADD12R,0.0630X0.0630*%
%ADD13C,0.1010*%
%ADD14C,0.1360*%
%ADD15C,0.0680*%
%ADD16C,0.0674*%
%ADD17OC8,0.0680*%
%ADD18R,0.1655X0.0552*%
%ADD19R,0.1655X0.0356*%
%ADD20R,0.1182X0.0867*%
%ADD21C,0.0513*%
%ADD22C,0.0710*%
%ADD23OC8,0.1980*%
%ADD24R,0.0400X0.0400*%
%ADD25OC8,0.0476*%
D10*
X009703Y001846D03*
X030963Y001846D03*
X030963Y019169D03*
X009703Y019169D03*
D11*
X013203Y012758D03*
X012203Y012258D03*
X013203Y011758D03*
X014203Y012258D03*
X012203Y010258D03*
X013203Y009758D03*
X012203Y009258D03*
X013203Y008758D03*
D12*
X012203Y008258D03*
D13*
X010903Y007858D03*
X010903Y013158D03*
D14*
X009703Y012758D03*
X009703Y008258D03*
D15*
X015103Y008358D03*
X015103Y009358D03*
X015103Y011658D03*
X015103Y012658D03*
D16*
X012460Y014937D02*
X011867Y014937D01*
X009901Y014937D02*
X009308Y014937D01*
X009308Y016709D02*
X009901Y016709D01*
X011867Y016709D02*
X012460Y016709D01*
D17*
X012262Y018472D03*
X011262Y018472D03*
X011262Y019472D03*
X012262Y019472D03*
X013262Y019472D03*
X013262Y018472D03*
X025420Y018472D03*
X026420Y018472D03*
X027420Y018472D03*
X028420Y018472D03*
X029420Y018472D03*
X030963Y017594D03*
X029420Y019472D03*
X028420Y019472D03*
X027420Y019472D03*
X026420Y019472D03*
X025420Y019472D03*
X025420Y002543D03*
X026420Y002543D03*
X027420Y002543D03*
X028420Y002543D03*
X029420Y002543D03*
X029420Y001543D03*
X028420Y001543D03*
X027420Y001543D03*
X026420Y001543D03*
X025420Y001543D03*
D18*
X021750Y006807D03*
X021750Y007791D03*
X021750Y008775D03*
X021750Y009760D03*
X021750Y010744D03*
X021750Y011728D03*
X021750Y012712D03*
X021750Y013697D03*
D19*
X021750Y014327D03*
X021750Y014838D03*
X021750Y015311D03*
D20*
X022498Y015980D03*
X030687Y015941D03*
X022459Y005901D03*
X030687Y004957D03*
D21*
X022931Y015075D03*
D22*
X022931Y006768D03*
D23*
X012597Y004966D03*
X010237Y004966D03*
X011417Y002996D03*
D24*
X021514Y004209D03*
D25*
X019546Y004209D03*
X019034Y004209D03*
X018955Y004996D03*
X019546Y004996D03*
X019546Y002831D03*
X020333Y002831D03*
X021790Y002791D03*
X022892Y002831D03*
X024073Y002240D03*
X024073Y001453D03*
X023404Y003579D03*
X024664Y004012D03*
X024860Y004602D03*
X023483Y005980D03*
X025057Y007752D03*
X025845Y007752D03*
X026632Y008146D03*
X026829Y007555D03*
X026829Y006964D03*
X027420Y005783D03*
X027420Y004996D03*
X029388Y005193D03*
X029782Y005586D03*
X029979Y006177D03*
X029979Y007004D03*
X029270Y007949D03*
X030727Y008933D03*
X031238Y008933D03*
X031750Y008933D03*
X030727Y010311D03*
X030766Y010901D03*
X030569Y012083D03*
X030175Y012476D03*
X031042Y013421D03*
X031711Y014287D03*
X030766Y014445D03*
X030766Y015035D03*
X031357Y015035D03*
X028404Y013460D03*
X027813Y012870D03*
X026829Y013264D03*
X026435Y012476D03*
X027420Y011492D03*
X027813Y011098D03*
X028207Y011492D03*
X027380Y010744D03*
X026042Y010665D03*
X025845Y011295D03*
X024073Y010705D03*
X022183Y011177D03*
X020530Y011492D03*
X020215Y010980D03*
X019742Y011531D03*
X018089Y010705D03*
X017380Y011649D03*
X016002Y011689D03*
X016002Y010508D03*
X013837Y011216D03*
X011868Y011295D03*
X011278Y010705D03*
X015805Y013657D03*
X014624Y014051D03*
X011278Y015823D03*
X017774Y018382D03*
X018364Y016413D03*
X020136Y015035D03*
X021514Y016216D03*
X023679Y014838D03*
X023876Y015626D03*
X023876Y016216D03*
X020057Y013854D03*
X018168Y013264D03*
X019979Y010075D03*
X020530Y009209D03*
X018758Y008146D03*
X017971Y008736D03*
X017971Y009327D03*
X016199Y008146D03*
X018168Y007358D03*
X018758Y007358D03*
X023679Y008146D03*
X027813Y009642D03*
X028797Y009720D03*
X029388Y009523D03*
X029191Y010311D03*
X029388Y011098D03*
X024270Y012476D03*
X023286Y012476D03*
X024270Y013460D03*
X013640Y007161D03*
X017774Y002831D03*
X016002Y002634D03*
X016396Y001433D03*
X013246Y001846D03*
X029388Y003421D03*
X030372Y002634D03*
X031553Y002634D03*
M02*
