G75*
G70*
%OFA0B0*%
%FSLAX24Y24*%
%IPPOS*%
%LPD*%
%AMOC8*
5,1,8,0,0,1.08239X$1,22.5*
%
%ADD10C,0.0080*%
%ADD11C,0.0550*%
%ADD12R,0.0550X0.0550*%
%ADD13C,0.0930*%
%ADD14C,0.0600*%
%ADD15C,0.0594*%
%ADD16OC8,0.0600*%
%ADD17R,0.1575X0.0472*%
%ADD18R,0.1575X0.0276*%
%ADD19R,0.1102X0.0787*%
%ADD20OC8,0.1900*%
%ADD21R,0.0318X0.0318*%
%ADD22OC8,0.0396*%
%ADD23C,0.0100*%
D10*
X020330Y018331D02*
X020330Y018491D01*
X020384Y018544D01*
X020491Y018544D01*
X020544Y018491D01*
X020683Y018544D02*
X020789Y018544D01*
X020736Y018598D02*
X020736Y018384D01*
X020683Y018331D01*
X020544Y018331D02*
X020544Y018651D01*
X020982Y018651D02*
X020982Y018705D01*
X020982Y018544D02*
X020982Y018331D01*
X021035Y018331D02*
X020928Y018331D01*
X020982Y018544D02*
X021035Y018544D01*
X021190Y018491D02*
X021190Y018331D01*
X021297Y018331D02*
X021297Y018491D01*
X021243Y018544D01*
X021190Y018491D01*
X021297Y018491D02*
X021350Y018544D01*
X021403Y018544D01*
X021403Y018331D01*
X021558Y018384D02*
X021611Y018331D01*
X021718Y018331D01*
X021772Y018384D01*
X021718Y018491D02*
X021611Y018491D01*
X021558Y018438D01*
X021558Y018384D01*
X021718Y018491D02*
X021772Y018544D01*
X021772Y018598D01*
X021718Y018651D01*
X021611Y018651D01*
X021558Y018598D01*
X022295Y018491D02*
X022295Y018331D01*
X022295Y018491D02*
X022348Y018544D01*
X022508Y018544D01*
X022508Y018331D01*
X022647Y018331D02*
X022754Y018331D01*
X022700Y018331D02*
X022700Y018544D01*
X022754Y018544D01*
X022700Y018651D02*
X022700Y018705D01*
X022900Y018544D02*
X022954Y018544D01*
X023061Y018438D01*
X023061Y018544D02*
X023061Y018331D01*
X023215Y018438D02*
X023429Y018438D01*
X023429Y018491D02*
X023376Y018544D01*
X023269Y018544D01*
X023215Y018491D01*
X023215Y018438D01*
X023269Y018331D02*
X023376Y018331D01*
X023429Y018384D01*
X023429Y018491D01*
X023584Y018544D02*
X023690Y018331D01*
X023797Y018544D01*
X023952Y018491D02*
X023952Y018438D01*
X024166Y018438D01*
X024166Y018491D02*
X024112Y018544D01*
X024005Y018544D01*
X023952Y018491D01*
X024005Y018331D02*
X024112Y018331D01*
X024166Y018384D01*
X024166Y018491D01*
X024320Y018438D02*
X024320Y018384D01*
X024374Y018331D01*
X024480Y018331D01*
X024534Y018384D01*
X024480Y018491D02*
X024534Y018544D01*
X024534Y018598D01*
X024480Y018651D01*
X024374Y018651D01*
X024320Y018598D01*
X024374Y018491D02*
X024320Y018438D01*
X024374Y018491D02*
X024480Y018491D01*
X024506Y019164D02*
X024506Y019378D01*
X024399Y019484D01*
X024293Y019378D01*
X024293Y019164D01*
X024138Y019164D02*
X024138Y019378D01*
X023978Y019378D01*
X023924Y019324D01*
X023924Y019164D01*
X023770Y019217D02*
X023716Y019271D01*
X023556Y019271D01*
X023556Y019324D02*
X023556Y019164D01*
X023716Y019164D01*
X023770Y019217D01*
X023716Y019378D02*
X023609Y019378D01*
X023556Y019324D01*
X023401Y019378D02*
X023294Y019378D01*
X023348Y019431D02*
X023348Y019217D01*
X023294Y019164D01*
X023156Y019164D02*
X023049Y019164D01*
X023102Y019164D02*
X023102Y019378D01*
X023156Y019378D01*
X023102Y019484D02*
X023102Y019538D01*
X022910Y019324D02*
X022857Y019378D01*
X022697Y019378D01*
X022697Y019484D02*
X022697Y019164D01*
X022857Y019164D01*
X022910Y019217D01*
X022910Y019324D01*
X022542Y019217D02*
X022489Y019271D01*
X022328Y019271D01*
X022328Y019324D02*
X022328Y019164D01*
X022489Y019164D01*
X022542Y019217D01*
X022489Y019378D02*
X022382Y019378D01*
X022328Y019324D01*
X022174Y019324D02*
X022120Y019378D01*
X022013Y019378D01*
X021960Y019324D01*
X021960Y019271D01*
X022174Y019271D01*
X022174Y019324D02*
X022174Y019217D01*
X022120Y019164D01*
X022013Y019164D01*
X021437Y019378D02*
X021330Y019164D01*
X021223Y019378D01*
X021069Y019431D02*
X021069Y019217D01*
X020855Y019431D01*
X020855Y019217D01*
X020909Y019164D01*
X021015Y019164D01*
X021069Y019217D01*
X021069Y019431D02*
X021015Y019484D01*
X020909Y019484D01*
X020855Y019431D01*
X020700Y019431D02*
X020647Y019484D01*
X020540Y019484D01*
X020487Y019431D01*
X020487Y019378D01*
X020700Y019164D01*
X020487Y019164D01*
X024293Y019324D02*
X024506Y019324D01*
D11*
X014070Y012516D03*
X015070Y012016D03*
X014070Y011516D03*
X013070Y012016D03*
X013070Y010016D03*
X014070Y009516D03*
X013070Y009016D03*
X014070Y008516D03*
D12*
X013070Y008016D03*
D13*
X011770Y007616D03*
X011770Y012916D03*
D14*
X015970Y012416D03*
X015970Y011416D03*
X015970Y009116D03*
X015970Y008116D03*
D15*
X013327Y014695D02*
X012734Y014695D01*
X010768Y014695D02*
X010174Y014695D01*
X010174Y016467D02*
X010768Y016467D01*
X012734Y016467D02*
X013327Y016467D01*
D16*
X013129Y018230D03*
X014129Y018230D03*
X014129Y019230D03*
X013129Y019230D03*
X012129Y019230D03*
X012129Y018230D03*
X026286Y018230D03*
X027286Y018230D03*
X028286Y018230D03*
X029286Y018230D03*
X030286Y018230D03*
X031830Y017352D03*
X030286Y019230D03*
X029286Y019230D03*
X028286Y019230D03*
X027286Y019230D03*
X026286Y019230D03*
X026286Y002301D03*
X027286Y002301D03*
X028286Y002301D03*
X029286Y002301D03*
X030286Y002301D03*
X030286Y001301D03*
X029286Y001301D03*
X028286Y001301D03*
X027286Y001301D03*
X026286Y001301D03*
D17*
X022617Y006565D03*
X022617Y007549D03*
X022617Y008534D03*
X022617Y009518D03*
X022617Y010502D03*
X022617Y011486D03*
X022617Y012471D03*
X022617Y013455D03*
D18*
X022617Y014085D03*
X022617Y014597D03*
X022617Y015069D03*
D19*
X023365Y015738D03*
X031554Y015699D03*
X023326Y005660D03*
X031554Y004715D03*
D20*
X013463Y004724D03*
X011103Y004724D03*
X012283Y002754D03*
D21*
X022381Y003967D03*
D22*
X020412Y003967D03*
X019900Y003967D03*
X019822Y004754D03*
X020412Y004754D03*
X020412Y002589D03*
X021200Y002589D03*
X022656Y002549D03*
X023759Y002589D03*
X024271Y003337D03*
X025530Y003770D03*
X025727Y004360D03*
X024349Y005738D03*
X025924Y007510D03*
X026711Y007510D03*
X027499Y007904D03*
X027696Y007313D03*
X027696Y006723D03*
X028286Y005541D03*
X028286Y004754D03*
X030255Y004951D03*
X030649Y005345D03*
X030845Y005935D03*
X030845Y006762D03*
X030137Y007707D03*
X031593Y008691D03*
X032105Y008691D03*
X032617Y008691D03*
X031593Y010069D03*
X031633Y010660D03*
X030255Y010856D03*
X030058Y010069D03*
X029664Y009478D03*
X030255Y009282D03*
X028680Y009400D03*
X028247Y010502D03*
X028680Y010856D03*
X028286Y011250D03*
X029074Y011250D03*
X027302Y012234D03*
X027696Y013022D03*
X028680Y012628D03*
X029271Y013219D03*
X031042Y012234D03*
X031436Y011841D03*
X031908Y013179D03*
X031633Y014203D03*
X031633Y014793D03*
X032223Y014793D03*
X032578Y014045D03*
X026711Y011053D03*
X026908Y010423D03*
X024940Y010463D03*
X023050Y010935D03*
X021397Y011250D03*
X020609Y011289D03*
X021082Y010738D03*
X020845Y009833D03*
X021397Y008967D03*
X019625Y007904D03*
X019625Y007116D03*
X019034Y007116D03*
X018837Y008494D03*
X018837Y009085D03*
X017066Y007904D03*
X014507Y006919D03*
X016869Y010266D03*
X016869Y011447D03*
X018247Y011408D03*
X018956Y010463D03*
X019034Y013022D03*
X020924Y013612D03*
X021003Y014793D03*
X022381Y015974D03*
X024743Y015974D03*
X024743Y015384D03*
X024546Y014597D03*
X025137Y013219D03*
X025137Y012234D03*
X024152Y012234D03*
X019231Y016171D03*
X018641Y018140D03*
X012145Y015581D03*
X015491Y013809D03*
X016672Y013415D03*
X014704Y010974D03*
X012735Y011053D03*
X012145Y010463D03*
X024546Y007904D03*
X030255Y003179D03*
X031239Y002392D03*
X032420Y002392D03*
X024940Y001998D03*
X024940Y001211D03*
X018641Y002589D03*
X016869Y002392D03*
X017263Y001191D03*
X014113Y001604D03*
D23*
X009706Y000670D02*
X009439Y000670D01*
X009439Y000957D01*
X009452Y000924D01*
X009706Y000670D01*
X009657Y000719D02*
X009439Y000719D01*
X009439Y000817D02*
X009559Y000817D01*
X009460Y000916D02*
X009439Y000916D01*
X009704Y001093D02*
X009979Y000817D01*
X010097Y000699D01*
X011830Y000699D01*
X012026Y000699D01*
X013326Y001998D01*
X014507Y001998D01*
X015491Y001998D01*
X017066Y001998D01*
X018247Y003179D01*
X019034Y003179D01*
X019231Y002982D01*
X019428Y002982D01*
X019625Y003179D01*
X019822Y003376D01*
X020806Y003376D01*
X021200Y003770D01*
X021397Y003967D01*
X021397Y004557D01*
X019625Y006329D01*
X019231Y006723D01*
X019034Y006723D01*
X018837Y006723D01*
X018641Y006919D01*
X018641Y007116D01*
X018641Y007510D01*
X019034Y007904D01*
X019625Y007904D01*
X020070Y007913D02*
X020574Y007913D01*
X020486Y008000D02*
X020353Y008000D01*
X020070Y008000D01*
X020070Y007719D01*
X020051Y007700D01*
X020073Y007678D01*
X020270Y007481D01*
X020315Y007372D01*
X020315Y007254D01*
X020315Y006845D01*
X020467Y006694D01*
X020861Y006300D01*
X021100Y006061D01*
X021100Y007387D01*
X021032Y007455D01*
X021031Y007455D01*
X020486Y008000D01*
X020673Y007814D02*
X020070Y007814D01*
X020066Y007716D02*
X020771Y007716D01*
X020870Y007617D02*
X020134Y007617D01*
X020233Y007518D02*
X020968Y007518D01*
X021067Y007420D02*
X020296Y007420D01*
X020315Y007321D02*
X021100Y007321D01*
X021100Y007223D02*
X020315Y007223D01*
X020315Y007124D02*
X021100Y007124D01*
X021100Y007026D02*
X020315Y007026D01*
X020315Y006927D02*
X021100Y006927D01*
X021100Y006829D02*
X020332Y006829D01*
X020431Y006730D02*
X021100Y006730D01*
X021100Y006632D02*
X020529Y006632D01*
X020628Y006533D02*
X021100Y006533D01*
X021100Y006434D02*
X020726Y006434D01*
X020825Y006336D02*
X021100Y006336D01*
X021100Y006237D02*
X020924Y006237D01*
X021022Y006139D02*
X021100Y006139D01*
X020609Y006132D02*
X020215Y006526D01*
X020019Y006723D01*
X020019Y007313D01*
X019822Y007510D01*
X019428Y007510D01*
X019034Y007116D01*
X019625Y007116D02*
X019625Y006723D01*
X020019Y006329D01*
X021593Y004754D01*
X021593Y003770D01*
X021397Y003573D01*
X021003Y003179D01*
X020019Y003179D01*
X019822Y002982D01*
X019625Y002786D01*
X019034Y002786D01*
X018837Y002982D01*
X018444Y002982D01*
X017263Y001801D01*
X015688Y001801D01*
X014310Y001801D01*
X014113Y001604D01*
X013778Y001310D02*
X013058Y001310D01*
X013156Y001409D02*
X013679Y001409D01*
X013668Y001420D02*
X013929Y001159D01*
X014297Y001159D01*
X014558Y001420D01*
X014558Y001504D01*
X015747Y001504D01*
X016947Y001504D01*
X016818Y001375D01*
X016818Y001007D01*
X017078Y000746D01*
X017447Y000746D01*
X017595Y000894D01*
X024627Y000894D01*
X024756Y000766D01*
X025124Y000766D01*
X025340Y000981D01*
X025651Y000670D01*
X012417Y000670D01*
X013449Y001701D01*
X013668Y001701D01*
X013668Y001420D01*
X013668Y001507D02*
X013255Y001507D01*
X013353Y001606D02*
X013668Y001606D01*
X013877Y001212D02*
X012959Y001212D01*
X012860Y001113D02*
X016818Y001113D01*
X016818Y001015D02*
X012762Y001015D01*
X012663Y000916D02*
X016908Y000916D01*
X017007Y000817D02*
X012565Y000817D01*
X012466Y000719D02*
X025602Y000719D01*
X025504Y000817D02*
X025176Y000817D01*
X025274Y000916D02*
X025405Y000916D01*
X025530Y001211D02*
X026121Y000620D01*
X032420Y000620D01*
X032814Y001014D01*
X032814Y002786D01*
X032420Y003179D01*
X032420Y008376D01*
X032105Y008691D01*
X031593Y008691D02*
X031593Y008849D01*
X032617Y009872D01*
X032617Y013022D01*
X032617Y013415D01*
X032223Y013809D01*
X032223Y014400D01*
X032223Y014793D01*
X032549Y014490D02*
X032668Y014609D01*
X032668Y014978D01*
X032408Y015238D01*
X032250Y015238D01*
X032255Y015243D01*
X032255Y015649D01*
X031604Y015649D01*
X031604Y015749D01*
X031504Y015749D01*
X031504Y016243D01*
X031139Y016243D01*
X031703Y016806D01*
X032056Y016806D01*
X032376Y017126D01*
X032376Y017579D01*
X032056Y017899D01*
X031603Y017899D01*
X031302Y017598D01*
X031339Y017687D01*
X031339Y018181D01*
X031655Y018050D01*
X032004Y018050D01*
X032326Y018184D01*
X032573Y018431D01*
X032706Y018753D01*
X032706Y019102D01*
X032573Y019424D01*
X032326Y019671D01*
X032004Y019804D01*
X031655Y019804D01*
X031333Y019671D01*
X031223Y019560D01*
X031210Y019573D01*
X030921Y019861D01*
X032961Y019861D01*
X032961Y014291D01*
X032762Y014490D01*
X032549Y014490D01*
X032574Y014515D02*
X032961Y014515D01*
X032961Y014614D02*
X032668Y014614D01*
X032668Y014712D02*
X032961Y014712D01*
X032961Y014811D02*
X032668Y014811D01*
X032668Y014909D02*
X032961Y014909D01*
X032961Y015008D02*
X032638Y015008D01*
X032540Y015106D02*
X032961Y015106D01*
X032961Y015205D02*
X032441Y015205D01*
X032255Y015303D02*
X032961Y015303D01*
X032961Y015402D02*
X032255Y015402D01*
X032255Y015500D02*
X032961Y015500D01*
X032961Y015599D02*
X032255Y015599D01*
X032255Y015749D02*
X032255Y016155D01*
X032167Y016243D01*
X031604Y016243D01*
X031604Y015749D01*
X032255Y015749D01*
X032255Y015796D02*
X032961Y015796D01*
X032961Y015698D02*
X031604Y015698D01*
X031604Y015649D02*
X031504Y015649D01*
X030853Y015649D01*
X030853Y015243D01*
X030941Y015155D01*
X031504Y015155D01*
X031504Y015649D01*
X031504Y015749D01*
X030853Y015749D01*
X030853Y015956D01*
X029567Y014670D01*
X029567Y013551D01*
X029715Y013403D01*
X029715Y013122D01*
X029723Y013122D01*
X030983Y013122D01*
X031337Y013122D01*
X031431Y013122D01*
X031463Y013154D01*
X031463Y013364D01*
X031724Y013624D01*
X031730Y013624D01*
X031730Y013671D01*
X031730Y013686D01*
X031658Y013758D01*
X031448Y013758D01*
X031188Y014019D01*
X031188Y014387D01*
X031448Y014648D01*
X031778Y014648D01*
X031778Y014978D01*
X031956Y015155D01*
X031604Y015155D01*
X031604Y015649D01*
X031633Y015620D02*
X031633Y014793D01*
X031778Y014811D02*
X029708Y014811D01*
X029806Y014909D02*
X031778Y014909D01*
X031808Y015008D02*
X029905Y015008D01*
X030003Y015106D02*
X031907Y015106D01*
X031604Y015205D02*
X031504Y015205D01*
X031504Y015303D02*
X031604Y015303D01*
X031604Y015402D02*
X031504Y015402D01*
X031504Y015500D02*
X031604Y015500D01*
X031604Y015599D02*
X031504Y015599D01*
X031504Y015698D02*
X030594Y015698D01*
X030693Y015796D02*
X030853Y015796D01*
X030853Y015895D02*
X030792Y015895D01*
X030248Y016190D02*
X029906Y016190D01*
X029808Y016092D02*
X030149Y016092D01*
X030051Y015993D02*
X029709Y015993D01*
X029610Y015895D02*
X029952Y015895D01*
X029853Y015796D02*
X029512Y015796D01*
X029413Y015698D02*
X029755Y015698D01*
X029656Y015599D02*
X029315Y015599D01*
X029216Y015500D02*
X029558Y015500D01*
X029459Y015402D02*
X029118Y015402D01*
X029019Y015303D02*
X029361Y015303D01*
X029262Y015205D02*
X028921Y015205D01*
X028822Y015106D02*
X029164Y015106D01*
X029065Y015008D02*
X028780Y015008D01*
X028780Y015064D02*
X031210Y017494D01*
X031210Y017494D01*
X031283Y017567D01*
X031283Y017225D01*
X029019Y014962D01*
X028974Y014852D01*
X028974Y014734D01*
X028974Y013551D01*
X028826Y013403D01*
X028826Y013073D01*
X028780Y013073D01*
X028780Y015064D01*
X028780Y014909D02*
X028997Y014909D01*
X028974Y014811D02*
X028780Y014811D01*
X028780Y014712D02*
X028974Y014712D01*
X028974Y014614D02*
X028780Y014614D01*
X028780Y014515D02*
X028974Y014515D01*
X028974Y014416D02*
X028780Y014416D01*
X028780Y014318D02*
X028974Y014318D01*
X028974Y014219D02*
X028780Y014219D01*
X028780Y014121D02*
X028974Y014121D01*
X028974Y014022D02*
X028780Y014022D01*
X028780Y013924D02*
X028974Y013924D01*
X028974Y013825D02*
X028780Y013825D01*
X028780Y013727D02*
X028974Y013727D01*
X028974Y013628D02*
X028780Y013628D01*
X028780Y013530D02*
X028952Y013530D01*
X028854Y013431D02*
X028780Y013431D01*
X028780Y013332D02*
X028826Y013332D01*
X028826Y013234D02*
X028780Y013234D01*
X028780Y013135D02*
X028826Y013135D01*
X028483Y012825D02*
X028680Y012628D01*
X028483Y012825D02*
X028483Y015187D01*
X031042Y017746D01*
X031042Y019321D01*
X030649Y019715D01*
X027971Y019715D01*
X027774Y019518D01*
X027774Y018719D01*
X027286Y018230D01*
X027786Y017957D02*
X027989Y017754D01*
X027989Y017475D01*
X027134Y016620D01*
X027050Y016536D01*
X027005Y016427D01*
X027005Y016238D01*
X026963Y016339D01*
X026880Y016423D01*
X025305Y017998D01*
X025196Y018043D01*
X025078Y018043D01*
X024970Y018043D01*
X024990Y018091D01*
X024990Y019764D01*
X024952Y019854D01*
X024945Y019861D01*
X027698Y019861D01*
X027563Y019727D01*
X027513Y019777D01*
X027060Y019777D01*
X026786Y019504D01*
X026513Y019777D01*
X026060Y019777D01*
X025739Y019457D01*
X025739Y019004D01*
X026060Y018684D01*
X026513Y018684D01*
X026786Y018957D01*
X027013Y018730D01*
X026739Y018457D01*
X026739Y018004D01*
X027060Y017684D01*
X027513Y017684D01*
X027786Y017957D01*
X027695Y017865D02*
X027878Y017865D01*
X027976Y017767D02*
X027596Y017767D01*
X027989Y017668D02*
X025634Y017668D01*
X025733Y017570D02*
X027989Y017570D01*
X027985Y017471D02*
X025831Y017471D01*
X025930Y017373D02*
X027887Y017373D01*
X027788Y017274D02*
X026028Y017274D01*
X026127Y017176D02*
X027690Y017176D01*
X027591Y017077D02*
X026225Y017077D01*
X026324Y016979D02*
X027493Y016979D01*
X027394Y016880D02*
X026423Y016880D01*
X026521Y016781D02*
X027296Y016781D01*
X027197Y016683D02*
X026620Y016683D01*
X026718Y016584D02*
X027098Y016584D01*
X027029Y016486D02*
X026817Y016486D01*
X026915Y016387D02*
X027005Y016387D01*
X027005Y016289D02*
X026984Y016289D01*
X026711Y016171D02*
X026711Y011053D01*
X026515Y010856D01*
X026515Y010069D01*
X026711Y009872D01*
X026987Y009872D01*
X027223Y010108D01*
X027617Y010502D01*
X028247Y010502D01*
X028089Y010856D02*
X028680Y010856D01*
X028877Y011250D02*
X028286Y011841D01*
X028286Y015384D01*
X030806Y017904D01*
X030806Y018711D01*
X030286Y019230D01*
X029782Y018734D02*
X029782Y017667D01*
X027893Y015778D01*
X027893Y013219D01*
X027696Y013022D01*
X027302Y012825D02*
X027302Y013219D01*
X027696Y013612D01*
X027696Y015974D01*
X029286Y017565D01*
X029286Y018230D01*
X028798Y018140D02*
X028798Y018022D01*
X028798Y018140D02*
X028798Y017471D01*
X027499Y016171D01*
X027499Y013809D01*
X027105Y013415D01*
X027105Y012628D01*
X027105Y012431D01*
X027302Y012234D01*
X026908Y012037D02*
X027302Y011644D01*
X027302Y010817D01*
X026908Y010423D01*
X027599Y010799D02*
X027599Y010876D01*
X027599Y010987D01*
X027641Y010885D01*
X027727Y010799D01*
X027599Y010799D01*
X027599Y010869D02*
X027657Y010869D01*
X027607Y010967D02*
X027599Y010967D01*
X027893Y011053D02*
X028089Y010856D01*
X027893Y011053D02*
X027893Y012234D01*
X027302Y012825D01*
X026908Y013612D02*
X026908Y012037D01*
X027531Y011834D02*
X027596Y011899D01*
X027596Y011710D01*
X027554Y011812D01*
X027531Y011834D01*
X027551Y011854D02*
X027596Y011854D01*
X027596Y011756D02*
X027577Y011756D01*
X028089Y011447D02*
X028286Y011250D01*
X028089Y011447D02*
X028089Y015581D01*
X030286Y017778D01*
X030286Y018230D01*
X029782Y018734D02*
X029286Y019230D01*
X028798Y018719D02*
X028798Y018140D01*
X028286Y018230D02*
X028286Y017352D01*
X027302Y016368D01*
X027302Y014006D01*
X026908Y013612D01*
X025727Y012628D02*
X025727Y015384D01*
X025727Y015187D01*
X025334Y014793D01*
X024448Y013908D01*
X023995Y013455D01*
X022617Y013455D01*
X022381Y013415D01*
X021583Y013431D02*
X021369Y013431D01*
X021369Y013428D02*
X021369Y013797D01*
X021259Y013906D01*
X021368Y013951D01*
X021565Y014148D01*
X021583Y014166D01*
X021583Y013898D01*
X021615Y013819D01*
X021583Y013740D01*
X021583Y013319D01*
X021323Y013319D01*
X021291Y013350D01*
X021369Y013428D01*
X021369Y013530D02*
X021583Y013530D01*
X021583Y013628D02*
X021369Y013628D01*
X021369Y013727D02*
X021583Y013727D01*
X021613Y013825D02*
X021340Y013825D01*
X021302Y013924D02*
X021583Y013924D01*
X021583Y014022D02*
X021439Y014022D01*
X021537Y014121D02*
X021583Y014121D01*
X021397Y014400D02*
X021397Y014990D01*
X021397Y015581D01*
X021790Y015974D01*
X022381Y015974D01*
X022048Y015678D02*
X022196Y015530D01*
X022565Y015530D01*
X022567Y015531D01*
X022567Y015454D01*
X021780Y015454D01*
X021693Y015417D01*
X021693Y015458D01*
X021913Y015678D01*
X022048Y015678D01*
X022127Y015599D02*
X021835Y015599D01*
X021736Y015500D02*
X022567Y015500D01*
X021724Y016268D02*
X021711Y016263D01*
X021716Y016268D01*
X021724Y016268D01*
X021593Y016565D02*
X023956Y016565D01*
X024152Y016368D01*
X024152Y015384D01*
X024152Y015187D01*
X024349Y014990D01*
X024546Y014793D01*
X024546Y014597D01*
X024833Y014939D02*
X024946Y014826D01*
X025165Y015045D01*
X025165Y015045D01*
X025430Y015310D01*
X025430Y015443D01*
X025430Y015652D01*
X025188Y015409D01*
X025188Y015200D01*
X024927Y014939D01*
X024833Y014939D01*
X024863Y014909D02*
X025030Y014909D01*
X024996Y015008D02*
X025128Y015008D01*
X025095Y015106D02*
X025227Y015106D01*
X025188Y015205D02*
X025325Y015205D01*
X025424Y015303D02*
X025188Y015303D01*
X025188Y015402D02*
X025430Y015402D01*
X025430Y015500D02*
X025279Y015500D01*
X025378Y015599D02*
X025430Y015599D01*
X025727Y015384D02*
X025727Y015974D01*
X025334Y016368D01*
X024546Y017156D01*
X016204Y017156D01*
X014129Y019230D01*
X014676Y019126D02*
X014676Y019103D01*
X016327Y017452D01*
X016349Y017452D01*
X014676Y019126D01*
X014731Y019048D02*
X014754Y019048D01*
X014830Y018949D02*
X014852Y018949D01*
X014928Y018851D02*
X014951Y018851D01*
X015027Y018752D02*
X015049Y018752D01*
X015125Y018654D02*
X015148Y018654D01*
X015224Y018555D02*
X015246Y018555D01*
X015322Y018457D02*
X015345Y018457D01*
X015421Y018358D02*
X015443Y018358D01*
X015519Y018260D02*
X015542Y018260D01*
X015618Y018161D02*
X015641Y018161D01*
X015716Y018063D02*
X015739Y018063D01*
X015815Y017964D02*
X015838Y017964D01*
X015914Y017865D02*
X015936Y017865D01*
X016012Y017767D02*
X016035Y017767D01*
X016111Y017668D02*
X016133Y017668D01*
X016209Y017570D02*
X016232Y017570D01*
X016308Y017471D02*
X016330Y017471D01*
X015862Y017077D02*
X015702Y017077D01*
X015720Y017059D02*
X015881Y017059D01*
X014676Y018264D01*
X014676Y018103D01*
X015720Y017059D01*
X015764Y017176D02*
X015603Y017176D01*
X015665Y017274D02*
X015505Y017274D01*
X015567Y017373D02*
X015406Y017373D01*
X015468Y017471D02*
X015308Y017471D01*
X015370Y017570D02*
X015209Y017570D01*
X015271Y017668D02*
X015111Y017668D01*
X015172Y017767D02*
X015012Y017767D01*
X015074Y017865D02*
X014914Y017865D01*
X014975Y017964D02*
X014815Y017964D01*
X014877Y018063D02*
X014716Y018063D01*
X014676Y018161D02*
X014778Y018161D01*
X014680Y018260D02*
X014676Y018260D01*
X014129Y018230D02*
X015597Y016762D01*
X017853Y016762D01*
X018444Y016171D01*
X019231Y016171D01*
X019676Y016190D02*
X020011Y016190D01*
X019913Y016092D02*
X019676Y016092D01*
X019676Y015993D02*
X019814Y015993D01*
X019676Y015987D02*
X019676Y016356D01*
X019415Y016616D01*
X019047Y016616D01*
X018899Y016468D01*
X018567Y016468D01*
X018176Y016859D01*
X020680Y016859D01*
X019699Y015878D01*
X019567Y015878D01*
X019676Y015987D01*
X019716Y015895D02*
X019584Y015895D01*
X019822Y015581D02*
X021200Y016959D01*
X024349Y016959D01*
X025334Y015974D01*
X024743Y015384D01*
X024743Y015974D02*
X024743Y016171D01*
X024152Y016762D01*
X021397Y016762D01*
X021200Y016565D01*
X019625Y014990D01*
X019625Y013022D01*
X019428Y012825D01*
X018837Y012234D01*
X017066Y012234D01*
X016475Y011644D01*
X016475Y011250D01*
X016278Y011053D01*
X016278Y010266D01*
X016869Y009675D01*
X016869Y008888D01*
X016869Y008100D01*
X017066Y007904D01*
X017408Y007617D02*
X018364Y007617D01*
X018344Y007569D02*
X018344Y007451D01*
X018344Y007057D01*
X018344Y006860D01*
X018389Y006751D01*
X018472Y006668D01*
X018669Y006471D01*
X018778Y006426D01*
X018897Y006426D01*
X018975Y006426D01*
X019108Y006426D01*
X019457Y006077D01*
X020098Y005436D01*
X020078Y005445D01*
X019959Y005445D01*
X018960Y005445D01*
X018809Y005596D01*
X016969Y007436D01*
X016969Y007459D01*
X017250Y007459D01*
X017511Y007719D01*
X017511Y008088D01*
X017250Y008349D01*
X017166Y008349D01*
X017166Y008947D01*
X017166Y009616D01*
X017166Y009734D01*
X017121Y009843D01*
X017098Y009866D01*
X017201Y009969D01*
X018711Y009969D01*
X018276Y009533D01*
X018276Y009533D01*
X018192Y009450D01*
X018147Y009341D01*
X018147Y008356D01*
X018147Y008238D01*
X018192Y008129D01*
X018389Y007932D01*
X018472Y007849D01*
X018534Y007823D01*
X018389Y007678D01*
X018344Y007569D01*
X018344Y007518D02*
X017310Y007518D01*
X017507Y007716D02*
X018426Y007716D01*
X018525Y007814D02*
X017511Y007814D01*
X017511Y007913D02*
X018409Y007913D01*
X018310Y008011D02*
X017511Y008011D01*
X017489Y008110D02*
X018212Y008110D01*
X018159Y008208D02*
X017390Y008208D01*
X017292Y008307D02*
X018147Y008307D01*
X018147Y008405D02*
X017166Y008405D01*
X017166Y008504D02*
X018147Y008504D01*
X018147Y008602D02*
X017166Y008602D01*
X017166Y008701D02*
X018147Y008701D01*
X018147Y008799D02*
X017166Y008799D01*
X017166Y008898D02*
X018147Y008898D01*
X018147Y008997D02*
X017166Y008997D01*
X017166Y009095D02*
X018147Y009095D01*
X018147Y009194D02*
X017166Y009194D01*
X017166Y009292D02*
X018147Y009292D01*
X018168Y009391D02*
X017166Y009391D01*
X017166Y009489D02*
X018232Y009489D01*
X018330Y009588D02*
X017166Y009588D01*
X017166Y009686D02*
X018429Y009686D01*
X018527Y009785D02*
X017145Y009785D01*
X017116Y009883D02*
X018626Y009883D01*
X018759Y010266D02*
X018956Y010463D01*
X018759Y010266D02*
X016869Y010266D01*
X017201Y010563D02*
X017053Y010711D01*
X016685Y010711D01*
X016575Y010601D01*
X016575Y010930D01*
X016643Y010998D01*
X016666Y011021D01*
X016685Y011002D01*
X016894Y011002D01*
X017011Y010885D01*
X017094Y010802D01*
X017204Y010756D01*
X018188Y010756D01*
X018620Y010756D01*
X018511Y010647D01*
X018511Y010563D01*
X017201Y010563D01*
X017191Y010573D02*
X018511Y010573D01*
X018536Y010672D02*
X017092Y010672D01*
X017170Y010770D02*
X016575Y010770D01*
X016575Y010672D02*
X016646Y010672D01*
X016575Y010869D02*
X017027Y010869D01*
X016929Y010967D02*
X016612Y010967D01*
X016869Y011447D02*
X017263Y011053D01*
X018247Y011053D01*
X019034Y011053D01*
X019428Y010660D01*
X019586Y010502D01*
X019782Y010502D01*
X020845Y010502D01*
X021082Y010738D01*
X020637Y010799D02*
X019841Y010799D01*
X019708Y010799D01*
X019596Y010911D01*
X019202Y011305D01*
X019093Y011350D01*
X018975Y011350D01*
X018767Y011350D01*
X019990Y012573D01*
X020580Y013164D01*
X020635Y013219D01*
X020672Y013129D01*
X020756Y013046D01*
X020953Y012849D01*
X021031Y012770D01*
X021141Y012725D01*
X021259Y012725D01*
X021680Y012725D01*
X021680Y012520D01*
X022567Y012520D01*
X022567Y012421D01*
X021680Y012421D01*
X021680Y012172D01*
X021767Y012084D01*
X022567Y012084D01*
X022567Y012420D01*
X022667Y012420D01*
X022667Y012084D01*
X023467Y012084D01*
X023554Y012172D01*
X023554Y012421D01*
X022667Y012421D01*
X022667Y012520D01*
X023554Y012520D01*
X023554Y012725D01*
X024999Y012725D01*
X025108Y012770D01*
X025112Y012774D01*
X025321Y012774D01*
X025430Y012883D01*
X025430Y012687D01*
X025430Y012357D01*
X025211Y012137D01*
X024487Y012137D01*
X024378Y012092D01*
X024294Y012009D01*
X024098Y011812D01*
X024052Y011703D01*
X024052Y011585D01*
X024052Y009405D01*
X024029Y009382D01*
X023554Y009382D01*
X023554Y009468D01*
X022667Y009468D01*
X022667Y009568D01*
X022567Y009568D01*
X022567Y009904D01*
X021767Y009904D01*
X021680Y009816D01*
X021680Y009568D01*
X022567Y009568D01*
X022567Y009468D01*
X021680Y009468D01*
X021680Y009382D01*
X021611Y009382D01*
X021581Y009412D01*
X021212Y009412D01*
X020952Y009151D01*
X020952Y008782D01*
X021212Y008522D01*
X021581Y008522D01*
X021583Y008524D01*
X021583Y008248D01*
X021620Y008157D01*
X021690Y008088D01*
X021780Y008050D01*
X023454Y008050D01*
X023509Y008073D01*
X023464Y008028D01*
X023454Y008032D01*
X021780Y008032D01*
X021690Y007995D01*
X021620Y007925D01*
X021583Y007835D01*
X021583Y007743D01*
X021565Y007762D01*
X021451Y007875D01*
X020777Y008549D01*
X020668Y008594D01*
X020550Y008594D01*
X020353Y008594D01*
X019763Y008594D01*
X019172Y008594D01*
X019063Y008549D01*
X018980Y008465D01*
X018911Y008397D01*
X018778Y008397D01*
X018764Y008397D01*
X018741Y008420D01*
X018741Y008640D01*
X019022Y008640D01*
X019170Y008788D01*
X020038Y008788D01*
X020156Y008788D01*
X020265Y008833D01*
X020820Y009388D01*
X021030Y009388D01*
X021178Y009536D01*
X021219Y009536D01*
X021328Y009581D01*
X021770Y010023D01*
X021780Y010019D01*
X023454Y010019D01*
X023544Y010057D01*
X023614Y010126D01*
X023651Y010217D01*
X023651Y010787D01*
X023614Y010878D01*
X023544Y010948D01*
X023495Y010968D01*
X023495Y011020D01*
X023544Y011041D01*
X023614Y011110D01*
X023651Y011201D01*
X023651Y011772D01*
X023614Y011862D01*
X023544Y011932D01*
X023454Y011969D01*
X021780Y011969D01*
X021690Y011932D01*
X021620Y011862D01*
X021583Y011772D01*
X021583Y011266D01*
X021383Y011066D01*
X021383Y011066D01*
X021266Y011183D01*
X020897Y011183D01*
X020637Y010923D01*
X020637Y010799D01*
X020637Y010869D02*
X019638Y010869D01*
X019540Y010967D02*
X020681Y010967D01*
X020780Y011066D02*
X019441Y011066D01*
X019343Y011165D02*
X020879Y011165D01*
X020609Y011289D02*
X021239Y011919D01*
X021475Y012156D01*
X021475Y011329D01*
X021397Y011250D01*
X021482Y011165D02*
X021285Y011165D01*
X021580Y011263D02*
X019244Y011263D01*
X018975Y011559D02*
X021583Y011559D01*
X021583Y011657D02*
X019074Y011657D01*
X019172Y011756D02*
X021583Y011756D01*
X021617Y011854D02*
X019271Y011854D01*
X019369Y011953D02*
X021741Y011953D01*
X021702Y012150D02*
X019567Y012150D01*
X019665Y012249D02*
X021680Y012249D01*
X021680Y012347D02*
X019764Y012347D01*
X019862Y012446D02*
X022567Y012446D01*
X022617Y012471D02*
X021790Y012471D01*
X021475Y012156D01*
X021680Y012544D02*
X019961Y012544D01*
X020059Y012643D02*
X021680Y012643D01*
X021101Y012741D02*
X020158Y012741D01*
X020256Y012840D02*
X020962Y012840D01*
X020863Y012938D02*
X020355Y012938D01*
X020454Y013037D02*
X020765Y013037D01*
X020670Y013135D02*
X020552Y013135D01*
X020412Y013415D02*
X020412Y013612D01*
X020412Y013809D01*
X020806Y014203D01*
X021003Y014203D01*
X021200Y014203D01*
X021397Y014400D01*
X021003Y014793D02*
X021003Y015581D01*
X021003Y015974D01*
X021593Y016565D01*
X020603Y016781D02*
X018253Y016781D01*
X018352Y016683D02*
X020504Y016683D01*
X020406Y016584D02*
X019447Y016584D01*
X019546Y016486D02*
X020307Y016486D01*
X020209Y016387D02*
X019644Y016387D01*
X019676Y016289D02*
X020110Y016289D01*
X019015Y016584D02*
X018450Y016584D01*
X018549Y016486D02*
X018916Y016486D01*
X017907Y015895D02*
X012460Y015895D01*
X012477Y015878D02*
X012329Y016026D01*
X011960Y016026D01*
X011700Y015765D01*
X011700Y015396D01*
X011960Y015136D01*
X012329Y015136D01*
X012477Y015284D01*
X013400Y015284D01*
X013619Y015064D01*
X013619Y015035D01*
X013580Y015074D01*
X013416Y015142D01*
X013079Y015142D01*
X013079Y014744D01*
X012982Y014744D01*
X012982Y015142D01*
X012645Y015142D01*
X012480Y015074D01*
X012355Y014948D01*
X012287Y014784D01*
X012287Y014743D01*
X012982Y014743D01*
X012982Y014646D01*
X013079Y014646D01*
X013079Y014248D01*
X013416Y014248D01*
X013580Y014316D01*
X013636Y014371D01*
X013665Y014301D01*
X013748Y014218D01*
X014450Y013515D01*
X014448Y013515D01*
X013385Y013515D01*
X013267Y013515D01*
X013157Y013470D01*
X012482Y012794D01*
X012482Y013057D01*
X012373Y013319D01*
X012173Y013519D01*
X011911Y013628D01*
X011628Y013628D01*
X011367Y013519D01*
X011166Y013319D01*
X011124Y013216D01*
X011072Y013268D01*
X010746Y013403D01*
X010393Y013403D01*
X010067Y013268D01*
X010000Y013201D01*
X010000Y014283D01*
X010086Y014248D01*
X010423Y014248D01*
X010423Y014646D01*
X010520Y014646D01*
X010520Y014248D01*
X010857Y014248D01*
X011021Y014316D01*
X011147Y014442D01*
X011215Y014606D01*
X011215Y014646D01*
X010520Y014646D01*
X010520Y014743D01*
X011215Y014743D01*
X011215Y014784D01*
X011147Y014948D01*
X011021Y015074D01*
X010857Y015142D01*
X010520Y015142D01*
X010520Y014744D01*
X010423Y014744D01*
X010423Y015142D01*
X010086Y015142D01*
X010000Y015106D01*
X010000Y015950D01*
X010066Y015923D01*
X010876Y015923D01*
X011076Y016006D01*
X011229Y016159D01*
X011234Y016170D01*
X011495Y016170D01*
X011613Y016170D01*
X012268Y016170D01*
X012273Y016159D01*
X012426Y016006D01*
X012625Y015923D01*
X013435Y015923D01*
X013635Y016006D01*
X013788Y016159D01*
X013793Y016170D01*
X017632Y016170D01*
X018389Y015413D01*
X018472Y015329D01*
X018582Y015284D01*
X019499Y015284D01*
X019373Y015158D01*
X019328Y015049D01*
X019328Y014931D01*
X019328Y013357D01*
X019219Y013467D01*
X018850Y013467D01*
X018589Y013206D01*
X018589Y012997D01*
X018321Y012728D01*
X016810Y012728D01*
X016701Y012683D01*
X016617Y012599D01*
X016517Y012499D01*
X016517Y012525D01*
X016433Y012726D01*
X016279Y012879D01*
X016079Y012963D01*
X015861Y012963D01*
X015848Y012957D01*
X015441Y013364D01*
X015516Y013364D01*
X015717Y013164D01*
X015826Y013119D01*
X015944Y013119D01*
X016340Y013119D01*
X016488Y012970D01*
X016856Y012970D01*
X017117Y013231D01*
X017117Y013600D01*
X016856Y013860D01*
X016488Y013860D01*
X016340Y013712D01*
X016008Y013712D01*
X015936Y013784D01*
X015936Y013993D01*
X015675Y014254D01*
X015307Y014254D01*
X015046Y013993D01*
X015046Y013759D01*
X014213Y014592D01*
X014213Y015128D01*
X014213Y015246D01*
X014168Y015355D01*
X013691Y015832D01*
X013582Y015878D01*
X013463Y015878D01*
X012477Y015878D01*
X012456Y015993D02*
X012361Y015993D01*
X012340Y016092D02*
X011162Y016092D01*
X011046Y015993D02*
X011928Y015993D01*
X011829Y015895D02*
X010000Y015895D01*
X010000Y015796D02*
X011731Y015796D01*
X011700Y015698D02*
X010000Y015698D01*
X010000Y015599D02*
X011700Y015599D01*
X011700Y015500D02*
X010000Y015500D01*
X010000Y015402D02*
X011700Y015402D01*
X011793Y015303D02*
X010000Y015303D01*
X010000Y015205D02*
X011891Y015205D01*
X012398Y015205D02*
X013479Y015205D01*
X013502Y015106D02*
X013577Y015106D01*
X013916Y015187D02*
X013523Y015581D01*
X012145Y015581D01*
X012559Y015106D02*
X010943Y015106D01*
X011087Y015008D02*
X012414Y015008D01*
X012339Y014909D02*
X011163Y014909D01*
X011204Y014811D02*
X012298Y014811D01*
X012287Y014646D02*
X012287Y014606D01*
X012355Y014442D01*
X012480Y014316D01*
X012645Y014248D01*
X012982Y014248D01*
X012982Y014646D01*
X012287Y014646D01*
X012287Y014614D02*
X011215Y014614D01*
X011177Y014515D02*
X012324Y014515D01*
X012380Y014416D02*
X011122Y014416D01*
X011023Y014318D02*
X012479Y014318D01*
X012538Y014203D02*
X012538Y012825D01*
X011751Y012037D01*
X011751Y008691D01*
X012538Y007904D01*
X012538Y006919D01*
X014507Y006919D01*
X014964Y007420D02*
X012459Y007420D01*
X012482Y007474D02*
X012482Y007757D01*
X012373Y008019D01*
X012173Y008219D01*
X011911Y008328D01*
X011628Y008328D01*
X011434Y008247D01*
X011322Y008518D01*
X011072Y008768D01*
X010746Y008903D01*
X010393Y008903D01*
X010067Y008768D01*
X010000Y008701D01*
X010001Y008701D01*
X010000Y008701D02*
X010000Y011831D01*
X010067Y011764D01*
X010393Y011629D01*
X010746Y011629D01*
X011072Y011764D01*
X011322Y012013D01*
X011434Y012285D01*
X011628Y012204D01*
X011911Y012204D01*
X012173Y012312D01*
X012241Y012381D01*
X012241Y012372D01*
X012241Y011782D01*
X012287Y011672D01*
X012370Y011589D01*
X012506Y011453D01*
X012290Y011238D01*
X012290Y010908D01*
X011960Y010908D01*
X011700Y010647D01*
X011700Y010278D01*
X010000Y010278D01*
X010000Y010376D02*
X011700Y010376D01*
X011700Y010278D02*
X011848Y010130D01*
X011848Y009616D01*
X011848Y008882D01*
X011893Y008773D01*
X011976Y008689D01*
X012548Y008118D01*
X012548Y007692D01*
X012585Y007601D01*
X012655Y007532D01*
X012746Y007494D01*
X013394Y007494D01*
X013485Y007532D01*
X013554Y007601D01*
X013592Y007692D01*
X013592Y008307D01*
X013627Y008220D01*
X013774Y008073D01*
X013966Y007994D01*
X014174Y007994D01*
X014365Y008073D01*
X014512Y008220D01*
X014592Y008412D01*
X014592Y008618D01*
X014800Y008827D01*
X014800Y007766D01*
X014800Y007648D01*
X014846Y007539D01*
X018586Y003798D01*
X018908Y003476D01*
X018188Y003476D01*
X018079Y003431D01*
X017995Y003347D01*
X016943Y002295D01*
X015432Y002295D01*
X014448Y002295D01*
X013380Y002295D01*
X013383Y002298D01*
X013383Y002704D01*
X012334Y002704D01*
X012334Y002804D01*
X013383Y002804D01*
X013383Y003210D01*
X013066Y003527D01*
X013959Y003527D01*
X014660Y004228D01*
X014660Y005220D01*
X013959Y005921D01*
X012968Y005921D01*
X012267Y005220D01*
X012267Y004228D01*
X012641Y003854D01*
X012333Y003854D01*
X012333Y002804D01*
X012233Y002804D01*
X012233Y002704D01*
X011183Y002704D01*
X011183Y002298D01*
X011828Y001654D01*
X012233Y001654D01*
X012233Y002704D01*
X012333Y002704D01*
X012333Y001654D01*
X012562Y001654D01*
X011903Y000996D01*
X011771Y000996D01*
X011201Y000996D01*
X011313Y001108D01*
X011446Y001430D01*
X011446Y001779D01*
X011313Y002101D01*
X011066Y002348D01*
X010744Y002481D01*
X010395Y002481D01*
X010073Y002348D01*
X010000Y002275D01*
X010000Y007331D01*
X010067Y007264D01*
X010393Y007129D01*
X010746Y007129D01*
X011072Y007264D01*
X011124Y007316D01*
X011166Y007213D01*
X011367Y007012D01*
X011628Y006904D01*
X011911Y006904D01*
X012173Y007012D01*
X012373Y007213D01*
X012482Y007474D01*
X012482Y007518D02*
X012687Y007518D01*
X012579Y007617D02*
X012482Y007617D01*
X012482Y007716D02*
X012548Y007716D01*
X012548Y007814D02*
X012458Y007814D01*
X012417Y007913D02*
X012548Y007913D01*
X012548Y008011D02*
X012376Y008011D01*
X012283Y008110D02*
X012548Y008110D01*
X012458Y008208D02*
X012184Y008208D01*
X012359Y008307D02*
X011962Y008307D01*
X012162Y008504D02*
X011328Y008504D01*
X011368Y008405D02*
X012260Y008405D01*
X012063Y008602D02*
X011237Y008602D01*
X011139Y008701D02*
X011965Y008701D01*
X011882Y008799D02*
X010995Y008799D01*
X010757Y008898D02*
X011848Y008898D01*
X011848Y008997D02*
X010000Y008997D01*
X010000Y009095D02*
X011848Y009095D01*
X011848Y009194D02*
X010000Y009194D01*
X010000Y009292D02*
X011848Y009292D01*
X011848Y009391D02*
X010000Y009391D01*
X010000Y009489D02*
X011848Y009489D01*
X011848Y009588D02*
X010000Y009588D01*
X010000Y009686D02*
X011848Y009686D01*
X011848Y009785D02*
X010000Y009785D01*
X010000Y009883D02*
X011848Y009883D01*
X011848Y009982D02*
X010000Y009982D01*
X010000Y010081D02*
X011848Y010081D01*
X011799Y010179D02*
X010000Y010179D01*
X010000Y010475D02*
X011700Y010475D01*
X011700Y010573D02*
X010000Y010573D01*
X010000Y010672D02*
X011724Y010672D01*
X011823Y010770D02*
X010000Y010770D01*
X010000Y010869D02*
X011922Y010869D01*
X012290Y010967D02*
X010000Y010967D01*
X010000Y011066D02*
X012290Y011066D01*
X012290Y011165D02*
X010000Y011165D01*
X010000Y011263D02*
X012316Y011263D01*
X012414Y011362D02*
X010000Y011362D01*
X010000Y011460D02*
X012499Y011460D01*
X012400Y011559D02*
X010000Y011559D01*
X010000Y011657D02*
X010325Y011657D01*
X010087Y011756D02*
X010000Y011756D01*
X010814Y011657D02*
X012302Y011657D01*
X012252Y011756D02*
X011052Y011756D01*
X011162Y011854D02*
X012241Y011854D01*
X012241Y011953D02*
X011261Y011953D01*
X011337Y012051D02*
X012241Y012051D01*
X012241Y012150D02*
X011378Y012150D01*
X011419Y012249D02*
X011521Y012249D01*
X012019Y012249D02*
X012241Y012249D01*
X012241Y012347D02*
X012208Y012347D01*
X012538Y012431D02*
X013326Y013219D01*
X014507Y013219D01*
X015806Y011919D01*
X016357Y011919D01*
X016869Y012431D01*
X018444Y012431D01*
X019034Y013022D01*
X018716Y013332D02*
X017117Y013332D01*
X017117Y013234D02*
X018617Y013234D01*
X018589Y013135D02*
X017021Y013135D01*
X016923Y013037D02*
X018589Y013037D01*
X018531Y012938D02*
X016137Y012938D01*
X016319Y012840D02*
X018433Y012840D01*
X018334Y012741D02*
X016418Y012741D01*
X016468Y012643D02*
X016661Y012643D01*
X016562Y012544D02*
X016509Y012544D01*
X015970Y012416D02*
X013916Y014469D01*
X013916Y015187D01*
X014121Y015402D02*
X018400Y015402D01*
X018301Y015500D02*
X014023Y015500D01*
X013924Y015599D02*
X018203Y015599D01*
X018104Y015698D02*
X013826Y015698D01*
X013727Y015796D02*
X018006Y015796D01*
X017808Y015993D02*
X013605Y015993D01*
X013721Y016092D02*
X017710Y016092D01*
X017755Y016467D02*
X018641Y015581D01*
X019822Y015581D01*
X020358Y015303D02*
X020706Y015303D01*
X020706Y015205D02*
X020259Y015205D01*
X020161Y015106D02*
X020686Y015106D01*
X020706Y015126D02*
X020558Y014978D01*
X020558Y014609D01*
X020691Y014476D01*
X020638Y014454D01*
X020554Y014371D01*
X020161Y013977D01*
X020115Y013868D01*
X020115Y013750D01*
X020115Y013553D01*
X020115Y013538D01*
X019922Y013345D01*
X019922Y014867D01*
X020706Y015652D01*
X020706Y015522D01*
X020706Y015126D01*
X020588Y015008D02*
X020062Y015008D01*
X019964Y014909D02*
X020558Y014909D01*
X020558Y014811D02*
X019922Y014811D01*
X019922Y014712D02*
X020558Y014712D01*
X020558Y014614D02*
X019922Y014614D01*
X019922Y014515D02*
X020652Y014515D01*
X020600Y014416D02*
X019922Y014416D01*
X019922Y014318D02*
X020501Y014318D01*
X020403Y014219D02*
X019922Y014219D01*
X019922Y014121D02*
X020304Y014121D01*
X020206Y014022D02*
X019922Y014022D01*
X019922Y013924D02*
X020138Y013924D01*
X020115Y013825D02*
X019922Y013825D01*
X019922Y013727D02*
X020115Y013727D01*
X020115Y013628D02*
X019922Y013628D01*
X019922Y013530D02*
X020107Y013530D01*
X020008Y013431D02*
X019922Y013431D01*
X020412Y013415D02*
X019822Y012825D01*
X018404Y011408D01*
X018247Y011408D01*
X017966Y011756D02*
X017189Y011756D01*
X017098Y011847D02*
X017314Y011631D01*
X017314Y011422D01*
X017386Y011350D01*
X017802Y011350D01*
X017802Y011592D01*
X018063Y011852D01*
X018430Y011852D01*
X018515Y011937D01*
X017189Y011937D01*
X017098Y011847D01*
X017106Y011854D02*
X018431Y011854D01*
X017867Y011657D02*
X017288Y011657D01*
X017314Y011559D02*
X017802Y011559D01*
X017802Y011460D02*
X017314Y011460D01*
X017374Y011362D02*
X017802Y011362D01*
X018778Y011362D02*
X021583Y011362D01*
X021583Y011460D02*
X018877Y011460D01*
X019468Y012051D02*
X024337Y012051D01*
X024239Y011953D02*
X023493Y011953D01*
X023617Y011854D02*
X024140Y011854D01*
X024074Y011756D02*
X023651Y011756D01*
X023651Y011657D02*
X024052Y011657D01*
X024052Y011559D02*
X023651Y011559D01*
X023651Y011460D02*
X024052Y011460D01*
X024052Y011362D02*
X023651Y011362D01*
X023651Y011263D02*
X024052Y011263D01*
X024052Y011165D02*
X023636Y011165D01*
X023569Y011066D02*
X024052Y011066D01*
X024052Y010967D02*
X023496Y010967D01*
X023617Y010869D02*
X024052Y010869D01*
X024052Y010770D02*
X023651Y010770D01*
X023651Y010672D02*
X024052Y010672D01*
X024052Y010573D02*
X023651Y010573D01*
X023651Y010475D02*
X024052Y010475D01*
X024052Y010376D02*
X023651Y010376D01*
X023651Y010278D02*
X024052Y010278D01*
X024052Y010179D02*
X023636Y010179D01*
X023568Y010081D02*
X024052Y010081D01*
X024052Y009982D02*
X021729Y009982D01*
X021747Y009883D02*
X021631Y009883D01*
X021680Y009785D02*
X021532Y009785D01*
X021434Y009686D02*
X021680Y009686D01*
X021680Y009588D02*
X021335Y009588D01*
X021131Y009489D02*
X022567Y009489D01*
X022617Y009518D02*
X022538Y009439D01*
X022145Y009439D01*
X020963Y009439D01*
X020412Y008888D01*
X020019Y008494D01*
X018837Y008494D01*
X018741Y008504D02*
X019018Y008504D01*
X018919Y008405D02*
X018756Y008405D01*
X018741Y008602D02*
X021131Y008602D01*
X021033Y008701D02*
X019083Y008701D01*
X019231Y008297D02*
X019822Y008297D01*
X020412Y008297D01*
X020609Y008297D01*
X021200Y007707D01*
X021397Y007510D01*
X021397Y005738D01*
X022381Y004754D01*
X025924Y004754D01*
X026318Y004360D01*
X026318Y003573D01*
X025530Y002786D01*
X025530Y001211D01*
X025234Y001546D02*
X025175Y001604D01*
X025234Y001663D01*
X025234Y001546D01*
X025234Y001606D02*
X025177Y001606D01*
X025767Y001821D02*
X025767Y002628D01*
X026515Y003376D01*
X026515Y006919D01*
X025924Y007510D01*
X025582Y007223D02*
X023634Y007223D01*
X023651Y007264D02*
X023651Y007376D01*
X024275Y008000D01*
X027054Y008000D01*
X027054Y007797D01*
X026896Y007955D01*
X026527Y007955D01*
X026318Y007745D01*
X026108Y007955D01*
X025740Y007955D01*
X025479Y007694D01*
X025479Y007326D01*
X025740Y007065D01*
X025949Y007065D01*
X026218Y006796D01*
X026218Y004880D01*
X026092Y005006D01*
X025983Y005051D01*
X025865Y005051D01*
X022504Y005051D01*
X021693Y005861D01*
X021693Y006118D01*
X021780Y006082D01*
X022624Y006082D01*
X022624Y005709D01*
X023276Y005709D01*
X023276Y005610D01*
X022624Y005610D01*
X022624Y005204D01*
X022712Y005116D01*
X023276Y005116D01*
X023276Y005609D01*
X023376Y005609D01*
X023376Y005610D02*
X023376Y005709D01*
X024027Y005709D01*
X024027Y006012D01*
X024116Y006049D01*
X024274Y006207D01*
X024360Y006414D01*
X024360Y006637D01*
X024274Y006844D01*
X024116Y007002D01*
X023910Y007087D01*
X023686Y007087D01*
X023522Y007020D01*
X023454Y007048D01*
X021780Y007048D01*
X021693Y007012D01*
X021693Y007102D01*
X021780Y007066D01*
X023454Y007066D01*
X023544Y007104D01*
X023614Y007173D01*
X023651Y007264D01*
X023651Y007321D02*
X025483Y007321D01*
X025479Y007420D02*
X023695Y007420D01*
X023793Y007518D02*
X025479Y007518D01*
X025479Y007617D02*
X023892Y007617D01*
X023990Y007716D02*
X025500Y007716D01*
X025599Y007814D02*
X024089Y007814D01*
X024188Y007913D02*
X025698Y007913D01*
X026151Y007913D02*
X026485Y007913D01*
X026386Y007814D02*
X026249Y007814D01*
X026711Y007510D02*
X026711Y003179D01*
X026286Y002754D01*
X026286Y002301D01*
X025767Y001821D02*
X026286Y001301D01*
X026675Y000917D02*
X026786Y001028D01*
X026897Y000917D01*
X026675Y000917D01*
X026773Y001015D02*
X026800Y001015D01*
X027286Y001301D02*
X026790Y001797D01*
X026790Y002864D01*
X026908Y002982D01*
X026908Y007116D01*
X027499Y007707D01*
X027499Y007904D01*
X027054Y007913D02*
X026938Y007913D01*
X027037Y007814D02*
X027054Y007814D01*
X027696Y007313D02*
X027105Y006723D01*
X027105Y006526D01*
X027105Y002982D01*
X027286Y002801D01*
X027286Y002301D01*
X027774Y002707D02*
X027302Y003179D01*
X027302Y005935D01*
X027302Y006329D01*
X027696Y006723D01*
X027989Y006387D02*
X027989Y006255D01*
X027724Y005990D01*
X027641Y005906D01*
X027599Y005805D01*
X027599Y005876D01*
X027599Y006206D01*
X027671Y006278D01*
X027880Y006278D01*
X027989Y006387D01*
X027989Y006336D02*
X027938Y006336D01*
X027972Y006237D02*
X027630Y006237D01*
X027599Y006139D02*
X027873Y006139D01*
X027775Y006040D02*
X027599Y006040D01*
X027599Y005942D02*
X027676Y005942D01*
X027724Y005990D02*
X027724Y005990D01*
X027615Y005843D02*
X027599Y005843D01*
X027893Y005738D02*
X027893Y005148D01*
X028286Y004754D01*
X027841Y004759D02*
X027599Y004759D01*
X027599Y004661D02*
X027841Y004661D01*
X027841Y004570D02*
X027841Y004779D01*
X027641Y004980D01*
X027599Y005081D01*
X027599Y003302D01*
X028026Y002875D01*
X028044Y002832D01*
X028060Y002848D01*
X028383Y002848D01*
X028383Y002848D01*
X028383Y002967D01*
X028383Y004309D01*
X028102Y004309D01*
X027841Y004570D01*
X027849Y004562D02*
X027599Y004562D01*
X027599Y004464D02*
X027947Y004464D01*
X028046Y004365D02*
X027599Y004365D01*
X027599Y004266D02*
X028383Y004266D01*
X028383Y004168D02*
X027599Y004168D01*
X027599Y004069D02*
X028383Y004069D01*
X028383Y003971D02*
X027599Y003971D01*
X027599Y003872D02*
X028383Y003872D01*
X028383Y003774D02*
X027599Y003774D01*
X027599Y003675D02*
X028383Y003675D01*
X028383Y003577D02*
X027599Y003577D01*
X027599Y003478D02*
X028383Y003478D01*
X028383Y003380D02*
X027599Y003380D01*
X027620Y003281D02*
X028383Y003281D01*
X028383Y003183D02*
X027719Y003183D01*
X027817Y003084D02*
X028383Y003084D01*
X028383Y002985D02*
X027916Y002985D01*
X028014Y002887D02*
X028383Y002887D01*
X028680Y002908D02*
X029074Y002514D01*
X029286Y002301D01*
X029782Y002628D02*
X029271Y003140D01*
X028877Y003534D01*
X028877Y008691D01*
X029271Y009085D01*
X029664Y009478D01*
X029074Y009478D02*
X029074Y009282D01*
X028680Y008888D01*
X028680Y008691D01*
X028680Y002908D01*
X028286Y002301D02*
X028759Y001829D01*
X028759Y001014D01*
X028916Y000856D01*
X030688Y000856D01*
X030845Y001014D01*
X030845Y002589D01*
X030649Y002786D01*
X030058Y002786D01*
X029664Y003179D01*
X029074Y003770D01*
X029074Y003967D01*
X029074Y008100D01*
X030255Y009282D01*
X030230Y008837D02*
X030352Y008837D01*
X030352Y008121D01*
X030321Y008152D01*
X029952Y008152D01*
X029804Y008004D01*
X029605Y008004D01*
X029496Y007958D01*
X029413Y007875D01*
X029371Y007833D01*
X029371Y007977D01*
X030230Y008837D01*
X030193Y008799D02*
X030352Y008799D01*
X030352Y008701D02*
X030094Y008701D01*
X029995Y008602D02*
X030352Y008602D01*
X030352Y008504D02*
X029897Y008504D01*
X029798Y008405D02*
X030352Y008405D01*
X030352Y008307D02*
X029700Y008307D01*
X029601Y008208D02*
X030352Y008208D01*
X029910Y008110D02*
X029503Y008110D01*
X029404Y008011D02*
X029812Y008011D01*
X029450Y007913D02*
X029371Y007913D01*
X029664Y007707D02*
X030058Y007707D01*
X030137Y007707D01*
X029804Y007410D02*
X029868Y007346D01*
X029567Y007045D01*
X029567Y007190D01*
X029787Y007410D01*
X029804Y007410D01*
X029843Y007321D02*
X029699Y007321D01*
X029745Y007223D02*
X029600Y007223D01*
X029567Y007124D02*
X029646Y007124D01*
X029271Y007313D02*
X029664Y007707D01*
X029271Y007313D02*
X029271Y006329D01*
X029271Y005738D01*
X029271Y004951D01*
X029271Y003967D01*
X029861Y003376D01*
X030058Y003179D01*
X030255Y003179D01*
X030649Y003376D02*
X031239Y002786D01*
X031239Y002392D01*
X031536Y002724D02*
X031684Y002576D01*
X031684Y002481D01*
X031911Y002481D01*
X031528Y002865D01*
X031536Y002845D01*
X031536Y002724D01*
X031570Y002690D02*
X031702Y002690D01*
X031669Y002591D02*
X031801Y002591D01*
X031899Y002493D02*
X031684Y002493D01*
X031604Y002788D02*
X031536Y002788D01*
X032049Y003183D02*
X032123Y003183D01*
X032123Y003238D02*
X032123Y003120D01*
X032132Y003100D01*
X031158Y004074D01*
X032123Y004074D01*
X032123Y003238D01*
X032123Y003281D02*
X031951Y003281D01*
X031852Y003380D02*
X032123Y003380D01*
X032123Y003478D02*
X031754Y003478D01*
X031655Y003577D02*
X032123Y003577D01*
X032123Y003675D02*
X031556Y003675D01*
X031458Y003774D02*
X032123Y003774D01*
X032123Y003872D02*
X031359Y003872D01*
X031261Y003971D02*
X032123Y003971D01*
X032123Y004069D02*
X031162Y004069D01*
X030756Y004476D02*
X030582Y004649D01*
X030700Y004767D01*
X030700Y004900D01*
X030756Y004900D01*
X030756Y004476D01*
X030756Y004562D02*
X030670Y004562D01*
X030594Y004661D02*
X030756Y004661D01*
X030756Y004759D02*
X030692Y004759D01*
X030700Y004858D02*
X030756Y004858D01*
X030255Y004951D02*
X030255Y004557D01*
X032420Y002392D01*
X032961Y003058D02*
X032717Y003302D01*
X032717Y008246D01*
X032801Y008246D01*
X032961Y008406D01*
X032961Y003058D01*
X032961Y003084D02*
X032935Y003084D01*
X032961Y003183D02*
X032837Y003183D01*
X032738Y003281D02*
X032961Y003281D01*
X032961Y003380D02*
X032717Y003380D01*
X032717Y003478D02*
X032961Y003478D01*
X032961Y003577D02*
X032717Y003577D01*
X032717Y003675D02*
X032961Y003675D01*
X032961Y003774D02*
X032717Y003774D01*
X032717Y003872D02*
X032961Y003872D01*
X032961Y003971D02*
X032717Y003971D01*
X032717Y004069D02*
X032961Y004069D01*
X032961Y004168D02*
X032717Y004168D01*
X032717Y004266D02*
X032961Y004266D01*
X032961Y004365D02*
X032717Y004365D01*
X032717Y004464D02*
X032961Y004464D01*
X032961Y004562D02*
X032717Y004562D01*
X032717Y004661D02*
X032961Y004661D01*
X032961Y004759D02*
X032717Y004759D01*
X032717Y004858D02*
X032961Y004858D01*
X032961Y004956D02*
X032717Y004956D01*
X032717Y005055D02*
X032961Y005055D01*
X032961Y005153D02*
X032717Y005153D01*
X032717Y005252D02*
X032961Y005252D01*
X032961Y005350D02*
X032717Y005350D01*
X032717Y005449D02*
X032961Y005449D01*
X032961Y005548D02*
X032717Y005548D01*
X032717Y005646D02*
X032961Y005646D01*
X032961Y005745D02*
X032717Y005745D01*
X032717Y005843D02*
X032961Y005843D01*
X032961Y005942D02*
X032717Y005942D01*
X032717Y006040D02*
X032961Y006040D01*
X032961Y006139D02*
X032717Y006139D01*
X032717Y006237D02*
X032961Y006237D01*
X032961Y006336D02*
X032717Y006336D01*
X032717Y006434D02*
X032961Y006434D01*
X032961Y006533D02*
X032717Y006533D01*
X032717Y006632D02*
X032961Y006632D01*
X032961Y006730D02*
X032717Y006730D01*
X032717Y006829D02*
X032961Y006829D01*
X032961Y006927D02*
X032717Y006927D01*
X032717Y007026D02*
X032961Y007026D01*
X032961Y007124D02*
X032717Y007124D01*
X032717Y007223D02*
X032961Y007223D01*
X032961Y007321D02*
X032717Y007321D01*
X032717Y007420D02*
X032961Y007420D01*
X032961Y007518D02*
X032717Y007518D01*
X032717Y007617D02*
X032961Y007617D01*
X032961Y007716D02*
X032717Y007716D01*
X032717Y007814D02*
X032961Y007814D01*
X032961Y007913D02*
X032717Y007913D01*
X032717Y008011D02*
X032961Y008011D01*
X032961Y008110D02*
X032717Y008110D01*
X032717Y008208D02*
X032961Y008208D01*
X032961Y008307D02*
X032862Y008307D01*
X032961Y008405D02*
X032961Y008405D01*
X032617Y008691D02*
X032814Y008888D01*
X032814Y013022D01*
X032814Y013809D01*
X032578Y014045D01*
X032934Y014318D02*
X032961Y014318D01*
X032961Y014416D02*
X032836Y014416D01*
X032026Y013809D02*
X032026Y013612D01*
X032420Y013219D01*
X032420Y012825D01*
X032420Y010266D01*
X032223Y010069D01*
X031436Y009282D01*
X031239Y009085D01*
X031239Y008100D01*
X031239Y007510D01*
X031239Y007116D01*
X030845Y006762D01*
X030452Y006919D02*
X030452Y006329D01*
X030845Y005935D01*
X031172Y006237D02*
X032123Y006237D01*
X032123Y006139D02*
X031271Y006139D01*
X031290Y006119D02*
X031061Y006348D01*
X031290Y006578D01*
X031290Y006763D01*
X031400Y006861D01*
X031407Y006865D01*
X031443Y006901D01*
X031481Y006935D01*
X031485Y006942D01*
X031491Y006948D01*
X031510Y006995D01*
X031532Y007042D01*
X031533Y007050D01*
X031536Y007057D01*
X031536Y007108D01*
X031539Y007160D01*
X031536Y007167D01*
X031536Y007569D01*
X031536Y008160D01*
X031536Y008246D01*
X031778Y008246D01*
X031849Y008318D01*
X031921Y008246D01*
X032123Y008246D01*
X032123Y005355D01*
X031093Y005355D01*
X031093Y005529D01*
X031081Y005541D01*
X031290Y005751D01*
X031290Y006119D01*
X031290Y006040D02*
X032123Y006040D01*
X032123Y005942D02*
X031290Y005942D01*
X031290Y005843D02*
X032123Y005843D01*
X032123Y005745D02*
X031284Y005745D01*
X031186Y005646D02*
X032123Y005646D01*
X032123Y005548D02*
X031087Y005548D01*
X031093Y005449D02*
X032123Y005449D01*
X030649Y005345D02*
X030255Y005738D01*
X030255Y005935D01*
X030255Y006998D01*
X030373Y007116D01*
X030845Y007589D01*
X030845Y009872D01*
X031633Y010660D01*
X031954Y010967D02*
X032123Y010967D01*
X032123Y010869D02*
X032053Y010869D01*
X032078Y010844D02*
X031817Y011104D01*
X031448Y011104D01*
X031188Y010844D01*
X031188Y010634D01*
X030945Y010392D01*
X030945Y010930D01*
X030999Y010983D01*
X031411Y011396D01*
X031620Y011396D01*
X031881Y011656D01*
X031881Y012025D01*
X031733Y012173D01*
X031733Y012490D01*
X031702Y012565D01*
X031722Y012573D01*
X031883Y012734D01*
X032093Y012734D01*
X032123Y012765D01*
X032123Y010389D01*
X032055Y010321D01*
X032013Y010279D01*
X031947Y010345D01*
X032078Y010475D01*
X032078Y010844D01*
X032078Y010770D02*
X032123Y010770D01*
X032123Y010672D02*
X032078Y010672D01*
X032078Y010573D02*
X032123Y010573D01*
X032123Y010475D02*
X032077Y010475D01*
X032111Y010376D02*
X031979Y010376D01*
X032055Y010321D02*
X032055Y010321D01*
X031593Y010069D02*
X031042Y009518D01*
X031042Y007589D01*
X031042Y007510D01*
X030452Y006919D01*
X030255Y007313D02*
X029467Y006526D01*
X029467Y006132D01*
X029467Y005148D01*
X029467Y004163D01*
X030058Y003573D01*
X030255Y003573D01*
X030452Y003573D01*
X030649Y003376D01*
X030531Y003861D02*
X030511Y003870D01*
X030393Y003870D01*
X030196Y003870D01*
X030181Y003870D01*
X029764Y004286D01*
X029764Y005089D01*
X029764Y006073D01*
X029764Y006403D01*
X029958Y006596D01*
X029958Y005994D01*
X029958Y005797D01*
X029958Y005679D01*
X030003Y005570D01*
X030177Y005396D01*
X030070Y005396D01*
X029810Y005135D01*
X029810Y004767D01*
X029958Y004618D01*
X029958Y004498D01*
X030003Y004389D01*
X030087Y004306D01*
X030531Y003861D01*
X030520Y003872D02*
X030178Y003872D01*
X030080Y003971D02*
X030421Y003971D01*
X030323Y004069D02*
X029981Y004069D01*
X029883Y004168D02*
X030224Y004168D01*
X030126Y004266D02*
X029784Y004266D01*
X029764Y004365D02*
X030027Y004365D01*
X029972Y004464D02*
X029764Y004464D01*
X029764Y004562D02*
X029958Y004562D01*
X029916Y004661D02*
X029764Y004661D01*
X029764Y004759D02*
X029817Y004759D01*
X029810Y004858D02*
X029764Y004858D01*
X029764Y004956D02*
X029810Y004956D01*
X029810Y005055D02*
X029764Y005055D01*
X029764Y005153D02*
X029828Y005153D01*
X029764Y005252D02*
X029927Y005252D01*
X030025Y005350D02*
X029764Y005350D01*
X029764Y005449D02*
X030124Y005449D01*
X030026Y005548D02*
X029764Y005548D01*
X029764Y005646D02*
X029972Y005646D01*
X029958Y005745D02*
X029764Y005745D01*
X029764Y005843D02*
X029958Y005843D01*
X029958Y005942D02*
X029764Y005942D01*
X029764Y006040D02*
X029958Y006040D01*
X029958Y006139D02*
X029764Y006139D01*
X029764Y006237D02*
X029958Y006237D01*
X029958Y006336D02*
X029764Y006336D01*
X029796Y006434D02*
X029958Y006434D01*
X029958Y006533D02*
X029894Y006533D01*
X030255Y007313D02*
X030649Y007707D01*
X030649Y011053D01*
X030747Y011152D01*
X030649Y011053D01*
X030747Y011152D02*
X031436Y011841D01*
X031436Y012431D01*
X031239Y012628D01*
X031042Y012628D01*
X029861Y012628D01*
X029467Y012234D01*
X029467Y012037D01*
X029467Y011289D01*
X029467Y011132D01*
X028483Y010148D01*
X027696Y010148D01*
X027302Y009675D01*
X026318Y009675D01*
X026121Y009872D01*
X026121Y010856D01*
X026121Y016368D01*
X024940Y017549D01*
X017066Y017549D01*
X014900Y019715D01*
X014704Y019911D01*
X013050Y019911D01*
X012971Y019833D01*
X012617Y019478D01*
X012617Y018652D01*
X013038Y018230D01*
X013129Y018230D01*
X013629Y017957D02*
X013902Y017684D01*
X014256Y017684D01*
X015176Y016763D01*
X013793Y016763D01*
X013788Y016775D01*
X013635Y016928D01*
X013435Y017010D01*
X012625Y017010D01*
X012426Y016928D01*
X012273Y016775D01*
X012268Y016763D01*
X011851Y016763D01*
X011851Y017872D01*
X011942Y017780D01*
X012079Y017780D01*
X012079Y018180D01*
X012179Y018180D01*
X012179Y017780D01*
X012315Y017780D01*
X012579Y018044D01*
X012579Y018180D01*
X012179Y018180D01*
X012179Y018280D01*
X012569Y018280D01*
X012582Y018267D01*
X012582Y018004D01*
X012902Y017684D01*
X013355Y017684D01*
X013629Y017957D01*
X013720Y017865D02*
X013537Y017865D01*
X013439Y017767D02*
X013819Y017767D01*
X014271Y017668D02*
X011851Y017668D01*
X011851Y017570D02*
X014370Y017570D01*
X014468Y017471D02*
X011851Y017471D01*
X011851Y017373D02*
X014567Y017373D01*
X014665Y017274D02*
X011851Y017274D01*
X011851Y017176D02*
X014764Y017176D01*
X014862Y017077D02*
X011851Y017077D01*
X011851Y016979D02*
X012549Y016979D01*
X012378Y016880D02*
X011851Y016880D01*
X011851Y016781D02*
X012280Y016781D01*
X011554Y016467D02*
X011554Y018656D01*
X012129Y019230D01*
X011582Y019245D02*
X011387Y019245D01*
X011428Y019147D02*
X011582Y019147D01*
X011582Y019103D02*
X011446Y018968D01*
X011446Y019102D01*
X011313Y019424D01*
X011201Y019536D01*
X011661Y019536D01*
X011582Y019457D01*
X011582Y019103D01*
X011527Y019048D02*
X011446Y019048D01*
X011346Y019344D02*
X011582Y019344D01*
X011582Y019442D02*
X011295Y019442D01*
X010097Y019833D02*
X009704Y019439D01*
X009704Y019242D01*
X009704Y001526D01*
X009704Y001289D01*
X009704Y001093D01*
X011220Y001015D02*
X011922Y001015D01*
X012021Y001113D02*
X011315Y001113D01*
X011356Y001212D02*
X012119Y001212D01*
X012218Y001310D02*
X011397Y001310D01*
X011438Y001409D02*
X012317Y001409D01*
X012415Y001507D02*
X011446Y001507D01*
X011446Y001606D02*
X012514Y001606D01*
X012333Y001704D02*
X012233Y001704D01*
X012233Y001803D02*
X012333Y001803D01*
X012333Y001901D02*
X012233Y001901D01*
X012233Y002000D02*
X012333Y002000D01*
X012333Y002099D02*
X012233Y002099D01*
X012233Y002197D02*
X012333Y002197D01*
X012333Y002296D02*
X012233Y002296D01*
X012233Y002394D02*
X012333Y002394D01*
X012333Y002493D02*
X012233Y002493D01*
X012233Y002591D02*
X012333Y002591D01*
X012333Y002690D02*
X012233Y002690D01*
X012283Y002754D02*
X011103Y003934D01*
X011103Y004724D01*
X011103Y005485D01*
X012440Y006821D01*
X012538Y006919D01*
X012285Y007124D02*
X015260Y007124D01*
X015359Y007026D02*
X012186Y007026D01*
X011967Y006927D02*
X015457Y006927D01*
X015556Y006829D02*
X010000Y006829D01*
X010000Y006927D02*
X011572Y006927D01*
X011353Y007026D02*
X010000Y007026D01*
X010000Y007124D02*
X011255Y007124D01*
X011162Y007223D02*
X010973Y007223D01*
X010167Y007223D02*
X010000Y007223D01*
X010000Y007321D02*
X010010Y007321D01*
X010000Y006730D02*
X015654Y006730D01*
X015753Y006632D02*
X010000Y006632D01*
X010000Y006533D02*
X015851Y006533D01*
X015950Y006434D02*
X010000Y006434D01*
X010000Y006336D02*
X016048Y006336D01*
X016147Y006237D02*
X010000Y006237D01*
X010000Y006139D02*
X016245Y006139D01*
X016344Y006040D02*
X010000Y006040D01*
X010000Y005942D02*
X016443Y005942D01*
X016541Y005843D02*
X014037Y005843D01*
X014135Y005745D02*
X016640Y005745D01*
X016738Y005646D02*
X014234Y005646D01*
X014332Y005548D02*
X016837Y005548D01*
X016935Y005449D02*
X014431Y005449D01*
X014530Y005350D02*
X017034Y005350D01*
X017132Y005252D02*
X014628Y005252D01*
X014660Y005153D02*
X017231Y005153D01*
X017329Y005055D02*
X014660Y005055D01*
X014660Y004956D02*
X017428Y004956D01*
X017526Y004858D02*
X014660Y004858D01*
X014660Y004759D02*
X017625Y004759D01*
X017724Y004661D02*
X014660Y004661D01*
X014660Y004562D02*
X017822Y004562D01*
X017921Y004464D02*
X014660Y004464D01*
X014660Y004365D02*
X018019Y004365D01*
X018118Y004266D02*
X014660Y004266D01*
X014600Y004168D02*
X018216Y004168D01*
X018315Y004069D02*
X014501Y004069D01*
X014403Y003971D02*
X018413Y003971D01*
X018512Y003872D02*
X014304Y003872D01*
X014206Y003774D02*
X018610Y003774D01*
X018709Y003675D02*
X014107Y003675D01*
X014009Y003577D02*
X018808Y003577D01*
X018906Y003478D02*
X013115Y003478D01*
X013213Y003380D02*
X018028Y003380D01*
X017929Y003281D02*
X013312Y003281D01*
X013383Y003183D02*
X017830Y003183D01*
X017732Y003084D02*
X013383Y003084D01*
X013383Y002985D02*
X017633Y002985D01*
X017535Y002887D02*
X013383Y002887D01*
X013383Y002690D02*
X017338Y002690D01*
X017436Y002788D02*
X012334Y002788D01*
X012283Y002754D02*
X012646Y002392D01*
X016869Y002392D01*
X016944Y002296D02*
X013381Y002296D01*
X013383Y002394D02*
X017042Y002394D01*
X017141Y002493D02*
X013383Y002493D01*
X013383Y002591D02*
X017239Y002591D01*
X017980Y002099D02*
X020115Y002099D01*
X020115Y002197D02*
X018878Y002197D01*
X018825Y002144D02*
X018973Y002292D01*
X019487Y002292D01*
X019881Y002292D01*
X019990Y002337D01*
X020012Y002359D01*
X020115Y002256D01*
X020115Y001939D01*
X020161Y001830D01*
X020244Y001746D01*
X020441Y001550D01*
X020550Y001504D01*
X020668Y001504D01*
X024290Y001504D01*
X024604Y001504D01*
X024588Y001488D01*
X017595Y001488D01*
X017482Y001601D01*
X018241Y002359D01*
X018456Y002144D01*
X018825Y002144D01*
X018403Y002197D02*
X018078Y002197D01*
X018177Y002296D02*
X018304Y002296D01*
X018641Y002589D02*
X019428Y002589D01*
X019822Y002589D01*
X020215Y002982D01*
X020609Y002982D01*
X020806Y002786D01*
X020806Y002195D01*
X021003Y001998D01*
X023562Y001998D01*
X023759Y002195D01*
X023759Y002589D01*
X024056Y002256D02*
X024204Y002404D01*
X024204Y002686D01*
X024684Y002686D01*
X024802Y002686D01*
X024911Y002731D01*
X025505Y003325D01*
X025650Y003325D01*
X025279Y002954D01*
X025234Y002845D01*
X025234Y002726D01*
X025234Y002334D01*
X025124Y002443D01*
X024756Y002443D01*
X024495Y002182D01*
X024495Y002098D01*
X024290Y002098D01*
X024040Y002098D01*
X024056Y002136D01*
X024056Y002256D01*
X024095Y002296D02*
X024608Y002296D01*
X024707Y002394D02*
X024194Y002394D01*
X024204Y002493D02*
X025234Y002493D01*
X025234Y002591D02*
X024204Y002591D01*
X024812Y002690D02*
X025234Y002690D01*
X025234Y002788D02*
X024969Y002788D01*
X025067Y002887D02*
X025251Y002887D01*
X025311Y002985D02*
X025166Y002985D01*
X025264Y003084D02*
X025409Y003084D01*
X025363Y003183D02*
X025508Y003183D01*
X025461Y003281D02*
X025606Y003281D01*
X025975Y003650D02*
X025975Y003954D01*
X025963Y003967D01*
X026021Y004025D01*
X026021Y003696D01*
X025975Y003650D01*
X025975Y003675D02*
X026000Y003675D01*
X026021Y003774D02*
X025975Y003774D01*
X025975Y003872D02*
X026021Y003872D01*
X026021Y003971D02*
X025967Y003971D01*
X025530Y003770D02*
X024743Y002982D01*
X023365Y002982D01*
X022893Y002549D01*
X022656Y002549D01*
X022211Y002591D02*
X021645Y002591D01*
X021645Y002493D02*
X022211Y002493D01*
X022211Y002394D02*
X021634Y002394D01*
X021645Y002404D02*
X021645Y002773D01*
X021527Y002890D01*
X021677Y003040D01*
X022988Y003040D01*
X022888Y002947D01*
X022841Y002994D01*
X022472Y002994D01*
X022211Y002734D01*
X022211Y002365D01*
X022281Y002295D01*
X021535Y002295D01*
X021645Y002404D01*
X021536Y002296D02*
X022281Y002296D01*
X022211Y002690D02*
X021645Y002690D01*
X021629Y002788D02*
X022266Y002788D01*
X022365Y002887D02*
X021531Y002887D01*
X021623Y002985D02*
X022463Y002985D01*
X022849Y002985D02*
X022929Y002985D01*
X023314Y002533D02*
X023314Y002404D01*
X023423Y002295D01*
X023054Y002295D01*
X023055Y002295D01*
X023061Y002298D01*
X023098Y002335D01*
X023314Y002533D01*
X023314Y002493D02*
X023270Y002493D01*
X023324Y002394D02*
X023163Y002394D01*
X023056Y002296D02*
X023422Y002296D01*
X024056Y002197D02*
X024510Y002197D01*
X024495Y002099D02*
X024040Y002099D01*
X024349Y001801D02*
X024743Y001801D01*
X024940Y001998D01*
X025173Y002394D02*
X025234Y002394D01*
X024349Y001801D02*
X020609Y001801D01*
X020412Y001998D01*
X020412Y002392D01*
X020412Y002589D01*
X020076Y002296D02*
X019890Y002296D01*
X020115Y002000D02*
X017881Y002000D01*
X017783Y001901D02*
X020131Y001901D01*
X020188Y001803D02*
X017684Y001803D01*
X017586Y001704D02*
X020286Y001704D01*
X020244Y001746D02*
X020244Y001746D01*
X020385Y001606D02*
X017487Y001606D01*
X017576Y001507D02*
X020543Y001507D01*
X021200Y002589D02*
X021200Y002982D01*
X021554Y003337D01*
X024271Y003337D01*
X023938Y003634D02*
X022715Y003634D01*
X022749Y003668D01*
X022787Y003758D01*
X022787Y004063D01*
X025195Y004063D01*
X025085Y003954D01*
X025085Y003745D01*
X024715Y003375D01*
X024715Y003521D01*
X024455Y003782D01*
X024086Y003782D01*
X023938Y003634D01*
X023980Y003675D02*
X022752Y003675D01*
X022787Y003774D02*
X024078Y003774D01*
X024463Y003774D02*
X025085Y003774D01*
X025085Y003872D02*
X022787Y003872D01*
X022787Y003971D02*
X025102Y003971D01*
X025016Y003675D02*
X024561Y003675D01*
X024660Y003577D02*
X024918Y003577D01*
X024819Y003478D02*
X024715Y003478D01*
X024715Y003380D02*
X024720Y003380D01*
X025727Y004360D02*
X022381Y004360D01*
X020609Y006132D01*
X019789Y005745D02*
X018660Y005745D01*
X018562Y005843D02*
X019691Y005843D01*
X019592Y005942D02*
X018463Y005942D01*
X018365Y006040D02*
X019494Y006040D01*
X019395Y006139D02*
X018266Y006139D01*
X018168Y006237D02*
X019296Y006237D01*
X019198Y006336D02*
X018069Y006336D01*
X017971Y006434D02*
X018757Y006434D01*
X018607Y006533D02*
X017872Y006533D01*
X017773Y006632D02*
X018509Y006632D01*
X018472Y006668D02*
X018472Y006668D01*
X018410Y006730D02*
X017675Y006730D01*
X017576Y006829D02*
X018357Y006829D01*
X018344Y006927D02*
X017478Y006927D01*
X017379Y007026D02*
X018344Y007026D01*
X018344Y007124D02*
X017281Y007124D01*
X017182Y007223D02*
X018344Y007223D01*
X018344Y007321D02*
X017084Y007321D01*
X016985Y007420D02*
X018344Y007420D01*
X018641Y008100D02*
X018837Y008100D01*
X019034Y008100D01*
X019231Y008297D01*
X018641Y008100D02*
X018444Y008297D01*
X018444Y009282D01*
X019389Y010226D01*
X021121Y010226D01*
X021200Y010226D01*
X021475Y010502D01*
X021593Y010620D01*
X021593Y010856D01*
X022223Y011486D01*
X022617Y011486D01*
X022605Y011003D02*
X022160Y011003D01*
X022142Y010985D01*
X022605Y010985D01*
X022605Y011003D01*
X023050Y010935D02*
X022617Y010502D01*
X022381Y010463D01*
X021790Y010463D01*
X021160Y009833D01*
X020845Y009833D01*
X020097Y009085D01*
X018837Y009085D01*
X019161Y009391D02*
X019984Y009391D01*
X019974Y009382D02*
X019170Y009382D01*
X019067Y009485D01*
X019512Y009930D01*
X020400Y009930D01*
X020400Y009808D01*
X019974Y009382D01*
X020082Y009489D02*
X019071Y009489D01*
X019170Y009588D02*
X020181Y009588D01*
X020279Y009686D02*
X019268Y009686D01*
X019367Y009785D02*
X020378Y009785D01*
X020400Y009883D02*
X019465Y009883D01*
X020626Y009194D02*
X020994Y009194D01*
X020952Y009095D02*
X020527Y009095D01*
X020429Y008997D02*
X020952Y008997D01*
X020952Y008898D02*
X020330Y008898D01*
X020184Y008799D02*
X020952Y008799D01*
X021397Y008967D02*
X021515Y009085D01*
X024152Y009085D01*
X024349Y009282D01*
X024349Y011644D01*
X024546Y011841D01*
X025334Y011841D01*
X025727Y012234D01*
X025727Y011053D01*
X025727Y009478D01*
X025924Y009282D01*
X027696Y009282D01*
X028089Y009754D01*
X028877Y009754D01*
X029979Y010856D01*
X030255Y010856D01*
X030345Y010411D02*
X030352Y010411D01*
X030352Y010404D01*
X030345Y010411D01*
X030058Y010069D02*
X029664Y010069D01*
X029074Y009478D01*
X028680Y009400D02*
X028365Y009085D01*
X025727Y009085D01*
X024940Y009872D01*
X024940Y010463D01*
X025261Y010770D02*
X025430Y010770D01*
X025430Y010672D02*
X025360Y010672D01*
X025385Y010647D02*
X025124Y010908D01*
X024756Y010908D01*
X024646Y010798D01*
X024646Y011521D01*
X024669Y011544D01*
X025274Y011544D01*
X025393Y011544D01*
X025430Y011559D01*
X025429Y011559D01*
X025430Y011559D02*
X025430Y011112D01*
X025430Y009801D01*
X025237Y009995D01*
X025237Y010130D01*
X025385Y010278D01*
X025385Y010647D01*
X025385Y010573D02*
X025430Y010573D01*
X025430Y010475D02*
X025385Y010475D01*
X025385Y010376D02*
X025430Y010376D01*
X025430Y010278D02*
X025384Y010278D01*
X025430Y010179D02*
X025286Y010179D01*
X025237Y010081D02*
X025430Y010081D01*
X025430Y009982D02*
X025250Y009982D01*
X025348Y009883D02*
X025430Y009883D01*
X025924Y009675D02*
X026121Y009478D01*
X027499Y009478D01*
X027893Y009951D01*
X028680Y009951D01*
X030963Y012234D01*
X031042Y012234D01*
X030597Y012288D02*
X029764Y011455D01*
X029764Y011978D01*
X029764Y012111D01*
X029984Y012331D01*
X030597Y012331D01*
X030597Y012288D01*
X030558Y012249D02*
X029901Y012249D01*
X029803Y012150D02*
X030459Y012150D01*
X030361Y012051D02*
X029764Y012051D01*
X029764Y011953D02*
X030262Y011953D01*
X030164Y011854D02*
X029764Y011854D01*
X029764Y011756D02*
X030065Y011756D01*
X029967Y011657D02*
X029764Y011657D01*
X029764Y011559D02*
X029868Y011559D01*
X029770Y011460D02*
X029764Y011460D01*
X030445Y011296D02*
X030938Y011789D01*
X030965Y011789D01*
X030579Y011403D01*
X030458Y011282D01*
X030445Y011296D01*
X030511Y011362D02*
X030537Y011362D01*
X030609Y011460D02*
X030636Y011460D01*
X030708Y011559D02*
X030734Y011559D01*
X030806Y011657D02*
X030833Y011657D01*
X030905Y011756D02*
X030931Y011756D01*
X031377Y011362D02*
X032123Y011362D01*
X032123Y011460D02*
X031685Y011460D01*
X031783Y011559D02*
X032123Y011559D01*
X032123Y011657D02*
X031881Y011657D01*
X031881Y011756D02*
X032123Y011756D01*
X032123Y011854D02*
X031881Y011854D01*
X031881Y011953D02*
X032123Y011953D01*
X032123Y012051D02*
X031854Y012051D01*
X031756Y012150D02*
X032123Y012150D01*
X032123Y012249D02*
X031733Y012249D01*
X031733Y012347D02*
X032123Y012347D01*
X032123Y012446D02*
X031733Y012446D01*
X031710Y012544D02*
X032123Y012544D01*
X032123Y012643D02*
X031792Y012643D01*
X031554Y012825D02*
X031397Y012825D01*
X031042Y012825D01*
X031239Y012825D01*
X031397Y012825D01*
X031554Y012825D02*
X031908Y013179D01*
X031629Y013530D02*
X029589Y013530D01*
X029567Y013628D02*
X031730Y013628D01*
X031689Y013727D02*
X029567Y013727D01*
X029567Y013825D02*
X031381Y013825D01*
X031283Y013924D02*
X029567Y013924D01*
X029567Y014022D02*
X031188Y014022D01*
X031188Y014121D02*
X029567Y014121D01*
X029567Y014219D02*
X031188Y014219D01*
X031188Y014318D02*
X029567Y014318D01*
X029567Y014416D02*
X031217Y014416D01*
X031316Y014515D02*
X029567Y014515D01*
X029567Y014614D02*
X031414Y014614D01*
X031778Y014712D02*
X029609Y014712D01*
X029271Y014793D02*
X031830Y017352D01*
X031283Y017373D02*
X031089Y017373D01*
X031187Y017471D02*
X031283Y017471D01*
X031283Y017274D02*
X030990Y017274D01*
X030891Y017176D02*
X031233Y017176D01*
X031134Y017077D02*
X030793Y017077D01*
X030694Y016979D02*
X031036Y016979D01*
X030937Y016880D02*
X030596Y016880D01*
X030497Y016781D02*
X030839Y016781D01*
X030740Y016683D02*
X030399Y016683D01*
X030300Y016584D02*
X030642Y016584D01*
X030543Y016486D02*
X030202Y016486D01*
X030103Y016387D02*
X030445Y016387D01*
X030346Y016289D02*
X030005Y016289D01*
X031186Y016289D02*
X032961Y016289D01*
X032961Y016387D02*
X031284Y016387D01*
X031383Y016486D02*
X032961Y016486D01*
X032961Y016584D02*
X031481Y016584D01*
X031580Y016683D02*
X032961Y016683D01*
X032961Y016781D02*
X031678Y016781D01*
X032131Y016880D02*
X032961Y016880D01*
X032961Y016979D02*
X032229Y016979D01*
X032328Y017077D02*
X032961Y017077D01*
X032961Y017176D02*
X032376Y017176D01*
X032376Y017274D02*
X032961Y017274D01*
X032961Y017373D02*
X032376Y017373D01*
X032376Y017471D02*
X032961Y017471D01*
X032961Y017570D02*
X032376Y017570D01*
X032287Y017668D02*
X032961Y017668D01*
X032961Y017767D02*
X032188Y017767D01*
X032090Y017865D02*
X032961Y017865D01*
X032961Y017964D02*
X031339Y017964D01*
X031339Y018063D02*
X031626Y018063D01*
X031569Y017865D02*
X031339Y017865D01*
X031339Y017767D02*
X031471Y017767D01*
X031372Y017668D02*
X031331Y017668D01*
X032033Y018063D02*
X032961Y018063D01*
X032961Y018161D02*
X032271Y018161D01*
X032402Y018260D02*
X032961Y018260D01*
X032961Y018358D02*
X032500Y018358D01*
X032584Y018457D02*
X032961Y018457D01*
X032961Y018555D02*
X032624Y018555D01*
X032665Y018654D02*
X032961Y018654D01*
X032961Y018752D02*
X032706Y018752D01*
X032706Y018851D02*
X032961Y018851D01*
X032961Y018949D02*
X032706Y018949D01*
X032706Y019048D02*
X032961Y019048D01*
X032961Y019147D02*
X032688Y019147D01*
X032647Y019245D02*
X032961Y019245D01*
X032961Y019344D02*
X032606Y019344D01*
X032555Y019442D02*
X032961Y019442D01*
X032961Y019541D02*
X032456Y019541D01*
X032357Y019639D02*
X032961Y019639D01*
X032961Y019738D02*
X032164Y019738D01*
X031495Y019738D02*
X031045Y019738D01*
X030947Y019836D02*
X032961Y019836D01*
X031302Y019639D02*
X031144Y019639D01*
X031339Y018161D02*
X031388Y018161D01*
X028798Y018719D02*
X028286Y019230D01*
X027673Y019836D02*
X024960Y019836D01*
X024990Y019738D02*
X026020Y019738D01*
X025922Y019639D02*
X024990Y019639D01*
X024990Y019541D02*
X025823Y019541D01*
X025739Y019442D02*
X024990Y019442D01*
X024990Y019344D02*
X025739Y019344D01*
X025739Y019245D02*
X024990Y019245D01*
X024990Y019147D02*
X025739Y019147D01*
X025739Y019048D02*
X024990Y019048D01*
X024990Y018949D02*
X025794Y018949D01*
X025892Y018851D02*
X024990Y018851D01*
X024990Y018752D02*
X025991Y018752D01*
X026073Y018654D02*
X024990Y018654D01*
X024990Y018555D02*
X025975Y018555D01*
X025876Y018457D02*
X024990Y018457D01*
X024990Y018358D02*
X025836Y018358D01*
X025836Y018417D02*
X025836Y018280D01*
X026236Y018280D01*
X026236Y018180D01*
X026336Y018180D01*
X026336Y017780D01*
X026473Y017780D01*
X026736Y018044D01*
X026736Y018180D01*
X026336Y018180D01*
X026336Y018280D01*
X026736Y018280D01*
X026736Y018417D01*
X026473Y018680D01*
X026336Y018680D01*
X026336Y018281D01*
X026236Y018281D01*
X026236Y018680D01*
X026100Y018680D01*
X025836Y018417D01*
X025836Y018180D02*
X025836Y018044D01*
X026100Y017780D01*
X026236Y017780D01*
X026236Y018180D01*
X025836Y018180D01*
X025836Y018161D02*
X024990Y018161D01*
X024990Y018260D02*
X026236Y018260D01*
X026236Y018358D02*
X026336Y018358D01*
X026336Y018260D02*
X026739Y018260D01*
X026736Y018358D02*
X026739Y018358D01*
X026739Y018457D02*
X026696Y018457D01*
X026598Y018555D02*
X026838Y018555D01*
X026936Y018654D02*
X026499Y018654D01*
X026582Y018752D02*
X026991Y018752D01*
X026892Y018851D02*
X026680Y018851D01*
X026779Y018949D02*
X026794Y018949D01*
X026336Y018654D02*
X026236Y018654D01*
X026236Y018555D02*
X026336Y018555D01*
X026336Y018457D02*
X026236Y018457D01*
X026236Y018161D02*
X026336Y018161D01*
X026336Y018063D02*
X026236Y018063D01*
X026236Y017964D02*
X026336Y017964D01*
X026336Y017865D02*
X026236Y017865D01*
X026015Y017865D02*
X025437Y017865D01*
X025536Y017767D02*
X026976Y017767D01*
X026878Y017865D02*
X026558Y017865D01*
X026656Y017964D02*
X026779Y017964D01*
X026739Y018063D02*
X026736Y018063D01*
X026736Y018161D02*
X026739Y018161D01*
X025916Y017964D02*
X025339Y017964D01*
X025137Y017746D02*
X026711Y016171D01*
X025924Y016171D02*
X025924Y011053D01*
X025924Y009675D01*
X025198Y009194D02*
X024634Y009194D01*
X024646Y009222D02*
X024646Y009806D01*
X024688Y009704D01*
X024772Y009620D01*
X025476Y008917D01*
X025559Y008833D01*
X025566Y008830D01*
X024314Y008830D01*
X024321Y008833D01*
X024517Y009030D01*
X024601Y009113D01*
X024646Y009222D01*
X024646Y009292D02*
X025100Y009292D01*
X025001Y009391D02*
X024646Y009391D01*
X024646Y009489D02*
X024903Y009489D01*
X024804Y009588D02*
X024646Y009588D01*
X024646Y009686D02*
X024706Y009686D01*
X024655Y009785D02*
X024646Y009785D01*
X024052Y009785D02*
X023554Y009785D01*
X023554Y009816D02*
X023467Y009904D01*
X022667Y009904D01*
X022667Y009568D01*
X023554Y009568D01*
X023554Y009816D01*
X023487Y009883D02*
X024052Y009883D01*
X024052Y009686D02*
X023554Y009686D01*
X023554Y009588D02*
X024052Y009588D01*
X024052Y009489D02*
X022667Y009489D01*
X022617Y009518D02*
X022460Y009478D01*
X023365Y009478D01*
X024152Y010266D01*
X024152Y012234D01*
X024152Y012471D01*
X024900Y012471D01*
X025137Y012234D01*
X025223Y012150D02*
X023532Y012150D01*
X023554Y012249D02*
X025322Y012249D01*
X025420Y012347D02*
X023554Y012347D01*
X023554Y012544D02*
X025430Y012544D01*
X025430Y012446D02*
X022667Y012446D01*
X022617Y012471D02*
X022971Y012471D01*
X024152Y012471D01*
X023554Y012643D02*
X025430Y012643D01*
X025430Y012741D02*
X025038Y012741D01*
X025387Y012840D02*
X025430Y012840D01*
X025727Y012628D02*
X025727Y012234D01*
X025430Y011460D02*
X024646Y011460D01*
X024646Y011362D02*
X025430Y011362D01*
X025430Y011263D02*
X024646Y011263D01*
X024646Y011165D02*
X025430Y011165D01*
X025430Y011066D02*
X024646Y011066D01*
X024646Y010967D02*
X025430Y010967D01*
X025430Y010869D02*
X025163Y010869D01*
X024717Y010869D02*
X024646Y010869D01*
X022667Y009883D02*
X022567Y009883D01*
X022567Y009785D02*
X022667Y009785D01*
X022667Y009686D02*
X022567Y009686D01*
X022567Y009588D02*
X022667Y009588D01*
X023554Y009391D02*
X024039Y009391D01*
X024484Y008997D02*
X025396Y008997D01*
X025297Y009095D02*
X024583Y009095D01*
X024386Y008898D02*
X025494Y008898D01*
X024152Y008297D02*
X028089Y008297D01*
X028286Y008100D01*
X028286Y006723D01*
X028286Y006132D01*
X027893Y005738D01*
X028286Y005541D02*
X028483Y005738D01*
X028483Y006526D01*
X028483Y006723D01*
X028483Y008297D01*
X028247Y008534D01*
X022617Y008534D01*
X021729Y008011D02*
X021315Y008011D01*
X021414Y007913D02*
X021615Y007913D01*
X021583Y007814D02*
X021512Y007814D01*
X021451Y007875D02*
X021451Y007875D01*
X021668Y008110D02*
X021217Y008110D01*
X021118Y008208D02*
X021599Y008208D01*
X021583Y008307D02*
X021019Y008307D01*
X020921Y008405D02*
X021583Y008405D01*
X021583Y008504D02*
X020822Y008504D01*
X020725Y009292D02*
X021093Y009292D01*
X021033Y009391D02*
X021191Y009391D01*
X021602Y009391D02*
X021680Y009391D01*
X023646Y008237D02*
X023672Y008237D01*
X023628Y008193D01*
X023646Y008237D01*
X023644Y008208D02*
X023635Y008208D01*
X024152Y008297D02*
X023404Y007549D01*
X022617Y007549D01*
X021727Y007026D02*
X021693Y007026D01*
X021693Y006040D02*
X022624Y006040D01*
X022624Y005942D02*
X021693Y005942D01*
X021711Y005843D02*
X022624Y005843D01*
X022624Y005745D02*
X021810Y005745D01*
X021908Y005646D02*
X023276Y005646D01*
X023326Y005660D02*
X023404Y005738D01*
X024349Y005738D01*
X024349Y007707D01*
X024546Y007904D01*
X023565Y007124D02*
X025680Y007124D01*
X025988Y007026D02*
X024059Y007026D01*
X024191Y006927D02*
X026087Y006927D01*
X026186Y006829D02*
X024281Y006829D01*
X024322Y006730D02*
X026218Y006730D01*
X026218Y006632D02*
X024360Y006632D01*
X024360Y006533D02*
X026218Y006533D01*
X026218Y006434D02*
X024360Y006434D01*
X024328Y006336D02*
X026218Y006336D01*
X026218Y006237D02*
X024287Y006237D01*
X024206Y006139D02*
X026218Y006139D01*
X026218Y006040D02*
X024094Y006040D01*
X024027Y005942D02*
X026218Y005942D01*
X026218Y005843D02*
X024027Y005843D01*
X024027Y005745D02*
X026218Y005745D01*
X026218Y005646D02*
X023376Y005646D01*
X023376Y005610D02*
X024027Y005610D01*
X024027Y005204D01*
X023939Y005116D01*
X023376Y005116D01*
X023376Y005609D01*
X023376Y005548D02*
X023276Y005548D01*
X023276Y005449D02*
X023376Y005449D01*
X023376Y005350D02*
X023276Y005350D01*
X023276Y005252D02*
X023376Y005252D01*
X023376Y005153D02*
X023276Y005153D01*
X022675Y005153D02*
X022401Y005153D01*
X022500Y005055D02*
X026218Y005055D01*
X026218Y005153D02*
X023977Y005153D01*
X024027Y005252D02*
X026218Y005252D01*
X026218Y005350D02*
X024027Y005350D01*
X024027Y005449D02*
X026218Y005449D01*
X026218Y005548D02*
X024027Y005548D01*
X022624Y005548D02*
X022007Y005548D01*
X022106Y005449D02*
X022624Y005449D01*
X022624Y005350D02*
X022204Y005350D01*
X022303Y005252D02*
X022624Y005252D01*
X021890Y004431D02*
X022034Y004287D01*
X022012Y004265D01*
X021975Y004175D01*
X021975Y003758D01*
X022012Y003668D01*
X022047Y003634D01*
X021858Y003634D01*
X021890Y003711D01*
X021890Y004431D01*
X021890Y004365D02*
X021956Y004365D01*
X022013Y004266D02*
X021890Y004266D01*
X021890Y004168D02*
X021975Y004168D01*
X021975Y004069D02*
X021890Y004069D01*
X021890Y003971D02*
X021975Y003971D01*
X021975Y003872D02*
X021890Y003872D01*
X021890Y003774D02*
X021975Y003774D01*
X022009Y003675D02*
X021875Y003675D01*
X021100Y004090D02*
X021100Y004434D01*
X020857Y004677D01*
X020857Y004570D01*
X020648Y004360D01*
X020857Y004151D01*
X020857Y003847D01*
X020948Y003938D01*
X021100Y004090D01*
X021080Y004069D02*
X020857Y004069D01*
X020857Y003971D02*
X020981Y003971D01*
X020882Y003872D02*
X020857Y003872D01*
X020840Y004168D02*
X021100Y004168D01*
X021100Y004266D02*
X020742Y004266D01*
X020653Y004365D02*
X021100Y004365D01*
X021070Y004464D02*
X020751Y004464D01*
X020850Y004562D02*
X020972Y004562D01*
X020873Y004661D02*
X020857Y004661D01*
X020412Y004754D02*
X020019Y005148D01*
X018837Y005148D01*
X018641Y005345D01*
X016672Y007313D01*
X016672Y009478D01*
X016082Y010069D01*
X016082Y010266D01*
X015294Y011053D01*
X015294Y011791D01*
X015070Y012016D01*
X014663Y012347D02*
X014658Y012347D01*
X014661Y012345D02*
X014592Y012414D01*
X014592Y012620D01*
X014525Y012781D01*
X014826Y012480D01*
X014774Y012458D01*
X014661Y012345D01*
X014592Y012446D02*
X014762Y012446D01*
X014761Y012544D02*
X014592Y012544D01*
X014582Y012643D02*
X014663Y012643D01*
X014564Y012741D02*
X014541Y012741D01*
X014070Y012516D02*
X014507Y012079D01*
X014507Y011841D01*
X015097Y011250D01*
X015097Y010856D01*
X015885Y010069D01*
X015885Y009872D01*
X016475Y009282D01*
X016475Y007116D01*
X018641Y004951D01*
X018837Y004754D01*
X019822Y004754D01*
X020117Y004420D02*
X020177Y004360D01*
X020156Y004340D01*
X020097Y004400D01*
X020117Y004420D01*
X020131Y004365D02*
X020172Y004365D01*
X020412Y003967D02*
X020019Y003573D01*
X019231Y003573D01*
X018837Y003967D01*
X015097Y007707D01*
X015097Y009675D01*
X014900Y009872D01*
X013326Y011447D01*
X013326Y011760D01*
X013070Y012016D01*
X012538Y011841D02*
X012538Y012431D01*
X013064Y012538D02*
X013449Y012922D01*
X013738Y012922D01*
X013627Y012811D01*
X013548Y012620D01*
X013548Y012412D01*
X013627Y012220D01*
X013774Y012073D01*
X013913Y012016D01*
X013774Y011958D01*
X013627Y011811D01*
X013622Y011800D01*
X013622Y011819D01*
X013588Y011903D01*
X013592Y011912D01*
X013592Y012120D01*
X013512Y012311D01*
X013365Y012458D01*
X013174Y012538D01*
X013064Y012538D01*
X013071Y012544D02*
X013548Y012544D01*
X013548Y012446D02*
X013378Y012446D01*
X013476Y012347D02*
X013575Y012347D01*
X013538Y012249D02*
X013616Y012249D01*
X013579Y012150D02*
X013698Y012150D01*
X013592Y012051D02*
X013827Y012051D01*
X013769Y011953D02*
X013592Y011953D01*
X013608Y011854D02*
X013670Y011854D01*
X014070Y011516D02*
X014070Y011097D01*
X014113Y011053D01*
X015294Y009872D01*
X015294Y008297D01*
X015294Y007904D01*
X018641Y004557D01*
X018837Y004360D01*
X019231Y003967D01*
X019900Y003967D01*
X019571Y004266D02*
X019351Y004266D01*
X019354Y004263D02*
X019160Y004457D01*
X019489Y004457D01*
X019626Y004321D01*
X019568Y004263D01*
X019354Y004263D01*
X019253Y004365D02*
X019581Y004365D01*
X020085Y005449D02*
X018956Y005449D01*
X018857Y005548D02*
X019986Y005548D01*
X019888Y005646D02*
X018759Y005646D01*
X016178Y007439D02*
X016049Y007569D01*
X016079Y007569D01*
X016178Y007610D01*
X016178Y007439D01*
X016178Y007518D02*
X016099Y007518D01*
X015161Y007223D02*
X012377Y007223D01*
X012418Y007321D02*
X015063Y007321D01*
X014866Y007518D02*
X013453Y007518D01*
X013561Y007617D02*
X014813Y007617D01*
X014800Y007716D02*
X013592Y007716D01*
X013592Y007814D02*
X014800Y007814D01*
X014800Y007913D02*
X013592Y007913D01*
X013592Y008011D02*
X013924Y008011D01*
X013738Y008110D02*
X013592Y008110D01*
X013592Y008208D02*
X013639Y008208D01*
X013548Y008437D02*
X013485Y008500D01*
X013394Y008538D01*
X013279Y008538D01*
X013365Y008573D01*
X013512Y008720D01*
X013592Y008912D01*
X013592Y009118D01*
X013661Y009187D01*
X013774Y009073D01*
X013913Y009016D01*
X013774Y008958D01*
X013627Y008811D01*
X013548Y008620D01*
X013548Y008437D01*
X013548Y008504D02*
X013475Y008504D01*
X013548Y008602D02*
X013394Y008602D01*
X013493Y008701D02*
X013582Y008701D01*
X013545Y008799D02*
X013622Y008799D01*
X013586Y008898D02*
X013714Y008898D01*
X013592Y008997D02*
X013867Y008997D01*
X013752Y009095D02*
X013592Y009095D01*
X013523Y009469D02*
X013523Y010266D01*
X012735Y011053D01*
X012760Y010608D02*
X012589Y010608D01*
X012589Y010278D01*
X012613Y010278D01*
X012589Y010278D02*
X012441Y010130D01*
X012441Y009616D01*
X012441Y009064D01*
X012548Y008957D01*
X012548Y009120D01*
X012627Y009311D01*
X012774Y009458D01*
X012913Y009516D01*
X012774Y009573D01*
X012627Y009720D01*
X012548Y009912D01*
X012548Y010120D01*
X012627Y010311D01*
X012774Y010458D01*
X012870Y010498D01*
X012760Y010608D01*
X012795Y010573D02*
X012589Y010573D01*
X012589Y010475D02*
X012814Y010475D01*
X012692Y010376D02*
X012589Y010376D01*
X012573Y010179D02*
X012490Y010179D01*
X012441Y010081D02*
X012548Y010081D01*
X012548Y009982D02*
X012441Y009982D01*
X012441Y009883D02*
X012560Y009883D01*
X012601Y009785D02*
X012441Y009785D01*
X012441Y009686D02*
X012661Y009686D01*
X012760Y009588D02*
X012441Y009588D01*
X012441Y009489D02*
X012849Y009489D01*
X012707Y009391D02*
X012441Y009391D01*
X012441Y009292D02*
X012619Y009292D01*
X012579Y009194D02*
X012441Y009194D01*
X012441Y009095D02*
X012548Y009095D01*
X012548Y008997D02*
X012509Y008997D01*
X012145Y008941D02*
X012145Y009675D01*
X012145Y010463D01*
X013523Y009469D02*
X013070Y009016D01*
X012145Y008941D02*
X013070Y008016D01*
X014070Y008516D02*
X014704Y009150D01*
X014704Y009675D01*
X012538Y011841D01*
X013170Y012643D02*
X013557Y012643D01*
X013598Y012741D02*
X013268Y012741D01*
X013367Y012840D02*
X013656Y012840D01*
X013020Y013332D02*
X012360Y013332D01*
X012408Y013234D02*
X012921Y013234D01*
X012823Y013135D02*
X012449Y013135D01*
X012482Y013037D02*
X012724Y013037D01*
X012626Y012938D02*
X012482Y012938D01*
X012482Y012840D02*
X012527Y012840D01*
X012261Y013431D02*
X013118Y013431D01*
X013943Y014022D02*
X010000Y014022D01*
X010000Y013924D02*
X014042Y013924D01*
X014141Y013825D02*
X010000Y013825D01*
X010000Y013727D02*
X014239Y013727D01*
X014338Y013628D02*
X010000Y013628D01*
X010000Y013530D02*
X011391Y013530D01*
X011278Y013431D02*
X010000Y013431D01*
X010000Y013332D02*
X010224Y013332D01*
X010034Y013234D02*
X010000Y013234D01*
X010916Y013332D02*
X011180Y013332D01*
X011131Y013234D02*
X011106Y013234D01*
X012148Y013530D02*
X014436Y013530D01*
X014882Y013924D02*
X015046Y013924D01*
X015046Y013825D02*
X014980Y013825D01*
X015075Y014022D02*
X014783Y014022D01*
X014685Y014121D02*
X015173Y014121D01*
X015272Y014219D02*
X014586Y014219D01*
X014487Y014318D02*
X019328Y014318D01*
X019328Y014416D02*
X014389Y014416D01*
X014290Y014515D02*
X019328Y014515D01*
X019328Y014614D02*
X014213Y014614D01*
X014213Y014712D02*
X019328Y014712D01*
X019328Y014811D02*
X014213Y014811D01*
X014213Y014909D02*
X019328Y014909D01*
X019328Y015008D02*
X014213Y015008D01*
X014213Y015106D02*
X019352Y015106D01*
X019420Y015205D02*
X014213Y015205D01*
X014189Y015303D02*
X018535Y015303D01*
X020456Y015402D02*
X020706Y015402D01*
X020706Y015500D02*
X020555Y015500D01*
X020653Y015599D02*
X020706Y015599D01*
X019328Y014219D02*
X015710Y014219D01*
X015809Y014121D02*
X019328Y014121D01*
X019328Y014022D02*
X015907Y014022D01*
X015936Y013924D02*
X019328Y013924D01*
X019328Y013825D02*
X016892Y013825D01*
X016990Y013727D02*
X019328Y013727D01*
X019328Y013628D02*
X017089Y013628D01*
X017117Y013530D02*
X019328Y013530D01*
X019328Y013431D02*
X019254Y013431D01*
X018814Y013431D02*
X017117Y013431D01*
X016672Y013415D02*
X015885Y013415D01*
X015491Y013809D01*
X015936Y013825D02*
X016453Y013825D01*
X016354Y013727D02*
X015993Y013727D01*
X015548Y013332D02*
X015473Y013332D01*
X015571Y013234D02*
X015646Y013234D01*
X015670Y013135D02*
X015785Y013135D01*
X015769Y013037D02*
X016421Y013037D01*
X015970Y012416D02*
X015364Y013022D01*
X013845Y014121D02*
X010000Y014121D01*
X010000Y014219D02*
X013746Y014219D01*
X013658Y014318D02*
X013582Y014318D01*
X013079Y014318D02*
X012982Y014318D01*
X012982Y014416D02*
X013079Y014416D01*
X013079Y014515D02*
X012982Y014515D01*
X012982Y014614D02*
X013079Y014614D01*
X013030Y014695D02*
X012538Y014203D01*
X012982Y014712D02*
X010520Y014712D01*
X010520Y014614D02*
X010423Y014614D01*
X010423Y014515D02*
X010520Y014515D01*
X010520Y014416D02*
X010423Y014416D01*
X010423Y014318D02*
X010520Y014318D01*
X010520Y014811D02*
X010423Y014811D01*
X010423Y014909D02*
X010520Y014909D01*
X010520Y015008D02*
X010423Y015008D01*
X010423Y015106D02*
X010520Y015106D01*
X010471Y016467D02*
X011554Y016467D01*
X013030Y016467D01*
X017755Y016467D01*
X016869Y017352D02*
X024743Y017352D01*
X025924Y016171D01*
X025137Y017746D02*
X019034Y017746D01*
X018641Y018140D01*
X018953Y018457D02*
X019378Y018457D01*
X019378Y018555D02*
X018854Y018555D01*
X018825Y018585D02*
X018456Y018585D01*
X018196Y018324D01*
X018196Y017956D01*
X018305Y017846D01*
X017189Y017846D01*
X015173Y019861D01*
X019423Y019861D01*
X019416Y019854D01*
X019378Y019764D01*
X019378Y018091D01*
X019398Y018043D01*
X019157Y018043D01*
X019086Y018115D01*
X019086Y018324D01*
X018825Y018585D01*
X019051Y018358D02*
X019378Y018358D01*
X019378Y018260D02*
X019086Y018260D01*
X019086Y018161D02*
X019378Y018161D01*
X019390Y018063D02*
X019138Y018063D01*
X019378Y018654D02*
X016381Y018654D01*
X016283Y018752D02*
X019378Y018752D01*
X019378Y018851D02*
X016184Y018851D01*
X016085Y018949D02*
X019378Y018949D01*
X019378Y019048D02*
X015987Y019048D01*
X015888Y019147D02*
X019378Y019147D01*
X019378Y019245D02*
X015790Y019245D01*
X015691Y019344D02*
X019378Y019344D01*
X019378Y019442D02*
X015593Y019442D01*
X015494Y019541D02*
X019378Y019541D01*
X019378Y019639D02*
X015396Y019639D01*
X015297Y019738D02*
X019378Y019738D01*
X019408Y019836D02*
X015199Y019836D01*
X014704Y019518D02*
X016869Y017352D01*
X017169Y017865D02*
X018286Y017865D01*
X018196Y017964D02*
X017071Y017964D01*
X016972Y018063D02*
X018196Y018063D01*
X018196Y018161D02*
X016874Y018161D01*
X016775Y018260D02*
X018196Y018260D01*
X018230Y018358D02*
X016677Y018358D01*
X016578Y018457D02*
X018328Y018457D01*
X018427Y018555D02*
X016480Y018555D01*
X014704Y019518D02*
X014507Y019715D01*
X013613Y019715D01*
X013129Y019230D01*
X013621Y018949D02*
X013636Y018949D01*
X013629Y018957D02*
X013402Y018730D01*
X013629Y018504D01*
X013855Y018730D01*
X013629Y018957D01*
X013523Y018851D02*
X013735Y018851D01*
X013834Y018752D02*
X013424Y018752D01*
X013479Y018654D02*
X013779Y018654D01*
X013680Y018555D02*
X013577Y018555D01*
X012582Y018260D02*
X012179Y018260D01*
X012179Y018161D02*
X012079Y018161D01*
X012079Y018063D02*
X012179Y018063D01*
X012179Y017964D02*
X012079Y017964D01*
X012079Y017865D02*
X012179Y017865D01*
X012400Y017865D02*
X012720Y017865D01*
X012819Y017767D02*
X011851Y017767D01*
X011851Y017865D02*
X011857Y017865D01*
X011257Y017865D02*
X010000Y017865D01*
X010000Y017767D02*
X011257Y017767D01*
X011257Y017668D02*
X010000Y017668D01*
X010000Y017570D02*
X011257Y017570D01*
X011257Y017471D02*
X010000Y017471D01*
X010000Y017373D02*
X011257Y017373D01*
X011257Y017274D02*
X010000Y017274D01*
X010000Y017176D02*
X011257Y017176D01*
X011257Y017077D02*
X010000Y017077D01*
X010000Y016983D02*
X010000Y018257D01*
X010073Y018184D01*
X010395Y018050D01*
X010744Y018050D01*
X011066Y018184D01*
X011257Y018375D01*
X011257Y016763D01*
X011234Y016763D01*
X011229Y016775D01*
X011076Y016928D01*
X010876Y017010D01*
X010066Y017010D01*
X010000Y016983D01*
X010953Y016979D02*
X011257Y016979D01*
X011257Y016880D02*
X011124Y016880D01*
X011222Y016781D02*
X011257Y016781D01*
X011257Y017964D02*
X010000Y017964D01*
X010000Y018063D02*
X010366Y018063D01*
X010128Y018161D02*
X010000Y018161D01*
X010773Y018063D02*
X011257Y018063D01*
X011257Y018161D02*
X011011Y018161D01*
X011142Y018260D02*
X011257Y018260D01*
X011257Y018358D02*
X011241Y018358D01*
X012499Y017964D02*
X012622Y017964D01*
X012582Y018063D02*
X012579Y018063D01*
X012579Y018161D02*
X012582Y018161D01*
X013512Y016979D02*
X014961Y016979D01*
X015059Y016880D02*
X013683Y016880D01*
X013781Y016781D02*
X015158Y016781D01*
X013079Y015106D02*
X012982Y015106D01*
X012982Y015008D02*
X013079Y015008D01*
X013079Y014909D02*
X012982Y014909D01*
X012982Y014811D02*
X013079Y014811D01*
X014704Y010974D02*
X014704Y010856D01*
X015688Y009872D01*
X015688Y009675D01*
X015885Y009478D01*
X015885Y009201D01*
X015970Y009116D01*
X015591Y008721D02*
X015660Y008652D01*
X015748Y008616D01*
X015660Y008579D01*
X015591Y008510D01*
X015591Y008721D01*
X015591Y008701D02*
X015611Y008701D01*
X015591Y008602D02*
X015716Y008602D01*
X014800Y008602D02*
X014592Y008602D01*
X014592Y008504D02*
X014800Y008504D01*
X014800Y008405D02*
X014589Y008405D01*
X014548Y008307D02*
X014800Y008307D01*
X014800Y008208D02*
X014500Y008208D01*
X014402Y008110D02*
X014800Y008110D01*
X014800Y008011D02*
X014215Y008011D01*
X014675Y008701D02*
X014800Y008701D01*
X014800Y008799D02*
X014773Y008799D01*
X013934Y010025D02*
X013819Y009977D01*
X013819Y010140D01*
X013934Y010025D01*
X013879Y010081D02*
X013819Y010081D01*
X013819Y009982D02*
X013832Y009982D01*
X015898Y010869D02*
X015982Y010869D01*
X015898Y010869D01*
X015982Y010786D01*
X015982Y010869D01*
X011578Y008307D02*
X011409Y008307D01*
X010382Y008898D02*
X010000Y008898D01*
X010000Y008799D02*
X010144Y008799D01*
X010000Y005843D02*
X012890Y005843D01*
X012792Y005745D02*
X011638Y005745D01*
X011559Y005824D02*
X011153Y005824D01*
X011153Y004774D01*
X011053Y004774D01*
X011053Y004674D01*
X010003Y004674D01*
X010003Y004268D01*
X010648Y003624D01*
X011053Y003624D01*
X011053Y004674D01*
X011153Y004674D01*
X011153Y003624D01*
X011559Y003624D01*
X012203Y004268D01*
X012203Y004674D01*
X011154Y004674D01*
X011154Y004774D01*
X012203Y004774D01*
X012203Y005180D01*
X011559Y005824D01*
X011737Y005646D02*
X012693Y005646D01*
X012594Y005548D02*
X011835Y005548D01*
X011934Y005449D02*
X012496Y005449D01*
X012397Y005350D02*
X012033Y005350D01*
X012131Y005252D02*
X012299Y005252D01*
X012267Y005153D02*
X012203Y005153D01*
X012203Y005055D02*
X012267Y005055D01*
X012267Y004956D02*
X012203Y004956D01*
X012203Y004858D02*
X012267Y004858D01*
X012267Y004759D02*
X011154Y004759D01*
X011153Y004661D02*
X011053Y004661D01*
X011053Y004759D02*
X010000Y004759D01*
X010003Y004774D02*
X011053Y004774D01*
X011053Y005824D01*
X010648Y005824D01*
X010003Y005180D01*
X010003Y004774D01*
X010000Y004858D02*
X010003Y004858D01*
X010000Y004956D02*
X010003Y004956D01*
X010000Y005055D02*
X010003Y005055D01*
X010000Y005153D02*
X010003Y005153D01*
X010000Y005252D02*
X010076Y005252D01*
X010000Y005350D02*
X010174Y005350D01*
X010273Y005449D02*
X010000Y005449D01*
X010000Y005548D02*
X010371Y005548D01*
X010470Y005646D02*
X010000Y005646D01*
X010000Y005745D02*
X010569Y005745D01*
X011053Y005745D02*
X011153Y005745D01*
X011153Y005646D02*
X011053Y005646D01*
X011053Y005548D02*
X011153Y005548D01*
X011153Y005449D02*
X011053Y005449D01*
X011053Y005350D02*
X011153Y005350D01*
X011153Y005252D02*
X011053Y005252D01*
X011053Y005153D02*
X011153Y005153D01*
X011153Y005055D02*
X011053Y005055D01*
X011053Y004956D02*
X011153Y004956D01*
X011153Y004858D02*
X011053Y004858D01*
X011053Y004562D02*
X011153Y004562D01*
X011153Y004464D02*
X011053Y004464D01*
X011053Y004365D02*
X011153Y004365D01*
X011153Y004266D02*
X011053Y004266D01*
X011053Y004168D02*
X011153Y004168D01*
X011153Y004069D02*
X011053Y004069D01*
X011053Y003971D02*
X011153Y003971D01*
X011153Y003872D02*
X011053Y003872D01*
X011053Y003774D02*
X011153Y003774D01*
X011153Y003675D02*
X011053Y003675D01*
X010597Y003675D02*
X010000Y003675D01*
X010000Y003577D02*
X011551Y003577D01*
X011610Y003675D02*
X011649Y003675D01*
X011709Y003774D02*
X011748Y003774D01*
X011828Y003854D02*
X011183Y003210D01*
X011183Y002804D01*
X012233Y002804D01*
X012233Y003854D01*
X011828Y003854D01*
X011807Y003872D02*
X012623Y003872D01*
X012524Y003971D02*
X011906Y003971D01*
X012004Y004069D02*
X012425Y004069D01*
X012327Y004168D02*
X012103Y004168D01*
X012202Y004266D02*
X012267Y004266D01*
X012267Y004365D02*
X012203Y004365D01*
X012203Y004464D02*
X012267Y004464D01*
X012267Y004562D02*
X012203Y004562D01*
X012203Y004661D02*
X012267Y004661D01*
X012233Y003774D02*
X012333Y003774D01*
X012333Y003675D02*
X012233Y003675D01*
X012233Y003577D02*
X012333Y003577D01*
X012333Y003478D02*
X012233Y003478D01*
X012233Y003380D02*
X012333Y003380D01*
X012333Y003281D02*
X012233Y003281D01*
X012233Y003183D02*
X012333Y003183D01*
X012333Y003084D02*
X012233Y003084D01*
X012233Y002985D02*
X012333Y002985D01*
X012333Y002887D02*
X012233Y002887D01*
X012233Y002788D02*
X010000Y002788D01*
X010000Y002690D02*
X011183Y002690D01*
X011183Y002591D02*
X010000Y002591D01*
X010000Y002493D02*
X011183Y002493D01*
X011183Y002394D02*
X010954Y002394D01*
X011118Y002296D02*
X011186Y002296D01*
X011217Y002197D02*
X011285Y002197D01*
X011314Y002099D02*
X011383Y002099D01*
X011355Y002000D02*
X011482Y002000D01*
X011396Y001901D02*
X011580Y001901D01*
X011679Y001803D02*
X011437Y001803D01*
X011446Y001704D02*
X011777Y001704D01*
X010185Y002394D02*
X010000Y002394D01*
X010000Y002296D02*
X010021Y002296D01*
X010000Y002887D02*
X011183Y002887D01*
X011183Y002985D02*
X010000Y002985D01*
X010000Y003084D02*
X011183Y003084D01*
X011183Y003183D02*
X010000Y003183D01*
X010000Y003281D02*
X011255Y003281D01*
X011353Y003380D02*
X010000Y003380D01*
X010000Y003478D02*
X011452Y003478D01*
X010498Y003774D02*
X010000Y003774D01*
X010000Y003872D02*
X010400Y003872D01*
X010301Y003971D02*
X010000Y003971D01*
X010000Y004069D02*
X010202Y004069D01*
X010104Y004168D02*
X010000Y004168D01*
X010000Y004266D02*
X010005Y004266D01*
X010000Y004365D02*
X010003Y004365D01*
X010000Y004464D02*
X010003Y004464D01*
X010000Y004562D02*
X010003Y004562D01*
X010000Y004661D02*
X010003Y004661D01*
X014448Y001310D02*
X016818Y001310D01*
X016818Y001212D02*
X014350Y001212D01*
X014547Y001409D02*
X016851Y001409D01*
X017263Y001191D02*
X024920Y001191D01*
X024940Y001211D01*
X024704Y000817D02*
X017518Y000817D01*
X026142Y004956D02*
X026218Y004956D01*
X027599Y004956D02*
X027664Y004956D01*
X027610Y005055D02*
X027599Y005055D01*
X027599Y004858D02*
X027763Y004858D01*
X027774Y002707D02*
X027774Y001813D01*
X028286Y001301D01*
X027897Y000917D02*
X027675Y000917D01*
X027786Y001028D01*
X027897Y000917D01*
X027800Y001015D02*
X027773Y001015D01*
X029286Y001301D02*
X029782Y001797D01*
X029782Y002628D01*
X030236Y002251D02*
X030336Y002251D01*
X030336Y001851D01*
X030473Y001851D01*
X030549Y001927D01*
X030549Y001812D01*
X030513Y001848D01*
X030079Y001848D01*
X030079Y001872D01*
X030100Y001851D01*
X030236Y001851D01*
X030236Y002251D01*
X030236Y002197D02*
X030336Y002197D01*
X030336Y002099D02*
X030236Y002099D01*
X030236Y002000D02*
X030336Y002000D01*
X030336Y001901D02*
X030236Y001901D01*
X030523Y001901D02*
X030549Y001901D01*
X031142Y001052D02*
X031277Y000917D01*
X031126Y000917D01*
X031142Y000955D01*
X031142Y001052D01*
X031142Y001015D02*
X031180Y001015D01*
X032890Y000670D02*
X032961Y000741D01*
X032961Y000670D01*
X032890Y000670D01*
X032939Y000719D02*
X032961Y000719D01*
X032123Y006336D02*
X031074Y006336D01*
X031147Y006434D02*
X032123Y006434D01*
X032123Y006533D02*
X031246Y006533D01*
X031290Y006632D02*
X032123Y006632D01*
X032123Y006730D02*
X031290Y006730D01*
X031363Y006829D02*
X032123Y006829D01*
X032123Y006927D02*
X031473Y006927D01*
X031525Y007026D02*
X032123Y007026D01*
X032123Y007124D02*
X031537Y007124D01*
X031536Y007223D02*
X032123Y007223D01*
X032123Y007321D02*
X031536Y007321D01*
X031536Y007420D02*
X032123Y007420D01*
X032123Y007518D02*
X031536Y007518D01*
X031536Y007617D02*
X032123Y007617D01*
X032123Y007716D02*
X031536Y007716D01*
X031536Y007814D02*
X032123Y007814D01*
X032123Y007913D02*
X031536Y007913D01*
X031536Y008011D02*
X032123Y008011D01*
X032123Y008110D02*
X031536Y008110D01*
X031536Y008208D02*
X032123Y008208D01*
X031860Y008307D02*
X031838Y008307D01*
X032361Y009064D02*
X032295Y009130D01*
X032517Y009352D01*
X032517Y009136D01*
X032433Y009136D01*
X032361Y009064D01*
X032330Y009095D02*
X032392Y009095D01*
X032358Y009194D02*
X032517Y009194D01*
X032517Y009292D02*
X032457Y009292D01*
X031028Y010475D02*
X030945Y010475D01*
X030945Y010573D02*
X031127Y010573D01*
X031188Y010672D02*
X030945Y010672D01*
X030945Y010770D02*
X031188Y010770D01*
X031213Y010869D02*
X030945Y010869D01*
X030983Y010967D02*
X031311Y010967D01*
X031410Y011066D02*
X031081Y011066D01*
X031180Y011165D02*
X032123Y011165D01*
X032123Y011263D02*
X031278Y011263D01*
X031856Y011066D02*
X032123Y011066D01*
X030352Y009733D02*
X030352Y009726D01*
X030345Y009726D01*
X030352Y009733D01*
X028235Y009457D02*
X028235Y009382D01*
X028165Y009382D01*
X028228Y009457D01*
X028235Y009457D01*
X028235Y009391D02*
X028173Y009391D01*
X027966Y008000D02*
X027989Y007977D01*
X027989Y007649D01*
X027931Y007707D01*
X027944Y007719D01*
X027944Y008000D01*
X027966Y008000D01*
X027944Y007913D02*
X027989Y007913D01*
X027989Y007814D02*
X027944Y007814D01*
X027940Y007716D02*
X027989Y007716D01*
X023537Y007026D02*
X023507Y007026D01*
X028877Y011250D02*
X029074Y011250D01*
X029074Y012234D01*
X029664Y012825D01*
X031042Y012825D01*
X031445Y013135D02*
X029715Y013135D01*
X029715Y013234D02*
X031463Y013234D01*
X031463Y013332D02*
X029715Y013332D01*
X029687Y013431D02*
X031531Y013431D01*
X032026Y013809D02*
X031633Y014203D01*
X030891Y015205D02*
X030102Y015205D01*
X030200Y015303D02*
X030853Y015303D01*
X030853Y015402D02*
X030299Y015402D01*
X030397Y015500D02*
X030853Y015500D01*
X030853Y015599D02*
X030496Y015599D01*
X031504Y015796D02*
X031604Y015796D01*
X031604Y015895D02*
X031504Y015895D01*
X031504Y015993D02*
X031604Y015993D01*
X031604Y016092D02*
X031504Y016092D01*
X031504Y016190D02*
X031604Y016190D01*
X031554Y015699D02*
X031633Y015620D01*
X032255Y015895D02*
X032961Y015895D01*
X032961Y015993D02*
X032255Y015993D01*
X032255Y016092D02*
X032961Y016092D01*
X032961Y016190D02*
X032220Y016190D01*
X029271Y014793D02*
X029271Y013219D01*
X029193Y012774D02*
X029125Y012705D01*
X029125Y012774D01*
X029193Y012774D01*
X029161Y012741D02*
X029125Y012741D01*
X028777Y012183D02*
X028777Y011770D01*
X028583Y011964D01*
X028583Y012183D01*
X028777Y012183D01*
X028777Y012150D02*
X028583Y012150D01*
X028583Y012051D02*
X028777Y012051D01*
X028777Y011953D02*
X028594Y011953D01*
X028692Y011854D02*
X028777Y011854D01*
X032100Y012741D02*
X032123Y012741D01*
X025430Y013554D02*
X025321Y013664D01*
X024952Y013664D01*
X024692Y013403D01*
X024692Y013319D01*
X024278Y013319D01*
X024699Y013739D01*
X025430Y014470D01*
X025430Y013554D01*
X025430Y013628D02*
X025356Y013628D01*
X025430Y013727D02*
X024687Y013727D01*
X024785Y013825D02*
X025430Y013825D01*
X025430Y013924D02*
X024884Y013924D01*
X024982Y014022D02*
X025430Y014022D01*
X025430Y014121D02*
X025081Y014121D01*
X025179Y014219D02*
X025430Y014219D01*
X025430Y014318D02*
X025278Y014318D01*
X025376Y014416D02*
X025430Y014416D01*
X024917Y013628D02*
X024588Y013628D01*
X024489Y013530D02*
X024818Y013530D01*
X024720Y013431D02*
X024391Y013431D01*
X024292Y013332D02*
X024692Y013332D01*
X024940Y013022D02*
X021200Y013022D01*
X021121Y013100D01*
X020924Y013297D01*
X020924Y013612D01*
X021309Y013332D02*
X021583Y013332D01*
X022971Y012471D02*
X023326Y012471D01*
X022667Y012347D02*
X022567Y012347D01*
X022567Y012249D02*
X022667Y012249D01*
X022667Y012150D02*
X022567Y012150D01*
X024940Y013022D02*
X025137Y013219D01*
X024280Y014159D02*
X023872Y013752D01*
X023646Y013752D01*
X023619Y013819D01*
X023651Y013898D01*
X023651Y014272D01*
X023623Y014341D01*
X023645Y014395D01*
X023706Y014369D01*
X023890Y014369D01*
X024061Y014440D01*
X024101Y014481D01*
X024101Y014412D01*
X024317Y014197D01*
X024280Y014159D01*
X024241Y014121D02*
X023651Y014121D01*
X023651Y014219D02*
X024294Y014219D01*
X024195Y014318D02*
X023632Y014318D01*
X024004Y014416D02*
X024101Y014416D01*
X024143Y014022D02*
X023651Y014022D01*
X023651Y013924D02*
X024044Y013924D01*
X023946Y013825D02*
X023621Y013825D01*
X024978Y018063D02*
X025836Y018063D01*
X026749Y019541D02*
X026823Y019541D01*
X026922Y019639D02*
X026651Y019639D01*
X026552Y019738D02*
X027020Y019738D01*
X027552Y019738D02*
X027575Y019738D01*
X012971Y019833D02*
X012893Y019754D01*
X012971Y019833D01*
X010097Y019833D01*
X009706Y019861D02*
X009535Y019691D01*
X009452Y019607D01*
X009439Y019575D01*
X009439Y019861D01*
X009706Y019861D01*
X009681Y019836D02*
X009439Y019836D01*
X009439Y019738D02*
X009583Y019738D01*
X009484Y019639D02*
X009439Y019639D01*
X012893Y019754D02*
X012971Y019833D01*
M02*
