G75*
G70*
%OFA0B0*%
%FSLAX24Y24*%
%IPPOS*%
%LPD*%
%AMOC8*
5,1,8,0,0,1.08239X$1,22.5*
%
%ADD10C,0.1340*%
%ADD11C,0.0081*%
%ADD12C,0.0084*%
%ADD13C,0.0085*%
%ADD14C,0.0082*%
%ADD15C,0.0670*%
%ADD16R,0.0670X0.0670*%
%ADD17C,0.1010*%
%ADD18C,0.1360*%
%ADD19C,0.0720*%
%ADD20C,0.0714*%
%ADD21C,0.0083*%
%ADD22C,0.0081*%
%ADD23C,0.0082*%
%ADD24OC8,0.0720*%
%ADD25OC8,0.1980*%
%ADD26C,0.0082*%
%ADD27C,0.0082*%
%ADD28C,0.0081*%
%ADD29C,0.0192*%
%ADD30R,0.0400X0.0400*%
D10*
X010570Y001604D03*
X031830Y001604D03*
X031830Y018927D03*
X010570Y018927D03*
D11*
X027831Y011478D02*
X027831Y011258D01*
X027331Y011258D01*
X027331Y011478D01*
X027831Y011478D01*
X027831Y011338D02*
X027331Y011338D01*
X027331Y011418D02*
X027831Y011418D01*
X027831Y011163D02*
X027831Y010943D01*
X027331Y010943D01*
X027331Y011163D01*
X027831Y011163D01*
X027831Y011023D02*
X027331Y011023D01*
X027331Y011103D02*
X027831Y011103D01*
X027831Y010848D02*
X027831Y010628D01*
X027331Y010628D01*
X027331Y010848D01*
X027831Y010848D01*
X027831Y010708D02*
X027331Y010708D01*
X027331Y010788D02*
X027831Y010788D01*
X027831Y010533D02*
X027831Y010313D01*
X027331Y010313D01*
X027331Y010533D01*
X027831Y010533D01*
X027831Y010393D02*
X027331Y010393D01*
X027331Y010473D02*
X027831Y010473D01*
X027831Y010218D02*
X027831Y009998D01*
X027331Y009998D01*
X027331Y010218D01*
X027831Y010218D01*
X027831Y010078D02*
X027331Y010078D01*
X027331Y010158D02*
X027831Y010158D01*
X027831Y009903D02*
X027831Y009683D01*
X027331Y009683D01*
X027331Y009903D01*
X027831Y009903D01*
X027831Y009763D02*
X027331Y009763D01*
X027331Y009843D02*
X027831Y009843D01*
X027831Y009588D02*
X027831Y009368D01*
X027331Y009368D01*
X027331Y009588D01*
X027831Y009588D01*
X027831Y009448D02*
X027331Y009448D01*
X027331Y009528D02*
X027831Y009528D01*
X027831Y009273D02*
X027831Y009053D01*
X027331Y009053D01*
X027331Y009273D01*
X027831Y009273D01*
X027831Y009133D02*
X027331Y009133D01*
X027331Y009213D02*
X027831Y009213D01*
X028278Y008826D02*
X028278Y008326D01*
X028058Y008326D01*
X028058Y008826D01*
X028278Y008826D01*
X028278Y008406D02*
X028058Y008406D01*
X028058Y008486D02*
X028278Y008486D01*
X028278Y008566D02*
X028058Y008566D01*
X028058Y008646D02*
X028278Y008646D01*
X028278Y008726D02*
X028058Y008726D01*
X028058Y008806D02*
X028278Y008806D01*
X028593Y008826D02*
X028593Y008326D01*
X028373Y008326D01*
X028373Y008826D01*
X028593Y008826D01*
X028593Y008406D02*
X028373Y008406D01*
X028373Y008486D02*
X028593Y008486D01*
X028593Y008566D02*
X028373Y008566D01*
X028373Y008646D02*
X028593Y008646D01*
X028593Y008726D02*
X028373Y008726D01*
X028373Y008806D02*
X028593Y008806D01*
X028908Y008826D02*
X028908Y008326D01*
X028688Y008326D01*
X028688Y008826D01*
X028908Y008826D01*
X028908Y008406D02*
X028688Y008406D01*
X028688Y008486D02*
X028908Y008486D01*
X028908Y008566D02*
X028688Y008566D01*
X028688Y008646D02*
X028908Y008646D01*
X028908Y008726D02*
X028688Y008726D01*
X028688Y008806D02*
X028908Y008806D01*
X029223Y008826D02*
X029223Y008326D01*
X029003Y008326D01*
X029003Y008826D01*
X029223Y008826D01*
X029223Y008406D02*
X029003Y008406D01*
X029003Y008486D02*
X029223Y008486D01*
X029223Y008566D02*
X029003Y008566D01*
X029003Y008646D02*
X029223Y008646D01*
X029223Y008726D02*
X029003Y008726D01*
X029003Y008806D02*
X029223Y008806D01*
X029538Y008826D02*
X029538Y008326D01*
X029318Y008326D01*
X029318Y008826D01*
X029538Y008826D01*
X029538Y008406D02*
X029318Y008406D01*
X029318Y008486D02*
X029538Y008486D01*
X029538Y008566D02*
X029318Y008566D01*
X029318Y008646D02*
X029538Y008646D01*
X029538Y008726D02*
X029318Y008726D01*
X029318Y008806D02*
X029538Y008806D01*
X029853Y008826D02*
X029853Y008326D01*
X029633Y008326D01*
X029633Y008826D01*
X029853Y008826D01*
X029853Y008406D02*
X029633Y008406D01*
X029633Y008486D02*
X029853Y008486D01*
X029853Y008566D02*
X029633Y008566D01*
X029633Y008646D02*
X029853Y008646D01*
X029853Y008726D02*
X029633Y008726D01*
X029633Y008806D02*
X029853Y008806D01*
X030168Y008826D02*
X030168Y008326D01*
X029948Y008326D01*
X029948Y008826D01*
X030168Y008826D01*
X030168Y008406D02*
X029948Y008406D01*
X029948Y008486D02*
X030168Y008486D01*
X030168Y008566D02*
X029948Y008566D01*
X029948Y008646D02*
X030168Y008646D01*
X030168Y008726D02*
X029948Y008726D01*
X029948Y008806D02*
X030168Y008806D01*
X030483Y008826D02*
X030483Y008326D01*
X030263Y008326D01*
X030263Y008826D01*
X030483Y008826D01*
X030483Y008406D02*
X030263Y008406D01*
X030263Y008486D02*
X030483Y008486D01*
X030483Y008566D02*
X030263Y008566D01*
X030263Y008646D02*
X030483Y008646D01*
X030483Y008726D02*
X030263Y008726D01*
X030263Y008806D02*
X030483Y008806D01*
X031211Y009053D02*
X031211Y009273D01*
X031211Y009053D02*
X030711Y009053D01*
X030711Y009273D01*
X031211Y009273D01*
X031211Y009133D02*
X030711Y009133D01*
X030711Y009213D02*
X031211Y009213D01*
X031211Y009368D02*
X031211Y009588D01*
X031211Y009368D02*
X030711Y009368D01*
X030711Y009588D01*
X031211Y009588D01*
X031211Y009448D02*
X030711Y009448D01*
X030711Y009528D02*
X031211Y009528D01*
X031211Y009683D02*
X031211Y009903D01*
X031211Y009683D02*
X030711Y009683D01*
X030711Y009903D01*
X031211Y009903D01*
X031211Y009763D02*
X030711Y009763D01*
X030711Y009843D02*
X031211Y009843D01*
X031211Y009998D02*
X031211Y010218D01*
X031211Y009998D02*
X030711Y009998D01*
X030711Y010218D01*
X031211Y010218D01*
X031211Y010078D02*
X030711Y010078D01*
X030711Y010158D02*
X031211Y010158D01*
X031211Y010313D02*
X031211Y010533D01*
X031211Y010313D02*
X030711Y010313D01*
X030711Y010533D01*
X031211Y010533D01*
X031211Y010393D02*
X030711Y010393D01*
X030711Y010473D02*
X031211Y010473D01*
X031211Y010628D02*
X031211Y010848D01*
X031211Y010628D02*
X030711Y010628D01*
X030711Y010848D01*
X031211Y010848D01*
X031211Y010708D02*
X030711Y010708D01*
X030711Y010788D02*
X031211Y010788D01*
X031211Y010943D02*
X031211Y011163D01*
X031211Y010943D02*
X030711Y010943D01*
X030711Y011163D01*
X031211Y011163D01*
X031211Y011023D02*
X030711Y011023D01*
X030711Y011103D02*
X031211Y011103D01*
X031211Y011258D02*
X031211Y011478D01*
X031211Y011258D02*
X030711Y011258D01*
X030711Y011478D01*
X031211Y011478D01*
X031211Y011338D02*
X030711Y011338D01*
X030711Y011418D02*
X031211Y011418D01*
X030483Y011706D02*
X030483Y012206D01*
X030483Y011706D02*
X030263Y011706D01*
X030263Y012206D01*
X030483Y012206D01*
X030483Y011786D02*
X030263Y011786D01*
X030263Y011866D02*
X030483Y011866D01*
X030483Y011946D02*
X030263Y011946D01*
X030263Y012026D02*
X030483Y012026D01*
X030483Y012106D02*
X030263Y012106D01*
X030263Y012186D02*
X030483Y012186D01*
X030168Y012206D02*
X030168Y011706D01*
X029948Y011706D01*
X029948Y012206D01*
X030168Y012206D01*
X030168Y011786D02*
X029948Y011786D01*
X029948Y011866D02*
X030168Y011866D01*
X030168Y011946D02*
X029948Y011946D01*
X029948Y012026D02*
X030168Y012026D01*
X030168Y012106D02*
X029948Y012106D01*
X029948Y012186D02*
X030168Y012186D01*
X029853Y012206D02*
X029853Y011706D01*
X029633Y011706D01*
X029633Y012206D01*
X029853Y012206D01*
X029853Y011786D02*
X029633Y011786D01*
X029633Y011866D02*
X029853Y011866D01*
X029853Y011946D02*
X029633Y011946D01*
X029633Y012026D02*
X029853Y012026D01*
X029853Y012106D02*
X029633Y012106D01*
X029633Y012186D02*
X029853Y012186D01*
X029538Y012206D02*
X029538Y011706D01*
X029318Y011706D01*
X029318Y012206D01*
X029538Y012206D01*
X029538Y011786D02*
X029318Y011786D01*
X029318Y011866D02*
X029538Y011866D01*
X029538Y011946D02*
X029318Y011946D01*
X029318Y012026D02*
X029538Y012026D01*
X029538Y012106D02*
X029318Y012106D01*
X029318Y012186D02*
X029538Y012186D01*
X029223Y012206D02*
X029223Y011706D01*
X029003Y011706D01*
X029003Y012206D01*
X029223Y012206D01*
X029223Y011786D02*
X029003Y011786D01*
X029003Y011866D02*
X029223Y011866D01*
X029223Y011946D02*
X029003Y011946D01*
X029003Y012026D02*
X029223Y012026D01*
X029223Y012106D02*
X029003Y012106D01*
X029003Y012186D02*
X029223Y012186D01*
X028908Y012206D02*
X028908Y011706D01*
X028688Y011706D01*
X028688Y012206D01*
X028908Y012206D01*
X028908Y011786D02*
X028688Y011786D01*
X028688Y011866D02*
X028908Y011866D01*
X028908Y011946D02*
X028688Y011946D01*
X028688Y012026D02*
X028908Y012026D01*
X028908Y012106D02*
X028688Y012106D01*
X028688Y012186D02*
X028908Y012186D01*
X028593Y012206D02*
X028593Y011706D01*
X028373Y011706D01*
X028373Y012206D01*
X028593Y012206D01*
X028593Y011786D02*
X028373Y011786D01*
X028373Y011866D02*
X028593Y011866D01*
X028593Y011946D02*
X028373Y011946D01*
X028373Y012026D02*
X028593Y012026D01*
X028593Y012106D02*
X028373Y012106D01*
X028373Y012186D02*
X028593Y012186D01*
X028278Y012206D02*
X028278Y011706D01*
X028058Y011706D01*
X028058Y012206D01*
X028278Y012206D01*
X028278Y011786D02*
X028058Y011786D01*
X028058Y011866D02*
X028278Y011866D01*
X028278Y011946D02*
X028058Y011946D01*
X028058Y012026D02*
X028278Y012026D01*
X028278Y012106D02*
X028058Y012106D01*
X028058Y012186D02*
X028278Y012186D01*
D12*
X018804Y016482D02*
X018328Y016482D01*
X018328Y017358D01*
X018804Y017358D01*
X018804Y016482D01*
X018804Y016565D02*
X018328Y016565D01*
X018328Y016648D02*
X018804Y016648D01*
X018804Y016731D02*
X018328Y016731D01*
X018328Y016814D02*
X018804Y016814D01*
X018804Y016897D02*
X018328Y016897D01*
X018328Y016980D02*
X018804Y016980D01*
X018804Y017063D02*
X018328Y017063D01*
X018328Y017146D02*
X018804Y017146D01*
X018804Y017229D02*
X018328Y017229D01*
X018328Y017312D02*
X018804Y017312D01*
X017894Y016482D02*
X017418Y016482D01*
X017418Y017358D01*
X017894Y017358D01*
X017894Y016482D01*
X017894Y016565D02*
X017418Y016565D01*
X017418Y016648D02*
X017894Y016648D01*
X017894Y016731D02*
X017418Y016731D01*
X017418Y016814D02*
X017894Y016814D01*
X017894Y016897D02*
X017418Y016897D01*
X017418Y016980D02*
X017894Y016980D01*
X017894Y017063D02*
X017418Y017063D01*
X017418Y017146D02*
X017894Y017146D01*
X017894Y017229D02*
X017418Y017229D01*
X017418Y017312D02*
X017894Y017312D01*
X016985Y016482D02*
X016509Y016482D01*
X016509Y017358D01*
X016985Y017358D01*
X016985Y016482D01*
X016985Y016565D02*
X016509Y016565D01*
X016509Y016648D02*
X016985Y016648D01*
X016985Y016731D02*
X016509Y016731D01*
X016509Y016814D02*
X016985Y016814D01*
X016985Y016897D02*
X016509Y016897D01*
X016509Y016980D02*
X016985Y016980D01*
X016985Y017063D02*
X016509Y017063D01*
X016509Y017146D02*
X016985Y017146D01*
X016985Y017229D02*
X016509Y017229D01*
X016509Y017312D02*
X016985Y017312D01*
X016753Y004050D02*
X017229Y004050D01*
X017229Y003174D01*
X016753Y003174D01*
X016753Y004050D01*
X016753Y003257D02*
X017229Y003257D01*
X017229Y003340D02*
X016753Y003340D01*
X016753Y003423D02*
X017229Y003423D01*
X017229Y003506D02*
X016753Y003506D01*
X016753Y003589D02*
X017229Y003589D01*
X017229Y003672D02*
X016753Y003672D01*
X016753Y003755D02*
X017229Y003755D01*
X017229Y003838D02*
X016753Y003838D01*
X016753Y003921D02*
X017229Y003921D01*
X017229Y004004D02*
X016753Y004004D01*
X016320Y004050D02*
X015844Y004050D01*
X016320Y004050D02*
X016320Y003174D01*
X015844Y003174D01*
X015844Y004050D01*
X015844Y003257D02*
X016320Y003257D01*
X016320Y003340D02*
X015844Y003340D01*
X015844Y003423D02*
X016320Y003423D01*
X016320Y003506D02*
X015844Y003506D01*
X015844Y003589D02*
X016320Y003589D01*
X016320Y003672D02*
X015844Y003672D01*
X015844Y003755D02*
X016320Y003755D01*
X016320Y003838D02*
X015844Y003838D01*
X015844Y003921D02*
X016320Y003921D01*
X016320Y004004D02*
X015844Y004004D01*
X015410Y004050D02*
X014934Y004050D01*
X015410Y004050D02*
X015410Y003174D01*
X014934Y003174D01*
X014934Y004050D01*
X014934Y003257D02*
X015410Y003257D01*
X015410Y003340D02*
X014934Y003340D01*
X014934Y003423D02*
X015410Y003423D01*
X015410Y003506D02*
X014934Y003506D01*
X014934Y003589D02*
X015410Y003589D01*
X015410Y003672D02*
X014934Y003672D01*
X014934Y003755D02*
X015410Y003755D01*
X015410Y003838D02*
X014934Y003838D01*
X014934Y003921D02*
X015410Y003921D01*
X015410Y004004D02*
X014934Y004004D01*
D13*
X015376Y001603D02*
X016788Y001603D01*
X016788Y000741D01*
X015376Y000741D01*
X015376Y001603D01*
X015376Y000825D02*
X016788Y000825D01*
X016788Y000909D02*
X015376Y000909D01*
X015376Y000993D02*
X016788Y000993D01*
X016788Y001077D02*
X015376Y001077D01*
X015376Y001161D02*
X016788Y001161D01*
X016788Y001245D02*
X015376Y001245D01*
X015376Y001329D02*
X016788Y001329D01*
X016788Y001413D02*
X015376Y001413D01*
X015376Y001497D02*
X016788Y001497D01*
X016788Y001581D02*
X015376Y001581D01*
X016950Y018929D02*
X018362Y018929D01*
X016950Y018929D02*
X016950Y019791D01*
X018362Y019791D01*
X018362Y018929D01*
X018362Y019013D02*
X016950Y019013D01*
X016950Y019097D02*
X018362Y019097D01*
X018362Y019181D02*
X016950Y019181D01*
X016950Y019265D02*
X018362Y019265D01*
X018362Y019349D02*
X016950Y019349D01*
X016950Y019433D02*
X018362Y019433D01*
X018362Y019517D02*
X016950Y019517D01*
X016950Y019601D02*
X018362Y019601D01*
X018362Y019685D02*
X016950Y019685D01*
X016950Y019769D02*
X018362Y019769D01*
D14*
X018957Y015698D02*
X018957Y015070D01*
X018957Y015698D02*
X019505Y015698D01*
X019505Y015070D01*
X018957Y015070D01*
X018957Y015151D02*
X019505Y015151D01*
X019505Y015232D02*
X018957Y015232D01*
X018957Y015313D02*
X019505Y015313D01*
X019505Y015394D02*
X018957Y015394D01*
X018957Y015475D02*
X019505Y015475D01*
X019505Y015556D02*
X018957Y015556D01*
X018957Y015637D02*
X019505Y015637D01*
X019941Y015698D02*
X019941Y015070D01*
X019941Y015698D02*
X020489Y015698D01*
X020489Y015070D01*
X019941Y015070D01*
X019941Y015151D02*
X020489Y015151D01*
X020489Y015232D02*
X019941Y015232D01*
X019941Y015313D02*
X020489Y015313D01*
X020489Y015394D02*
X019941Y015394D01*
X019941Y015475D02*
X020489Y015475D01*
X020489Y015556D02*
X019941Y015556D01*
X019941Y015637D02*
X020489Y015637D01*
X020489Y014517D02*
X020489Y013889D01*
X019941Y013889D01*
X019941Y014517D01*
X020489Y014517D01*
X020489Y013970D02*
X019941Y013970D01*
X019941Y014051D02*
X020489Y014051D01*
X020489Y014132D02*
X019941Y014132D01*
X019941Y014213D02*
X020489Y014213D01*
X020489Y014294D02*
X019941Y014294D01*
X019941Y014375D02*
X020489Y014375D01*
X020489Y014456D02*
X019941Y014456D01*
X019505Y014517D02*
X019505Y013889D01*
X018957Y013889D01*
X018957Y014517D01*
X019505Y014517D01*
X019505Y013970D02*
X018957Y013970D01*
X018957Y014051D02*
X019505Y014051D01*
X019505Y014132D02*
X018957Y014132D01*
X018957Y014213D02*
X019505Y014213D01*
X019505Y014294D02*
X018957Y014294D01*
X018957Y014375D02*
X019505Y014375D01*
X019505Y014456D02*
X018957Y014456D01*
X027972Y015110D02*
X028600Y015110D01*
X027972Y015110D02*
X027972Y015658D01*
X028600Y015658D01*
X028600Y015110D01*
X028600Y015191D02*
X027972Y015191D01*
X027972Y015272D02*
X028600Y015272D01*
X028600Y015353D02*
X027972Y015353D01*
X027972Y015434D02*
X028600Y015434D01*
X028600Y015515D02*
X027972Y015515D01*
X027972Y015596D02*
X028600Y015596D01*
X029153Y015658D02*
X029781Y015658D01*
X029781Y015110D01*
X029153Y015110D01*
X029153Y015658D01*
X029153Y015191D02*
X029781Y015191D01*
X029781Y015272D02*
X029153Y015272D01*
X029153Y015353D02*
X029781Y015353D01*
X029781Y015434D02*
X029153Y015434D01*
X029153Y015515D02*
X029781Y015515D01*
X029781Y015596D02*
X029153Y015596D01*
X025650Y007037D02*
X025650Y006409D01*
X025650Y007037D02*
X026198Y007037D01*
X026198Y006409D01*
X025650Y006409D01*
X025650Y006490D02*
X026198Y006490D01*
X026198Y006571D02*
X025650Y006571D01*
X025650Y006652D02*
X026198Y006652D01*
X026198Y006733D02*
X025650Y006733D01*
X025650Y006814D02*
X026198Y006814D01*
X026198Y006895D02*
X025650Y006895D01*
X025650Y006976D02*
X026198Y006976D01*
X026198Y005855D02*
X026198Y005227D01*
X025650Y005227D01*
X025650Y005855D01*
X026198Y005855D01*
X026198Y005308D02*
X025650Y005308D01*
X025650Y005389D02*
X026198Y005389D01*
X026198Y005470D02*
X025650Y005470D01*
X025650Y005551D02*
X026198Y005551D01*
X026198Y005632D02*
X025650Y005632D01*
X025650Y005713D02*
X026198Y005713D01*
X026198Y005794D02*
X025650Y005794D01*
X018760Y005818D02*
X018760Y006446D01*
X019308Y006446D01*
X019308Y005818D01*
X018760Y005818D01*
X018760Y005899D02*
X019308Y005899D01*
X019308Y005980D02*
X018760Y005980D01*
X018760Y006061D02*
X019308Y006061D01*
X019308Y006142D02*
X018760Y006142D01*
X018760Y006223D02*
X019308Y006223D01*
X019308Y006304D02*
X018760Y006304D01*
X018760Y006385D02*
X019308Y006385D01*
X017776Y006446D02*
X017776Y005818D01*
X017776Y006446D02*
X018324Y006446D01*
X018324Y005818D01*
X017776Y005818D01*
X017776Y005899D02*
X018324Y005899D01*
X018324Y005980D02*
X017776Y005980D01*
X017776Y006061D02*
X018324Y006061D01*
X018324Y006142D02*
X017776Y006142D01*
X017776Y006223D02*
X018324Y006223D01*
X018324Y006304D02*
X017776Y006304D01*
X017776Y006385D02*
X018324Y006385D01*
X018324Y005265D02*
X018324Y004637D01*
X017776Y004637D01*
X017776Y005265D01*
X018324Y005265D01*
X018324Y004718D02*
X017776Y004718D01*
X017776Y004799D02*
X018324Y004799D01*
X018324Y004880D02*
X017776Y004880D01*
X017776Y004961D02*
X018324Y004961D01*
X018324Y005042D02*
X017776Y005042D01*
X017776Y005123D02*
X018324Y005123D01*
X018324Y005204D02*
X017776Y005204D01*
X019308Y005265D02*
X019308Y004637D01*
X018760Y004637D01*
X018760Y005265D01*
X019308Y005265D01*
X019308Y004718D02*
X018760Y004718D01*
X018760Y004799D02*
X019308Y004799D01*
X019308Y004880D02*
X018760Y004880D01*
X018760Y004961D02*
X019308Y004961D01*
X019308Y005042D02*
X018760Y005042D01*
X018760Y005123D02*
X019308Y005123D01*
X019308Y005204D02*
X018760Y005204D01*
D15*
X014070Y008516D03*
X013070Y009016D03*
X014070Y009516D03*
X013070Y010016D03*
X014070Y011516D03*
X015070Y012016D03*
X014070Y012516D03*
X013070Y012016D03*
D16*
X013070Y008016D03*
D17*
X011770Y007616D03*
X011770Y012916D03*
D18*
X010570Y012516D03*
X010570Y008016D03*
D19*
X015970Y008116D03*
X015970Y009116D03*
X015970Y011416D03*
X015970Y012416D03*
D20*
X013347Y014695D02*
X012714Y014695D01*
X010788Y014695D02*
X010154Y014695D01*
X010154Y016467D02*
X010788Y016467D01*
X012714Y016467D02*
X013347Y016467D01*
D21*
X015000Y015619D02*
X015000Y015109D01*
X015000Y015619D02*
X015588Y015619D01*
X015588Y015109D01*
X015000Y015109D01*
X015000Y015191D02*
X015588Y015191D01*
X015588Y015273D02*
X015000Y015273D01*
X015000Y015355D02*
X015588Y015355D01*
X015588Y015437D02*
X015000Y015437D01*
X015000Y015519D02*
X015588Y015519D01*
X015588Y015601D02*
X015000Y015601D01*
X015964Y015619D02*
X015964Y015109D01*
X015964Y015619D02*
X016592Y015619D01*
X016592Y015109D01*
X015964Y015109D01*
X015964Y015191D02*
X016592Y015191D01*
X016592Y015273D02*
X015964Y015273D01*
X015964Y015355D02*
X016592Y015355D01*
X016592Y015437D02*
X015964Y015437D01*
X015964Y015519D02*
X016592Y015519D01*
X016592Y015601D02*
X015964Y015601D01*
X017577Y015619D02*
X017577Y015109D01*
X016949Y015109D01*
X016949Y015619D01*
X017577Y015619D01*
X017577Y015191D02*
X016949Y015191D01*
X016949Y015273D02*
X017577Y015273D01*
X017577Y015355D02*
X016949Y015355D01*
X016949Y015437D02*
X017577Y015437D01*
X017577Y015519D02*
X016949Y015519D01*
X016949Y015601D02*
X017577Y015601D01*
X018561Y015619D02*
X018561Y015109D01*
X017933Y015109D01*
X017933Y015619D01*
X018561Y015619D01*
X018561Y015191D02*
X017933Y015191D01*
X017933Y015273D02*
X018561Y015273D01*
X018561Y015355D02*
X017933Y015355D01*
X017933Y015437D02*
X018561Y015437D01*
X018561Y015519D02*
X017933Y015519D01*
X017933Y015601D02*
X018561Y015601D01*
X018561Y014871D02*
X018561Y014361D01*
X017933Y014361D01*
X017933Y014871D01*
X018561Y014871D01*
X018561Y014443D02*
X017933Y014443D01*
X017933Y014525D02*
X018561Y014525D01*
X018561Y014607D02*
X017933Y014607D01*
X017933Y014689D02*
X018561Y014689D01*
X018561Y014771D02*
X017933Y014771D01*
X017933Y014853D02*
X018561Y014853D01*
X017577Y014871D02*
X017577Y014361D01*
X016949Y014361D01*
X016949Y014871D01*
X017577Y014871D01*
X017577Y014443D02*
X016949Y014443D01*
X016949Y014525D02*
X017577Y014525D01*
X017577Y014607D02*
X016949Y014607D01*
X016949Y014689D02*
X017577Y014689D01*
X017577Y014771D02*
X016949Y014771D01*
X016949Y014853D02*
X017577Y014853D01*
X015964Y014871D02*
X015964Y014361D01*
X015964Y014871D02*
X016592Y014871D01*
X016592Y014361D01*
X015964Y014361D01*
X015964Y014443D02*
X016592Y014443D01*
X016592Y014525D02*
X015964Y014525D01*
X015964Y014607D02*
X016592Y014607D01*
X016592Y014689D02*
X015964Y014689D01*
X015964Y014771D02*
X016592Y014771D01*
X016592Y014853D02*
X015964Y014853D01*
X015000Y014871D02*
X015000Y014361D01*
X015000Y014871D02*
X015588Y014871D01*
X015588Y014361D01*
X015000Y014361D01*
X015000Y014443D02*
X015588Y014443D01*
X015588Y014525D02*
X015000Y014525D01*
X015000Y014607D02*
X015588Y014607D01*
X015588Y014689D02*
X015000Y014689D01*
X015000Y014771D02*
X015588Y014771D01*
X015588Y014853D02*
X015000Y014853D01*
X015374Y016330D02*
X015374Y016840D01*
X016002Y016840D01*
X016002Y016330D01*
X015374Y016330D01*
X015374Y016412D02*
X016002Y016412D01*
X016002Y016494D02*
X015374Y016494D01*
X015374Y016576D02*
X016002Y016576D01*
X016002Y016658D02*
X015374Y016658D01*
X015374Y016740D02*
X016002Y016740D01*
X016002Y016822D02*
X015374Y016822D01*
X015374Y017078D02*
X015374Y017588D01*
X016002Y017588D01*
X016002Y017078D01*
X015374Y017078D01*
X015374Y017160D02*
X016002Y017160D01*
X016002Y017242D02*
X015374Y017242D01*
X015374Y017324D02*
X016002Y017324D01*
X016002Y017406D02*
X015374Y017406D01*
X015374Y017488D02*
X016002Y017488D01*
X016002Y017570D02*
X015374Y017570D01*
X015453Y018749D02*
X015923Y018749D01*
X015923Y018279D01*
X015453Y018279D01*
X015453Y018749D01*
X015453Y018361D02*
X015923Y018361D01*
X015923Y018443D02*
X015453Y018443D01*
X015453Y018525D02*
X015923Y018525D01*
X015923Y018607D02*
X015453Y018607D01*
X015453Y018689D02*
X015923Y018689D01*
X015923Y019576D02*
X015453Y019576D01*
X015923Y019576D02*
X015923Y019106D01*
X015453Y019106D01*
X015453Y019576D01*
X015453Y019188D02*
X015923Y019188D01*
X015923Y019270D02*
X015453Y019270D01*
X015453Y019352D02*
X015923Y019352D01*
X015923Y019434D02*
X015453Y019434D01*
X015453Y019516D02*
X015923Y019516D01*
X020965Y016741D02*
X021435Y016741D01*
X021435Y016271D01*
X020965Y016271D01*
X020965Y016741D01*
X020965Y016353D02*
X021435Y016353D01*
X021435Y016435D02*
X020965Y016435D01*
X020965Y016517D02*
X021435Y016517D01*
X021435Y016599D02*
X020965Y016599D01*
X020965Y016681D02*
X021435Y016681D01*
X021949Y016741D02*
X022419Y016741D01*
X022419Y016271D01*
X021949Y016271D01*
X021949Y016741D01*
X021949Y016353D02*
X022419Y016353D01*
X022419Y016435D02*
X021949Y016435D01*
X021949Y016517D02*
X022419Y016517D01*
X022419Y016599D02*
X021949Y016599D01*
X021949Y016681D02*
X022419Y016681D01*
X022933Y016741D02*
X023403Y016741D01*
X023403Y016271D01*
X022933Y016271D01*
X022933Y016741D01*
X022933Y016353D02*
X023403Y016353D01*
X023403Y016435D02*
X022933Y016435D01*
X022933Y016517D02*
X023403Y016517D01*
X023403Y016599D02*
X022933Y016599D01*
X022933Y016681D02*
X023403Y016681D01*
X023917Y016741D02*
X024387Y016741D01*
X024387Y016271D01*
X023917Y016271D01*
X023917Y016741D01*
X023917Y016353D02*
X024387Y016353D01*
X024387Y016435D02*
X023917Y016435D01*
X023917Y016517D02*
X024387Y016517D01*
X024387Y016599D02*
X023917Y016599D01*
X023917Y016681D02*
X024387Y016681D01*
X024387Y015914D02*
X023917Y015914D01*
X024387Y015914D02*
X024387Y015444D01*
X023917Y015444D01*
X023917Y015914D01*
X023917Y015526D02*
X024387Y015526D01*
X024387Y015608D02*
X023917Y015608D01*
X023917Y015690D02*
X024387Y015690D01*
X024387Y015772D02*
X023917Y015772D01*
X023917Y015854D02*
X024387Y015854D01*
X025648Y015619D02*
X025648Y015109D01*
X025020Y015109D01*
X025020Y015619D01*
X025648Y015619D01*
X025648Y015191D02*
X025020Y015191D01*
X025020Y015273D02*
X025648Y015273D01*
X025648Y015355D02*
X025020Y015355D01*
X025020Y015437D02*
X025648Y015437D01*
X025648Y015519D02*
X025020Y015519D01*
X025020Y015601D02*
X025648Y015601D01*
X024466Y015226D02*
X024466Y014716D01*
X023838Y014716D01*
X023838Y015226D01*
X024466Y015226D01*
X024466Y014798D02*
X023838Y014798D01*
X023838Y014880D02*
X024466Y014880D01*
X024466Y014962D02*
X023838Y014962D01*
X023838Y015044D02*
X024466Y015044D01*
X024466Y015126D02*
X023838Y015126D01*
X023838Y015208D02*
X024466Y015208D01*
X025648Y014871D02*
X025648Y014361D01*
X025020Y014361D01*
X025020Y014871D01*
X025648Y014871D01*
X025648Y014443D02*
X025020Y014443D01*
X025020Y014525D02*
X025648Y014525D01*
X025648Y014607D02*
X025020Y014607D01*
X025020Y014689D02*
X025648Y014689D01*
X025648Y014771D02*
X025020Y014771D01*
X025020Y014853D02*
X025648Y014853D01*
X024466Y014478D02*
X024466Y013968D01*
X023838Y013968D01*
X023838Y014478D01*
X024466Y014478D01*
X024466Y014050D02*
X023838Y014050D01*
X023838Y014132D02*
X024466Y014132D01*
X024466Y014214D02*
X023838Y014214D01*
X023838Y014296D02*
X024466Y014296D01*
X024466Y014378D02*
X023838Y014378D01*
X023838Y014460D02*
X024466Y014460D01*
X023482Y014478D02*
X023482Y013968D01*
X022854Y013968D01*
X022854Y014478D01*
X023482Y014478D01*
X023482Y014050D02*
X022854Y014050D01*
X022854Y014132D02*
X023482Y014132D01*
X023482Y014214D02*
X022854Y014214D01*
X022854Y014296D02*
X023482Y014296D01*
X023482Y014378D02*
X022854Y014378D01*
X022854Y014460D02*
X023482Y014460D01*
X023482Y014716D02*
X023482Y015226D01*
X023482Y014716D02*
X022854Y014716D01*
X022854Y015226D01*
X023482Y015226D01*
X023482Y014798D02*
X022854Y014798D01*
X022854Y014880D02*
X023482Y014880D01*
X023482Y014962D02*
X022854Y014962D01*
X022854Y015044D02*
X023482Y015044D01*
X023482Y015126D02*
X022854Y015126D01*
X022854Y015208D02*
X023482Y015208D01*
X023403Y015914D02*
X022933Y015914D01*
X023403Y015914D02*
X023403Y015444D01*
X022933Y015444D01*
X022933Y015914D01*
X022933Y015526D02*
X023403Y015526D01*
X023403Y015608D02*
X022933Y015608D01*
X022933Y015690D02*
X023403Y015690D01*
X023403Y015772D02*
X022933Y015772D01*
X022933Y015854D02*
X023403Y015854D01*
X022419Y015914D02*
X021949Y015914D01*
X022419Y015914D02*
X022419Y015444D01*
X021949Y015444D01*
X021949Y015914D01*
X021949Y015526D02*
X022419Y015526D01*
X022419Y015608D02*
X021949Y015608D01*
X021949Y015690D02*
X022419Y015690D01*
X022419Y015772D02*
X021949Y015772D01*
X021949Y015854D02*
X022419Y015854D01*
X021435Y015914D02*
X020965Y015914D01*
X021435Y015914D02*
X021435Y015444D01*
X020965Y015444D01*
X020965Y015914D01*
X020965Y015526D02*
X021435Y015526D01*
X021435Y015608D02*
X020965Y015608D01*
X020965Y015690D02*
X021435Y015690D01*
X021435Y015772D02*
X020965Y015772D01*
X020965Y015854D02*
X021435Y015854D01*
X021514Y015226D02*
X021514Y014716D01*
X020886Y014716D01*
X020886Y015226D01*
X021514Y015226D01*
X021514Y014798D02*
X020886Y014798D01*
X020886Y014880D02*
X021514Y014880D01*
X021514Y014962D02*
X020886Y014962D01*
X020886Y015044D02*
X021514Y015044D01*
X021514Y015126D02*
X020886Y015126D01*
X020886Y015208D02*
X021514Y015208D01*
X022498Y015226D02*
X022498Y014716D01*
X021870Y014716D01*
X021870Y015226D01*
X022498Y015226D01*
X022498Y014798D02*
X021870Y014798D01*
X021870Y014880D02*
X022498Y014880D01*
X022498Y014962D02*
X021870Y014962D01*
X021870Y015044D02*
X022498Y015044D01*
X022498Y015126D02*
X021870Y015126D01*
X021870Y015208D02*
X022498Y015208D01*
X022498Y014478D02*
X022498Y013968D01*
X021870Y013968D01*
X021870Y014478D01*
X022498Y014478D01*
X022498Y014050D02*
X021870Y014050D01*
X021870Y014132D02*
X022498Y014132D01*
X022498Y014214D02*
X021870Y014214D01*
X021870Y014296D02*
X022498Y014296D01*
X022498Y014378D02*
X021870Y014378D01*
X021870Y014460D02*
X022498Y014460D01*
X021514Y014478D02*
X021514Y013968D01*
X020886Y013968D01*
X020886Y014478D01*
X021514Y014478D01*
X021514Y014050D02*
X020886Y014050D01*
X020886Y014132D02*
X021514Y014132D01*
X021514Y014214D02*
X020886Y014214D01*
X020886Y014296D02*
X021514Y014296D01*
X021514Y014378D02*
X020886Y014378D01*
X020886Y014460D02*
X021514Y014460D01*
X018482Y013533D02*
X017972Y013533D01*
X018482Y013533D02*
X018482Y012905D01*
X017972Y012905D01*
X017972Y013533D01*
X017972Y012987D02*
X018482Y012987D01*
X018482Y013069D02*
X017972Y013069D01*
X017972Y013151D02*
X018482Y013151D01*
X018482Y013233D02*
X017972Y013233D01*
X017972Y013315D02*
X018482Y013315D01*
X018482Y013397D02*
X017972Y013397D01*
X017972Y013479D02*
X018482Y013479D01*
X017734Y013533D02*
X017224Y013533D01*
X017734Y013533D02*
X017734Y012905D01*
X017224Y012905D01*
X017224Y013533D01*
X017224Y012987D02*
X017734Y012987D01*
X017734Y013069D02*
X017224Y013069D01*
X017224Y013151D02*
X017734Y013151D01*
X017734Y013233D02*
X017224Y013233D01*
X017224Y013315D02*
X017734Y013315D01*
X017734Y013397D02*
X017224Y013397D01*
X017224Y013479D02*
X017734Y013479D01*
X017734Y012351D02*
X017224Y012351D01*
X017734Y012351D02*
X017734Y011723D01*
X017224Y011723D01*
X017224Y012351D01*
X017224Y011805D02*
X017734Y011805D01*
X017734Y011887D02*
X017224Y011887D01*
X017224Y011969D02*
X017734Y011969D01*
X017734Y012051D02*
X017224Y012051D01*
X017224Y012133D02*
X017734Y012133D01*
X017734Y012215D02*
X017224Y012215D01*
X017224Y012297D02*
X017734Y012297D01*
X017972Y012351D02*
X018482Y012351D01*
X018482Y011723D01*
X017972Y011723D01*
X017972Y012351D01*
X017972Y011805D02*
X018482Y011805D01*
X018482Y011887D02*
X017972Y011887D01*
X017972Y011969D02*
X018482Y011969D01*
X018482Y012051D02*
X017972Y012051D01*
X017972Y012133D02*
X018482Y012133D01*
X018482Y012215D02*
X017972Y012215D01*
X017972Y012297D02*
X018482Y012297D01*
X018482Y008200D02*
X017972Y008200D01*
X017972Y008788D01*
X018482Y008788D01*
X018482Y008200D01*
X018482Y008282D02*
X017972Y008282D01*
X017972Y008364D02*
X018482Y008364D01*
X018482Y008446D02*
X017972Y008446D01*
X017972Y008528D02*
X018482Y008528D01*
X018482Y008610D02*
X017972Y008610D01*
X017972Y008692D02*
X018482Y008692D01*
X018482Y008774D02*
X017972Y008774D01*
X017734Y008200D02*
X017224Y008200D01*
X017224Y008788D01*
X017734Y008788D01*
X017734Y008200D01*
X017734Y008282D02*
X017224Y008282D01*
X017224Y008364D02*
X017734Y008364D01*
X017734Y008446D02*
X017224Y008446D01*
X017224Y008528D02*
X017734Y008528D01*
X017734Y008610D02*
X017224Y008610D01*
X017224Y008692D02*
X017734Y008692D01*
X017734Y008774D02*
X017224Y008774D01*
X017224Y007627D02*
X017734Y007627D01*
X017734Y006999D01*
X017224Y006999D01*
X017224Y007627D01*
X017224Y007081D02*
X017734Y007081D01*
X017734Y007163D02*
X017224Y007163D01*
X017224Y007245D02*
X017734Y007245D01*
X017734Y007327D02*
X017224Y007327D01*
X017224Y007409D02*
X017734Y007409D01*
X017734Y007491D02*
X017224Y007491D01*
X017224Y007573D02*
X017734Y007573D01*
X017972Y007627D02*
X018482Y007627D01*
X018482Y006999D01*
X017972Y006999D01*
X017972Y007627D01*
X017972Y007081D02*
X018482Y007081D01*
X018482Y007163D02*
X017972Y007163D01*
X017972Y007245D02*
X018482Y007245D01*
X018482Y007327D02*
X017972Y007327D01*
X017972Y007409D02*
X018482Y007409D01*
X018482Y007491D02*
X017972Y007491D01*
X017972Y007573D02*
X018482Y007573D01*
X020118Y006761D02*
X020118Y006251D01*
X020118Y006761D02*
X020706Y006761D01*
X020706Y006251D01*
X020118Y006251D01*
X020118Y006333D02*
X020706Y006333D01*
X020706Y006415D02*
X020118Y006415D01*
X020118Y006497D02*
X020706Y006497D01*
X020706Y006579D02*
X020118Y006579D01*
X020118Y006661D02*
X020706Y006661D01*
X020706Y006743D02*
X020118Y006743D01*
X021103Y006761D02*
X021103Y006251D01*
X021103Y006761D02*
X021691Y006761D01*
X021691Y006251D01*
X021103Y006251D01*
X021103Y006333D02*
X021691Y006333D01*
X021691Y006415D02*
X021103Y006415D01*
X021103Y006497D02*
X021691Y006497D01*
X021691Y006579D02*
X021103Y006579D01*
X021103Y006661D02*
X021691Y006661D01*
X021691Y006743D02*
X021103Y006743D01*
X022067Y006761D02*
X022067Y006251D01*
X022067Y006761D02*
X022695Y006761D01*
X022695Y006251D01*
X022067Y006251D01*
X022067Y006333D02*
X022695Y006333D01*
X022695Y006415D02*
X022067Y006415D01*
X022067Y006497D02*
X022695Y006497D01*
X022695Y006579D02*
X022067Y006579D01*
X022067Y006661D02*
X022695Y006661D01*
X022695Y006743D02*
X022067Y006743D01*
X022067Y006013D02*
X022067Y005503D01*
X022067Y006013D02*
X022695Y006013D01*
X022695Y005503D01*
X022067Y005503D01*
X022067Y005585D02*
X022695Y005585D01*
X022695Y005667D02*
X022067Y005667D01*
X022067Y005749D02*
X022695Y005749D01*
X022695Y005831D02*
X022067Y005831D01*
X022067Y005913D02*
X022695Y005913D01*
X022695Y005995D02*
X022067Y005995D01*
X021103Y006013D02*
X021103Y005503D01*
X021103Y006013D02*
X021691Y006013D01*
X021691Y005503D01*
X021103Y005503D01*
X021103Y005585D02*
X021691Y005585D01*
X021691Y005667D02*
X021103Y005667D01*
X021103Y005749D02*
X021691Y005749D01*
X021691Y005831D02*
X021103Y005831D01*
X021103Y005913D02*
X021691Y005913D01*
X021691Y005995D02*
X021103Y005995D01*
X020118Y006013D02*
X020118Y005503D01*
X020118Y006013D02*
X020706Y006013D01*
X020706Y005503D01*
X020118Y005503D01*
X020118Y005585D02*
X020706Y005585D01*
X020706Y005667D02*
X020118Y005667D01*
X020118Y005749D02*
X020706Y005749D01*
X020706Y005831D02*
X020118Y005831D01*
X020118Y005913D02*
X020706Y005913D01*
X020706Y005995D02*
X020118Y005995D01*
X016772Y005974D02*
X016772Y005464D01*
X016772Y005974D02*
X017360Y005974D01*
X017360Y005464D01*
X016772Y005464D01*
X016772Y005546D02*
X017360Y005546D01*
X017360Y005628D02*
X016772Y005628D01*
X016772Y005710D02*
X017360Y005710D01*
X017360Y005792D02*
X016772Y005792D01*
X016772Y005874D02*
X017360Y005874D01*
X017360Y005956D02*
X016772Y005956D01*
X016396Y005974D02*
X016396Y005464D01*
X015768Y005464D01*
X015768Y005974D01*
X016396Y005974D01*
X016396Y005546D02*
X015768Y005546D01*
X015768Y005628D02*
X016396Y005628D01*
X016396Y005710D02*
X015768Y005710D01*
X015768Y005792D02*
X016396Y005792D01*
X016396Y005874D02*
X015768Y005874D01*
X015768Y005956D02*
X016396Y005956D01*
X014783Y005974D02*
X014783Y005464D01*
X014783Y005974D02*
X015411Y005974D01*
X015411Y005464D01*
X014783Y005464D01*
X014783Y005546D02*
X015411Y005546D01*
X015411Y005628D02*
X014783Y005628D01*
X014783Y005710D02*
X015411Y005710D01*
X015411Y005792D02*
X014783Y005792D01*
X014783Y005874D02*
X015411Y005874D01*
X015411Y005956D02*
X014783Y005956D01*
X014783Y005226D02*
X014783Y004716D01*
X014783Y005226D02*
X015411Y005226D01*
X015411Y004716D01*
X014783Y004716D01*
X014783Y004798D02*
X015411Y004798D01*
X015411Y004880D02*
X014783Y004880D01*
X014783Y004962D02*
X015411Y004962D01*
X015411Y005044D02*
X014783Y005044D01*
X014783Y005126D02*
X015411Y005126D01*
X015411Y005208D02*
X014783Y005208D01*
X016396Y005226D02*
X016396Y004716D01*
X015768Y004716D01*
X015768Y005226D01*
X016396Y005226D01*
X016396Y004798D02*
X015768Y004798D01*
X015768Y004880D02*
X016396Y004880D01*
X016396Y004962D02*
X015768Y004962D01*
X015768Y005044D02*
X016396Y005044D01*
X016396Y005126D02*
X015768Y005126D01*
X015768Y005208D02*
X016396Y005208D01*
X016772Y005226D02*
X016772Y004716D01*
X016772Y005226D02*
X017360Y005226D01*
X017360Y004716D01*
X016772Y004716D01*
X016772Y004798D02*
X017360Y004798D01*
X017360Y004880D02*
X016772Y004880D01*
X016772Y004962D02*
X017360Y004962D01*
X017360Y005044D02*
X016772Y005044D01*
X016772Y005126D02*
X017360Y005126D01*
X017360Y005208D02*
X016772Y005208D01*
X018364Y004202D02*
X018364Y003692D01*
X017736Y003692D01*
X017736Y004202D01*
X018364Y004202D01*
X018364Y003774D02*
X017736Y003774D01*
X017736Y003856D02*
X018364Y003856D01*
X018364Y003938D02*
X017736Y003938D01*
X017736Y004020D02*
X018364Y004020D01*
X018364Y004102D02*
X017736Y004102D01*
X017736Y004184D02*
X018364Y004184D01*
X018720Y004202D02*
X018720Y003692D01*
X018720Y004202D02*
X019348Y004202D01*
X019348Y003692D01*
X018720Y003692D01*
X018720Y003774D02*
X019348Y003774D01*
X019348Y003856D02*
X018720Y003856D01*
X018720Y003938D02*
X019348Y003938D01*
X019348Y004020D02*
X018720Y004020D01*
X018720Y004102D02*
X019348Y004102D01*
X019348Y004184D02*
X018720Y004184D01*
X018720Y003454D02*
X018720Y002944D01*
X018720Y003454D02*
X019348Y003454D01*
X019348Y002944D01*
X018720Y002944D01*
X018720Y003026D02*
X019348Y003026D01*
X019348Y003108D02*
X018720Y003108D01*
X018720Y003190D02*
X019348Y003190D01*
X019348Y003272D02*
X018720Y003272D01*
X018720Y003354D02*
X019348Y003354D01*
X019348Y003436D02*
X018720Y003436D01*
X018364Y003454D02*
X018364Y002944D01*
X017736Y002944D01*
X017736Y003454D01*
X018364Y003454D01*
X018364Y003026D02*
X017736Y003026D01*
X017736Y003108D02*
X018364Y003108D01*
X018364Y003190D02*
X017736Y003190D01*
X017736Y003272D02*
X018364Y003272D01*
X018364Y003354D02*
X017736Y003354D01*
X017736Y003436D02*
X018364Y003436D01*
X018285Y001783D02*
X017815Y001783D01*
X017815Y002253D01*
X018285Y002253D01*
X018285Y001783D01*
X018285Y001865D02*
X017815Y001865D01*
X017815Y001947D02*
X018285Y001947D01*
X018285Y002029D02*
X017815Y002029D01*
X017815Y002111D02*
X018285Y002111D01*
X018285Y002193D02*
X017815Y002193D01*
X019722Y002233D02*
X019722Y001723D01*
X019134Y001723D01*
X019134Y002233D01*
X019722Y002233D01*
X019722Y001805D02*
X019134Y001805D01*
X019134Y001887D02*
X019722Y001887D01*
X019722Y001969D02*
X019134Y001969D01*
X019134Y002051D02*
X019722Y002051D01*
X019722Y002133D02*
X019134Y002133D01*
X019134Y002215D02*
X019722Y002215D01*
X020098Y002233D02*
X020098Y001723D01*
X020098Y002233D02*
X020726Y002233D01*
X020726Y001723D01*
X020098Y001723D01*
X020098Y001805D02*
X020726Y001805D01*
X020726Y001887D02*
X020098Y001887D01*
X020098Y001969D02*
X020726Y001969D01*
X020726Y002051D02*
X020098Y002051D01*
X020098Y002133D02*
X020726Y002133D01*
X020726Y002215D02*
X020098Y002215D01*
X020098Y001485D02*
X020098Y000975D01*
X020098Y001485D02*
X020726Y001485D01*
X020726Y000975D01*
X020098Y000975D01*
X020098Y001057D02*
X020726Y001057D01*
X020726Y001139D02*
X020098Y001139D01*
X020098Y001221D02*
X020726Y001221D01*
X020726Y001303D02*
X020098Y001303D01*
X020098Y001385D02*
X020726Y001385D01*
X020726Y001467D02*
X020098Y001467D01*
X019722Y001485D02*
X019722Y000975D01*
X019134Y000975D01*
X019134Y001485D01*
X019722Y001485D01*
X019722Y001057D02*
X019134Y001057D01*
X019134Y001139D02*
X019722Y001139D01*
X019722Y001221D02*
X019134Y001221D01*
X019134Y001303D02*
X019722Y001303D01*
X019722Y001385D02*
X019134Y001385D01*
X019134Y001467D02*
X019722Y001467D01*
X021103Y001485D02*
X021103Y000975D01*
X021103Y001485D02*
X021691Y001485D01*
X021691Y000975D01*
X021103Y000975D01*
X021103Y001057D02*
X021691Y001057D01*
X021691Y001139D02*
X021103Y001139D01*
X021103Y001221D02*
X021691Y001221D01*
X021691Y001303D02*
X021103Y001303D01*
X021103Y001385D02*
X021691Y001385D01*
X021691Y001467D02*
X021103Y001467D01*
X021103Y001723D02*
X021103Y002233D01*
X021691Y002233D01*
X021691Y001723D01*
X021103Y001723D01*
X021103Y001805D02*
X021691Y001805D01*
X021691Y001887D02*
X021103Y001887D01*
X021103Y001969D02*
X021691Y001969D01*
X021691Y002051D02*
X021103Y002051D01*
X021103Y002133D02*
X021691Y002133D01*
X021691Y002215D02*
X021103Y002215D01*
X022087Y002233D02*
X022087Y001723D01*
X022087Y002233D02*
X022675Y002233D01*
X022675Y001723D01*
X022087Y001723D01*
X022087Y001805D02*
X022675Y001805D01*
X022675Y001887D02*
X022087Y001887D01*
X022087Y001969D02*
X022675Y001969D01*
X022675Y002051D02*
X022087Y002051D01*
X022087Y002133D02*
X022675Y002133D01*
X022675Y002215D02*
X022087Y002215D01*
X022087Y001485D02*
X022087Y000975D01*
X022087Y001485D02*
X022675Y001485D01*
X022675Y000975D01*
X022087Y000975D01*
X022087Y001057D02*
X022675Y001057D01*
X022675Y001139D02*
X022087Y001139D01*
X022087Y001221D02*
X022675Y001221D01*
X022675Y001303D02*
X022087Y001303D01*
X022087Y001385D02*
X022675Y001385D01*
X022675Y001467D02*
X022087Y001467D01*
X023051Y001485D02*
X023051Y000975D01*
X023051Y001485D02*
X023679Y001485D01*
X023679Y000975D01*
X023051Y000975D01*
X023051Y001057D02*
X023679Y001057D01*
X023679Y001139D02*
X023051Y001139D01*
X023051Y001221D02*
X023679Y001221D01*
X023679Y001303D02*
X023051Y001303D01*
X023051Y001385D02*
X023679Y001385D01*
X023679Y001467D02*
X023051Y001467D01*
X023051Y001723D02*
X023051Y002233D01*
X023679Y002233D01*
X023679Y001723D01*
X023051Y001723D01*
X023051Y001805D02*
X023679Y001805D01*
X023679Y001887D02*
X023051Y001887D01*
X023051Y001969D02*
X023679Y001969D01*
X023679Y002051D02*
X023051Y002051D01*
X023051Y002133D02*
X023679Y002133D01*
X023679Y002215D02*
X023051Y002215D01*
X024643Y002233D02*
X024643Y001723D01*
X024055Y001723D01*
X024055Y002233D01*
X024643Y002233D01*
X024643Y001805D02*
X024055Y001805D01*
X024055Y001887D02*
X024643Y001887D01*
X024643Y001969D02*
X024055Y001969D01*
X024055Y002051D02*
X024643Y002051D01*
X024643Y002133D02*
X024055Y002133D01*
X024055Y002215D02*
X024643Y002215D01*
X024643Y001485D02*
X024643Y000975D01*
X024055Y000975D01*
X024055Y001485D01*
X024643Y001485D01*
X024643Y001057D02*
X024055Y001057D01*
X024055Y001139D02*
X024643Y001139D01*
X024643Y001221D02*
X024055Y001221D01*
X024055Y001303D02*
X024643Y001303D01*
X024643Y001385D02*
X024055Y001385D01*
X024055Y001467D02*
X024643Y001467D01*
X024449Y003928D02*
X024449Y004438D01*
X025037Y004438D01*
X025037Y003928D01*
X024449Y003928D01*
X024449Y004010D02*
X025037Y004010D01*
X025037Y004092D02*
X024449Y004092D01*
X024449Y004174D02*
X025037Y004174D01*
X025037Y004256D02*
X024449Y004256D01*
X024449Y004338D02*
X025037Y004338D01*
X025037Y004420D02*
X024449Y004420D01*
X024449Y004676D02*
X024449Y005186D01*
X025037Y005186D01*
X025037Y004676D01*
X024449Y004676D01*
X024449Y004758D02*
X025037Y004758D01*
X025037Y004840D02*
X024449Y004840D01*
X024449Y004922D02*
X025037Y004922D01*
X025037Y005004D02*
X024449Y005004D01*
X024449Y005086D02*
X025037Y005086D01*
X025037Y005168D02*
X024449Y005168D01*
X024646Y005503D02*
X024646Y006013D01*
X025234Y006013D01*
X025234Y005503D01*
X024646Y005503D01*
X024646Y005585D02*
X025234Y005585D01*
X025234Y005667D02*
X024646Y005667D01*
X024646Y005749D02*
X025234Y005749D01*
X025234Y005831D02*
X024646Y005831D01*
X024646Y005913D02*
X025234Y005913D01*
X025234Y005995D02*
X024646Y005995D01*
X024646Y006251D02*
X024646Y006761D01*
X025234Y006761D01*
X025234Y006251D01*
X024646Y006251D01*
X024646Y006333D02*
X025234Y006333D01*
X025234Y006415D02*
X024646Y006415D01*
X024646Y006497D02*
X025234Y006497D01*
X025234Y006579D02*
X024646Y006579D01*
X024646Y006661D02*
X025234Y006661D01*
X025234Y006743D02*
X024646Y006743D01*
X026614Y006761D02*
X026614Y006251D01*
X026614Y006761D02*
X027202Y006761D01*
X027202Y006251D01*
X026614Y006251D01*
X026614Y006333D02*
X027202Y006333D01*
X027202Y006415D02*
X026614Y006415D01*
X026614Y006497D02*
X027202Y006497D01*
X027202Y006579D02*
X026614Y006579D01*
X026614Y006661D02*
X027202Y006661D01*
X027202Y006743D02*
X026614Y006743D01*
X026614Y006013D02*
X026614Y005503D01*
X026614Y006013D02*
X027202Y006013D01*
X027202Y005503D01*
X026614Y005503D01*
X026614Y005585D02*
X027202Y005585D01*
X027202Y005667D02*
X026614Y005667D01*
X026614Y005749D02*
X027202Y005749D01*
X027202Y005831D02*
X026614Y005831D01*
X026614Y005913D02*
X027202Y005913D01*
X027202Y005995D02*
X026614Y005995D01*
X026356Y009005D02*
X025846Y009005D01*
X026356Y009005D02*
X026356Y008377D01*
X025846Y008377D01*
X025846Y009005D01*
X025846Y008459D02*
X026356Y008459D01*
X026356Y008541D02*
X025846Y008541D01*
X025846Y008623D02*
X026356Y008623D01*
X026356Y008705D02*
X025846Y008705D01*
X025846Y008787D02*
X026356Y008787D01*
X026356Y008869D02*
X025846Y008869D01*
X025846Y008951D02*
X026356Y008951D01*
X025608Y009005D02*
X025098Y009005D01*
X025608Y009005D02*
X025608Y008377D01*
X025098Y008377D01*
X025098Y009005D01*
X025098Y008459D02*
X025608Y008459D01*
X025608Y008541D02*
X025098Y008541D01*
X025098Y008623D02*
X025608Y008623D01*
X025608Y008705D02*
X025098Y008705D01*
X025098Y008787D02*
X025608Y008787D01*
X025608Y008869D02*
X025098Y008869D01*
X025098Y008951D02*
X025608Y008951D01*
X025608Y010186D02*
X025098Y010186D01*
X025608Y010186D02*
X025608Y009558D01*
X025098Y009558D01*
X025098Y010186D01*
X025098Y009640D02*
X025608Y009640D01*
X025608Y009722D02*
X025098Y009722D01*
X025098Y009804D02*
X025608Y009804D01*
X025608Y009886D02*
X025098Y009886D01*
X025098Y009968D02*
X025608Y009968D01*
X025608Y010050D02*
X025098Y010050D01*
X025098Y010132D02*
X025608Y010132D01*
X025846Y010186D02*
X026356Y010186D01*
X026356Y009558D01*
X025846Y009558D01*
X025846Y010186D01*
X025846Y009640D02*
X026356Y009640D01*
X026356Y009722D02*
X025846Y009722D01*
X025846Y009804D02*
X026356Y009804D01*
X026356Y009886D02*
X025846Y009886D01*
X025846Y009968D02*
X026356Y009968D01*
X026356Y010050D02*
X025846Y010050D01*
X025846Y010132D02*
X026356Y010132D01*
X026356Y011367D02*
X025846Y011367D01*
X026356Y011367D02*
X026356Y010739D01*
X025846Y010739D01*
X025846Y011367D01*
X025846Y010821D02*
X026356Y010821D01*
X026356Y010903D02*
X025846Y010903D01*
X025846Y010985D02*
X026356Y010985D01*
X026356Y011067D02*
X025846Y011067D01*
X025846Y011149D02*
X026356Y011149D01*
X026356Y011231D02*
X025846Y011231D01*
X025846Y011313D02*
X026356Y011313D01*
X025608Y011367D02*
X025098Y011367D01*
X025608Y011367D02*
X025608Y010739D01*
X025098Y010739D01*
X025098Y011367D01*
X025098Y010821D02*
X025608Y010821D01*
X025608Y010903D02*
X025098Y010903D01*
X025098Y010985D02*
X025608Y010985D01*
X025608Y011067D02*
X025098Y011067D01*
X025098Y011149D02*
X025608Y011149D01*
X025608Y011231D02*
X025098Y011231D01*
X025098Y011313D02*
X025608Y011313D01*
X025492Y012528D02*
X026002Y012528D01*
X026002Y011940D01*
X025492Y011940D01*
X025492Y012528D01*
X025492Y012022D02*
X026002Y012022D01*
X026002Y012104D02*
X025492Y012104D01*
X025492Y012186D02*
X026002Y012186D01*
X026002Y012268D02*
X025492Y012268D01*
X025492Y012350D02*
X026002Y012350D01*
X026002Y012432D02*
X025492Y012432D01*
X025492Y012514D02*
X026002Y012514D01*
X026240Y012528D02*
X026750Y012528D01*
X026750Y011940D01*
X026240Y011940D01*
X026240Y012528D01*
X026240Y012022D02*
X026750Y012022D01*
X026750Y012104D02*
X026240Y012104D01*
X026240Y012186D02*
X026750Y012186D01*
X026750Y012268D02*
X026240Y012268D01*
X026240Y012350D02*
X026750Y012350D01*
X026750Y012432D02*
X026240Y012432D01*
X026240Y012514D02*
X026750Y012514D01*
X026789Y013709D02*
X026279Y013709D01*
X026789Y013709D02*
X026789Y013121D01*
X026279Y013121D01*
X026279Y013709D01*
X026279Y013203D02*
X026789Y013203D01*
X026789Y013285D02*
X026279Y013285D01*
X026279Y013367D02*
X026789Y013367D01*
X026789Y013449D02*
X026279Y013449D01*
X026279Y013531D02*
X026789Y013531D01*
X026789Y013613D02*
X026279Y013613D01*
X026279Y013695D02*
X026789Y013695D01*
X027027Y013709D02*
X027537Y013709D01*
X027537Y013121D01*
X027027Y013121D01*
X027027Y013709D01*
X027027Y013203D02*
X027537Y013203D01*
X027537Y013285D02*
X027027Y013285D01*
X027027Y013367D02*
X027537Y013367D01*
X027537Y013449D02*
X027027Y013449D01*
X027027Y013531D02*
X027537Y013531D01*
X027537Y013613D02*
X027027Y013613D01*
X027027Y013695D02*
X027537Y013695D01*
X028248Y014497D02*
X028758Y014497D01*
X028758Y013909D01*
X028248Y013909D01*
X028248Y014497D01*
X028248Y013991D02*
X028758Y013991D01*
X028758Y014073D02*
X028248Y014073D01*
X028248Y014155D02*
X028758Y014155D01*
X028758Y014237D02*
X028248Y014237D01*
X028248Y014319D02*
X028758Y014319D01*
X028758Y014401D02*
X028248Y014401D01*
X028248Y014483D02*
X028758Y014483D01*
X028996Y014497D02*
X029506Y014497D01*
X029506Y013909D01*
X028996Y013909D01*
X028996Y014497D01*
X028996Y013991D02*
X029506Y013991D01*
X029506Y014073D02*
X028996Y014073D01*
X028996Y014155D02*
X029506Y014155D01*
X029506Y014237D02*
X028996Y014237D01*
X028996Y014319D02*
X029506Y014319D01*
X029506Y014401D02*
X028996Y014401D01*
X028996Y014483D02*
X029506Y014483D01*
X030216Y013709D02*
X030726Y013709D01*
X030726Y013121D01*
X030216Y013121D01*
X030216Y013709D01*
X030216Y013203D02*
X030726Y013203D01*
X030726Y013285D02*
X030216Y013285D01*
X030216Y013367D02*
X030726Y013367D01*
X030726Y013449D02*
X030216Y013449D01*
X030216Y013531D02*
X030726Y013531D01*
X030726Y013613D02*
X030216Y013613D01*
X030216Y013695D02*
X030726Y013695D01*
X030964Y013709D02*
X031474Y013709D01*
X031474Y013121D01*
X030964Y013121D01*
X030964Y013709D01*
X030964Y013203D02*
X031474Y013203D01*
X031474Y013285D02*
X030964Y013285D01*
X030964Y013367D02*
X031474Y013367D01*
X031474Y013449D02*
X030964Y013449D01*
X030964Y013531D02*
X031474Y013531D01*
X031474Y013613D02*
X030964Y013613D01*
X030964Y013695D02*
X031474Y013695D01*
X031988Y011898D02*
X032458Y011898D01*
X032458Y011428D01*
X031988Y011428D01*
X031988Y011898D01*
X031988Y011510D02*
X032458Y011510D01*
X032458Y011592D02*
X031988Y011592D01*
X031988Y011674D02*
X032458Y011674D01*
X032458Y011756D02*
X031988Y011756D01*
X031988Y011838D02*
X032458Y011838D01*
X032458Y011072D02*
X031988Y011072D01*
X032458Y011072D02*
X032458Y010602D01*
X031988Y010602D01*
X031988Y011072D01*
X031988Y010684D02*
X032458Y010684D01*
X032458Y010766D02*
X031988Y010766D01*
X031988Y010848D02*
X032458Y010848D01*
X032458Y010930D02*
X031988Y010930D01*
X031988Y011012D02*
X032458Y011012D01*
X032537Y010304D02*
X032537Y009794D01*
X031909Y009794D01*
X031909Y010304D01*
X032537Y010304D01*
X032537Y009876D02*
X031909Y009876D01*
X031909Y009958D02*
X032537Y009958D01*
X032537Y010040D02*
X031909Y010040D01*
X031909Y010122D02*
X032537Y010122D01*
X032537Y010204D02*
X031909Y010204D01*
X031909Y010286D02*
X032537Y010286D01*
X032537Y009556D02*
X032537Y009046D01*
X031909Y009046D01*
X031909Y009556D01*
X032537Y009556D01*
X032537Y009128D02*
X031909Y009128D01*
X031909Y009210D02*
X032537Y009210D01*
X032537Y009292D02*
X031909Y009292D01*
X031909Y009374D02*
X032537Y009374D01*
X032537Y009456D02*
X031909Y009456D01*
X031909Y009538D02*
X032537Y009538D01*
X031474Y016271D02*
X030964Y016271D01*
X030964Y016859D01*
X031474Y016859D01*
X031474Y016271D01*
X031474Y016353D02*
X030964Y016353D01*
X030964Y016435D02*
X031474Y016435D01*
X031474Y016517D02*
X030964Y016517D01*
X030964Y016599D02*
X031474Y016599D01*
X031474Y016681D02*
X030964Y016681D01*
X030964Y016763D02*
X031474Y016763D01*
X031474Y016845D02*
X030964Y016845D01*
X030726Y016271D02*
X030216Y016271D01*
X030216Y016859D01*
X030726Y016859D01*
X030726Y016271D01*
X030726Y016353D02*
X030216Y016353D01*
X030216Y016435D02*
X030726Y016435D01*
X030726Y016517D02*
X030216Y016517D01*
X030216Y016599D02*
X030726Y016599D01*
X030726Y016681D02*
X030216Y016681D01*
X030216Y016763D02*
X030726Y016763D01*
X030726Y016845D02*
X030216Y016845D01*
X029506Y016859D02*
X028996Y016859D01*
X029506Y016859D02*
X029506Y016271D01*
X028996Y016271D01*
X028996Y016859D01*
X028996Y016353D02*
X029506Y016353D01*
X029506Y016435D02*
X028996Y016435D01*
X028996Y016517D02*
X029506Y016517D01*
X029506Y016599D02*
X028996Y016599D01*
X028996Y016681D02*
X029506Y016681D01*
X029506Y016763D02*
X028996Y016763D01*
X028996Y016845D02*
X029506Y016845D01*
X028758Y016859D02*
X028248Y016859D01*
X028758Y016859D02*
X028758Y016271D01*
X028248Y016271D01*
X028248Y016859D01*
X028248Y016353D02*
X028758Y016353D01*
X028758Y016435D02*
X028248Y016435D01*
X028248Y016517D02*
X028758Y016517D01*
X028758Y016599D02*
X028248Y016599D01*
X028248Y016681D02*
X028758Y016681D01*
X028758Y016763D02*
X028248Y016763D01*
X028248Y016845D02*
X028758Y016845D01*
X027537Y016271D02*
X027027Y016271D01*
X027027Y016859D01*
X027537Y016859D01*
X027537Y016271D01*
X027537Y016353D02*
X027027Y016353D01*
X027027Y016435D02*
X027537Y016435D01*
X027537Y016517D02*
X027027Y016517D01*
X027027Y016599D02*
X027537Y016599D01*
X027537Y016681D02*
X027027Y016681D01*
X027027Y016763D02*
X027537Y016763D01*
X027537Y016845D02*
X027027Y016845D01*
X026789Y016271D02*
X026279Y016271D01*
X026279Y016859D01*
X026789Y016859D01*
X026789Y016271D01*
X026789Y016353D02*
X026279Y016353D01*
X026279Y016435D02*
X026789Y016435D01*
X026789Y016517D02*
X026279Y016517D01*
X026279Y016599D02*
X026789Y016599D01*
X026789Y016681D02*
X026279Y016681D01*
X026279Y016763D02*
X026789Y016763D01*
X026789Y016845D02*
X026279Y016845D01*
X018285Y000956D02*
X017815Y000956D01*
X017815Y001426D01*
X018285Y001426D01*
X018285Y000956D01*
X018285Y001038D02*
X017815Y001038D01*
X017815Y001120D02*
X018285Y001120D01*
X018285Y001202D02*
X017815Y001202D01*
X017815Y001284D02*
X018285Y001284D01*
X018285Y001366D02*
X017815Y001366D01*
D22*
X017656Y009478D02*
X017184Y009478D01*
X017184Y009872D01*
X017656Y009872D01*
X017656Y009478D01*
X017656Y009558D02*
X017184Y009558D01*
X017184Y009638D02*
X017656Y009638D01*
X017656Y009718D02*
X017184Y009718D01*
X017184Y009798D02*
X017656Y009798D01*
X018050Y009478D02*
X018522Y009478D01*
X018050Y009478D02*
X018050Y009872D01*
X018522Y009872D01*
X018522Y009478D01*
X018522Y009558D02*
X018050Y009558D01*
X018050Y009638D02*
X018522Y009638D01*
X018522Y009718D02*
X018050Y009718D01*
X018050Y009798D02*
X018522Y009798D01*
X018522Y011053D02*
X018050Y011053D01*
X018522Y011053D02*
X018522Y010659D01*
X018050Y010659D01*
X018050Y011053D01*
X018050Y010739D02*
X018522Y010739D01*
X018522Y010819D02*
X018050Y010819D01*
X018050Y010899D02*
X018522Y010899D01*
X018522Y010979D02*
X018050Y010979D01*
X017656Y011053D02*
X017184Y011053D01*
X017656Y011053D02*
X017656Y010659D01*
X017184Y010659D01*
X017184Y011053D01*
X017184Y010739D02*
X017656Y010739D01*
X017656Y010819D02*
X017184Y010819D01*
X017184Y010899D02*
X017656Y010899D01*
X017656Y010979D02*
X017184Y010979D01*
X014113Y014321D02*
X014113Y014793D01*
X014507Y014793D01*
X014507Y014321D01*
X014113Y014321D01*
X014113Y014401D02*
X014507Y014401D01*
X014507Y014481D02*
X014113Y014481D01*
X014113Y014561D02*
X014507Y014561D01*
X014507Y014641D02*
X014113Y014641D01*
X014113Y014721D02*
X014507Y014721D01*
X014113Y015187D02*
X014113Y015659D01*
X014507Y015659D01*
X014507Y015187D01*
X014113Y015187D01*
X014113Y015267D02*
X014507Y015267D01*
X014507Y015347D02*
X014113Y015347D01*
X014113Y015427D02*
X014507Y015427D01*
X014507Y015507D02*
X014113Y015507D01*
X014113Y015587D02*
X014507Y015587D01*
D23*
X026690Y015247D02*
X026690Y015993D01*
X026690Y015247D02*
X026260Y015247D01*
X026260Y015993D01*
X026690Y015993D01*
X026690Y015328D02*
X026260Y015328D01*
X026260Y015409D02*
X026690Y015409D01*
X026690Y015490D02*
X026260Y015490D01*
X026260Y015571D02*
X026690Y015571D01*
X026690Y015652D02*
X026260Y015652D01*
X026260Y015733D02*
X026690Y015733D01*
X026690Y015814D02*
X026260Y015814D01*
X026260Y015895D02*
X026690Y015895D01*
X026690Y015976D02*
X026260Y015976D01*
X027556Y015993D02*
X027556Y015247D01*
X027126Y015247D01*
X027126Y015993D01*
X027556Y015993D01*
X027556Y015328D02*
X027126Y015328D01*
X027126Y015409D02*
X027556Y015409D01*
X027556Y015490D02*
X027126Y015490D01*
X027126Y015571D02*
X027556Y015571D01*
X027556Y015652D02*
X027126Y015652D01*
X027126Y015733D02*
X027556Y015733D01*
X027556Y015814D02*
X027126Y015814D01*
X027126Y015895D02*
X027556Y015895D01*
X027556Y015976D02*
X027126Y015976D01*
X027556Y014733D02*
X027556Y013987D01*
X027126Y013987D01*
X027126Y014733D01*
X027556Y014733D01*
X027556Y014068D02*
X027126Y014068D01*
X027126Y014149D02*
X027556Y014149D01*
X027556Y014230D02*
X027126Y014230D01*
X027126Y014311D02*
X027556Y014311D01*
X027556Y014392D02*
X027126Y014392D01*
X027126Y014473D02*
X027556Y014473D01*
X027556Y014554D02*
X027126Y014554D01*
X027126Y014635D02*
X027556Y014635D01*
X027556Y014716D02*
X027126Y014716D01*
X026690Y014733D02*
X026690Y013987D01*
X026260Y013987D01*
X026260Y014733D01*
X026690Y014733D01*
X026690Y014068D02*
X026260Y014068D01*
X026260Y014149D02*
X026690Y014149D01*
X026690Y014230D02*
X026260Y014230D01*
X026260Y014311D02*
X026690Y014311D01*
X026690Y014392D02*
X026260Y014392D01*
X026260Y014473D02*
X026690Y014473D01*
X026690Y014554D02*
X026260Y014554D01*
X026260Y014635D02*
X026690Y014635D01*
X026690Y014716D02*
X026260Y014716D01*
X030197Y014733D02*
X030197Y013987D01*
X030197Y014733D02*
X030627Y014733D01*
X030627Y013987D01*
X030197Y013987D01*
X030197Y014068D02*
X030627Y014068D01*
X030627Y014149D02*
X030197Y014149D01*
X030197Y014230D02*
X030627Y014230D01*
X030627Y014311D02*
X030197Y014311D01*
X030197Y014392D02*
X030627Y014392D01*
X030627Y014473D02*
X030197Y014473D01*
X030197Y014554D02*
X030627Y014554D01*
X030627Y014635D02*
X030197Y014635D01*
X030197Y014716D02*
X030627Y014716D01*
X031063Y014733D02*
X031063Y013987D01*
X031063Y014733D02*
X031493Y014733D01*
X031493Y013987D01*
X031063Y013987D01*
X031063Y014068D02*
X031493Y014068D01*
X031493Y014149D02*
X031063Y014149D01*
X031063Y014230D02*
X031493Y014230D01*
X031493Y014311D02*
X031063Y014311D01*
X031063Y014392D02*
X031493Y014392D01*
X031493Y014473D02*
X031063Y014473D01*
X031063Y014554D02*
X031493Y014554D01*
X031493Y014635D02*
X031063Y014635D01*
X031063Y014716D02*
X031493Y014716D01*
X031063Y015247D02*
X031063Y015993D01*
X031493Y015993D01*
X031493Y015247D01*
X031063Y015247D01*
X031063Y015328D02*
X031493Y015328D01*
X031493Y015409D02*
X031063Y015409D01*
X031063Y015490D02*
X031493Y015490D01*
X031493Y015571D02*
X031063Y015571D01*
X031063Y015652D02*
X031493Y015652D01*
X031493Y015733D02*
X031063Y015733D01*
X031063Y015814D02*
X031493Y015814D01*
X031493Y015895D02*
X031063Y015895D01*
X031063Y015976D02*
X031493Y015976D01*
X030197Y015993D02*
X030197Y015247D01*
X030197Y015993D02*
X030627Y015993D01*
X030627Y015247D01*
X030197Y015247D01*
X030197Y015328D02*
X030627Y015328D01*
X030627Y015409D02*
X030197Y015409D01*
X030197Y015490D02*
X030627Y015490D01*
X030627Y015571D02*
X030197Y015571D01*
X030197Y015652D02*
X030627Y015652D01*
X030627Y015733D02*
X030197Y015733D01*
X030197Y015814D02*
X030627Y015814D01*
X030627Y015895D02*
X030197Y015895D01*
X030197Y015976D02*
X030627Y015976D01*
D24*
X031830Y017549D03*
X030286Y018230D03*
X029286Y018230D03*
X028286Y018230D03*
X027286Y018230D03*
X026286Y018230D03*
X026286Y019230D03*
X027286Y019230D03*
X028286Y019230D03*
X029286Y019230D03*
X030286Y019230D03*
X023684Y019230D03*
X022684Y019230D03*
X021684Y019230D03*
X020684Y019230D03*
X020684Y018230D03*
X021684Y018230D03*
X022684Y018230D03*
X023684Y018230D03*
X014129Y018230D03*
X013129Y018230D03*
X012129Y018230D03*
X012129Y019230D03*
X013129Y019230D03*
X014129Y019230D03*
X026286Y002301D03*
X027286Y002301D03*
X028286Y002301D03*
X029286Y002301D03*
X030286Y002301D03*
X030286Y001301D03*
X029286Y001301D03*
X028286Y001301D03*
X027286Y001301D03*
X026286Y001301D03*
D25*
X013463Y004724D03*
X011103Y004724D03*
X012283Y002754D03*
D26*
X029801Y004933D02*
X029801Y005757D01*
X029801Y004933D02*
X028741Y004933D01*
X028741Y005757D01*
X029801Y005757D01*
X029801Y005014D02*
X028741Y005014D01*
X028741Y005095D02*
X029801Y005095D01*
X029801Y005176D02*
X028741Y005176D01*
X028741Y005257D02*
X029801Y005257D01*
X029801Y005338D02*
X028741Y005338D01*
X028741Y005419D02*
X029801Y005419D01*
X029801Y005500D02*
X028741Y005500D01*
X028741Y005581D02*
X029801Y005581D01*
X029801Y005662D02*
X028741Y005662D01*
X028741Y005743D02*
X029801Y005743D01*
X029801Y006901D02*
X029801Y007725D01*
X029801Y006901D02*
X028741Y006901D01*
X028741Y007725D01*
X029801Y007725D01*
X029801Y006982D02*
X028741Y006982D01*
X028741Y007063D02*
X029801Y007063D01*
X029801Y007144D02*
X028741Y007144D01*
X028741Y007225D02*
X029801Y007225D01*
X029801Y007306D02*
X028741Y007306D01*
X028741Y007387D02*
X029801Y007387D01*
X029801Y007468D02*
X028741Y007468D01*
X028741Y007549D02*
X029801Y007549D01*
X029801Y007630D02*
X028741Y007630D01*
X028741Y007711D02*
X029801Y007711D01*
D27*
X029370Y003634D02*
X030352Y003634D01*
X029370Y003634D02*
X029370Y004300D01*
X030352Y004300D01*
X030352Y003634D01*
X030352Y003715D02*
X029370Y003715D01*
X029370Y003796D02*
X030352Y003796D01*
X030352Y003877D02*
X029370Y003877D01*
X029370Y003958D02*
X030352Y003958D01*
X030352Y004039D02*
X029370Y004039D01*
X029370Y004120D02*
X030352Y004120D01*
X030352Y004201D02*
X029370Y004201D01*
X029370Y004282D02*
X030352Y004282D01*
X028777Y003634D02*
X027795Y003634D01*
X027795Y004300D01*
X028777Y004300D01*
X028777Y003634D01*
X028777Y003715D02*
X027795Y003715D01*
X027795Y003796D02*
X028777Y003796D01*
X028777Y003877D02*
X027795Y003877D01*
X027795Y003958D02*
X028777Y003958D01*
X028777Y004039D02*
X027795Y004039D01*
X027795Y004120D02*
X028777Y004120D01*
X028777Y004201D02*
X027795Y004201D01*
X027795Y004282D02*
X028777Y004282D01*
D28*
X023440Y007746D02*
X023440Y008376D01*
X023526Y008376D01*
X023526Y007746D01*
X023440Y007746D01*
X023440Y007826D02*
X023526Y007826D01*
X023526Y007906D02*
X023440Y007906D01*
X023440Y007986D02*
X023526Y007986D01*
X023526Y008066D02*
X023440Y008066D01*
X023440Y008146D02*
X023526Y008146D01*
X023526Y008226D02*
X023440Y008226D01*
X023440Y008306D02*
X023526Y008306D01*
X023283Y008376D02*
X023283Y007746D01*
X023283Y008376D02*
X023369Y008376D01*
X023369Y007746D01*
X023283Y007746D01*
X023283Y007826D02*
X023369Y007826D01*
X023369Y007906D02*
X023283Y007906D01*
X023283Y007986D02*
X023369Y007986D01*
X023369Y008066D02*
X023283Y008066D01*
X023283Y008146D02*
X023369Y008146D01*
X023369Y008226D02*
X023283Y008226D01*
X023283Y008306D02*
X023369Y008306D01*
X023125Y008376D02*
X023125Y007746D01*
X023125Y008376D02*
X023211Y008376D01*
X023211Y007746D01*
X023125Y007746D01*
X023125Y007826D02*
X023211Y007826D01*
X023211Y007906D02*
X023125Y007906D01*
X023125Y007986D02*
X023211Y007986D01*
X023211Y008066D02*
X023125Y008066D01*
X023125Y008146D02*
X023211Y008146D01*
X023211Y008226D02*
X023125Y008226D01*
X023125Y008306D02*
X023211Y008306D01*
X022968Y008376D02*
X022968Y007746D01*
X022968Y008376D02*
X023054Y008376D01*
X023054Y007746D01*
X022968Y007746D01*
X022968Y007826D02*
X023054Y007826D01*
X023054Y007906D02*
X022968Y007906D01*
X022968Y007986D02*
X023054Y007986D01*
X023054Y008066D02*
X022968Y008066D01*
X022968Y008146D02*
X023054Y008146D01*
X023054Y008226D02*
X022968Y008226D01*
X022968Y008306D02*
X023054Y008306D01*
X022810Y008376D02*
X022810Y007746D01*
X022810Y008376D02*
X022896Y008376D01*
X022896Y007746D01*
X022810Y007746D01*
X022810Y007826D02*
X022896Y007826D01*
X022896Y007906D02*
X022810Y007906D01*
X022810Y007986D02*
X022896Y007986D01*
X022896Y008066D02*
X022810Y008066D01*
X022810Y008146D02*
X022896Y008146D01*
X022896Y008226D02*
X022810Y008226D01*
X022810Y008306D02*
X022896Y008306D01*
X022653Y008376D02*
X022653Y007746D01*
X022653Y008376D02*
X022739Y008376D01*
X022739Y007746D01*
X022653Y007746D01*
X022653Y007826D02*
X022739Y007826D01*
X022739Y007906D02*
X022653Y007906D01*
X022653Y007986D02*
X022739Y007986D01*
X022739Y008066D02*
X022653Y008066D01*
X022653Y008146D02*
X022739Y008146D01*
X022739Y008226D02*
X022653Y008226D01*
X022653Y008306D02*
X022739Y008306D01*
X022495Y008376D02*
X022495Y007746D01*
X022495Y008376D02*
X022581Y008376D01*
X022581Y007746D01*
X022495Y007746D01*
X022495Y007826D02*
X022581Y007826D01*
X022581Y007906D02*
X022495Y007906D01*
X022495Y007986D02*
X022581Y007986D01*
X022581Y008066D02*
X022495Y008066D01*
X022495Y008146D02*
X022581Y008146D01*
X022581Y008226D02*
X022495Y008226D01*
X022495Y008306D02*
X022581Y008306D01*
X022338Y008376D02*
X022338Y007746D01*
X022338Y008376D02*
X022424Y008376D01*
X022424Y007746D01*
X022338Y007746D01*
X022338Y007826D02*
X022424Y007826D01*
X022424Y007906D02*
X022338Y007906D01*
X022338Y007986D02*
X022424Y007986D01*
X022424Y008066D02*
X022338Y008066D01*
X022338Y008146D02*
X022424Y008146D01*
X022424Y008226D02*
X022338Y008226D01*
X022338Y008306D02*
X022424Y008306D01*
X022180Y008376D02*
X022180Y007746D01*
X022180Y008376D02*
X022266Y008376D01*
X022266Y007746D01*
X022180Y007746D01*
X022180Y007826D02*
X022266Y007826D01*
X022266Y007906D02*
X022180Y007906D01*
X022180Y007986D02*
X022266Y007986D01*
X022266Y008066D02*
X022180Y008066D01*
X022180Y008146D02*
X022266Y008146D01*
X022266Y008226D02*
X022180Y008226D01*
X022180Y008306D02*
X022266Y008306D01*
X022023Y008376D02*
X022023Y007746D01*
X022023Y008376D02*
X022109Y008376D01*
X022109Y007746D01*
X022023Y007746D01*
X022023Y007826D02*
X022109Y007826D01*
X022109Y007906D02*
X022023Y007906D01*
X022023Y007986D02*
X022109Y007986D01*
X022109Y008066D02*
X022023Y008066D01*
X022023Y008146D02*
X022109Y008146D01*
X022109Y008226D02*
X022023Y008226D01*
X022023Y008306D02*
X022109Y008306D01*
X021865Y008376D02*
X021865Y007746D01*
X021865Y008376D02*
X021951Y008376D01*
X021951Y007746D01*
X021865Y007746D01*
X021865Y007826D02*
X021951Y007826D01*
X021951Y007906D02*
X021865Y007906D01*
X021865Y007986D02*
X021951Y007986D01*
X021951Y008066D02*
X021865Y008066D01*
X021865Y008146D02*
X021951Y008146D01*
X021951Y008226D02*
X021865Y008226D01*
X021865Y008306D02*
X021951Y008306D01*
X021708Y008376D02*
X021708Y007746D01*
X021708Y008376D02*
X021794Y008376D01*
X021794Y007746D01*
X021708Y007746D01*
X021708Y007826D02*
X021794Y007826D01*
X021794Y007906D02*
X021708Y007906D01*
X021708Y007986D02*
X021794Y007986D01*
X021794Y008066D02*
X021708Y008066D01*
X021708Y008146D02*
X021794Y008146D01*
X021794Y008226D02*
X021708Y008226D01*
X021708Y008306D02*
X021794Y008306D01*
X021550Y008376D02*
X021550Y007746D01*
X021550Y008376D02*
X021636Y008376D01*
X021636Y007746D01*
X021550Y007746D01*
X021550Y007826D02*
X021636Y007826D01*
X021636Y007906D02*
X021550Y007906D01*
X021550Y007986D02*
X021636Y007986D01*
X021636Y008066D02*
X021550Y008066D01*
X021550Y008146D02*
X021636Y008146D01*
X021636Y008226D02*
X021550Y008226D01*
X021550Y008306D02*
X021636Y008306D01*
X021393Y008376D02*
X021393Y007746D01*
X021393Y008376D02*
X021479Y008376D01*
X021479Y007746D01*
X021393Y007746D01*
X021393Y007826D02*
X021479Y007826D01*
X021479Y007906D02*
X021393Y007906D01*
X021393Y007986D02*
X021479Y007986D01*
X021479Y008066D02*
X021393Y008066D01*
X021393Y008146D02*
X021479Y008146D01*
X021479Y008226D02*
X021393Y008226D01*
X021393Y008306D02*
X021479Y008306D01*
X021235Y008376D02*
X021235Y007746D01*
X021235Y008376D02*
X021321Y008376D01*
X021321Y007746D01*
X021235Y007746D01*
X021235Y007826D02*
X021321Y007826D01*
X021321Y007906D02*
X021235Y007906D01*
X021235Y007986D02*
X021321Y007986D01*
X021321Y008066D02*
X021235Y008066D01*
X021235Y008146D02*
X021321Y008146D01*
X021321Y008226D02*
X021235Y008226D01*
X021235Y008306D02*
X021321Y008306D01*
X021078Y008376D02*
X021078Y007746D01*
X021078Y008376D02*
X021164Y008376D01*
X021164Y007746D01*
X021078Y007746D01*
X021078Y007826D02*
X021164Y007826D01*
X021164Y007906D02*
X021078Y007906D01*
X021078Y007986D02*
X021164Y007986D01*
X021164Y008066D02*
X021078Y008066D01*
X021078Y008146D02*
X021164Y008146D01*
X021164Y008226D02*
X021078Y008226D01*
X021078Y008306D02*
X021164Y008306D01*
X020920Y008376D02*
X020920Y007746D01*
X020920Y008376D02*
X021006Y008376D01*
X021006Y007746D01*
X020920Y007746D01*
X020920Y007826D02*
X021006Y007826D01*
X021006Y007906D02*
X020920Y007906D01*
X020920Y007986D02*
X021006Y007986D01*
X021006Y008066D02*
X020920Y008066D01*
X020920Y008146D02*
X021006Y008146D01*
X021006Y008226D02*
X020920Y008226D01*
X020920Y008306D02*
X021006Y008306D01*
X020763Y008376D02*
X020763Y007746D01*
X020763Y008376D02*
X020849Y008376D01*
X020849Y007746D01*
X020763Y007746D01*
X020763Y007826D02*
X020849Y007826D01*
X020849Y007906D02*
X020763Y007906D01*
X020763Y007986D02*
X020849Y007986D01*
X020849Y008066D02*
X020763Y008066D01*
X020763Y008146D02*
X020849Y008146D01*
X020849Y008226D02*
X020763Y008226D01*
X020763Y008306D02*
X020849Y008306D01*
X020606Y008376D02*
X020606Y007746D01*
X020606Y008376D02*
X020692Y008376D01*
X020692Y007746D01*
X020606Y007746D01*
X020606Y007826D02*
X020692Y007826D01*
X020692Y007906D02*
X020606Y007906D01*
X020606Y007986D02*
X020692Y007986D01*
X020692Y008066D02*
X020606Y008066D01*
X020606Y008146D02*
X020692Y008146D01*
X020692Y008226D02*
X020606Y008226D01*
X020606Y008306D02*
X020692Y008306D01*
X020448Y008376D02*
X020448Y007746D01*
X020448Y008376D02*
X020534Y008376D01*
X020534Y007746D01*
X020448Y007746D01*
X020448Y007826D02*
X020534Y007826D01*
X020534Y007906D02*
X020448Y007906D01*
X020448Y007986D02*
X020534Y007986D01*
X020534Y008066D02*
X020448Y008066D01*
X020448Y008146D02*
X020534Y008146D01*
X020534Y008226D02*
X020448Y008226D01*
X020448Y008306D02*
X020534Y008306D01*
X019467Y008727D02*
X019467Y008813D01*
X020097Y008813D01*
X020097Y008727D01*
X019467Y008727D01*
X019467Y008807D02*
X020097Y008807D01*
X019467Y008884D02*
X019467Y008970D01*
X020097Y008970D01*
X020097Y008884D01*
X019467Y008884D01*
X019467Y008964D02*
X020097Y008964D01*
X019467Y009042D02*
X019467Y009128D01*
X020097Y009128D01*
X020097Y009042D01*
X019467Y009042D01*
X019467Y009122D02*
X020097Y009122D01*
X019467Y009199D02*
X019467Y009285D01*
X020097Y009285D01*
X020097Y009199D01*
X019467Y009199D01*
X019467Y009279D02*
X020097Y009279D01*
X019467Y009357D02*
X019467Y009443D01*
X020097Y009443D01*
X020097Y009357D01*
X019467Y009357D01*
X019467Y009437D02*
X020097Y009437D01*
X019467Y009514D02*
X019467Y009600D01*
X020097Y009600D01*
X020097Y009514D01*
X019467Y009514D01*
X019467Y009594D02*
X020097Y009594D01*
X019467Y009672D02*
X019467Y009758D01*
X020097Y009758D01*
X020097Y009672D01*
X019467Y009672D01*
X019467Y009752D02*
X020097Y009752D01*
X019467Y009829D02*
X019467Y009915D01*
X020097Y009915D01*
X020097Y009829D01*
X019467Y009829D01*
X019467Y009909D02*
X020097Y009909D01*
X019467Y009987D02*
X019467Y010073D01*
X020097Y010073D01*
X020097Y009987D01*
X019467Y009987D01*
X019467Y010067D02*
X020097Y010067D01*
X019467Y010144D02*
X019467Y010230D01*
X020097Y010230D01*
X020097Y010144D01*
X019467Y010144D01*
X019467Y010224D02*
X020097Y010224D01*
X019467Y010302D02*
X019467Y010388D01*
X020097Y010388D01*
X020097Y010302D01*
X019467Y010302D01*
X019467Y010382D02*
X020097Y010382D01*
X019467Y010459D02*
X019467Y010545D01*
X020097Y010545D01*
X020097Y010459D01*
X019467Y010459D01*
X019467Y010539D02*
X020097Y010539D01*
X019467Y010617D02*
X019467Y010703D01*
X020097Y010703D01*
X020097Y010617D01*
X019467Y010617D01*
X019467Y010697D02*
X020097Y010697D01*
X019467Y010774D02*
X019467Y010860D01*
X020097Y010860D01*
X020097Y010774D01*
X019467Y010774D01*
X019467Y010854D02*
X020097Y010854D01*
X019467Y010931D02*
X019467Y011017D01*
X020097Y011017D01*
X020097Y010931D01*
X019467Y010931D01*
X019467Y011011D02*
X020097Y011011D01*
X019467Y011089D02*
X019467Y011175D01*
X020097Y011175D01*
X020097Y011089D01*
X019467Y011089D01*
X019467Y011169D02*
X020097Y011169D01*
X019467Y011246D02*
X019467Y011332D01*
X020097Y011332D01*
X020097Y011246D01*
X019467Y011246D01*
X019467Y011326D02*
X020097Y011326D01*
X019467Y011404D02*
X019467Y011490D01*
X020097Y011490D01*
X020097Y011404D01*
X019467Y011404D01*
X019467Y011484D02*
X020097Y011484D01*
X019467Y011561D02*
X019467Y011647D01*
X020097Y011647D01*
X020097Y011561D01*
X019467Y011561D01*
X019467Y011641D02*
X020097Y011641D01*
X019467Y011719D02*
X019467Y011805D01*
X020097Y011805D01*
X020097Y011719D01*
X019467Y011719D01*
X019467Y011799D02*
X020097Y011799D01*
X020448Y012156D02*
X020448Y012786D01*
X020534Y012786D01*
X020534Y012156D01*
X020448Y012156D01*
X020448Y012236D02*
X020534Y012236D01*
X020534Y012316D02*
X020448Y012316D01*
X020448Y012396D02*
X020534Y012396D01*
X020534Y012476D02*
X020448Y012476D01*
X020448Y012556D02*
X020534Y012556D01*
X020534Y012636D02*
X020448Y012636D01*
X020448Y012716D02*
X020534Y012716D01*
X020606Y012786D02*
X020606Y012156D01*
X020606Y012786D02*
X020692Y012786D01*
X020692Y012156D01*
X020606Y012156D01*
X020606Y012236D02*
X020692Y012236D01*
X020692Y012316D02*
X020606Y012316D01*
X020606Y012396D02*
X020692Y012396D01*
X020692Y012476D02*
X020606Y012476D01*
X020606Y012556D02*
X020692Y012556D01*
X020692Y012636D02*
X020606Y012636D01*
X020606Y012716D02*
X020692Y012716D01*
X020763Y012786D02*
X020763Y012156D01*
X020763Y012786D02*
X020849Y012786D01*
X020849Y012156D01*
X020763Y012156D01*
X020763Y012236D02*
X020849Y012236D01*
X020849Y012316D02*
X020763Y012316D01*
X020763Y012396D02*
X020849Y012396D01*
X020849Y012476D02*
X020763Y012476D01*
X020763Y012556D02*
X020849Y012556D01*
X020849Y012636D02*
X020763Y012636D01*
X020763Y012716D02*
X020849Y012716D01*
X020920Y012786D02*
X020920Y012156D01*
X020920Y012786D02*
X021006Y012786D01*
X021006Y012156D01*
X020920Y012156D01*
X020920Y012236D02*
X021006Y012236D01*
X021006Y012316D02*
X020920Y012316D01*
X020920Y012396D02*
X021006Y012396D01*
X021006Y012476D02*
X020920Y012476D01*
X020920Y012556D02*
X021006Y012556D01*
X021006Y012636D02*
X020920Y012636D01*
X020920Y012716D02*
X021006Y012716D01*
X021078Y012786D02*
X021078Y012156D01*
X021078Y012786D02*
X021164Y012786D01*
X021164Y012156D01*
X021078Y012156D01*
X021078Y012236D02*
X021164Y012236D01*
X021164Y012316D02*
X021078Y012316D01*
X021078Y012396D02*
X021164Y012396D01*
X021164Y012476D02*
X021078Y012476D01*
X021078Y012556D02*
X021164Y012556D01*
X021164Y012636D02*
X021078Y012636D01*
X021078Y012716D02*
X021164Y012716D01*
X021235Y012786D02*
X021235Y012156D01*
X021235Y012786D02*
X021321Y012786D01*
X021321Y012156D01*
X021235Y012156D01*
X021235Y012236D02*
X021321Y012236D01*
X021321Y012316D02*
X021235Y012316D01*
X021235Y012396D02*
X021321Y012396D01*
X021321Y012476D02*
X021235Y012476D01*
X021235Y012556D02*
X021321Y012556D01*
X021321Y012636D02*
X021235Y012636D01*
X021235Y012716D02*
X021321Y012716D01*
X021393Y012786D02*
X021393Y012156D01*
X021393Y012786D02*
X021479Y012786D01*
X021479Y012156D01*
X021393Y012156D01*
X021393Y012236D02*
X021479Y012236D01*
X021479Y012316D02*
X021393Y012316D01*
X021393Y012396D02*
X021479Y012396D01*
X021479Y012476D02*
X021393Y012476D01*
X021393Y012556D02*
X021479Y012556D01*
X021479Y012636D02*
X021393Y012636D01*
X021393Y012716D02*
X021479Y012716D01*
X021550Y012786D02*
X021550Y012156D01*
X021550Y012786D02*
X021636Y012786D01*
X021636Y012156D01*
X021550Y012156D01*
X021550Y012236D02*
X021636Y012236D01*
X021636Y012316D02*
X021550Y012316D01*
X021550Y012396D02*
X021636Y012396D01*
X021636Y012476D02*
X021550Y012476D01*
X021550Y012556D02*
X021636Y012556D01*
X021636Y012636D02*
X021550Y012636D01*
X021550Y012716D02*
X021636Y012716D01*
X021708Y012786D02*
X021708Y012156D01*
X021708Y012786D02*
X021794Y012786D01*
X021794Y012156D01*
X021708Y012156D01*
X021708Y012236D02*
X021794Y012236D01*
X021794Y012316D02*
X021708Y012316D01*
X021708Y012396D02*
X021794Y012396D01*
X021794Y012476D02*
X021708Y012476D01*
X021708Y012556D02*
X021794Y012556D01*
X021794Y012636D02*
X021708Y012636D01*
X021708Y012716D02*
X021794Y012716D01*
X021865Y012786D02*
X021865Y012156D01*
X021865Y012786D02*
X021951Y012786D01*
X021951Y012156D01*
X021865Y012156D01*
X021865Y012236D02*
X021951Y012236D01*
X021951Y012316D02*
X021865Y012316D01*
X021865Y012396D02*
X021951Y012396D01*
X021951Y012476D02*
X021865Y012476D01*
X021865Y012556D02*
X021951Y012556D01*
X021951Y012636D02*
X021865Y012636D01*
X021865Y012716D02*
X021951Y012716D01*
X022023Y012786D02*
X022023Y012156D01*
X022023Y012786D02*
X022109Y012786D01*
X022109Y012156D01*
X022023Y012156D01*
X022023Y012236D02*
X022109Y012236D01*
X022109Y012316D02*
X022023Y012316D01*
X022023Y012396D02*
X022109Y012396D01*
X022109Y012476D02*
X022023Y012476D01*
X022023Y012556D02*
X022109Y012556D01*
X022109Y012636D02*
X022023Y012636D01*
X022023Y012716D02*
X022109Y012716D01*
X022180Y012786D02*
X022180Y012156D01*
X022180Y012786D02*
X022266Y012786D01*
X022266Y012156D01*
X022180Y012156D01*
X022180Y012236D02*
X022266Y012236D01*
X022266Y012316D02*
X022180Y012316D01*
X022180Y012396D02*
X022266Y012396D01*
X022266Y012476D02*
X022180Y012476D01*
X022180Y012556D02*
X022266Y012556D01*
X022266Y012636D02*
X022180Y012636D01*
X022180Y012716D02*
X022266Y012716D01*
X022338Y012786D02*
X022338Y012156D01*
X022338Y012786D02*
X022424Y012786D01*
X022424Y012156D01*
X022338Y012156D01*
X022338Y012236D02*
X022424Y012236D01*
X022424Y012316D02*
X022338Y012316D01*
X022338Y012396D02*
X022424Y012396D01*
X022424Y012476D02*
X022338Y012476D01*
X022338Y012556D02*
X022424Y012556D01*
X022424Y012636D02*
X022338Y012636D01*
X022338Y012716D02*
X022424Y012716D01*
X022495Y012786D02*
X022495Y012156D01*
X022495Y012786D02*
X022581Y012786D01*
X022581Y012156D01*
X022495Y012156D01*
X022495Y012236D02*
X022581Y012236D01*
X022581Y012316D02*
X022495Y012316D01*
X022495Y012396D02*
X022581Y012396D01*
X022581Y012476D02*
X022495Y012476D01*
X022495Y012556D02*
X022581Y012556D01*
X022581Y012636D02*
X022495Y012636D01*
X022495Y012716D02*
X022581Y012716D01*
X022653Y012786D02*
X022653Y012156D01*
X022653Y012786D02*
X022739Y012786D01*
X022739Y012156D01*
X022653Y012156D01*
X022653Y012236D02*
X022739Y012236D01*
X022739Y012316D02*
X022653Y012316D01*
X022653Y012396D02*
X022739Y012396D01*
X022739Y012476D02*
X022653Y012476D01*
X022653Y012556D02*
X022739Y012556D01*
X022739Y012636D02*
X022653Y012636D01*
X022653Y012716D02*
X022739Y012716D01*
X022810Y012786D02*
X022810Y012156D01*
X022810Y012786D02*
X022896Y012786D01*
X022896Y012156D01*
X022810Y012156D01*
X022810Y012236D02*
X022896Y012236D01*
X022896Y012316D02*
X022810Y012316D01*
X022810Y012396D02*
X022896Y012396D01*
X022896Y012476D02*
X022810Y012476D01*
X022810Y012556D02*
X022896Y012556D01*
X022896Y012636D02*
X022810Y012636D01*
X022810Y012716D02*
X022896Y012716D01*
X022968Y012786D02*
X022968Y012156D01*
X022968Y012786D02*
X023054Y012786D01*
X023054Y012156D01*
X022968Y012156D01*
X022968Y012236D02*
X023054Y012236D01*
X023054Y012316D02*
X022968Y012316D01*
X022968Y012396D02*
X023054Y012396D01*
X023054Y012476D02*
X022968Y012476D01*
X022968Y012556D02*
X023054Y012556D01*
X023054Y012636D02*
X022968Y012636D01*
X022968Y012716D02*
X023054Y012716D01*
X023125Y012786D02*
X023125Y012156D01*
X023125Y012786D02*
X023211Y012786D01*
X023211Y012156D01*
X023125Y012156D01*
X023125Y012236D02*
X023211Y012236D01*
X023211Y012316D02*
X023125Y012316D01*
X023125Y012396D02*
X023211Y012396D01*
X023211Y012476D02*
X023125Y012476D01*
X023125Y012556D02*
X023211Y012556D01*
X023211Y012636D02*
X023125Y012636D01*
X023125Y012716D02*
X023211Y012716D01*
X023283Y012786D02*
X023283Y012156D01*
X023283Y012786D02*
X023369Y012786D01*
X023369Y012156D01*
X023283Y012156D01*
X023283Y012236D02*
X023369Y012236D01*
X023369Y012316D02*
X023283Y012316D01*
X023283Y012396D02*
X023369Y012396D01*
X023369Y012476D02*
X023283Y012476D01*
X023283Y012556D02*
X023369Y012556D01*
X023369Y012636D02*
X023283Y012636D01*
X023283Y012716D02*
X023369Y012716D01*
X023440Y012786D02*
X023440Y012156D01*
X023440Y012786D02*
X023526Y012786D01*
X023526Y012156D01*
X023440Y012156D01*
X023440Y012236D02*
X023526Y012236D01*
X023526Y012316D02*
X023440Y012316D01*
X023440Y012396D02*
X023526Y012396D01*
X023526Y012476D02*
X023440Y012476D01*
X023440Y012556D02*
X023526Y012556D01*
X023526Y012636D02*
X023440Y012636D01*
X023440Y012716D02*
X023526Y012716D01*
X023877Y011805D02*
X023877Y011719D01*
X023877Y011805D02*
X024507Y011805D01*
X024507Y011719D01*
X023877Y011719D01*
X023877Y011799D02*
X024507Y011799D01*
X023877Y011647D02*
X023877Y011561D01*
X023877Y011647D02*
X024507Y011647D01*
X024507Y011561D01*
X023877Y011561D01*
X023877Y011641D02*
X024507Y011641D01*
X023877Y011490D02*
X023877Y011404D01*
X023877Y011490D02*
X024507Y011490D01*
X024507Y011404D01*
X023877Y011404D01*
X023877Y011484D02*
X024507Y011484D01*
X023877Y011332D02*
X023877Y011246D01*
X023877Y011332D02*
X024507Y011332D01*
X024507Y011246D01*
X023877Y011246D01*
X023877Y011326D02*
X024507Y011326D01*
X023877Y011175D02*
X023877Y011089D01*
X023877Y011175D02*
X024507Y011175D01*
X024507Y011089D01*
X023877Y011089D01*
X023877Y011169D02*
X024507Y011169D01*
X023877Y011017D02*
X023877Y010931D01*
X023877Y011017D02*
X024507Y011017D01*
X024507Y010931D01*
X023877Y010931D01*
X023877Y011011D02*
X024507Y011011D01*
X023877Y010860D02*
X023877Y010774D01*
X023877Y010860D02*
X024507Y010860D01*
X024507Y010774D01*
X023877Y010774D01*
X023877Y010854D02*
X024507Y010854D01*
X023877Y010703D02*
X023877Y010617D01*
X023877Y010703D02*
X024507Y010703D01*
X024507Y010617D01*
X023877Y010617D01*
X023877Y010697D02*
X024507Y010697D01*
X023877Y010545D02*
X023877Y010459D01*
X023877Y010545D02*
X024507Y010545D01*
X024507Y010459D01*
X023877Y010459D01*
X023877Y010539D02*
X024507Y010539D01*
X023877Y010388D02*
X023877Y010302D01*
X023877Y010388D02*
X024507Y010388D01*
X024507Y010302D01*
X023877Y010302D01*
X023877Y010382D02*
X024507Y010382D01*
X023877Y010230D02*
X023877Y010144D01*
X023877Y010230D02*
X024507Y010230D01*
X024507Y010144D01*
X023877Y010144D01*
X023877Y010224D02*
X024507Y010224D01*
X023877Y010073D02*
X023877Y009987D01*
X023877Y010073D02*
X024507Y010073D01*
X024507Y009987D01*
X023877Y009987D01*
X023877Y010067D02*
X024507Y010067D01*
X023877Y009915D02*
X023877Y009829D01*
X023877Y009915D02*
X024507Y009915D01*
X024507Y009829D01*
X023877Y009829D01*
X023877Y009909D02*
X024507Y009909D01*
X023877Y009758D02*
X023877Y009672D01*
X023877Y009758D02*
X024507Y009758D01*
X024507Y009672D01*
X023877Y009672D01*
X023877Y009752D02*
X024507Y009752D01*
X023877Y009600D02*
X023877Y009514D01*
X023877Y009600D02*
X024507Y009600D01*
X024507Y009514D01*
X023877Y009514D01*
X023877Y009594D02*
X024507Y009594D01*
X023877Y009443D02*
X023877Y009357D01*
X023877Y009443D02*
X024507Y009443D01*
X024507Y009357D01*
X023877Y009357D01*
X023877Y009437D02*
X024507Y009437D01*
X023877Y009285D02*
X023877Y009199D01*
X023877Y009285D02*
X024507Y009285D01*
X024507Y009199D01*
X023877Y009199D01*
X023877Y009279D02*
X024507Y009279D01*
X023877Y009128D02*
X023877Y009042D01*
X023877Y009128D02*
X024507Y009128D01*
X024507Y009042D01*
X023877Y009042D01*
X023877Y009122D02*
X024507Y009122D01*
X023877Y008970D02*
X023877Y008884D01*
X023877Y008970D02*
X024507Y008970D01*
X024507Y008884D01*
X023877Y008884D01*
X023877Y008964D02*
X024507Y008964D01*
X023877Y008813D02*
X023877Y008727D01*
X023877Y008813D02*
X024507Y008813D01*
X024507Y008727D01*
X023877Y008727D01*
X023877Y008807D02*
X024507Y008807D01*
D29*
X023181Y005052D02*
X023155Y005052D01*
X023181Y005052D02*
X023181Y004770D01*
X023155Y004770D01*
X023155Y005052D01*
X023155Y004961D02*
X023181Y004961D01*
X022866Y005052D02*
X022840Y005052D01*
X022866Y005052D02*
X022866Y004770D01*
X022840Y004770D01*
X022840Y005052D01*
X022840Y004961D02*
X022866Y004961D01*
X022551Y005052D02*
X022525Y005052D01*
X022551Y005052D02*
X022551Y004770D01*
X022525Y004770D01*
X022525Y005052D01*
X022525Y004961D02*
X022551Y004961D01*
X022236Y005052D02*
X022210Y005052D01*
X022236Y005052D02*
X022236Y004770D01*
X022210Y004770D01*
X022210Y005052D01*
X022210Y004961D02*
X022236Y004961D01*
X021921Y005052D02*
X021895Y005052D01*
X021921Y005052D02*
X021921Y004770D01*
X021895Y004770D01*
X021895Y005052D01*
X021895Y004961D02*
X021921Y004961D01*
X021606Y005052D02*
X021580Y005052D01*
X021606Y005052D02*
X021606Y004770D01*
X021580Y004770D01*
X021580Y005052D01*
X021580Y004961D02*
X021606Y004961D01*
X021295Y004452D02*
X021295Y004426D01*
X021295Y004452D02*
X021577Y004452D01*
X021577Y004426D01*
X021295Y004426D01*
X021295Y004137D02*
X021295Y004111D01*
X021295Y004137D02*
X021577Y004137D01*
X021577Y004111D01*
X021295Y004111D01*
X021295Y003822D02*
X021295Y003796D01*
X021295Y003822D02*
X021577Y003822D01*
X021577Y003796D01*
X021295Y003796D01*
X021295Y003507D02*
X021295Y003481D01*
X021295Y003507D02*
X021577Y003507D01*
X021577Y003481D01*
X021295Y003481D01*
X021580Y003163D02*
X021606Y003163D01*
X021606Y002881D01*
X021580Y002881D01*
X021580Y003163D01*
X021580Y003072D02*
X021606Y003072D01*
X021895Y003163D02*
X021921Y003163D01*
X021921Y002881D01*
X021895Y002881D01*
X021895Y003163D01*
X021895Y003072D02*
X021921Y003072D01*
X022210Y003163D02*
X022236Y003163D01*
X022236Y002881D01*
X022210Y002881D01*
X022210Y003163D01*
X022210Y003072D02*
X022236Y003072D01*
X022525Y003163D02*
X022551Y003163D01*
X022551Y002881D01*
X022525Y002881D01*
X022525Y003163D01*
X022525Y003072D02*
X022551Y003072D01*
X022840Y003163D02*
X022866Y003163D01*
X022866Y002881D01*
X022840Y002881D01*
X022840Y003163D01*
X022840Y003072D02*
X022866Y003072D01*
X023155Y003163D02*
X023181Y003163D01*
X023181Y002881D01*
X023155Y002881D01*
X023155Y003163D01*
X023155Y003072D02*
X023181Y003072D01*
X023185Y003481D02*
X023185Y003507D01*
X023467Y003507D01*
X023467Y003481D01*
X023185Y003481D01*
X023185Y003796D02*
X023185Y003822D01*
X023467Y003822D01*
X023467Y003796D01*
X023185Y003796D01*
X023185Y004111D02*
X023185Y004137D01*
X023467Y004137D01*
X023467Y004111D01*
X023185Y004111D01*
X023185Y004426D02*
X023185Y004452D01*
X023467Y004452D01*
X023467Y004426D01*
X023185Y004426D01*
D30*
X022381Y003967D03*
M02*
