G75*
G70*
%OFA0B0*%
%FSLAX24Y24*%
%IPPOS*%
%LPD*%
%AMOC8*
5,1,8,0,0,1.08239X$1,22.5*
%
%ADD10C,0.0000*%
%ADD11C,0.0070*%
%ADD12C,0.0090*%
%ADD13R,0.0220X0.0500*%
%ADD14R,0.0500X0.0220*%
%ADD15R,0.0480X0.0880*%
%ADD16R,0.1417X0.0866*%
%ADD17R,0.0551X0.0630*%
%ADD18C,0.0590*%
%ADD19R,0.0590X0.0590*%
%ADD20C,0.0930*%
%ADD21C,0.0640*%
%ADD22C,0.0634*%
%ADD23R,0.0630X0.0512*%
%ADD24R,0.0591X0.0512*%
%ADD25R,0.0512X0.0630*%
%ADD26R,0.0472X0.0394*%
%ADD27R,0.0433X0.0748*%
%ADD28R,0.0512X0.0591*%
%ADD29R,0.0472X0.0472*%
%ADD30R,0.0630X0.0551*%
%ADD31R,0.0394X0.0472*%
%ADD32OC8,0.0640*%
%ADD33OC8,0.1900*%
%ADD34R,0.1063X0.0827*%
%ADD35R,0.0984X0.0669*%
%ADD36R,0.0630X0.0086*%
%ADD37R,0.0086X0.0630*%
%ADD38C,0.0110*%
%ADD39R,0.0358X0.0358*%
%ADD40C,0.0100*%
%ADD41OC8,0.0436*%
%ADD42C,0.0086*%
D10*
X009192Y000423D02*
X009192Y020108D01*
X033208Y020108D01*
X033208Y000423D01*
X009192Y000423D01*
X009940Y001604D02*
X009942Y001654D01*
X009948Y001704D01*
X009958Y001753D01*
X009972Y001801D01*
X009989Y001848D01*
X010010Y001893D01*
X010035Y001937D01*
X010063Y001978D01*
X010095Y002017D01*
X010129Y002054D01*
X010166Y002088D01*
X010206Y002118D01*
X010248Y002145D01*
X010292Y002169D01*
X010338Y002190D01*
X010385Y002206D01*
X010433Y002219D01*
X010483Y002228D01*
X010532Y002233D01*
X010583Y002234D01*
X010633Y002231D01*
X010682Y002224D01*
X010731Y002213D01*
X010779Y002198D01*
X010825Y002180D01*
X010870Y002158D01*
X010913Y002132D01*
X010954Y002103D01*
X010993Y002071D01*
X011029Y002036D01*
X011061Y001998D01*
X011091Y001958D01*
X011118Y001915D01*
X011141Y001871D01*
X011160Y001825D01*
X011176Y001777D01*
X011188Y001728D01*
X011196Y001679D01*
X011200Y001629D01*
X011200Y001579D01*
X011196Y001529D01*
X011188Y001480D01*
X011176Y001431D01*
X011160Y001383D01*
X011141Y001337D01*
X011118Y001293D01*
X011091Y001250D01*
X011061Y001210D01*
X011029Y001172D01*
X010993Y001137D01*
X010954Y001105D01*
X010913Y001076D01*
X010870Y001050D01*
X010825Y001028D01*
X010779Y001010D01*
X010731Y000995D01*
X010682Y000984D01*
X010633Y000977D01*
X010583Y000974D01*
X010532Y000975D01*
X010483Y000980D01*
X010433Y000989D01*
X010385Y001002D01*
X010338Y001018D01*
X010292Y001039D01*
X010248Y001063D01*
X010206Y001090D01*
X010166Y001120D01*
X010129Y001154D01*
X010095Y001191D01*
X010063Y001230D01*
X010035Y001271D01*
X010010Y001315D01*
X009989Y001360D01*
X009972Y001407D01*
X009958Y001455D01*
X009948Y001504D01*
X009942Y001554D01*
X009940Y001604D01*
X009930Y008016D02*
X009932Y008066D01*
X009938Y008116D01*
X009948Y008165D01*
X009961Y008214D01*
X009979Y008261D01*
X010000Y008307D01*
X010024Y008350D01*
X010052Y008392D01*
X010083Y008432D01*
X010117Y008469D01*
X010154Y008503D01*
X010194Y008534D01*
X010236Y008562D01*
X010279Y008586D01*
X010325Y008607D01*
X010372Y008625D01*
X010421Y008638D01*
X010470Y008648D01*
X010520Y008654D01*
X010570Y008656D01*
X010620Y008654D01*
X010670Y008648D01*
X010719Y008638D01*
X010768Y008625D01*
X010815Y008607D01*
X010861Y008586D01*
X010904Y008562D01*
X010946Y008534D01*
X010986Y008503D01*
X011023Y008469D01*
X011057Y008432D01*
X011088Y008392D01*
X011116Y008350D01*
X011140Y008307D01*
X011161Y008261D01*
X011179Y008214D01*
X011192Y008165D01*
X011202Y008116D01*
X011208Y008066D01*
X011210Y008016D01*
X011208Y007966D01*
X011202Y007916D01*
X011192Y007867D01*
X011179Y007818D01*
X011161Y007771D01*
X011140Y007725D01*
X011116Y007682D01*
X011088Y007640D01*
X011057Y007600D01*
X011023Y007563D01*
X010986Y007529D01*
X010946Y007498D01*
X010904Y007470D01*
X010861Y007446D01*
X010815Y007425D01*
X010768Y007407D01*
X010719Y007394D01*
X010670Y007384D01*
X010620Y007378D01*
X010570Y007376D01*
X010520Y007378D01*
X010470Y007384D01*
X010421Y007394D01*
X010372Y007407D01*
X010325Y007425D01*
X010279Y007446D01*
X010236Y007470D01*
X010194Y007498D01*
X010154Y007529D01*
X010117Y007563D01*
X010083Y007600D01*
X010052Y007640D01*
X010024Y007682D01*
X010000Y007725D01*
X009979Y007771D01*
X009961Y007818D01*
X009948Y007867D01*
X009938Y007916D01*
X009932Y007966D01*
X009930Y008016D01*
X009930Y012516D02*
X009932Y012566D01*
X009938Y012616D01*
X009948Y012665D01*
X009961Y012714D01*
X009979Y012761D01*
X010000Y012807D01*
X010024Y012850D01*
X010052Y012892D01*
X010083Y012932D01*
X010117Y012969D01*
X010154Y013003D01*
X010194Y013034D01*
X010236Y013062D01*
X010279Y013086D01*
X010325Y013107D01*
X010372Y013125D01*
X010421Y013138D01*
X010470Y013148D01*
X010520Y013154D01*
X010570Y013156D01*
X010620Y013154D01*
X010670Y013148D01*
X010719Y013138D01*
X010768Y013125D01*
X010815Y013107D01*
X010861Y013086D01*
X010904Y013062D01*
X010946Y013034D01*
X010986Y013003D01*
X011023Y012969D01*
X011057Y012932D01*
X011088Y012892D01*
X011116Y012850D01*
X011140Y012807D01*
X011161Y012761D01*
X011179Y012714D01*
X011192Y012665D01*
X011202Y012616D01*
X011208Y012566D01*
X011210Y012516D01*
X011208Y012466D01*
X011202Y012416D01*
X011192Y012367D01*
X011179Y012318D01*
X011161Y012271D01*
X011140Y012225D01*
X011116Y012182D01*
X011088Y012140D01*
X011057Y012100D01*
X011023Y012063D01*
X010986Y012029D01*
X010946Y011998D01*
X010904Y011970D01*
X010861Y011946D01*
X010815Y011925D01*
X010768Y011907D01*
X010719Y011894D01*
X010670Y011884D01*
X010620Y011878D01*
X010570Y011876D01*
X010520Y011878D01*
X010470Y011884D01*
X010421Y011894D01*
X010372Y011907D01*
X010325Y011925D01*
X010279Y011946D01*
X010236Y011970D01*
X010194Y011998D01*
X010154Y012029D01*
X010117Y012063D01*
X010083Y012100D01*
X010052Y012140D01*
X010024Y012182D01*
X010000Y012225D01*
X009979Y012271D01*
X009961Y012318D01*
X009948Y012367D01*
X009938Y012416D01*
X009932Y012466D01*
X009930Y012516D01*
X009940Y018927D02*
X009942Y018977D01*
X009948Y019027D01*
X009958Y019076D01*
X009972Y019124D01*
X009989Y019171D01*
X010010Y019216D01*
X010035Y019260D01*
X010063Y019301D01*
X010095Y019340D01*
X010129Y019377D01*
X010166Y019411D01*
X010206Y019441D01*
X010248Y019468D01*
X010292Y019492D01*
X010338Y019513D01*
X010385Y019529D01*
X010433Y019542D01*
X010483Y019551D01*
X010532Y019556D01*
X010583Y019557D01*
X010633Y019554D01*
X010682Y019547D01*
X010731Y019536D01*
X010779Y019521D01*
X010825Y019503D01*
X010870Y019481D01*
X010913Y019455D01*
X010954Y019426D01*
X010993Y019394D01*
X011029Y019359D01*
X011061Y019321D01*
X011091Y019281D01*
X011118Y019238D01*
X011141Y019194D01*
X011160Y019148D01*
X011176Y019100D01*
X011188Y019051D01*
X011196Y019002D01*
X011200Y018952D01*
X011200Y018902D01*
X011196Y018852D01*
X011188Y018803D01*
X011176Y018754D01*
X011160Y018706D01*
X011141Y018660D01*
X011118Y018616D01*
X011091Y018573D01*
X011061Y018533D01*
X011029Y018495D01*
X010993Y018460D01*
X010954Y018428D01*
X010913Y018399D01*
X010870Y018373D01*
X010825Y018351D01*
X010779Y018333D01*
X010731Y018318D01*
X010682Y018307D01*
X010633Y018300D01*
X010583Y018297D01*
X010532Y018298D01*
X010483Y018303D01*
X010433Y018312D01*
X010385Y018325D01*
X010338Y018341D01*
X010292Y018362D01*
X010248Y018386D01*
X010206Y018413D01*
X010166Y018443D01*
X010129Y018477D01*
X010095Y018514D01*
X010063Y018553D01*
X010035Y018594D01*
X010010Y018638D01*
X009989Y018683D01*
X009972Y018730D01*
X009958Y018778D01*
X009948Y018827D01*
X009942Y018877D01*
X009940Y018927D01*
X031200Y018927D02*
X031202Y018977D01*
X031208Y019027D01*
X031218Y019076D01*
X031232Y019124D01*
X031249Y019171D01*
X031270Y019216D01*
X031295Y019260D01*
X031323Y019301D01*
X031355Y019340D01*
X031389Y019377D01*
X031426Y019411D01*
X031466Y019441D01*
X031508Y019468D01*
X031552Y019492D01*
X031598Y019513D01*
X031645Y019529D01*
X031693Y019542D01*
X031743Y019551D01*
X031792Y019556D01*
X031843Y019557D01*
X031893Y019554D01*
X031942Y019547D01*
X031991Y019536D01*
X032039Y019521D01*
X032085Y019503D01*
X032130Y019481D01*
X032173Y019455D01*
X032214Y019426D01*
X032253Y019394D01*
X032289Y019359D01*
X032321Y019321D01*
X032351Y019281D01*
X032378Y019238D01*
X032401Y019194D01*
X032420Y019148D01*
X032436Y019100D01*
X032448Y019051D01*
X032456Y019002D01*
X032460Y018952D01*
X032460Y018902D01*
X032456Y018852D01*
X032448Y018803D01*
X032436Y018754D01*
X032420Y018706D01*
X032401Y018660D01*
X032378Y018616D01*
X032351Y018573D01*
X032321Y018533D01*
X032289Y018495D01*
X032253Y018460D01*
X032214Y018428D01*
X032173Y018399D01*
X032130Y018373D01*
X032085Y018351D01*
X032039Y018333D01*
X031991Y018318D01*
X031942Y018307D01*
X031893Y018300D01*
X031843Y018297D01*
X031792Y018298D01*
X031743Y018303D01*
X031693Y018312D01*
X031645Y018325D01*
X031598Y018341D01*
X031552Y018362D01*
X031508Y018386D01*
X031466Y018413D01*
X031426Y018443D01*
X031389Y018477D01*
X031355Y018514D01*
X031323Y018553D01*
X031295Y018594D01*
X031270Y018638D01*
X031249Y018683D01*
X031232Y018730D01*
X031218Y018778D01*
X031208Y018827D01*
X031202Y018877D01*
X031200Y018927D01*
X031200Y001604D02*
X031202Y001654D01*
X031208Y001704D01*
X031218Y001753D01*
X031232Y001801D01*
X031249Y001848D01*
X031270Y001893D01*
X031295Y001937D01*
X031323Y001978D01*
X031355Y002017D01*
X031389Y002054D01*
X031426Y002088D01*
X031466Y002118D01*
X031508Y002145D01*
X031552Y002169D01*
X031598Y002190D01*
X031645Y002206D01*
X031693Y002219D01*
X031743Y002228D01*
X031792Y002233D01*
X031843Y002234D01*
X031893Y002231D01*
X031942Y002224D01*
X031991Y002213D01*
X032039Y002198D01*
X032085Y002180D01*
X032130Y002158D01*
X032173Y002132D01*
X032214Y002103D01*
X032253Y002071D01*
X032289Y002036D01*
X032321Y001998D01*
X032351Y001958D01*
X032378Y001915D01*
X032401Y001871D01*
X032420Y001825D01*
X032436Y001777D01*
X032448Y001728D01*
X032456Y001679D01*
X032460Y001629D01*
X032460Y001579D01*
X032456Y001529D01*
X032448Y001480D01*
X032436Y001431D01*
X032420Y001383D01*
X032401Y001337D01*
X032378Y001293D01*
X032351Y001250D01*
X032321Y001210D01*
X032289Y001172D01*
X032253Y001137D01*
X032214Y001105D01*
X032173Y001076D01*
X032130Y001050D01*
X032085Y001028D01*
X032039Y001010D01*
X031991Y000995D01*
X031942Y000984D01*
X031893Y000977D01*
X031843Y000974D01*
X031792Y000975D01*
X031743Y000980D01*
X031693Y000989D01*
X031645Y001002D01*
X031598Y001018D01*
X031552Y001039D01*
X031508Y001063D01*
X031466Y001090D01*
X031426Y001120D01*
X031389Y001154D01*
X031355Y001191D01*
X031323Y001230D01*
X031295Y001271D01*
X031270Y001315D01*
X031249Y001360D01*
X031232Y001407D01*
X031218Y001455D01*
X031208Y001504D01*
X031202Y001554D01*
X031200Y001604D01*
D11*
X032302Y002718D02*
X032346Y002718D01*
X032391Y002762D01*
X032391Y002850D01*
X032435Y002894D01*
X032479Y002894D01*
X032523Y002850D01*
X032523Y002762D01*
X032479Y002718D01*
X032302Y002718D02*
X032258Y002762D01*
X032258Y002850D01*
X032302Y002894D01*
X032391Y003026D02*
X032346Y003070D01*
X032346Y003158D01*
X032391Y003202D01*
X032435Y003202D01*
X032435Y003026D01*
X032479Y003026D02*
X032391Y003026D01*
X032479Y003026D02*
X032523Y003070D01*
X032523Y003158D01*
X032346Y003334D02*
X032523Y003422D01*
X032346Y003510D01*
X032391Y003642D02*
X032346Y003686D01*
X032346Y003774D01*
X032391Y003818D01*
X032435Y003818D01*
X032435Y003642D01*
X032479Y003642D02*
X032391Y003642D01*
X032479Y003642D02*
X032523Y003686D01*
X032523Y003774D01*
X032523Y003950D02*
X032346Y003950D01*
X032346Y004038D02*
X032346Y004082D01*
X032346Y004038D02*
X032435Y003950D01*
X032523Y004207D02*
X032523Y004295D01*
X032523Y004251D02*
X032346Y004251D01*
X032346Y004207D01*
X032258Y004251D02*
X032214Y004251D01*
X032346Y004412D02*
X032346Y004545D01*
X032391Y004589D01*
X032523Y004589D01*
X032523Y004412D02*
X032346Y004412D01*
X032346Y005028D02*
X032391Y005073D01*
X032391Y005161D01*
X032435Y005205D01*
X032479Y005205D01*
X032523Y005161D01*
X032523Y005073D01*
X032479Y005028D01*
X032346Y005028D02*
X032302Y005028D01*
X032258Y005073D01*
X032258Y005161D01*
X032302Y005205D01*
X032346Y005336D02*
X032346Y005381D01*
X032391Y005425D01*
X032346Y005469D01*
X032391Y005513D01*
X032523Y005513D01*
X032523Y005425D02*
X032391Y005425D01*
X032346Y005336D02*
X032523Y005336D01*
X032523Y005645D02*
X032523Y005733D01*
X032523Y005689D02*
X032346Y005689D01*
X032346Y005645D01*
X032258Y005689D02*
X032214Y005689D01*
X032346Y005850D02*
X032346Y005938D01*
X032302Y005894D02*
X032479Y005894D01*
X032523Y005938D01*
X032523Y006055D02*
X032258Y006055D01*
X032346Y006100D02*
X032391Y006055D01*
X032346Y006100D02*
X032346Y006188D01*
X032391Y006232D01*
X032523Y006232D01*
D12*
X032021Y006079D02*
X031792Y006194D01*
X031735Y006363D02*
X031677Y006421D01*
X031677Y006535D01*
X031735Y006592D01*
X031964Y006363D01*
X032021Y006421D01*
X032021Y006535D01*
X031964Y006592D01*
X031735Y006592D01*
X031735Y006762D02*
X031677Y006819D01*
X031677Y006934D01*
X031735Y006991D01*
X031792Y006991D01*
X031849Y006934D01*
X031906Y006991D01*
X031964Y006991D01*
X032021Y006934D01*
X032021Y006819D01*
X031964Y006762D01*
X031849Y006877D02*
X031849Y006934D01*
X031964Y006363D02*
X031735Y006363D01*
X031792Y005965D02*
X032021Y006079D01*
X031906Y005396D02*
X031849Y005396D01*
X031792Y005339D01*
X031792Y005224D01*
X031849Y005167D01*
X031964Y005167D01*
X032021Y005224D01*
X032021Y005339D01*
X031906Y005396D02*
X031906Y005167D01*
X031906Y004997D02*
X031906Y004826D01*
X031964Y004769D01*
X032021Y004826D01*
X032021Y004997D01*
X031849Y004997D01*
X031792Y004940D01*
X031792Y004826D01*
X031792Y004599D02*
X031792Y004427D01*
X031849Y004370D01*
X031964Y004370D01*
X032021Y004427D01*
X032021Y004599D01*
X031677Y004599D01*
X031677Y004161D02*
X031620Y004161D01*
X031792Y004161D02*
X032021Y004161D01*
X032021Y004104D02*
X032021Y004218D01*
X031792Y004161D02*
X031792Y004104D01*
X031792Y003953D02*
X031792Y003838D01*
X031735Y003895D02*
X031964Y003895D01*
X032021Y003953D01*
X032021Y003668D02*
X031849Y003668D01*
X031792Y003611D01*
X031792Y003497D01*
X031906Y003497D02*
X031964Y003439D01*
X032021Y003497D01*
X032021Y003668D01*
X031906Y003668D02*
X031906Y003497D01*
X031849Y003270D02*
X032021Y003270D01*
X031849Y003270D02*
X031792Y003212D01*
X031792Y003041D01*
X032021Y003041D01*
X032021Y002871D02*
X031792Y002871D01*
X031677Y002756D01*
X031792Y002642D01*
X032021Y002642D01*
X031849Y002642D02*
X031849Y002871D01*
D13*
X030373Y008576D03*
X030058Y008576D03*
X029743Y008576D03*
X029428Y008576D03*
X029113Y008576D03*
X028798Y008576D03*
X028483Y008576D03*
X028168Y008576D03*
X028168Y011956D03*
X028483Y011956D03*
X028798Y011956D03*
X029113Y011956D03*
X029428Y011956D03*
X029743Y011956D03*
X030058Y011956D03*
X030373Y011956D03*
D14*
X030961Y011368D03*
X030961Y011053D03*
X030961Y010738D03*
X030961Y010423D03*
X030961Y010108D03*
X030961Y009793D03*
X030961Y009478D03*
X030961Y009163D03*
X027581Y009163D03*
X027581Y009478D03*
X027581Y009793D03*
X027581Y010108D03*
X027581Y010423D03*
X027581Y010738D03*
X027581Y011053D03*
X027581Y011368D03*
D15*
X018566Y016920D03*
X017656Y016920D03*
X016747Y016920D03*
X016991Y003612D03*
X016082Y003612D03*
X015172Y003612D03*
D16*
X016082Y001172D03*
X017656Y019360D03*
D17*
X019231Y015384D03*
X020215Y015384D03*
X020215Y014203D03*
X019231Y014203D03*
X025924Y006723D03*
X025924Y005541D03*
X019034Y004951D03*
X018050Y004951D03*
X018050Y006132D03*
X019034Y006132D03*
D18*
X014070Y008516D03*
X013070Y009016D03*
X014070Y009516D03*
X013070Y010016D03*
X014070Y011516D03*
X015070Y012016D03*
X014070Y012516D03*
X013070Y012016D03*
D19*
X013070Y008016D03*
D20*
X011770Y007616D03*
X011770Y012916D03*
D21*
X015970Y012416D03*
X015970Y011416D03*
X015970Y009116D03*
X015970Y008116D03*
D22*
X013347Y014695D02*
X012714Y014695D01*
X010788Y014695D02*
X010154Y014695D01*
X010154Y016467D02*
X010788Y016467D01*
X012714Y016467D02*
X013347Y016467D01*
D23*
X015688Y016585D03*
X015688Y017333D03*
X016278Y015364D03*
X017263Y015364D03*
X018247Y015364D03*
X018247Y014616D03*
X017263Y014616D03*
X016278Y014616D03*
X021200Y014971D03*
X022184Y014971D03*
X023168Y014971D03*
X024152Y014971D03*
X025334Y014616D03*
X024152Y014223D03*
X023168Y014223D03*
X022184Y014223D03*
X021200Y014223D03*
X025334Y015364D03*
X032223Y010049D03*
X032223Y009301D03*
X022381Y006506D03*
X022381Y005758D03*
X019034Y003947D03*
X018050Y003947D03*
X018050Y003199D03*
X019034Y003199D03*
X020412Y001978D03*
X020412Y001230D03*
X023365Y001230D03*
X023365Y001978D03*
X016082Y004971D03*
X015097Y004971D03*
X015097Y005719D03*
X016082Y005719D03*
D24*
X017066Y005719D03*
X017066Y004971D03*
X020412Y005758D03*
X021397Y005758D03*
X021397Y006506D03*
X020412Y006506D03*
X024743Y004931D03*
X024743Y004183D03*
X024940Y005758D03*
X024940Y006506D03*
X026908Y006506D03*
X026908Y005758D03*
X024349Y001978D03*
X024349Y001230D03*
X022381Y001230D03*
X022381Y001978D03*
X021397Y001978D03*
X021397Y001230D03*
X019428Y001230D03*
X019428Y001978D03*
X015294Y014616D03*
X015294Y015364D03*
D25*
X017479Y013219D03*
X018227Y013219D03*
X018227Y012037D03*
X017479Y012037D03*
X025353Y011053D03*
X026101Y011053D03*
X026101Y009872D03*
X025353Y009872D03*
X025353Y008691D03*
X026101Y008691D03*
X018227Y007313D03*
X017479Y007313D03*
D26*
X017420Y009675D03*
X018286Y009675D03*
X018286Y010856D03*
X017420Y010856D03*
D27*
X026475Y014360D03*
X027341Y014360D03*
X027341Y015620D03*
X026475Y015620D03*
X030412Y015620D03*
X031278Y015620D03*
X031278Y014360D03*
X030412Y014360D03*
D28*
X029251Y014203D03*
X028503Y014203D03*
X027282Y013415D03*
X026534Y013415D03*
X026495Y012234D03*
X025747Y012234D03*
X030471Y013415D03*
X031219Y013415D03*
X031219Y016565D03*
X030471Y016565D03*
X029251Y016565D03*
X028503Y016565D03*
X027282Y016565D03*
X026534Y016565D03*
X018227Y008494D03*
X017479Y008494D03*
D29*
X018050Y002018D03*
X018050Y001191D03*
X032223Y010837D03*
X032223Y011663D03*
X024152Y015679D03*
X023168Y015679D03*
X022184Y015679D03*
X021200Y015679D03*
X021200Y016506D03*
X022184Y016506D03*
X023168Y016506D03*
X024152Y016506D03*
X015688Y018514D03*
X015688Y019341D03*
D30*
X028286Y015384D03*
X029467Y015384D03*
D31*
X014310Y015423D03*
X014310Y014557D03*
D32*
X014129Y018230D03*
X013129Y018230D03*
X012129Y018230D03*
X012129Y019230D03*
X013129Y019230D03*
X014129Y019230D03*
X020684Y019230D03*
X021684Y019230D03*
X022684Y019230D03*
X023684Y019230D03*
X023684Y018230D03*
X022684Y018230D03*
X021684Y018230D03*
X020684Y018230D03*
X026286Y018230D03*
X027286Y018230D03*
X028286Y018230D03*
X029286Y018230D03*
X030286Y018230D03*
X031830Y017549D03*
X030286Y019230D03*
X029286Y019230D03*
X028286Y019230D03*
X027286Y019230D03*
X026286Y019230D03*
X026286Y002301D03*
X027286Y002301D03*
X028286Y002301D03*
X029286Y002301D03*
X030286Y002301D03*
X030286Y001301D03*
X029286Y001301D03*
X028286Y001301D03*
X027286Y001301D03*
X026286Y001301D03*
D33*
X013463Y004724D03*
X011103Y004724D03*
X012283Y002754D03*
D34*
X029271Y005345D03*
X029271Y007313D03*
D35*
X029861Y003967D03*
X028286Y003967D03*
D36*
X024192Y008770D03*
X024192Y008927D03*
X024192Y009085D03*
X024192Y009242D03*
X024192Y009400D03*
X024192Y009557D03*
X024192Y009715D03*
X024192Y009872D03*
X024192Y010030D03*
X024192Y010187D03*
X024192Y010345D03*
X024192Y010502D03*
X024192Y010660D03*
X024192Y010817D03*
X024192Y010974D03*
X024192Y011132D03*
X024192Y011289D03*
X024192Y011447D03*
X024192Y011604D03*
X024192Y011762D03*
X019782Y011762D03*
X019782Y011604D03*
X019782Y011447D03*
X019782Y011289D03*
X019782Y011132D03*
X019782Y010974D03*
X019782Y010817D03*
X019782Y010660D03*
X019782Y010502D03*
X019782Y010345D03*
X019782Y010187D03*
X019782Y010030D03*
X019782Y009872D03*
X019782Y009715D03*
X019782Y009557D03*
X019782Y009400D03*
X019782Y009242D03*
X019782Y009085D03*
X019782Y008927D03*
X019782Y008770D03*
D37*
X020491Y008061D03*
X020649Y008061D03*
X020806Y008061D03*
X020963Y008061D03*
X021121Y008061D03*
X021278Y008061D03*
X021436Y008061D03*
X021593Y008061D03*
X021751Y008061D03*
X021908Y008061D03*
X022066Y008061D03*
X022223Y008061D03*
X022381Y008061D03*
X022538Y008061D03*
X022696Y008061D03*
X022853Y008061D03*
X023011Y008061D03*
X023168Y008061D03*
X023326Y008061D03*
X023483Y008061D03*
X023483Y012471D03*
X023326Y012471D03*
X023168Y012471D03*
X023011Y012471D03*
X022853Y012471D03*
X022696Y012471D03*
X022538Y012471D03*
X022381Y012471D03*
X022223Y012471D03*
X022066Y012471D03*
X021908Y012471D03*
X021751Y012471D03*
X021593Y012471D03*
X021436Y012471D03*
X021278Y012471D03*
X021121Y012471D03*
X020963Y012471D03*
X020806Y012471D03*
X020649Y012471D03*
X020491Y012471D03*
D38*
X021579Y005053D02*
X021607Y005053D01*
X021607Y004769D01*
X021579Y004769D01*
X021579Y005053D01*
X021579Y004878D02*
X021607Y004878D01*
X021607Y004987D02*
X021579Y004987D01*
X021894Y005053D02*
X021922Y005053D01*
X021922Y004769D01*
X021894Y004769D01*
X021894Y005053D01*
X021894Y004878D02*
X021922Y004878D01*
X021922Y004987D02*
X021894Y004987D01*
X022209Y005053D02*
X022237Y005053D01*
X022237Y004769D01*
X022209Y004769D01*
X022209Y005053D01*
X022209Y004878D02*
X022237Y004878D01*
X022237Y004987D02*
X022209Y004987D01*
X022524Y005053D02*
X022552Y005053D01*
X022552Y004769D01*
X022524Y004769D01*
X022524Y005053D01*
X022524Y004878D02*
X022552Y004878D01*
X022552Y004987D02*
X022524Y004987D01*
X022839Y005053D02*
X022867Y005053D01*
X022867Y004769D01*
X022839Y004769D01*
X022839Y005053D01*
X022839Y004878D02*
X022867Y004878D01*
X022867Y004987D02*
X022839Y004987D01*
X023154Y005053D02*
X023182Y005053D01*
X023182Y004769D01*
X023154Y004769D01*
X023154Y005053D01*
X023154Y004878D02*
X023182Y004878D01*
X023182Y004987D02*
X023154Y004987D01*
X023184Y004453D02*
X023184Y004425D01*
X023184Y004453D02*
X023468Y004453D01*
X023468Y004425D01*
X023184Y004425D01*
X023184Y004138D02*
X023184Y004110D01*
X023184Y004138D02*
X023468Y004138D01*
X023468Y004110D01*
X023184Y004110D01*
X023184Y003823D02*
X023184Y003795D01*
X023184Y003823D02*
X023468Y003823D01*
X023468Y003795D01*
X023184Y003795D01*
X023184Y003508D02*
X023184Y003480D01*
X023184Y003508D02*
X023468Y003508D01*
X023468Y003480D01*
X023184Y003480D01*
X023182Y003164D02*
X023154Y003164D01*
X023182Y003164D02*
X023182Y002880D01*
X023154Y002880D01*
X023154Y003164D01*
X023154Y002989D02*
X023182Y002989D01*
X023182Y003098D02*
X023154Y003098D01*
X022867Y003164D02*
X022839Y003164D01*
X022867Y003164D02*
X022867Y002880D01*
X022839Y002880D01*
X022839Y003164D01*
X022839Y002989D02*
X022867Y002989D01*
X022867Y003098D02*
X022839Y003098D01*
X022552Y003164D02*
X022524Y003164D01*
X022552Y003164D02*
X022552Y002880D01*
X022524Y002880D01*
X022524Y003164D01*
X022524Y002989D02*
X022552Y002989D01*
X022552Y003098D02*
X022524Y003098D01*
X022237Y003164D02*
X022209Y003164D01*
X022237Y003164D02*
X022237Y002880D01*
X022209Y002880D01*
X022209Y003164D01*
X022209Y002989D02*
X022237Y002989D01*
X022237Y003098D02*
X022209Y003098D01*
X021922Y003164D02*
X021894Y003164D01*
X021922Y003164D02*
X021922Y002880D01*
X021894Y002880D01*
X021894Y003164D01*
X021894Y002989D02*
X021922Y002989D01*
X021922Y003098D02*
X021894Y003098D01*
X021607Y003164D02*
X021579Y003164D01*
X021607Y003164D02*
X021607Y002880D01*
X021579Y002880D01*
X021579Y003164D01*
X021579Y002989D02*
X021607Y002989D01*
X021607Y003098D02*
X021579Y003098D01*
X021294Y003480D02*
X021294Y003508D01*
X021578Y003508D01*
X021578Y003480D01*
X021294Y003480D01*
X021294Y003795D02*
X021294Y003823D01*
X021578Y003823D01*
X021578Y003795D01*
X021294Y003795D01*
X021294Y004110D02*
X021294Y004138D01*
X021578Y004138D01*
X021578Y004110D01*
X021294Y004110D01*
X021294Y004425D02*
X021294Y004453D01*
X021578Y004453D01*
X021578Y004425D01*
X021294Y004425D01*
D39*
X022381Y003967D03*
D40*
X021908Y004439D01*
X021908Y004911D01*
X021908Y005030D01*
X021593Y005345D01*
X021200Y005345D01*
X020826Y005345D01*
X020412Y005758D01*
X019999Y006506D02*
X019507Y006014D01*
X019507Y005541D01*
X018641Y005541D01*
X018050Y004951D01*
X017656Y004557D01*
X015491Y004557D01*
X015172Y004238D01*
X015172Y003612D01*
X014576Y003612D01*
X014576Y001142D01*
X015137Y000581D01*
X022538Y000581D01*
X023168Y001211D01*
X022971Y001211D01*
X022853Y001329D01*
X022853Y001801D01*
X022676Y001978D01*
X022381Y001978D01*
X022302Y002057D01*
X022302Y002274D01*
X021908Y002667D01*
X021908Y003022D01*
X021593Y003022D02*
X021554Y002982D01*
X020806Y002982D01*
X020609Y002786D01*
X020412Y002589D01*
X020412Y001978D01*
X019428Y001978D01*
X018886Y002000D02*
X018533Y002000D01*
X018533Y001901D02*
X018886Y001901D01*
X018886Y001803D02*
X018533Y001803D01*
X018533Y001732D02*
X018533Y002124D01*
X018833Y002124D01*
X018886Y002176D01*
X018886Y001673D01*
X018914Y001604D01*
X018886Y001535D01*
X018886Y000925D01*
X018906Y000878D01*
X018521Y000878D01*
X018533Y000906D01*
X018533Y001476D01*
X018496Y001567D01*
X018458Y001604D01*
X018496Y001642D01*
X018533Y001732D01*
X018521Y001704D02*
X018886Y001704D01*
X018914Y001606D02*
X018460Y001606D01*
X018520Y001507D02*
X018886Y001507D01*
X018886Y001409D02*
X018533Y001409D01*
X018533Y001310D02*
X018886Y001310D01*
X018886Y001212D02*
X018533Y001212D01*
X018533Y001113D02*
X018886Y001113D01*
X018886Y001015D02*
X018533Y001015D01*
X018533Y000916D02*
X018890Y000916D01*
X018837Y000974D02*
X019034Y000778D01*
X022302Y000778D01*
X022381Y000856D01*
X022381Y001230D01*
X023168Y001211D02*
X023188Y001230D01*
X023168Y001211D02*
X023345Y001211D01*
X023365Y001230D01*
X024349Y001230D01*
X024763Y001230D01*
X025334Y001801D01*
X025334Y002392D01*
X026121Y003179D01*
X029074Y003179D01*
X029861Y003967D01*
X030493Y003423D02*
X030549Y003478D01*
X030548Y003478D01*
X030549Y003478D02*
X030549Y002704D01*
X030481Y002771D01*
X030336Y002771D01*
X030336Y002351D01*
X030236Y002351D01*
X030236Y002771D01*
X030092Y002771D01*
X029853Y002533D01*
X029853Y002536D01*
X029521Y002868D01*
X029051Y002868D01*
X028786Y002603D01*
X028521Y002868D01*
X028051Y002868D01*
X027786Y002603D01*
X027521Y002868D01*
X027051Y002868D01*
X026786Y002603D01*
X026521Y002868D01*
X026230Y002868D01*
X026244Y002882D01*
X029133Y002882D01*
X029242Y002928D01*
X029325Y003011D01*
X029699Y003385D01*
X030402Y003385D01*
X030493Y003423D01*
X030549Y003380D02*
X029694Y003380D01*
X029595Y003281D02*
X030549Y003281D01*
X030549Y003183D02*
X029497Y003183D01*
X029398Y003084D02*
X030549Y003084D01*
X030549Y002985D02*
X029300Y002985D01*
X029144Y002887D02*
X030549Y002887D01*
X030549Y002788D02*
X029601Y002788D01*
X029699Y002690D02*
X030010Y002690D01*
X029912Y002591D02*
X029798Y002591D01*
X030236Y002591D02*
X030336Y002591D01*
X030336Y002493D02*
X030236Y002493D01*
X030236Y002394D02*
X030336Y002394D01*
X030286Y002301D02*
X030649Y002663D01*
X030649Y006329D01*
X029467Y007510D01*
X029467Y008100D01*
X028877Y008100D01*
X028798Y008179D01*
X028798Y008576D01*
X028483Y008576D02*
X028483Y007510D01*
X027696Y006723D01*
X028161Y006730D02*
X029605Y006730D01*
X029624Y006750D02*
X029500Y006626D01*
X028424Y006626D01*
X028315Y006580D01*
X028231Y006497D01*
X027354Y005619D01*
X027354Y005708D01*
X026958Y005708D01*
X026958Y005352D01*
X027087Y005352D01*
X026392Y004657D01*
X026088Y004657D01*
X025920Y004825D01*
X025535Y004825D01*
X025262Y004553D01*
X025262Y004543D01*
X025256Y004557D01*
X025285Y004626D01*
X025285Y005236D01*
X025248Y005327D01*
X025222Y005352D01*
X025255Y005352D01*
X025293Y005362D01*
X025327Y005382D01*
X025355Y005410D01*
X025375Y005444D01*
X025385Y005482D01*
X025385Y005708D01*
X024990Y005708D01*
X024990Y005808D01*
X025385Y005808D01*
X025385Y006034D01*
X025381Y006047D01*
X025444Y006110D01*
X025482Y006201D01*
X025482Y006209D01*
X025498Y006209D01*
X025509Y006198D01*
X025599Y006161D01*
X026249Y006161D01*
X026339Y006198D01*
X026350Y006209D01*
X026366Y006209D01*
X026366Y006201D01*
X026404Y006110D01*
X026467Y006047D01*
X026463Y006034D01*
X026463Y005808D01*
X026858Y005808D01*
X026858Y005708D01*
X026463Y005708D01*
X026463Y005482D01*
X026473Y005444D01*
X026493Y005410D01*
X026521Y005382D01*
X026555Y005362D01*
X026593Y005352D01*
X026858Y005352D01*
X026858Y005708D01*
X026958Y005708D01*
X026958Y005808D01*
X027354Y005808D01*
X027354Y006034D01*
X027350Y006047D01*
X027413Y006110D01*
X027450Y006201D01*
X027450Y006310D01*
X027503Y006258D01*
X027888Y006258D01*
X028161Y006530D01*
X028161Y006768D01*
X028589Y007196D01*
X028589Y006880D01*
X028599Y006842D01*
X028619Y006808D01*
X028647Y006780D01*
X028681Y006760D01*
X028719Y006750D01*
X029221Y006750D01*
X029221Y007263D01*
X029320Y007263D01*
X029320Y006750D01*
X029624Y006750D01*
X029506Y006632D02*
X028161Y006632D01*
X028161Y006533D02*
X028268Y006533D01*
X028169Y006434D02*
X028065Y006434D01*
X028070Y006336D02*
X027967Y006336D01*
X027972Y006237D02*
X027450Y006237D01*
X027425Y006139D02*
X027873Y006139D01*
X027775Y006040D02*
X027352Y006040D01*
X027354Y005942D02*
X027676Y005942D01*
X027578Y005843D02*
X027354Y005843D01*
X027302Y005738D02*
X028877Y007313D01*
X029271Y007313D01*
X029664Y007313D01*
X029761Y007321D02*
X029321Y007321D01*
X029321Y007363D02*
X029761Y007363D01*
X029761Y007263D01*
X029321Y007263D01*
X029321Y007363D01*
X029320Y007363D02*
X029221Y007363D01*
X029221Y007876D01*
X028780Y007876D01*
X028780Y008164D01*
X028792Y008176D01*
X028793Y008176D01*
X028793Y008177D01*
X028798Y008182D01*
X028803Y008177D01*
X028803Y008176D01*
X028804Y008176D01*
X028863Y008117D01*
X028954Y008079D01*
X029272Y008079D01*
X029363Y008117D01*
X029422Y008176D01*
X029423Y008176D01*
X029423Y008177D01*
X029428Y008182D01*
X029433Y008177D01*
X029433Y008176D01*
X029434Y008176D01*
X029446Y008164D01*
X029446Y008081D01*
X029446Y007963D01*
X029482Y007876D01*
X029320Y007876D01*
X029320Y007363D01*
X029320Y007420D02*
X029221Y007420D01*
X029220Y007363D02*
X028744Y007363D01*
X028735Y007342D01*
X028656Y007263D01*
X029220Y007263D01*
X029220Y007363D01*
X029220Y007321D02*
X028714Y007321D01*
X028589Y007124D02*
X028517Y007124D01*
X028589Y007026D02*
X028419Y007026D01*
X028320Y006927D02*
X028589Y006927D01*
X028607Y006829D02*
X028222Y006829D01*
X028483Y006329D02*
X029861Y006329D01*
X029320Y006829D02*
X029221Y006829D01*
X029221Y006927D02*
X029320Y006927D01*
X029320Y007026D02*
X029221Y007026D01*
X029221Y007124D02*
X029320Y007124D01*
X029320Y007223D02*
X029221Y007223D01*
X029271Y007313D02*
X029467Y007313D01*
X029467Y007510D01*
X029320Y007518D02*
X029221Y007518D01*
X029221Y007617D02*
X029320Y007617D01*
X029320Y007716D02*
X029221Y007716D01*
X029221Y007814D02*
X029320Y007814D01*
X029467Y007913D02*
X028780Y007913D01*
X028780Y008011D02*
X029446Y008011D01*
X029467Y008100D02*
X029467Y008536D01*
X029428Y008576D01*
X029113Y008576D02*
X029113Y008927D01*
X029231Y009045D01*
X028483Y009045D01*
X028247Y009282D01*
X028247Y009833D01*
X028916Y010502D01*
X030058Y011644D01*
X030058Y011956D01*
X030058Y012431D01*
X030255Y012628D01*
X031830Y012628D01*
X032223Y012234D01*
X032223Y011663D01*
X031633Y011841D02*
X031633Y011447D01*
X031239Y011053D01*
X030961Y011053D01*
X030961Y011368D02*
X030570Y011368D01*
X030255Y011053D01*
X030255Y010856D01*
X030255Y010463D02*
X029861Y010463D01*
X028798Y009400D01*
X028680Y009400D01*
X029231Y009045D02*
X029625Y009045D01*
X029743Y008927D01*
X029743Y008576D01*
X029743Y008022D01*
X030058Y007707D01*
X030058Y007313D01*
X030845Y006526D01*
X030845Y001998D01*
X030649Y001801D01*
X030058Y001801D01*
X025924Y001801D01*
X025530Y001408D01*
X024940Y001998D02*
X024940Y003986D01*
X024743Y004183D01*
X024310Y003809D02*
X023326Y003809D01*
X023326Y003494D02*
X023956Y003494D01*
X023837Y003494D01*
X023956Y003494D02*
X024113Y003494D01*
X024271Y003337D01*
X024743Y003376D02*
X024310Y003809D01*
X024743Y003376D02*
X024743Y002372D01*
X024349Y001978D01*
X023562Y001978D02*
X023168Y002372D01*
X023168Y002589D01*
X023168Y003022D01*
X022853Y003022D02*
X022853Y003376D01*
X022853Y004282D01*
X022774Y004360D01*
X022538Y004597D01*
X022538Y004911D01*
X022538Y005187D01*
X022381Y005345D01*
X022184Y005345D01*
X021987Y005345D01*
X021790Y005541D01*
X021574Y005758D01*
X021397Y005758D01*
X021357Y005148D02*
X020806Y005148D01*
X020294Y005148D01*
X019900Y004754D01*
X019507Y004557D02*
X019507Y005541D01*
X018984Y006082D02*
X018609Y006082D01*
X018609Y005838D01*
X018582Y005838D01*
X018475Y005794D01*
X018476Y005797D01*
X018476Y006082D01*
X018100Y006082D01*
X018100Y005667D01*
X018345Y005667D01*
X018347Y005667D01*
X018192Y005513D01*
X017725Y005513D01*
X017635Y005475D01*
X017565Y005406D01*
X017555Y005381D01*
X017507Y005429D01*
X017511Y005443D01*
X017511Y005669D01*
X017116Y005669D01*
X017116Y005768D01*
X017511Y005768D01*
X017511Y005994D01*
X017501Y006032D01*
X017481Y006067D01*
X017453Y006094D01*
X017419Y006114D01*
X017381Y006124D01*
X017116Y006124D01*
X017116Y005769D01*
X017016Y005769D01*
X017016Y006124D01*
X016751Y006124D01*
X016713Y006114D01*
X016678Y006094D01*
X016651Y006067D01*
X016636Y006041D01*
X016606Y006114D01*
X016536Y006184D01*
X016446Y006221D01*
X016366Y006221D01*
X016333Y006300D01*
X015939Y006694D01*
X015856Y006777D01*
X015747Y006822D01*
X014172Y006822D01*
X013724Y006822D01*
X013073Y007474D01*
X013414Y007474D01*
X013505Y007512D01*
X013574Y007581D01*
X013612Y007672D01*
X013612Y008208D01*
X013763Y008056D01*
X013962Y007974D01*
X014178Y007974D01*
X014377Y008056D01*
X014529Y008209D01*
X014573Y008315D01*
X015439Y008315D01*
X015403Y008229D01*
X015403Y008003D01*
X015489Y007795D01*
X015649Y007635D01*
X015793Y007575D01*
X016224Y007145D01*
X016307Y007061D01*
X016416Y007016D01*
X016976Y007016D01*
X016976Y006949D01*
X017014Y006858D01*
X017083Y006789D01*
X017174Y006751D01*
X017784Y006751D01*
X017853Y006780D01*
X017922Y006751D01*
X018389Y006751D01*
X018586Y006554D01*
X018625Y006515D01*
X018619Y006505D01*
X018609Y006467D01*
X018609Y006182D01*
X018984Y006182D01*
X018984Y006082D01*
X018984Y006139D02*
X018100Y006139D01*
X018100Y006182D02*
X018476Y006182D01*
X018476Y006467D01*
X018465Y006505D01*
X018446Y006539D01*
X018418Y006567D01*
X018384Y006587D01*
X018345Y006597D01*
X018100Y006597D01*
X018100Y006182D01*
X018000Y006182D01*
X018000Y006597D01*
X017755Y006597D01*
X017717Y006587D01*
X017682Y006567D01*
X017654Y006539D01*
X017635Y006505D01*
X017624Y006467D01*
X017624Y006182D01*
X018000Y006182D01*
X018000Y006082D01*
X017624Y006082D01*
X017624Y005797D01*
X017635Y005759D01*
X017654Y005725D01*
X017682Y005697D01*
X017717Y005677D01*
X017755Y005667D01*
X018000Y005667D01*
X018000Y006082D01*
X018100Y006082D01*
X018100Y006182D01*
X018100Y006237D02*
X018000Y006237D01*
X018000Y006139D02*
X016581Y006139D01*
X016359Y006237D02*
X017624Y006237D01*
X017624Y006336D02*
X016297Y006336D01*
X016199Y006434D02*
X017624Y006434D01*
X017651Y006533D02*
X016100Y006533D01*
X016082Y006526D02*
X015688Y006919D01*
X014507Y006919D01*
X014113Y006526D02*
X013601Y006526D01*
X012617Y007510D01*
X012617Y009360D01*
X012773Y009516D01*
X014070Y009516D01*
X013954Y009516D01*
X014070Y009516D02*
X015528Y009516D01*
X015885Y009872D01*
X016278Y010266D01*
X017066Y010266D01*
X017460Y010069D02*
X017460Y009715D01*
X017420Y009675D01*
X017460Y009636D01*
X017460Y009282D01*
X017302Y009124D01*
X015961Y009124D01*
X015970Y009116D01*
X015435Y008307D02*
X014570Y008307D01*
X014528Y008208D02*
X015403Y008208D01*
X015403Y008110D02*
X014430Y008110D01*
X014267Y008011D02*
X015403Y008011D01*
X015440Y007913D02*
X013612Y007913D01*
X013612Y008011D02*
X013872Y008011D01*
X013710Y008110D02*
X013612Y008110D01*
X013612Y007814D02*
X015481Y007814D01*
X015568Y007716D02*
X013612Y007716D01*
X013589Y007617D02*
X015693Y007617D01*
X015850Y007518D02*
X013511Y007518D01*
X013225Y007321D02*
X016047Y007321D01*
X016146Y007223D02*
X013324Y007223D01*
X013422Y007124D02*
X016244Y007124D01*
X016393Y007026D02*
X013521Y007026D01*
X013620Y006927D02*
X016985Y006927D01*
X017044Y006829D02*
X013718Y006829D01*
X014113Y006526D02*
X015688Y006526D01*
X016082Y006132D01*
X016082Y005719D01*
X015097Y005719D02*
X015097Y006132D01*
X014900Y006329D01*
X013719Y006329D01*
X013444Y006329D01*
X012420Y007352D01*
X012420Y008297D01*
X012420Y009754D01*
X012735Y010069D01*
X013123Y010069D01*
X013070Y010016D01*
X013123Y010069D02*
X013326Y010069D01*
X015294Y010069D01*
X015491Y010069D01*
X016869Y011447D01*
X016591Y012037D02*
X017479Y012037D01*
X018227Y012037D02*
X018247Y012018D01*
X018247Y011408D01*
X017460Y010817D02*
X017420Y010856D01*
X017460Y010817D01*
X017460Y010660D01*
X017656Y010463D01*
X018168Y010463D01*
X018444Y010463D01*
X018837Y010069D01*
X018837Y009793D02*
X018483Y010148D01*
X017538Y010148D01*
X017460Y010069D01*
X018247Y009636D02*
X018286Y009675D01*
X018247Y009636D02*
X018247Y009282D01*
X018050Y009085D01*
X017656Y009085D01*
X017460Y008888D01*
X017460Y008691D01*
X017479Y008671D01*
X017479Y008494D01*
X017460Y008474D01*
X017460Y008100D01*
X017578Y007982D01*
X018365Y007982D01*
X018641Y007707D01*
X018641Y006919D01*
X018837Y006723D01*
X019822Y006723D01*
X020019Y006919D01*
X024743Y006919D01*
X024940Y006723D01*
X024940Y006506D01*
X025708Y006506D01*
X025924Y006723D01*
X026141Y006506D01*
X026908Y006506D01*
X026392Y006139D02*
X025456Y006139D01*
X025383Y006040D02*
X026465Y006040D01*
X026463Y005942D02*
X026324Y005942D01*
X026320Y005948D02*
X026292Y005976D01*
X026258Y005996D01*
X026219Y006006D01*
X025974Y006006D01*
X025974Y005592D01*
X025874Y005592D01*
X025874Y006006D01*
X025629Y006006D01*
X025591Y005996D01*
X025556Y005976D01*
X025528Y005948D01*
X025509Y005914D01*
X025499Y005876D01*
X025499Y005591D01*
X025874Y005591D01*
X025874Y005491D01*
X025974Y005491D01*
X025974Y005076D01*
X026219Y005076D01*
X026258Y005087D01*
X026292Y005106D01*
X026320Y005134D01*
X026339Y005169D01*
X026350Y005207D01*
X026350Y005491D01*
X025974Y005491D01*
X025974Y005591D01*
X026350Y005591D01*
X026350Y005876D01*
X026339Y005914D01*
X026320Y005948D01*
X026350Y005843D02*
X026463Y005843D01*
X026350Y005745D02*
X026858Y005745D01*
X026908Y005758D02*
X026928Y005738D01*
X027302Y005738D01*
X027354Y005646D02*
X027381Y005646D01*
X027479Y005745D02*
X026958Y005745D01*
X026908Y005758D02*
X026141Y005758D01*
X025924Y005541D01*
X025708Y005758D01*
X024940Y005758D01*
X024920Y005738D01*
X024349Y005738D01*
X024495Y005708D02*
X024495Y005482D01*
X024505Y005444D01*
X024511Y005434D01*
X024399Y005434D01*
X024308Y005396D01*
X024238Y005327D01*
X024201Y005236D01*
X024201Y005199D01*
X024161Y005183D01*
X024078Y005099D01*
X023714Y004736D01*
X023573Y004736D01*
X023527Y004755D01*
X023484Y004755D01*
X023484Y005113D01*
X023438Y005224D01*
X023353Y005309D01*
X023242Y005355D01*
X023146Y005355D01*
X023105Y005454D01*
X023021Y005537D01*
X022943Y005616D01*
X022943Y006063D01*
X022914Y006132D01*
X022943Y006201D01*
X022943Y006623D01*
X024398Y006623D01*
X024398Y006201D01*
X024435Y006110D01*
X024498Y006047D01*
X024495Y006034D01*
X024495Y005808D01*
X024890Y005808D01*
X024890Y005708D01*
X024495Y005708D01*
X024495Y005646D02*
X022943Y005646D01*
X022943Y005745D02*
X024890Y005745D01*
X024990Y005745D02*
X025499Y005745D01*
X025499Y005843D02*
X025385Y005843D01*
X025385Y005942D02*
X025525Y005942D01*
X025874Y005942D02*
X025974Y005942D01*
X025974Y005843D02*
X025874Y005843D01*
X025874Y005745D02*
X025974Y005745D01*
X025974Y005646D02*
X025874Y005646D01*
X025874Y005548D02*
X025385Y005548D01*
X025385Y005646D02*
X025499Y005646D01*
X025499Y005491D02*
X025499Y005207D01*
X025509Y005169D01*
X025528Y005134D01*
X025556Y005106D01*
X025591Y005087D01*
X025629Y005076D01*
X025874Y005076D01*
X025874Y005491D01*
X025499Y005491D01*
X025499Y005449D02*
X025376Y005449D01*
X025499Y005350D02*
X025224Y005350D01*
X025279Y005252D02*
X025499Y005252D01*
X025517Y005153D02*
X025285Y005153D01*
X025285Y005055D02*
X026789Y005055D01*
X026691Y004956D02*
X025285Y004956D01*
X025285Y004858D02*
X026592Y004858D01*
X026494Y004759D02*
X025986Y004759D01*
X026084Y004661D02*
X026395Y004661D01*
X026515Y004360D02*
X028483Y006329D01*
X027696Y007313D02*
X028168Y007786D01*
X028168Y008576D01*
X027581Y009163D02*
X027499Y009082D01*
X027499Y007904D01*
X027105Y008297D02*
X027105Y009282D01*
X027302Y009478D01*
X027581Y009478D01*
X027581Y009793D02*
X027263Y009793D01*
X026908Y009439D01*
X026908Y008494D01*
X025924Y007510D01*
X026711Y007510D02*
X026711Y007904D01*
X027105Y008297D01*
X026101Y009459D02*
X025924Y009282D01*
X025137Y009282D01*
X024940Y009478D01*
X024940Y010463D01*
X025353Y010463D02*
X026318Y010463D01*
X026515Y010266D01*
X026515Y010069D01*
X026711Y009872D01*
X026987Y009872D01*
X027223Y010108D01*
X027341Y010108D01*
X027581Y010108D01*
X027541Y010069D01*
X027541Y010384D02*
X027581Y010423D01*
X027066Y010423D01*
X026908Y010423D01*
X027223Y010738D02*
X027105Y010856D01*
X027105Y011644D01*
X027105Y011841D01*
X027105Y012037D01*
X026495Y012018D02*
X026495Y012234D01*
X026318Y012057D01*
X026318Y011270D01*
X026101Y011053D01*
X026711Y011053D01*
X027223Y010738D02*
X027581Y010738D01*
X027893Y011053D02*
X028089Y010856D01*
X028680Y010856D01*
X028916Y010502D02*
X028247Y010502D01*
X027893Y011053D02*
X027581Y011053D01*
X027893Y011053D01*
X028168Y011368D02*
X028168Y011956D01*
X028483Y011956D02*
X028483Y011644D01*
X028877Y011250D01*
X029074Y011250D01*
X028286Y011250D02*
X028168Y011368D01*
X027696Y011483D02*
X027696Y012628D01*
X027460Y012982D02*
X028956Y012982D01*
X028956Y013632D01*
X030255Y013632D01*
X030471Y013415D01*
X030412Y013474D01*
X030412Y014360D01*
X031278Y015620D01*
X031278Y016506D01*
X031219Y016565D01*
X031269Y016584D02*
X031587Y016584D01*
X031557Y016615D02*
X031730Y016442D01*
X031730Y016112D01*
X031730Y015154D01*
X031561Y014986D01*
X031561Y014974D01*
X031544Y014981D01*
X031013Y014981D01*
X030922Y014944D01*
X030853Y014874D01*
X030815Y014783D01*
X030815Y013937D01*
X030823Y013919D01*
X030761Y013857D01*
X030747Y013861D01*
X030711Y013861D01*
X030721Y013866D01*
X030749Y013894D01*
X030769Y013928D01*
X030779Y013967D01*
X030779Y014310D01*
X030462Y014310D01*
X030462Y013836D01*
X030521Y013836D01*
X030521Y013466D01*
X030421Y013466D01*
X030421Y013861D01*
X030362Y013861D01*
X030362Y014310D01*
X030462Y014310D01*
X030462Y014410D01*
X030362Y014410D01*
X030362Y014310D01*
X030046Y014310D01*
X030046Y013967D01*
X030056Y013928D01*
X030076Y013894D01*
X030104Y013866D01*
X030138Y013847D01*
X030147Y013844D01*
X030123Y013831D01*
X030095Y013803D01*
X030076Y013769D01*
X030065Y013730D01*
X030065Y013465D01*
X030421Y013465D01*
X030421Y013365D01*
X030065Y013365D01*
X030065Y013122D01*
X029999Y013122D01*
X029893Y013078D01*
X029893Y013411D01*
X029621Y013684D01*
X029611Y013684D01*
X029647Y013698D01*
X029716Y013768D01*
X029754Y013858D01*
X029754Y014547D01*
X029716Y014638D01*
X029647Y014707D01*
X029556Y014745D01*
X029548Y014745D01*
X029548Y014861D01*
X029831Y014861D01*
X029922Y014899D01*
X029992Y014969D01*
X030029Y015059D01*
X030029Y015064D01*
X030056Y015037D01*
X030147Y014999D01*
X030678Y014999D01*
X030769Y015037D01*
X030838Y015106D01*
X031004Y015106D01*
X031042Y015096D01*
X031228Y015096D01*
X031228Y015570D01*
X030912Y015570D01*
X030912Y015226D01*
X030922Y015188D01*
X030942Y015154D01*
X030970Y015126D01*
X031004Y015106D01*
X030918Y015205D02*
X030876Y015205D01*
X030876Y015197D02*
X030876Y016043D01*
X030868Y016061D01*
X030930Y016123D01*
X030944Y016120D01*
X030980Y016120D01*
X030970Y016114D01*
X030942Y016086D01*
X030922Y016052D01*
X030912Y016014D01*
X030912Y015670D01*
X031228Y015670D01*
X031228Y015570D01*
X031328Y015570D01*
X031328Y015096D01*
X031515Y015096D01*
X031553Y015106D01*
X031587Y015126D01*
X031615Y015154D01*
X031635Y015188D01*
X031645Y015226D01*
X031645Y015570D01*
X031329Y015570D01*
X031329Y015670D01*
X031645Y015670D01*
X031645Y016014D01*
X031635Y016052D01*
X031615Y016086D01*
X031587Y016114D01*
X031553Y016134D01*
X031544Y016136D01*
X031567Y016150D01*
X031595Y016178D01*
X031615Y016212D01*
X031625Y016250D01*
X031625Y016515D01*
X031269Y016515D01*
X031269Y016120D01*
X031328Y016120D01*
X031328Y015670D01*
X031228Y015670D01*
X031228Y016144D01*
X031169Y016144D01*
X031169Y016515D01*
X031269Y016515D01*
X031269Y016615D01*
X031557Y016615D01*
X031625Y016486D02*
X031686Y016486D01*
X031730Y016387D02*
X031625Y016387D01*
X031625Y016289D02*
X031730Y016289D01*
X031730Y016190D02*
X031603Y016190D01*
X031610Y016092D02*
X031730Y016092D01*
X031730Y015993D02*
X031645Y015993D01*
X031645Y015895D02*
X031730Y015895D01*
X031730Y015796D02*
X031645Y015796D01*
X031645Y015698D02*
X031730Y015698D01*
X031730Y015599D02*
X031329Y015599D01*
X031328Y015698D02*
X031228Y015698D01*
X031228Y015796D02*
X031328Y015796D01*
X031328Y015895D02*
X031228Y015895D01*
X031228Y015993D02*
X031328Y015993D01*
X031328Y016092D02*
X031228Y016092D01*
X031269Y016190D02*
X031169Y016190D01*
X031169Y016289D02*
X031269Y016289D01*
X031269Y016387D02*
X031169Y016387D01*
X031169Y016486D02*
X031269Y016486D01*
X030947Y016092D02*
X030898Y016092D01*
X030912Y015993D02*
X030876Y015993D01*
X030876Y015895D02*
X030912Y015895D01*
X030912Y015796D02*
X030876Y015796D01*
X030876Y015698D02*
X030912Y015698D01*
X030876Y015599D02*
X031228Y015599D01*
X031228Y015500D02*
X031328Y015500D01*
X031328Y015402D02*
X031228Y015402D01*
X031228Y015303D02*
X031328Y015303D01*
X031328Y015205D02*
X031228Y015205D01*
X031228Y015106D02*
X031328Y015106D01*
X031552Y015106D02*
X031682Y015106D01*
X031639Y015205D02*
X031730Y015205D01*
X031730Y015303D02*
X031645Y015303D01*
X031645Y015402D02*
X031730Y015402D01*
X031730Y015500D02*
X031645Y015500D01*
X030912Y015500D02*
X030876Y015500D01*
X030876Y015402D02*
X030912Y015402D01*
X030912Y015303D02*
X030876Y015303D01*
X030876Y015197D02*
X030838Y015106D01*
X030698Y015008D02*
X031583Y015008D01*
X032026Y014793D02*
X032026Y016171D01*
X032026Y016565D01*
X031436Y017156D01*
X030649Y017156D01*
X030471Y016978D01*
X030471Y016565D01*
X030412Y016506D01*
X030412Y015620D01*
X030126Y015008D02*
X030008Y015008D01*
X029932Y014909D02*
X030888Y014909D01*
X030826Y014811D02*
X030758Y014811D01*
X030749Y014826D02*
X030721Y014854D01*
X030687Y014874D01*
X030649Y014884D01*
X030462Y014884D01*
X030462Y014410D01*
X030779Y014410D01*
X030779Y014754D01*
X030769Y014792D01*
X030749Y014826D01*
X030779Y014712D02*
X030815Y014712D01*
X030815Y014614D02*
X030779Y014614D01*
X030779Y014515D02*
X030815Y014515D01*
X030815Y014416D02*
X030779Y014416D01*
X030815Y014318D02*
X030462Y014318D01*
X030462Y014416D02*
X030362Y014416D01*
X030362Y014410D02*
X030362Y014884D01*
X030176Y014884D01*
X030138Y014874D01*
X030104Y014854D01*
X030076Y014826D01*
X030056Y014792D01*
X030046Y014754D01*
X030046Y014410D01*
X030362Y014410D01*
X030362Y014318D02*
X029754Y014318D01*
X029754Y014416D02*
X030046Y014416D01*
X030046Y014515D02*
X029754Y014515D01*
X029726Y014614D02*
X030046Y014614D01*
X030046Y014712D02*
X029635Y014712D01*
X029548Y014811D02*
X030067Y014811D01*
X030362Y014811D02*
X030462Y014811D01*
X030462Y014712D02*
X030362Y014712D01*
X030362Y014614D02*
X030462Y014614D01*
X030462Y014515D02*
X030362Y014515D01*
X030362Y014219D02*
X030462Y014219D01*
X030462Y014121D02*
X030362Y014121D01*
X030362Y014022D02*
X030462Y014022D01*
X030462Y013924D02*
X030362Y013924D01*
X030421Y013825D02*
X030521Y013825D01*
X030521Y013727D02*
X030421Y013727D01*
X030421Y013628D02*
X030521Y013628D01*
X030521Y013530D02*
X030421Y013530D01*
X030421Y013431D02*
X029873Y013431D01*
X029893Y013332D02*
X030065Y013332D01*
X030065Y013234D02*
X029893Y013234D01*
X029893Y013135D02*
X030065Y013135D01*
X030058Y012825D02*
X029743Y012510D01*
X029743Y011956D01*
X029428Y011956D02*
X029428Y013061D01*
X029428Y013219D01*
X028963Y013234D02*
X027785Y013234D01*
X027785Y013332D02*
X028963Y013332D01*
X028963Y013411D02*
X028963Y013026D01*
X029131Y012858D01*
X029131Y012834D01*
X028873Y013093D01*
X028487Y013093D01*
X028215Y012821D01*
X028215Y012453D01*
X028161Y012453D01*
X028161Y012821D01*
X027888Y013093D01*
X027785Y013093D01*
X027785Y013760D01*
X027754Y013834D01*
X027767Y013846D01*
X027805Y013937D01*
X027805Y014783D01*
X027767Y014874D01*
X027698Y014944D01*
X027607Y014981D01*
X027076Y014981D01*
X026985Y014944D01*
X026916Y014874D01*
X026878Y014783D01*
X026878Y013937D01*
X026886Y013919D01*
X026824Y013857D01*
X026810Y013861D01*
X026774Y013861D01*
X026784Y013866D01*
X026812Y013894D01*
X026832Y013928D01*
X026842Y013967D01*
X026842Y014310D01*
X026525Y014310D01*
X026525Y013836D01*
X026584Y013836D01*
X026584Y013466D01*
X026484Y013466D01*
X026484Y013861D01*
X026425Y013861D01*
X026425Y014310D01*
X026525Y014310D01*
X026525Y014410D01*
X026425Y014410D01*
X026425Y014884D01*
X026239Y014884D01*
X026221Y014879D01*
X026221Y014999D01*
X026741Y014999D01*
X026832Y015037D01*
X026901Y015106D01*
X027067Y015106D01*
X027105Y015096D01*
X027291Y015096D01*
X027291Y015570D01*
X026975Y015570D01*
X026975Y015226D01*
X026985Y015188D01*
X027005Y015154D01*
X027033Y015126D01*
X027067Y015106D01*
X026981Y015205D02*
X026939Y015205D01*
X026939Y015197D02*
X026939Y016043D01*
X026931Y016062D01*
X026993Y016123D01*
X027007Y016120D01*
X027043Y016120D01*
X027033Y016114D01*
X027005Y016086D01*
X026985Y016052D01*
X026975Y016014D01*
X026975Y015670D01*
X027291Y015670D01*
X027291Y015570D01*
X027391Y015570D01*
X027391Y015096D01*
X027578Y015096D01*
X027616Y015106D01*
X027650Y015126D01*
X027678Y015154D01*
X027698Y015188D01*
X027708Y015226D01*
X027708Y015570D01*
X027392Y015570D01*
X027392Y015670D01*
X027708Y015670D01*
X027708Y016014D01*
X027698Y016052D01*
X027678Y016086D01*
X027650Y016114D01*
X027616Y016134D01*
X027607Y016136D01*
X027630Y016150D01*
X027658Y016178D01*
X027678Y016212D01*
X027688Y016250D01*
X027688Y016515D01*
X027332Y016515D01*
X027332Y016120D01*
X027391Y016120D01*
X027391Y015670D01*
X027291Y015670D01*
X027291Y016144D01*
X027232Y016144D01*
X027232Y016515D01*
X027332Y016515D01*
X027332Y016615D01*
X027232Y016615D01*
X027232Y017010D01*
X027007Y017010D01*
X026993Y017007D01*
X026930Y017070D01*
X026839Y017107D01*
X026229Y017107D01*
X026221Y017104D01*
X026221Y017760D01*
X026236Y017760D01*
X026236Y018180D01*
X026336Y018180D01*
X026336Y017760D01*
X026481Y017760D01*
X026719Y017999D01*
X026719Y017996D01*
X027051Y017664D01*
X027478Y017664D01*
X027478Y017608D01*
X027523Y017499D01*
X028035Y016987D01*
X028106Y016916D01*
X028097Y016880D01*
X027688Y016880D01*
X027678Y016918D01*
X027658Y016952D01*
X027630Y016980D01*
X027596Y017000D01*
X027558Y017010D01*
X027332Y017010D01*
X027332Y016615D01*
X027688Y016615D01*
X027688Y016880D01*
X027688Y016781D02*
X028097Y016781D01*
X028097Y016683D02*
X027688Y016683D01*
X027688Y016486D02*
X028097Y016486D01*
X028097Y016515D02*
X028097Y016250D01*
X028107Y016212D01*
X028127Y016178D01*
X028155Y016150D01*
X028189Y016130D01*
X028227Y016120D01*
X028453Y016120D01*
X028453Y016515D01*
X028553Y016515D01*
X028553Y016120D01*
X028778Y016120D01*
X028792Y016123D01*
X028855Y016060D01*
X028946Y016023D01*
X028954Y016023D01*
X028954Y015810D01*
X028943Y015799D01*
X028906Y015709D01*
X028906Y015059D01*
X028943Y014969D01*
X028954Y014958D01*
X028954Y014745D01*
X028946Y014745D01*
X028855Y014707D01*
X028792Y014644D01*
X028778Y014648D01*
X028553Y014648D01*
X028553Y014253D01*
X028453Y014253D01*
X028453Y014648D01*
X028227Y014648D01*
X028189Y014638D01*
X028155Y014618D01*
X028127Y014590D01*
X028107Y014556D01*
X028097Y014518D01*
X028097Y014253D01*
X028453Y014253D01*
X028453Y014153D01*
X028553Y014153D01*
X028553Y013758D01*
X028778Y013758D01*
X028792Y013761D01*
X028855Y013698D01*
X028946Y013661D01*
X029213Y013661D01*
X028963Y013411D01*
X028983Y013431D02*
X027785Y013431D01*
X027785Y013530D02*
X029082Y013530D01*
X029180Y013628D02*
X027785Y013628D01*
X027785Y013727D02*
X028827Y013727D01*
X028956Y013632D02*
X028680Y013632D01*
X028503Y013809D01*
X028503Y014203D01*
X028503Y015167D01*
X028286Y015384D01*
X027578Y015384D01*
X027341Y015620D01*
X026475Y014360D01*
X026534Y014301D01*
X026534Y013415D01*
X026534Y013258D01*
X026584Y013240D02*
X026484Y013240D01*
X026484Y013365D01*
X026584Y013365D01*
X026584Y013240D01*
X026584Y013332D02*
X026484Y013332D01*
X026484Y013365D02*
X026128Y013365D01*
X026128Y013240D01*
X025104Y013240D01*
X025040Y013304D01*
X025040Y013344D01*
X025329Y013344D01*
X025497Y013512D01*
X025668Y013512D01*
X025786Y013512D01*
X025895Y013557D01*
X026092Y013754D01*
X026176Y013838D01*
X026183Y013857D01*
X026201Y013847D01*
X026210Y013844D01*
X026186Y013831D01*
X026158Y013803D01*
X026139Y013769D01*
X026128Y013730D01*
X026128Y013465D01*
X026484Y013465D01*
X026484Y013365D01*
X026484Y013431D02*
X025416Y013431D01*
X025040Y013332D02*
X026128Y013332D01*
X026128Y013530D02*
X025828Y013530D01*
X025966Y013628D02*
X026128Y013628D01*
X026128Y013727D02*
X026065Y013727D01*
X026163Y013825D02*
X026181Y013825D01*
X026425Y013924D02*
X026525Y013924D01*
X026525Y014022D02*
X026425Y014022D01*
X026425Y014121D02*
X026525Y014121D01*
X026525Y014219D02*
X026425Y014219D01*
X026525Y014318D02*
X026878Y014318D01*
X026878Y014416D02*
X026842Y014416D01*
X026842Y014410D02*
X026842Y014754D01*
X026832Y014792D01*
X026812Y014826D01*
X026784Y014854D01*
X026750Y014874D01*
X026712Y014884D01*
X026525Y014884D01*
X026525Y014410D01*
X026842Y014410D01*
X026842Y014515D02*
X026878Y014515D01*
X026878Y014614D02*
X026842Y014614D01*
X026842Y014712D02*
X026878Y014712D01*
X026889Y014811D02*
X026821Y014811D01*
X026951Y014909D02*
X026221Y014909D01*
X026425Y014811D02*
X026525Y014811D01*
X026525Y014712D02*
X026425Y014712D01*
X026425Y014614D02*
X026525Y014614D01*
X026525Y014515D02*
X026425Y014515D01*
X026425Y014416D02*
X026525Y014416D01*
X026842Y014219D02*
X026878Y014219D01*
X026878Y014121D02*
X026842Y014121D01*
X026842Y014022D02*
X026878Y014022D01*
X026884Y013924D02*
X026829Y013924D01*
X026584Y013825D02*
X026484Y013825D01*
X026484Y013727D02*
X026584Y013727D01*
X026584Y013628D02*
X026484Y013628D01*
X026484Y013530D02*
X026584Y013530D01*
X027282Y013415D02*
X027302Y013396D01*
X027302Y013219D01*
X027026Y012943D01*
X024743Y012943D01*
X024743Y014026D01*
X025334Y014616D01*
X025924Y014006D02*
X025924Y015364D01*
X026475Y015364D01*
X026475Y015620D01*
X026475Y016506D01*
X026534Y016565D01*
X026961Y016092D02*
X027010Y016092D01*
X026975Y015993D02*
X026939Y015993D01*
X026939Y015895D02*
X026975Y015895D01*
X026975Y015796D02*
X026939Y015796D01*
X026939Y015698D02*
X026975Y015698D01*
X026939Y015599D02*
X027291Y015599D01*
X027341Y015620D02*
X027341Y016506D01*
X027282Y016565D01*
X027282Y017234D01*
X026495Y018022D01*
X026286Y018230D01*
X026236Y018161D02*
X026336Y018161D01*
X026336Y018063D02*
X026236Y018063D01*
X026236Y017964D02*
X026336Y017964D01*
X026336Y017865D02*
X026236Y017865D01*
X026236Y017767D02*
X026336Y017767D01*
X026487Y017767D02*
X026948Y017767D01*
X026850Y017865D02*
X026586Y017865D01*
X026685Y017964D02*
X026751Y017964D01*
X026495Y018022D02*
X026495Y018026D01*
X025924Y017864D02*
X025806Y017982D01*
X025806Y019006D01*
X026030Y019230D01*
X026286Y019230D01*
X026294Y019230D01*
X026556Y018969D01*
X026548Y018969D01*
X026286Y019230D01*
X026556Y018969D02*
X026794Y018730D01*
X027499Y018730D01*
X027774Y018455D01*
X027774Y017667D01*
X028286Y017156D01*
X029074Y017156D01*
X029271Y016959D01*
X029271Y016585D01*
X029251Y016565D01*
X029251Y015600D01*
X029467Y015384D01*
X029251Y015167D01*
X029251Y014203D01*
X029754Y014219D02*
X030046Y014219D01*
X030046Y014121D02*
X029754Y014121D01*
X029754Y014022D02*
X030046Y014022D01*
X030059Y013924D02*
X029754Y013924D01*
X029740Y013825D02*
X030118Y013825D01*
X030065Y013727D02*
X029675Y013727D01*
X029676Y013628D02*
X030065Y013628D01*
X030065Y013530D02*
X029775Y013530D01*
X028963Y013135D02*
X027785Y013135D01*
X027944Y013037D02*
X028431Y013037D01*
X028333Y012938D02*
X028043Y012938D01*
X028141Y012840D02*
X028234Y012840D01*
X028215Y012741D02*
X028161Y012741D01*
X028161Y012643D02*
X028215Y012643D01*
X028215Y012544D02*
X028161Y012544D01*
X028680Y012628D02*
X028798Y012510D01*
X028798Y011956D01*
X029113Y011956D02*
X029113Y012825D01*
X028956Y012982D01*
X028963Y013037D02*
X028929Y013037D01*
X029027Y012938D02*
X029051Y012938D01*
X029126Y012840D02*
X029131Y012840D01*
X030058Y012825D02*
X032026Y012825D01*
X032617Y013415D01*
X032617Y014675D01*
X032617Y017746D01*
X032223Y018140D01*
X031239Y018140D01*
X030649Y018730D01*
X027893Y018730D01*
X027393Y019230D01*
X027286Y019230D01*
X026794Y018730D02*
X026790Y018726D01*
X025924Y017864D02*
X025924Y016762D01*
X025668Y016506D01*
X024152Y016506D01*
X023168Y016506D01*
X022184Y016506D01*
X021200Y016506D01*
X020668Y015974D01*
X020019Y015974D01*
X019034Y016959D01*
X019034Y018927D01*
X018641Y019321D01*
X017695Y019321D01*
X017656Y019360D01*
X017892Y019124D01*
X017656Y019124D01*
X017656Y016920D01*
X017656Y016171D01*
X017853Y015974D01*
X018444Y015974D01*
X019034Y015384D01*
X019231Y015384D01*
X018684Y015314D02*
X018297Y015314D01*
X018297Y015414D01*
X018584Y015414D01*
X018684Y015314D01*
X018597Y015402D02*
X018297Y015402D01*
X018297Y015414D02*
X018297Y015678D01*
X018197Y015678D01*
X018197Y015414D01*
X018297Y015414D01*
X018247Y015364D02*
X018503Y015364D01*
X018719Y015148D01*
X018719Y014321D01*
X018837Y014203D01*
X019231Y014203D01*
X020215Y014203D01*
X020215Y013219D01*
X020144Y013223D02*
X020354Y013014D01*
X020308Y012995D01*
X020239Y012925D01*
X020201Y012835D01*
X020201Y012106D01*
X020239Y012016D01*
X020308Y011946D01*
X020399Y011909D01*
X020583Y011909D01*
X020741Y011909D01*
X020898Y011909D01*
X020963Y011936D01*
X021029Y011909D01*
X021146Y011909D01*
X021146Y011724D01*
X020757Y011336D01*
X020528Y011107D01*
X020344Y011107D01*
X020344Y011224D01*
X020317Y011289D01*
X020344Y011355D01*
X020344Y011539D01*
X020344Y011696D01*
X020344Y011854D01*
X020307Y011945D01*
X020237Y012014D01*
X020146Y012052D01*
X020072Y012052D01*
X020072Y012922D01*
X020028Y013028D01*
X019947Y013110D01*
X019884Y013173D01*
X019876Y013190D01*
X019483Y013584D01*
X019399Y013667D01*
X019290Y013712D01*
X018654Y013712D01*
X018623Y013743D01*
X018532Y013780D01*
X018441Y013780D01*
X018499Y013838D01*
X018544Y013947D01*
X018544Y014065D01*
X018544Y014113D01*
X018611Y014113D01*
X018702Y014151D01*
X018771Y014220D01*
X018806Y014304D01*
X018806Y014253D01*
X019181Y014253D01*
X019181Y014668D01*
X018936Y014668D01*
X018898Y014658D01*
X018863Y014638D01*
X018836Y014610D01*
X018816Y014576D01*
X018809Y014549D01*
X018809Y014867D01*
X018816Y014860D01*
X018906Y014822D01*
X019556Y014822D01*
X019647Y014860D01*
X019716Y014929D01*
X019723Y014947D01*
X019731Y014929D01*
X019800Y014860D01*
X019891Y014822D01*
X020540Y014822D01*
X020631Y014860D01*
X020638Y014867D01*
X020638Y014666D01*
X020666Y014596D01*
X020641Y014535D01*
X020641Y014538D01*
X020631Y014576D01*
X020611Y014610D01*
X020583Y014638D01*
X020549Y014658D01*
X020511Y014668D01*
X020265Y014668D01*
X020265Y014253D01*
X020165Y014253D01*
X020165Y014153D01*
X019790Y014153D01*
X019790Y013868D01*
X019800Y013830D01*
X019820Y013796D01*
X019848Y013768D01*
X019882Y013748D01*
X019920Y013738D01*
X020165Y013738D01*
X020165Y014153D01*
X020265Y014153D01*
X020265Y013738D01*
X020274Y013738D01*
X020144Y013608D01*
X020144Y013223D01*
X020144Y013234D02*
X019832Y013234D01*
X019921Y013135D02*
X020232Y013135D01*
X020330Y013037D02*
X020020Y013037D01*
X020065Y012938D02*
X020252Y012938D01*
X020203Y012840D02*
X020072Y012840D01*
X020072Y012741D02*
X020201Y012741D01*
X020201Y012643D02*
X020072Y012643D01*
X020072Y012544D02*
X020201Y012544D01*
X020201Y012446D02*
X020072Y012446D01*
X020072Y012347D02*
X020201Y012347D01*
X020201Y012249D02*
X020072Y012249D01*
X020072Y012150D02*
X020201Y012150D01*
X020224Y012051D02*
X020147Y012051D01*
X020298Y011953D02*
X020302Y011953D01*
X020344Y011854D02*
X021146Y011854D01*
X021146Y011756D02*
X020344Y011756D01*
X020344Y011657D02*
X021079Y011657D01*
X020980Y011559D02*
X020344Y011559D01*
X020344Y011460D02*
X020882Y011460D01*
X020783Y011362D02*
X020344Y011362D01*
X020328Y011263D02*
X020685Y011263D01*
X020586Y011165D02*
X020344Y011165D01*
X021477Y011236D02*
X021665Y011049D01*
X021665Y010747D01*
X022091Y011173D01*
X022091Y011287D01*
X021983Y011179D01*
X021598Y011179D01*
X021509Y011268D01*
X021477Y011236D01*
X021504Y011263D02*
X021513Y011263D01*
X021549Y011165D02*
X022082Y011165D01*
X022091Y011263D02*
X022067Y011263D01*
X021984Y011066D02*
X021648Y011066D01*
X021665Y010967D02*
X021885Y010967D01*
X021787Y010869D02*
X021665Y010869D01*
X021665Y010770D02*
X021688Y010770D01*
X022671Y010770D02*
X023630Y010770D01*
X023630Y010725D02*
X023630Y010567D01*
X023630Y010410D01*
X023630Y010252D01*
X023630Y010095D01*
X023630Y009937D01*
X023630Y009871D01*
X023361Y010140D01*
X022976Y010140D01*
X022703Y009868D01*
X022703Y009483D01*
X022976Y009210D01*
X023223Y009210D01*
X023437Y008996D01*
X023544Y008952D01*
X023630Y008952D01*
X023630Y008835D01*
X023630Y008678D01*
X023668Y008587D01*
X023737Y008517D01*
X023828Y008480D01*
X024556Y008480D01*
X024647Y008517D01*
X024716Y008587D01*
X024754Y008678D01*
X024754Y008835D01*
X024754Y008881D01*
X024850Y008784D01*
X024850Y008327D01*
X024888Y008236D01*
X024957Y008167D01*
X025048Y008129D01*
X025346Y008129D01*
X024694Y007477D01*
X024623Y007406D01*
X023071Y007406D01*
X022356Y007406D01*
X022356Y007499D01*
X022473Y007499D01*
X022564Y007537D01*
X022625Y007598D01*
X022633Y007596D01*
X022696Y007596D01*
X022758Y007596D01*
X022774Y007600D01*
X022790Y007596D01*
X022853Y007596D01*
X022853Y007648D01*
X022853Y007649D01*
X022853Y007648D01*
X022853Y007596D01*
X022916Y007596D01*
X022924Y007598D01*
X022985Y007537D01*
X023076Y007499D01*
X023234Y007499D01*
X023391Y007499D01*
X023575Y007499D01*
X023666Y007537D01*
X023735Y007606D01*
X023773Y007697D01*
X023773Y008425D01*
X023735Y008516D01*
X023666Y008585D01*
X023575Y008623D01*
X023391Y008623D01*
X023234Y008623D01*
X023076Y008623D01*
X022985Y008585D01*
X022924Y008524D01*
X022916Y008526D01*
X022853Y008526D01*
X022790Y008526D01*
X022774Y008522D01*
X022758Y008526D01*
X022696Y008526D01*
X022696Y008474D01*
X022696Y008474D01*
X022696Y008474D01*
X022696Y008526D01*
X022671Y008526D01*
X022671Y010405D01*
X022671Y010996D01*
X022671Y011308D01*
X022671Y011586D01*
X022671Y011701D01*
X022626Y011808D01*
X022526Y011909D01*
X022630Y011909D01*
X022788Y011909D01*
X022879Y011946D01*
X022940Y012008D01*
X022948Y012006D01*
X023010Y012006D01*
X023010Y012058D01*
X023011Y012058D01*
X023011Y012006D01*
X023073Y012006D01*
X023081Y012008D01*
X023143Y011946D01*
X023234Y011909D01*
X023418Y011909D01*
X023575Y011909D01*
X023666Y011946D01*
X023735Y012016D01*
X023773Y012106D01*
X023773Y012739D01*
X023848Y012770D01*
X023932Y012854D01*
X024029Y012950D01*
X024266Y012950D01*
X024278Y012962D01*
X024278Y012750D01*
X024550Y012478D01*
X024936Y012478D01*
X025104Y012646D01*
X025395Y012646D01*
X025371Y012622D01*
X025351Y012587D01*
X025341Y012549D01*
X025341Y012284D01*
X025697Y012284D01*
X025697Y012184D01*
X025797Y012184D01*
X025797Y011789D01*
X026021Y011789D01*
X026021Y011615D01*
X025796Y011615D01*
X025727Y011586D01*
X025658Y011615D01*
X025211Y011615D01*
X024970Y011856D01*
X024861Y011901D01*
X024743Y011901D01*
X024734Y011901D01*
X024716Y011945D01*
X024647Y012014D01*
X024556Y012052D01*
X023828Y012052D01*
X023737Y012014D01*
X023668Y011945D01*
X023647Y011894D01*
X023580Y011894D01*
X023465Y011894D01*
X023358Y011850D01*
X023223Y011715D01*
X022976Y011715D01*
X022703Y011443D01*
X022703Y011057D01*
X022976Y010785D01*
X023361Y010785D01*
X023630Y011054D01*
X023630Y011040D01*
X023630Y010909D01*
X023630Y010725D01*
X023630Y010672D02*
X022671Y010672D01*
X022671Y010573D02*
X023630Y010573D01*
X023630Y010475D02*
X022671Y010475D01*
X022671Y010376D02*
X023630Y010376D01*
X023630Y010278D02*
X022671Y010278D01*
X022671Y010179D02*
X023630Y010179D01*
X023630Y010081D02*
X023420Y010081D01*
X023519Y009982D02*
X023630Y009982D01*
X023617Y009883D02*
X023630Y009883D01*
X022916Y010081D02*
X022671Y010081D01*
X022671Y009982D02*
X022817Y009982D01*
X022719Y009883D02*
X022671Y009883D01*
X022671Y009785D02*
X022703Y009785D01*
X022703Y009686D02*
X022671Y009686D01*
X022671Y009588D02*
X022703Y009588D01*
X022703Y009489D02*
X022671Y009489D01*
X022671Y009391D02*
X022795Y009391D01*
X022894Y009292D02*
X022671Y009292D01*
X022671Y009194D02*
X023240Y009194D01*
X023338Y009095D02*
X022671Y009095D01*
X022671Y008997D02*
X023437Y008997D01*
X023630Y008898D02*
X022671Y008898D01*
X022671Y008799D02*
X023630Y008799D01*
X023630Y008701D02*
X022671Y008701D01*
X022671Y008602D02*
X023027Y008602D01*
X022853Y008526D02*
X022853Y008474D01*
X022853Y008526D01*
X022853Y008504D02*
X022853Y008504D01*
X022853Y008474D02*
X022853Y008474D01*
X022853Y008474D01*
X022696Y008504D02*
X022696Y008504D01*
X022696Y008061D02*
X022731Y008061D01*
X022818Y008061D01*
X022853Y008061D01*
X022853Y008061D01*
X022818Y008061D01*
X022731Y008061D01*
X022696Y008061D01*
X022696Y008061D01*
X022696Y007649D02*
X022696Y007648D01*
X022696Y007596D01*
X022696Y007648D01*
X022696Y007649D01*
X022696Y007617D02*
X022696Y007617D01*
X022853Y007617D02*
X022853Y007617D01*
X023030Y007518D02*
X022519Y007518D01*
X022356Y007420D02*
X024637Y007420D01*
X024735Y007518D02*
X023621Y007518D01*
X023740Y007617D02*
X024834Y007617D01*
X024932Y007716D02*
X023773Y007716D01*
X023773Y007814D02*
X025031Y007814D01*
X025130Y007913D02*
X023773Y007913D01*
X023773Y008011D02*
X025228Y008011D01*
X025327Y008110D02*
X023773Y008110D01*
X023773Y008208D02*
X024916Y008208D01*
X024859Y008307D02*
X023773Y008307D01*
X023773Y008405D02*
X024850Y008405D01*
X024850Y008504D02*
X024614Y008504D01*
X024722Y008602D02*
X024850Y008602D01*
X024850Y008701D02*
X024754Y008701D01*
X024754Y008799D02*
X024835Y008799D01*
X026101Y009459D02*
X026101Y009872D01*
X025353Y009872D02*
X025353Y010463D01*
X025353Y011053D01*
X024802Y011604D01*
X024782Y011604D01*
X024972Y011854D02*
X025367Y011854D01*
X025371Y011847D02*
X025399Y011819D01*
X025433Y011799D01*
X025471Y011789D01*
X025697Y011789D01*
X025697Y012184D01*
X025341Y012184D01*
X025341Y011919D01*
X025351Y011881D01*
X025371Y011847D01*
X025341Y011953D02*
X024708Y011953D01*
X024557Y012051D02*
X025341Y012051D01*
X025341Y012150D02*
X023773Y012150D01*
X023773Y012249D02*
X025697Y012249D01*
X025747Y012234D02*
X026219Y012707D01*
X027184Y012707D01*
X027460Y012982D01*
X027282Y013415D02*
X027282Y014301D01*
X027341Y014360D01*
X027805Y014318D02*
X028097Y014318D01*
X028097Y014416D02*
X027805Y014416D01*
X027805Y014515D02*
X028097Y014515D01*
X028150Y014614D02*
X027805Y014614D01*
X027805Y014712D02*
X028867Y014712D01*
X028954Y014811D02*
X027794Y014811D01*
X027732Y014909D02*
X028954Y014909D01*
X028927Y015008D02*
X028713Y015008D01*
X028721Y015016D02*
X028741Y015050D01*
X028751Y015089D01*
X028751Y015334D01*
X028336Y015334D01*
X028336Y014958D01*
X028621Y014958D01*
X028659Y014969D01*
X028693Y014988D01*
X028721Y015016D01*
X028751Y015106D02*
X028906Y015106D01*
X028906Y015205D02*
X028751Y015205D01*
X028751Y015303D02*
X028906Y015303D01*
X028906Y015402D02*
X028336Y015402D01*
X028336Y015434D02*
X028751Y015434D01*
X028751Y015679D01*
X028741Y015717D01*
X028721Y015752D01*
X028693Y015780D01*
X028659Y015799D01*
X028621Y015809D01*
X028336Y015809D01*
X028336Y015434D01*
X028236Y015434D01*
X028236Y015334D01*
X027821Y015334D01*
X027821Y015089D01*
X027832Y015050D01*
X027851Y015016D01*
X027879Y014988D01*
X027913Y014969D01*
X027952Y014958D01*
X028236Y014958D01*
X028236Y015334D01*
X028336Y015334D01*
X028336Y015434D01*
X028336Y015500D02*
X028236Y015500D01*
X028236Y015434D02*
X028236Y015809D01*
X027952Y015809D01*
X027913Y015799D01*
X027879Y015780D01*
X027851Y015752D01*
X027832Y015717D01*
X027821Y015679D01*
X027821Y015434D01*
X028236Y015434D01*
X028236Y015402D02*
X027708Y015402D01*
X027708Y015500D02*
X027821Y015500D01*
X027821Y015599D02*
X027392Y015599D01*
X027391Y015698D02*
X027291Y015698D01*
X027291Y015796D02*
X027391Y015796D01*
X027391Y015895D02*
X027291Y015895D01*
X027291Y015993D02*
X027391Y015993D01*
X027391Y016092D02*
X027291Y016092D01*
X027332Y016190D02*
X027232Y016190D01*
X027232Y016289D02*
X027332Y016289D01*
X027332Y016387D02*
X027232Y016387D01*
X027232Y016486D02*
X027332Y016486D01*
X027332Y016584D02*
X028453Y016584D01*
X028453Y016615D02*
X028453Y016515D01*
X028097Y016515D01*
X028097Y016615D02*
X028453Y016615D01*
X028503Y016565D02*
X028503Y015600D01*
X028286Y015384D01*
X028236Y015303D02*
X028336Y015303D01*
X028336Y015205D02*
X028236Y015205D01*
X028236Y015106D02*
X028336Y015106D01*
X028336Y015008D02*
X028236Y015008D01*
X027860Y015008D02*
X026761Y015008D01*
X026901Y015106D02*
X026939Y015197D01*
X026939Y015303D02*
X026975Y015303D01*
X026975Y015402D02*
X026939Y015402D01*
X026939Y015500D02*
X026975Y015500D01*
X027291Y015500D02*
X027391Y015500D01*
X027391Y015402D02*
X027291Y015402D01*
X027291Y015303D02*
X027391Y015303D01*
X027391Y015205D02*
X027291Y015205D01*
X027291Y015106D02*
X027391Y015106D01*
X027615Y015106D02*
X027821Y015106D01*
X027821Y015205D02*
X027702Y015205D01*
X027708Y015303D02*
X027821Y015303D01*
X027826Y015698D02*
X027708Y015698D01*
X027708Y015796D02*
X027908Y015796D01*
X027708Y015895D02*
X028954Y015895D01*
X028954Y015993D02*
X027708Y015993D01*
X027673Y016092D02*
X028824Y016092D01*
X028553Y016190D02*
X028453Y016190D01*
X028453Y016289D02*
X028553Y016289D01*
X028553Y016387D02*
X028453Y016387D01*
X028453Y016486D02*
X028553Y016486D01*
X028097Y016387D02*
X027688Y016387D01*
X027688Y016289D02*
X028097Y016289D01*
X028120Y016190D02*
X027666Y016190D01*
X028097Y016615D02*
X028097Y016880D01*
X028043Y016979D02*
X027632Y016979D01*
X027846Y017176D02*
X026221Y017176D01*
X026221Y017274D02*
X027748Y017274D01*
X027649Y017373D02*
X026221Y017373D01*
X026221Y017471D02*
X027551Y017471D01*
X027494Y017570D02*
X026221Y017570D01*
X026221Y017668D02*
X027047Y017668D01*
X026912Y017077D02*
X027945Y017077D01*
X027332Y016979D02*
X027232Y016979D01*
X027232Y016880D02*
X027332Y016880D01*
X027332Y016781D02*
X027232Y016781D01*
X027232Y016683D02*
X027332Y016683D01*
X028236Y015796D02*
X028336Y015796D01*
X028336Y015698D02*
X028236Y015698D01*
X028236Y015599D02*
X028336Y015599D01*
X028665Y015796D02*
X028942Y015796D01*
X028906Y015698D02*
X028746Y015698D01*
X028751Y015599D02*
X028906Y015599D01*
X028906Y015500D02*
X028751Y015500D01*
X028553Y014614D02*
X028453Y014614D01*
X028453Y014515D02*
X028553Y014515D01*
X028553Y014416D02*
X028453Y014416D01*
X028453Y014318D02*
X028553Y014318D01*
X028453Y014219D02*
X027805Y014219D01*
X027805Y014121D02*
X028097Y014121D01*
X028097Y014153D02*
X028097Y013888D01*
X028107Y013850D01*
X028127Y013815D01*
X028155Y013788D01*
X028189Y013768D01*
X028227Y013758D01*
X028453Y013758D01*
X028453Y014153D01*
X028097Y014153D01*
X028097Y014022D02*
X027805Y014022D01*
X027799Y013924D02*
X028097Y013924D01*
X028121Y013825D02*
X027758Y013825D01*
X028453Y013825D02*
X028553Y013825D01*
X028553Y013924D02*
X028453Y013924D01*
X028453Y014022D02*
X028553Y014022D01*
X028553Y014121D02*
X028453Y014121D01*
X030766Y013924D02*
X030821Y013924D01*
X030815Y014022D02*
X030779Y014022D01*
X030779Y014121D02*
X030815Y014121D01*
X030815Y014219D02*
X030779Y014219D01*
X031219Y014301D02*
X031278Y014360D01*
X031436Y014203D01*
X031830Y014203D01*
X032026Y014203D01*
X031219Y014301D02*
X031219Y013415D01*
X031042Y012037D02*
X030455Y012037D01*
X030373Y011956D01*
X030961Y010738D02*
X031554Y010738D01*
X031633Y010660D01*
X031278Y010423D02*
X031633Y010069D01*
X031633Y008691D01*
X031436Y008494D01*
X031436Y008100D01*
X031633Y007904D01*
X032026Y007904D01*
X032814Y008691D01*
X032814Y019321D01*
X032223Y019911D01*
X025137Y019911D01*
X024743Y019518D01*
X024152Y018730D02*
X023365Y018730D01*
X022865Y018230D01*
X022684Y018230D01*
X022168Y017746D02*
X024546Y017746D01*
X024940Y017352D01*
X025530Y017352D02*
X024152Y018730D01*
X022684Y019230D02*
X022184Y018730D01*
X021397Y018730D01*
X021200Y018534D01*
X021200Y017982D01*
X020609Y017392D01*
X020609Y016565D01*
X020412Y016368D01*
X019947Y016465D02*
X019331Y017082D01*
X019331Y018986D01*
X019286Y019095D01*
X019202Y019179D01*
X018892Y019489D01*
X018809Y019573D01*
X018700Y019618D01*
X018612Y019618D01*
X018612Y019654D01*
X020306Y019654D01*
X020117Y019465D01*
X020117Y018996D01*
X020449Y018664D01*
X020452Y018664D01*
X020214Y018425D01*
X020214Y018280D01*
X020634Y018280D01*
X020634Y018180D01*
X020214Y018180D01*
X020214Y018036D01*
X020489Y017760D01*
X020558Y017760D01*
X020357Y017560D01*
X020312Y017451D01*
X020312Y017333D01*
X020312Y016833D01*
X020220Y016833D01*
X019947Y016561D01*
X019947Y016465D01*
X019947Y016486D02*
X019927Y016486D01*
X019971Y016584D02*
X019828Y016584D01*
X019730Y016683D02*
X020070Y016683D01*
X020168Y016781D02*
X019631Y016781D01*
X019533Y016880D02*
X020312Y016880D01*
X020312Y016979D02*
X019434Y016979D01*
X019336Y017077D02*
X020312Y017077D01*
X020312Y017176D02*
X019331Y017176D01*
X019331Y017274D02*
X020312Y017274D01*
X020312Y017373D02*
X019331Y017373D01*
X019331Y017471D02*
X020321Y017471D01*
X020367Y017570D02*
X019331Y017570D01*
X019331Y017668D02*
X020466Y017668D01*
X020483Y017767D02*
X019331Y017767D01*
X019331Y017865D02*
X020384Y017865D01*
X020286Y017964D02*
X019331Y017964D01*
X019331Y018063D02*
X020214Y018063D01*
X020214Y018161D02*
X019331Y018161D01*
X019331Y018260D02*
X020634Y018260D01*
X020684Y018230D02*
X019715Y018230D01*
X019428Y017943D01*
X019331Y018358D02*
X020214Y018358D01*
X020246Y018457D02*
X019331Y018457D01*
X019331Y018555D02*
X020344Y018555D01*
X020443Y018654D02*
X019331Y018654D01*
X019331Y018752D02*
X020360Y018752D01*
X020262Y018851D02*
X019331Y018851D01*
X019331Y018949D02*
X020163Y018949D01*
X020117Y019048D02*
X019306Y019048D01*
X019235Y019147D02*
X020117Y019147D01*
X020117Y019245D02*
X019136Y019245D01*
X019202Y019179D02*
X019202Y019179D01*
X019038Y019344D02*
X020117Y019344D01*
X020117Y019442D02*
X018939Y019442D01*
X018841Y019541D02*
X020193Y019541D01*
X020291Y019639D02*
X018612Y019639D01*
X017656Y019360D02*
X015707Y019360D01*
X015688Y019341D01*
X015117Y019341D01*
X014900Y019124D01*
X014900Y017943D01*
X014507Y017549D01*
X012341Y017549D01*
X011948Y017156D01*
X011948Y015778D01*
X012145Y015581D01*
X012609Y015599D02*
X013963Y015599D01*
X013963Y015679D02*
X013963Y015472D01*
X014261Y015472D01*
X014261Y015375D01*
X013963Y015375D01*
X013963Y015167D01*
X013973Y015129D01*
X013993Y015095D01*
X014021Y015067D01*
X014055Y015047D01*
X014082Y015040D01*
X014064Y015040D01*
X013973Y015003D01*
X013904Y014933D01*
X013866Y014842D01*
X013866Y014533D01*
X013636Y014303D01*
X013602Y014303D01*
X013651Y014339D01*
X013703Y014391D01*
X013746Y014450D01*
X013780Y014516D01*
X013803Y014586D01*
X013812Y014646D01*
X013079Y014646D01*
X013079Y014743D01*
X013812Y014743D01*
X013803Y014804D01*
X013780Y014874D01*
X013746Y014940D01*
X013703Y014999D01*
X013651Y015051D01*
X013592Y015094D01*
X013526Y015128D01*
X013457Y015150D01*
X013384Y015162D01*
X013079Y015162D01*
X013079Y014744D01*
X012982Y014744D01*
X012982Y015162D01*
X012677Y015162D01*
X012604Y015150D01*
X012534Y015128D01*
X012469Y015094D01*
X012409Y015051D01*
X012357Y014999D01*
X012314Y014940D01*
X012281Y014874D01*
X012258Y014804D01*
X012249Y014743D01*
X012982Y014743D01*
X012982Y014646D01*
X012249Y014646D01*
X012258Y014586D01*
X012281Y014516D01*
X012314Y014450D01*
X012357Y014391D01*
X012409Y014339D01*
X012459Y014303D01*
X012085Y014303D01*
X011976Y014258D01*
X011893Y014174D01*
X011518Y013799D01*
X011473Y013690D01*
X011473Y013572D01*
X011473Y013563D01*
X011367Y013519D01*
X011166Y013319D01*
X011124Y013216D01*
X011072Y013268D01*
X010746Y013403D01*
X010393Y013403D01*
X010067Y013268D01*
X010000Y013201D01*
X010000Y014254D01*
X010045Y014240D01*
X010118Y014228D01*
X010423Y014228D01*
X010423Y014646D01*
X010520Y014646D01*
X010520Y014228D01*
X010825Y014228D01*
X010898Y014240D01*
X010967Y014262D01*
X011033Y014296D01*
X011092Y014339D01*
X011144Y014391D01*
X011187Y014450D01*
X011221Y014516D01*
X011244Y014586D01*
X011253Y014646D01*
X010520Y014646D01*
X010520Y014743D01*
X011253Y014743D01*
X011244Y014804D01*
X011221Y014874D01*
X011187Y014940D01*
X011144Y014999D01*
X011092Y015051D01*
X011033Y015094D01*
X010967Y015128D01*
X010898Y015150D01*
X010825Y015162D01*
X010520Y015162D01*
X010520Y014744D01*
X010423Y014744D01*
X010423Y015162D01*
X010118Y015162D01*
X010045Y015150D01*
X010000Y015136D01*
X010000Y015920D01*
X010042Y015903D01*
X010900Y015903D01*
X011107Y015989D01*
X011266Y016147D01*
X011352Y016354D01*
X011352Y016579D01*
X011266Y016786D01*
X011107Y016944D01*
X010900Y017030D01*
X010042Y017030D01*
X010000Y017013D01*
X010000Y018257D01*
X010073Y018184D01*
X010395Y018050D01*
X010744Y018050D01*
X011066Y018184D01*
X011313Y018431D01*
X011446Y018753D01*
X011446Y019102D01*
X011313Y019424D01*
X011122Y019615D01*
X011711Y019615D01*
X011562Y019465D01*
X011562Y018996D01*
X011894Y018664D01*
X011897Y018664D01*
X011659Y018425D01*
X011659Y018280D01*
X012079Y018280D01*
X012079Y018180D01*
X012179Y018180D01*
X012179Y017803D01*
X012173Y017801D01*
X011780Y017407D01*
X011696Y017324D01*
X011651Y017215D01*
X011651Y015837D01*
X011651Y015719D01*
X011680Y015649D01*
X011680Y015388D01*
X011952Y015116D01*
X012337Y015116D01*
X012609Y015388D01*
X012609Y015773D01*
X012337Y016046D01*
X012245Y016046D01*
X012245Y016138D01*
X012394Y015989D01*
X012601Y015903D01*
X013459Y015903D01*
X013667Y015989D01*
X013825Y016147D01*
X013911Y016354D01*
X013911Y016579D01*
X013825Y016786D01*
X013667Y016944D01*
X013459Y017030D01*
X012601Y017030D01*
X012394Y016944D01*
X012245Y016795D01*
X012245Y017033D01*
X012464Y017252D01*
X014566Y017252D01*
X014675Y017298D01*
X014758Y017381D01*
X015152Y017775D01*
X015197Y017884D01*
X015197Y018002D01*
X015197Y019001D01*
X015218Y019022D01*
X015242Y018965D01*
X015280Y018927D01*
X015242Y018890D01*
X015205Y018799D01*
X015205Y018229D01*
X015242Y018138D01*
X015312Y018068D01*
X015391Y018036D01*
X015391Y017835D01*
X015324Y017835D01*
X015233Y017798D01*
X015164Y017728D01*
X015126Y017638D01*
X015126Y017028D01*
X015164Y016937D01*
X015227Y016874D01*
X015223Y016860D01*
X015223Y016635D01*
X015638Y016635D01*
X015638Y016535D01*
X015223Y016535D01*
X015223Y016309D01*
X015233Y016271D01*
X015253Y016237D01*
X015281Y016209D01*
X015315Y016189D01*
X015353Y016179D01*
X015638Y016179D01*
X015638Y016535D01*
X015738Y016535D01*
X015738Y016635D01*
X016153Y016635D01*
X016153Y016860D01*
X016149Y016874D01*
X016212Y016937D01*
X016250Y017028D01*
X016250Y017638D01*
X016212Y017728D01*
X016143Y017798D01*
X016052Y017835D01*
X015985Y017835D01*
X015985Y018036D01*
X016064Y018068D01*
X016133Y018138D01*
X016171Y018229D01*
X016171Y018799D01*
X016133Y018890D01*
X016096Y018927D01*
X016133Y018965D01*
X016171Y019055D01*
X016171Y019063D01*
X016701Y019063D01*
X016701Y018878D01*
X016738Y018787D01*
X016808Y018718D01*
X016899Y018680D01*
X017360Y018680D01*
X017360Y017603D01*
X017277Y017569D01*
X017207Y017500D01*
X017170Y017409D01*
X017170Y016431D01*
X017207Y016340D01*
X017277Y016271D01*
X017360Y016236D01*
X017360Y016112D01*
X017405Y016003D01*
X017488Y015920D01*
X017541Y015867D01*
X016899Y015867D01*
X016808Y015829D01*
X016771Y015792D01*
X016733Y015829D01*
X016642Y015867D01*
X015914Y015867D01*
X015824Y015829D01*
X015754Y015760D01*
X015724Y015687D01*
X015709Y015712D01*
X015682Y015740D01*
X015647Y015760D01*
X015609Y015770D01*
X015344Y015770D01*
X015344Y015414D01*
X015244Y015414D01*
X015244Y015314D01*
X014849Y015314D01*
X014849Y015089D01*
X014853Y015075D01*
X014790Y015012D01*
X014752Y014921D01*
X014752Y014846D01*
X014716Y014933D01*
X014647Y015003D01*
X014556Y015040D01*
X014538Y015040D01*
X014565Y015047D01*
X014599Y015067D01*
X014627Y015095D01*
X014646Y015129D01*
X014657Y015167D01*
X014657Y015375D01*
X014359Y015375D01*
X014359Y015472D01*
X014657Y015472D01*
X014657Y015679D01*
X014646Y015717D01*
X014627Y015752D01*
X014599Y015780D01*
X014565Y015799D01*
X014526Y015809D01*
X014358Y015809D01*
X014358Y015472D01*
X014261Y015472D01*
X014261Y015809D01*
X014093Y015809D01*
X014055Y015799D01*
X014021Y015780D01*
X013993Y015752D01*
X013973Y015717D01*
X013963Y015679D01*
X013968Y015698D02*
X012609Y015698D01*
X012587Y015796D02*
X014050Y015796D01*
X014261Y015796D02*
X014358Y015796D01*
X014358Y015698D02*
X014261Y015698D01*
X014261Y015599D02*
X014358Y015599D01*
X014358Y015500D02*
X014261Y015500D01*
X014310Y015423D02*
X013759Y015423D01*
X013030Y014695D01*
X011751Y014695D01*
X011751Y017852D01*
X012129Y018230D01*
X012079Y018260D02*
X011142Y018260D01*
X011241Y018358D02*
X011659Y018358D01*
X011691Y018457D02*
X011324Y018457D01*
X011365Y018555D02*
X011789Y018555D01*
X011888Y018654D02*
X011405Y018654D01*
X011446Y018752D02*
X011805Y018752D01*
X011707Y018851D02*
X011446Y018851D01*
X011446Y018949D02*
X011608Y018949D01*
X011562Y019048D02*
X011446Y019048D01*
X011428Y019147D02*
X011562Y019147D01*
X011562Y019245D02*
X011387Y019245D01*
X011346Y019344D02*
X011562Y019344D01*
X011562Y019442D02*
X011295Y019442D01*
X011196Y019541D02*
X011638Y019541D01*
X012448Y019911D02*
X010176Y019911D01*
X009704Y019439D01*
X009704Y001093D01*
X010097Y000699D01*
X013208Y000699D01*
X014113Y001604D01*
X013648Y001606D02*
X011446Y001606D01*
X011446Y001704D02*
X011777Y001704D01*
X011828Y001654D02*
X012233Y001654D01*
X012233Y002704D01*
X011183Y002704D01*
X011183Y002298D01*
X011828Y001654D01*
X011679Y001803D02*
X011437Y001803D01*
X011446Y001779D02*
X011313Y002101D01*
X011066Y002348D01*
X010744Y002481D01*
X010395Y002481D01*
X010073Y002348D01*
X010000Y002275D01*
X010000Y007331D01*
X010067Y007264D01*
X010393Y007129D01*
X010746Y007129D01*
X011072Y007264D01*
X011124Y007316D01*
X011166Y007213D01*
X011367Y007012D01*
X011628Y006904D01*
X011911Y006904D01*
X012173Y007012D01*
X012257Y007096D01*
X013276Y006077D01*
X013385Y006032D01*
X013503Y006032D01*
X013778Y006032D01*
X014539Y006032D01*
X014536Y006024D01*
X014536Y005414D01*
X014564Y005345D01*
X014556Y005324D01*
X013959Y005921D01*
X012968Y005921D01*
X012267Y005220D01*
X012267Y004228D01*
X012641Y003854D01*
X012333Y003854D01*
X012333Y002804D01*
X012233Y002804D01*
X012233Y002704D01*
X012333Y002704D01*
X012333Y001654D01*
X012739Y001654D01*
X013383Y002298D01*
X013383Y002704D01*
X012334Y002704D01*
X012334Y002804D01*
X013383Y002804D01*
X013383Y003210D01*
X013066Y003527D01*
X013959Y003527D01*
X014100Y003668D01*
X014279Y003489D01*
X014279Y002069D01*
X013920Y002069D01*
X013648Y001797D01*
X013648Y001559D01*
X013085Y000996D01*
X011201Y000996D01*
X011313Y001108D01*
X011446Y001430D01*
X011446Y001779D01*
X011396Y001901D02*
X011580Y001901D01*
X011482Y002000D02*
X011355Y002000D01*
X011383Y002099D02*
X011314Y002099D01*
X011285Y002197D02*
X011217Y002197D01*
X011186Y002296D02*
X011118Y002296D01*
X011183Y002394D02*
X010954Y002394D01*
X011183Y002493D02*
X010000Y002493D01*
X010000Y002591D02*
X011183Y002591D01*
X011183Y002690D02*
X010000Y002690D01*
X010000Y002788D02*
X012233Y002788D01*
X012233Y002804D02*
X011183Y002804D01*
X011183Y003210D01*
X011828Y003854D01*
X012233Y003854D01*
X012233Y002804D01*
X012233Y002887D02*
X012333Y002887D01*
X012333Y002985D02*
X012233Y002985D01*
X012233Y003084D02*
X012333Y003084D01*
X012333Y003183D02*
X012233Y003183D01*
X012233Y003281D02*
X012333Y003281D01*
X012333Y003380D02*
X012233Y003380D01*
X012233Y003478D02*
X012333Y003478D01*
X012333Y003577D02*
X012233Y003577D01*
X012233Y003675D02*
X012333Y003675D01*
X012333Y003774D02*
X012233Y003774D01*
X012524Y003971D02*
X011906Y003971D01*
X012004Y004069D02*
X012425Y004069D01*
X012327Y004168D02*
X012103Y004168D01*
X012202Y004266D02*
X012267Y004266D01*
X012203Y004268D02*
X012203Y004674D01*
X011154Y004674D01*
X011154Y004774D01*
X012203Y004774D01*
X012203Y005180D01*
X011559Y005824D01*
X011153Y005824D01*
X011153Y004774D01*
X011053Y004774D01*
X011053Y004674D01*
X010003Y004674D01*
X010003Y004268D01*
X010648Y003624D01*
X011053Y003624D01*
X011053Y004674D01*
X011153Y004674D01*
X011153Y003624D01*
X011559Y003624D01*
X012203Y004268D01*
X012203Y004365D02*
X012267Y004365D01*
X012267Y004464D02*
X012203Y004464D01*
X012203Y004562D02*
X012267Y004562D01*
X012267Y004661D02*
X012203Y004661D01*
X012267Y004759D02*
X011154Y004759D01*
X011153Y004661D02*
X011053Y004661D01*
X011053Y004759D02*
X010000Y004759D01*
X010003Y004774D02*
X011053Y004774D01*
X011053Y005824D01*
X010648Y005824D01*
X010003Y005180D01*
X010003Y004774D01*
X010000Y004858D02*
X010003Y004858D01*
X010000Y004956D02*
X010003Y004956D01*
X010000Y005055D02*
X010003Y005055D01*
X010000Y005153D02*
X010003Y005153D01*
X010000Y005252D02*
X010076Y005252D01*
X010000Y005350D02*
X010174Y005350D01*
X010273Y005449D02*
X010000Y005449D01*
X010000Y005548D02*
X010371Y005548D01*
X010470Y005646D02*
X010000Y005646D01*
X010000Y005745D02*
X010569Y005745D01*
X011053Y005745D02*
X011153Y005745D01*
X011153Y005646D02*
X011053Y005646D01*
X011053Y005548D02*
X011153Y005548D01*
X011153Y005449D02*
X011053Y005449D01*
X011053Y005350D02*
X011153Y005350D01*
X011153Y005252D02*
X011053Y005252D01*
X011053Y005153D02*
X011153Y005153D01*
X011153Y005055D02*
X011053Y005055D01*
X011053Y004956D02*
X011153Y004956D01*
X011153Y004858D02*
X011053Y004858D01*
X011053Y004562D02*
X011153Y004562D01*
X011153Y004464D02*
X011053Y004464D01*
X011053Y004365D02*
X011153Y004365D01*
X011153Y004266D02*
X011053Y004266D01*
X011053Y004168D02*
X011153Y004168D01*
X011153Y004069D02*
X011053Y004069D01*
X011053Y003971D02*
X011153Y003971D01*
X011153Y003872D02*
X011053Y003872D01*
X011053Y003774D02*
X011153Y003774D01*
X011153Y003675D02*
X011053Y003675D01*
X010597Y003675D02*
X010000Y003675D01*
X010000Y003577D02*
X011551Y003577D01*
X011610Y003675D02*
X011649Y003675D01*
X011709Y003774D02*
X011748Y003774D01*
X011807Y003872D02*
X012623Y003872D01*
X013115Y003478D02*
X014279Y003478D01*
X014279Y003380D02*
X013213Y003380D01*
X013312Y003281D02*
X014279Y003281D01*
X014279Y003183D02*
X013383Y003183D01*
X013383Y003084D02*
X014279Y003084D01*
X014279Y002985D02*
X013383Y002985D01*
X013383Y002887D02*
X014279Y002887D01*
X014279Y002788D02*
X012334Y002788D01*
X012333Y002690D02*
X012233Y002690D01*
X012233Y002591D02*
X012333Y002591D01*
X012333Y002493D02*
X012233Y002493D01*
X012233Y002394D02*
X012333Y002394D01*
X012333Y002296D02*
X012233Y002296D01*
X012233Y002197D02*
X012333Y002197D01*
X012333Y002099D02*
X012233Y002099D01*
X012233Y002000D02*
X012333Y002000D01*
X012333Y001901D02*
X012233Y001901D01*
X012233Y001803D02*
X012333Y001803D01*
X012333Y001704D02*
X012233Y001704D01*
X012789Y001704D02*
X013648Y001704D01*
X013654Y001803D02*
X012888Y001803D01*
X012986Y001901D02*
X013753Y001901D01*
X013851Y002000D02*
X013085Y002000D01*
X013184Y002099D02*
X014279Y002099D01*
X014279Y002197D02*
X013282Y002197D01*
X013381Y002296D02*
X014279Y002296D01*
X014279Y002394D02*
X013383Y002394D01*
X013383Y002493D02*
X014279Y002493D01*
X014279Y002591D02*
X013383Y002591D01*
X013383Y002690D02*
X014279Y002690D01*
X014191Y003577D02*
X014009Y003577D01*
X014576Y003612D02*
X013463Y004724D01*
X012496Y005449D02*
X011934Y005449D01*
X012033Y005350D02*
X012397Y005350D01*
X012299Y005252D02*
X012131Y005252D01*
X012203Y005153D02*
X012267Y005153D01*
X012267Y005055D02*
X012203Y005055D01*
X012203Y004956D02*
X012267Y004956D01*
X012267Y004858D02*
X012203Y004858D01*
X011835Y005548D02*
X012594Y005548D01*
X012693Y005646D02*
X011737Y005646D01*
X011638Y005745D02*
X012792Y005745D01*
X012890Y005843D02*
X010000Y005843D01*
X010000Y005942D02*
X014536Y005942D01*
X014536Y005843D02*
X014037Y005843D01*
X014135Y005745D02*
X014536Y005745D01*
X014536Y005646D02*
X014234Y005646D01*
X014332Y005548D02*
X014536Y005548D01*
X014536Y005449D02*
X014431Y005449D01*
X014530Y005350D02*
X014562Y005350D01*
X015097Y004971D02*
X016082Y004971D01*
X017066Y004971D01*
X017511Y005449D02*
X017609Y005449D01*
X017511Y005548D02*
X018227Y005548D01*
X018326Y005646D02*
X017511Y005646D01*
X017643Y005745D02*
X017116Y005745D01*
X017066Y005719D02*
X017066Y006132D01*
X018050Y006132D01*
X019034Y006132D01*
X018609Y006040D02*
X018476Y006040D01*
X018476Y005942D02*
X018609Y005942D01*
X018609Y005843D02*
X018476Y005843D01*
X018100Y005843D02*
X018000Y005843D01*
X018000Y005745D02*
X018100Y005745D01*
X018100Y005942D02*
X018000Y005942D01*
X018000Y006040D02*
X018100Y006040D01*
X017624Y006040D02*
X017496Y006040D01*
X017511Y005942D02*
X017624Y005942D01*
X017624Y005843D02*
X017511Y005843D01*
X017116Y005843D02*
X017016Y005843D01*
X017016Y005942D02*
X017116Y005942D01*
X017116Y006040D02*
X017016Y006040D01*
X017066Y006132D02*
X017066Y006329D01*
X016869Y006526D01*
X016082Y006526D01*
X016002Y006632D02*
X018509Y006632D01*
X018449Y006533D02*
X018607Y006533D01*
X018609Y006434D02*
X018476Y006434D01*
X018476Y006336D02*
X018609Y006336D01*
X018609Y006237D02*
X018476Y006237D01*
X018100Y006336D02*
X018000Y006336D01*
X018000Y006434D02*
X018100Y006434D01*
X018100Y006533D02*
X018000Y006533D01*
X018389Y006751D02*
X018389Y006751D01*
X018410Y006730D02*
X015903Y006730D01*
X016475Y007313D02*
X017479Y007313D01*
X017932Y007786D02*
X018227Y007490D01*
X018227Y007313D01*
X018444Y007313D01*
X018937Y007581D02*
X018937Y007766D01*
X018892Y007875D01*
X018809Y007958D01*
X018624Y008144D01*
X018633Y008179D01*
X018633Y008444D01*
X018277Y008444D01*
X018277Y008544D01*
X018633Y008544D01*
X018633Y008632D01*
X018645Y008620D01*
X019030Y008620D01*
X019221Y008810D01*
X019221Y008678D01*
X019258Y008587D01*
X019328Y008517D01*
X019418Y008480D01*
X020146Y008480D01*
X020237Y008517D01*
X020307Y008587D01*
X020344Y008678D01*
X020344Y008795D01*
X020735Y008795D01*
X020735Y008695D01*
X020807Y008623D01*
X020714Y008623D01*
X020556Y008623D01*
X020399Y008623D01*
X020308Y008585D01*
X020239Y008516D01*
X020201Y008425D01*
X020201Y007934D01*
X020090Y008045D01*
X020090Y008096D01*
X019817Y008369D01*
X019432Y008369D01*
X019160Y008096D01*
X019160Y007711D01*
X019190Y007681D01*
X019089Y007581D01*
X018937Y007581D01*
X018937Y007617D02*
X019125Y007617D01*
X019160Y007716D02*
X018937Y007716D01*
X018917Y007814D02*
X019160Y007814D01*
X019160Y007913D02*
X018855Y007913D01*
X018756Y008011D02*
X019160Y008011D01*
X019173Y008110D02*
X018657Y008110D01*
X018633Y008208D02*
X019272Y008208D01*
X019371Y008307D02*
X018633Y008307D01*
X018633Y008405D02*
X020201Y008405D01*
X020201Y008307D02*
X019879Y008307D01*
X019978Y008208D02*
X020201Y008208D01*
X020201Y008110D02*
X020076Y008110D01*
X020124Y008011D02*
X020201Y008011D01*
X020204Y008504D02*
X020234Y008504D01*
X020313Y008602D02*
X020349Y008602D01*
X020344Y008701D02*
X020735Y008701D01*
X020538Y009375D02*
X020344Y009375D01*
X020344Y009492D01*
X020344Y009649D01*
X020307Y009740D01*
X020607Y009740D01*
X020538Y009671D01*
X020538Y009375D01*
X020538Y009391D02*
X020344Y009391D01*
X020344Y009489D02*
X020538Y009489D01*
X020538Y009588D02*
X020344Y009588D01*
X020329Y009686D02*
X020553Y009686D01*
X019221Y008799D02*
X019210Y008799D01*
X019221Y008701D02*
X019111Y008701D01*
X019252Y008602D02*
X018633Y008602D01*
X018837Y008494D02*
X018227Y008494D01*
X018277Y008504D02*
X019360Y008504D01*
X018837Y009085D02*
X018837Y009793D01*
X017479Y008612D02*
X017479Y008494D01*
X017479Y008612D02*
X014166Y008612D01*
X014070Y008516D01*
X013127Y007420D02*
X015949Y007420D01*
X015970Y007819D02*
X016475Y007313D01*
X015970Y007819D02*
X015970Y008116D01*
X017066Y007904D02*
X017184Y007786D01*
X017932Y007786D01*
X019999Y006506D02*
X020412Y006506D01*
X021397Y006506D01*
X022381Y006506D01*
X022943Y006533D02*
X024398Y006533D01*
X024398Y006434D02*
X022943Y006434D01*
X022943Y006336D02*
X024398Y006336D01*
X024398Y006237D02*
X022943Y006237D01*
X022917Y006139D02*
X024423Y006139D01*
X024496Y006040D02*
X022943Y006040D01*
X022943Y005942D02*
X024495Y005942D01*
X024495Y005843D02*
X022943Y005843D01*
X023011Y005548D02*
X024495Y005548D01*
X024503Y005449D02*
X023107Y005449D01*
X023253Y005350D02*
X024262Y005350D01*
X024207Y005252D02*
X023410Y005252D01*
X023467Y005153D02*
X024132Y005153D01*
X024033Y005055D02*
X023484Y005055D01*
X023484Y004956D02*
X023935Y004956D01*
X023836Y004858D02*
X023484Y004858D01*
X023484Y004759D02*
X023738Y004759D01*
X023837Y004439D02*
X023326Y004439D01*
X023326Y004124D01*
X023837Y004439D02*
X024330Y004931D01*
X024743Y004931D01*
X025285Y004759D02*
X025469Y004759D01*
X025370Y004661D02*
X025285Y004661D01*
X025272Y004562D02*
X025259Y004562D01*
X025727Y004360D02*
X026515Y004360D01*
X025727Y003770D02*
X028089Y003770D01*
X028286Y003967D01*
X029271Y004951D01*
X029271Y005345D01*
X029467Y005345D01*
X027085Y005350D02*
X026350Y005350D01*
X026350Y005252D02*
X026986Y005252D01*
X026888Y005153D02*
X026331Y005153D01*
X026350Y005449D02*
X026472Y005449D01*
X026463Y005548D02*
X025974Y005548D01*
X025974Y005449D02*
X025874Y005449D01*
X025874Y005350D02*
X025974Y005350D01*
X025974Y005252D02*
X025874Y005252D01*
X025874Y005153D02*
X025974Y005153D01*
X026350Y005646D02*
X026463Y005646D01*
X026858Y005646D02*
X026958Y005646D01*
X026958Y005548D02*
X026858Y005548D01*
X026858Y005449D02*
X026958Y005449D01*
X030452Y007510D02*
X030452Y007707D01*
X030255Y007904D01*
X030058Y008100D01*
X030058Y008576D01*
X030373Y008576D02*
X030373Y008179D01*
X030452Y008100D01*
X030649Y007904D01*
X030845Y007904D01*
X031239Y007510D02*
X030845Y007116D01*
X031239Y007510D02*
X031239Y008691D01*
X031436Y008888D01*
X031436Y009872D01*
X031200Y010108D01*
X030961Y010108D01*
X030609Y010108D01*
X030255Y010463D01*
X030255Y010069D02*
X030058Y010069D01*
X030255Y010069D02*
X030452Y009872D01*
X030649Y009872D01*
X030727Y009793D01*
X030961Y009793D01*
X030961Y009478D02*
X030649Y009478D01*
X030452Y009675D01*
X029861Y009675D01*
X029664Y009478D01*
X030255Y009282D02*
X030373Y009163D01*
X030961Y009163D01*
X031830Y008297D02*
X032223Y008691D01*
X032223Y008888D01*
X032223Y009301D01*
X032440Y009301D01*
X032223Y010049D02*
X032223Y010837D01*
X031278Y010423D02*
X030961Y010423D01*
X027696Y011483D02*
X027581Y011368D01*
X027578Y011368D01*
X026495Y012234D02*
X026318Y012411D01*
X025797Y012150D02*
X025697Y012150D01*
X025697Y012051D02*
X025797Y012051D01*
X025797Y011953D02*
X025697Y011953D01*
X025697Y011854D02*
X025797Y011854D01*
X026021Y011756D02*
X025070Y011756D01*
X025169Y011657D02*
X026021Y011657D01*
X025341Y012347D02*
X023773Y012347D01*
X023773Y012446D02*
X025341Y012446D01*
X025341Y012544D02*
X025002Y012544D01*
X025100Y012643D02*
X025392Y012643D01*
X024484Y012544D02*
X023773Y012544D01*
X023773Y012643D02*
X024386Y012643D01*
X024287Y012741D02*
X023778Y012741D01*
X023918Y012840D02*
X024278Y012840D01*
X024278Y012938D02*
X024016Y012938D01*
X023680Y013022D02*
X023483Y013022D01*
X023680Y013022D02*
X024074Y013415D01*
X025137Y013809D02*
X025727Y013809D01*
X025924Y014006D01*
X024152Y014971D02*
X024152Y015679D01*
X023168Y015679D02*
X023168Y014971D01*
X022184Y014971D02*
X022184Y015679D01*
X021200Y015679D02*
X021200Y014971D01*
X020638Y014811D02*
X018809Y014811D01*
X018809Y014712D02*
X020638Y014712D01*
X020659Y014614D02*
X020607Y014614D01*
X020265Y014614D02*
X020165Y014614D01*
X020165Y014668D02*
X019920Y014668D01*
X019882Y014658D01*
X019848Y014638D01*
X019820Y014610D01*
X019800Y014576D01*
X019790Y014538D01*
X019790Y014253D01*
X020165Y014253D01*
X020165Y014668D01*
X020165Y014515D02*
X020265Y014515D01*
X020265Y014416D02*
X020165Y014416D01*
X020165Y014318D02*
X020265Y014318D01*
X020266Y014253D02*
X020638Y014253D01*
X020638Y014153D01*
X020266Y014153D01*
X020266Y014253D01*
X020266Y014219D02*
X020638Y014219D01*
X020412Y014203D02*
X020215Y014203D01*
X020165Y014219D02*
X019281Y014219D01*
X019281Y014253D02*
X019281Y014153D01*
X019657Y014153D01*
X019657Y013868D01*
X019646Y013830D01*
X019627Y013796D01*
X019599Y013768D01*
X019565Y013748D01*
X019526Y013738D01*
X019281Y013738D01*
X019281Y014153D01*
X019181Y014153D01*
X018806Y014153D01*
X018806Y013868D01*
X018816Y013830D01*
X018836Y013796D01*
X018863Y013768D01*
X018898Y013748D01*
X018936Y013738D01*
X019181Y013738D01*
X019181Y014153D01*
X019181Y014253D01*
X019281Y014253D01*
X019281Y014668D01*
X019526Y014668D01*
X019565Y014658D01*
X019599Y014638D01*
X019627Y014610D01*
X019646Y014576D01*
X019657Y014538D01*
X019657Y014253D01*
X019281Y014253D01*
X019281Y014318D02*
X019181Y014318D01*
X019181Y014416D02*
X019281Y014416D01*
X019281Y014515D02*
X019181Y014515D01*
X019181Y014614D02*
X019281Y014614D01*
X019623Y014614D02*
X019823Y014614D01*
X019790Y014515D02*
X019657Y014515D01*
X019657Y014416D02*
X019790Y014416D01*
X019790Y014318D02*
X019657Y014318D01*
X019657Y014121D02*
X019790Y014121D01*
X019790Y014022D02*
X019657Y014022D01*
X019657Y013924D02*
X019790Y013924D01*
X019803Y013825D02*
X019644Y013825D01*
X019438Y013628D02*
X020164Y013628D01*
X020144Y013530D02*
X019537Y013530D01*
X019635Y013431D02*
X020144Y013431D01*
X020144Y013332D02*
X019734Y013332D01*
X019625Y013022D02*
X019231Y013415D01*
X018424Y013415D01*
X018227Y013219D01*
X018050Y013809D02*
X017656Y013809D01*
X017460Y013612D01*
X017460Y013238D01*
X017479Y013219D01*
X018050Y013809D02*
X018247Y014006D01*
X018247Y014616D01*
X018809Y014614D02*
X018839Y014614D01*
X018770Y014219D02*
X019181Y014219D01*
X019181Y014121D02*
X019281Y014121D01*
X019281Y014022D02*
X019181Y014022D01*
X019181Y013924D02*
X019281Y013924D01*
X019281Y013825D02*
X019181Y013825D01*
X018819Y013825D02*
X018486Y013825D01*
X018534Y013924D02*
X018806Y013924D01*
X018806Y014022D02*
X018544Y014022D01*
X018629Y014121D02*
X018806Y014121D01*
X018639Y013727D02*
X020263Y013727D01*
X020265Y013825D02*
X020165Y013825D01*
X020165Y013924D02*
X020265Y013924D01*
X020265Y014022D02*
X020165Y014022D01*
X020165Y014121D02*
X020265Y014121D01*
X021200Y013534D02*
X021278Y013455D01*
X019751Y014909D02*
X019696Y014909D01*
X020215Y015384D02*
X019428Y016171D01*
X019034Y016171D01*
X018837Y016171D01*
X018566Y016443D01*
X018566Y016920D01*
X018566Y017278D01*
X017360Y017668D02*
X016237Y017668D01*
X016250Y017570D02*
X017279Y017570D01*
X017195Y017471D02*
X017087Y017471D01*
X017079Y017480D02*
X017044Y017499D01*
X017006Y017510D01*
X016796Y017510D01*
X016796Y016970D01*
X016697Y016970D01*
X016697Y017510D01*
X016487Y017510D01*
X016449Y017499D01*
X016414Y017480D01*
X016387Y017452D01*
X016367Y017418D01*
X016357Y017379D01*
X016357Y016970D01*
X016696Y016970D01*
X016696Y016870D01*
X016357Y016870D01*
X016357Y016460D01*
X016367Y016422D01*
X016387Y016388D01*
X016414Y016360D01*
X016449Y016340D01*
X016487Y016330D01*
X016697Y016330D01*
X016697Y016870D01*
X016796Y016870D01*
X016796Y016330D01*
X017006Y016330D01*
X017044Y016340D01*
X017079Y016360D01*
X017106Y016388D01*
X017126Y016422D01*
X017136Y016460D01*
X017136Y016870D01*
X016797Y016870D01*
X016797Y016970D01*
X017136Y016970D01*
X017136Y017379D01*
X017126Y017418D01*
X017106Y017452D01*
X017079Y017480D01*
X017136Y017373D02*
X017170Y017373D01*
X017170Y017274D02*
X017136Y017274D01*
X017136Y017176D02*
X017170Y017176D01*
X017170Y017077D02*
X017136Y017077D01*
X017136Y016979D02*
X017170Y016979D01*
X017170Y016880D02*
X016797Y016880D01*
X016747Y016920D02*
X016747Y017624D01*
X017066Y017943D01*
X017360Y017964D02*
X015985Y017964D01*
X015985Y017865D02*
X017360Y017865D01*
X017360Y017767D02*
X016174Y017767D01*
X016050Y018063D02*
X017360Y018063D01*
X017360Y018161D02*
X016143Y018161D01*
X016171Y018260D02*
X017360Y018260D01*
X017360Y018358D02*
X016171Y018358D01*
X016171Y018457D02*
X017360Y018457D01*
X017360Y018555D02*
X016171Y018555D01*
X016171Y018654D02*
X017360Y018654D01*
X016773Y018752D02*
X016171Y018752D01*
X016149Y018851D02*
X016712Y018851D01*
X016701Y018949D02*
X016118Y018949D01*
X016168Y019048D02*
X016701Y019048D01*
X015688Y018514D02*
X015688Y017333D01*
X015126Y017373D02*
X014750Y017373D01*
X014758Y017381D02*
X014758Y017381D01*
X014849Y017471D02*
X015126Y017471D01*
X015126Y017570D02*
X014947Y017570D01*
X015046Y017668D02*
X015139Y017668D01*
X015144Y017767D02*
X015202Y017767D01*
X015190Y017865D02*
X015391Y017865D01*
X015391Y017964D02*
X015197Y017964D01*
X015197Y018063D02*
X015326Y018063D01*
X015233Y018161D02*
X015197Y018161D01*
X015197Y018260D02*
X015205Y018260D01*
X015197Y018358D02*
X015205Y018358D01*
X015197Y018457D02*
X015205Y018457D01*
X015197Y018555D02*
X015205Y018555D01*
X015197Y018654D02*
X015205Y018654D01*
X015197Y018752D02*
X015205Y018752D01*
X015197Y018851D02*
X015226Y018851D01*
X015197Y018949D02*
X015257Y018949D01*
X014940Y019951D02*
X014219Y019230D01*
X014129Y019230D01*
X013129Y019230D02*
X012448Y019911D01*
X014940Y019951D02*
X020963Y019951D01*
X021684Y019230D01*
X021684Y018230D02*
X022168Y017746D01*
X021200Y016506D02*
X021141Y016506D01*
X018297Y015599D02*
X018197Y015599D01*
X018247Y015581D02*
X018050Y015778D01*
X017066Y015778D01*
X016747Y016097D01*
X016747Y016920D01*
X016747Y016585D01*
X015688Y016585D01*
X015688Y015876D01*
X015235Y015423D01*
X015294Y015364D01*
X015244Y015402D02*
X014359Y015402D01*
X014310Y015423D02*
X015235Y015423D01*
X015244Y015414D02*
X015244Y015770D01*
X014979Y015770D01*
X014941Y015760D01*
X014907Y015740D01*
X014879Y015712D01*
X014859Y015678D01*
X014849Y015640D01*
X014849Y015414D01*
X015244Y015414D01*
X015244Y015500D02*
X015344Y015500D01*
X015344Y015599D02*
X015244Y015599D01*
X015244Y015698D02*
X015344Y015698D01*
X015718Y015698D02*
X015728Y015698D01*
X015790Y015796D02*
X014570Y015796D01*
X014652Y015698D02*
X014870Y015698D01*
X014849Y015599D02*
X014657Y015599D01*
X014657Y015500D02*
X014849Y015500D01*
X014849Y015303D02*
X014657Y015303D01*
X014657Y015205D02*
X014849Y015205D01*
X014849Y015106D02*
X014633Y015106D01*
X014634Y015008D02*
X014788Y015008D01*
X014752Y014909D02*
X014726Y014909D01*
X014310Y014557D02*
X013759Y014006D01*
X012145Y014006D01*
X011770Y013631D01*
X011770Y012916D01*
X011770Y007616D01*
X011255Y007124D02*
X010000Y007124D01*
X010000Y007026D02*
X011353Y007026D01*
X011572Y006927D02*
X010000Y006927D01*
X010000Y006829D02*
X012524Y006829D01*
X012426Y006927D02*
X011967Y006927D01*
X012186Y007026D02*
X012327Y007026D01*
X012623Y006730D02*
X010000Y006730D01*
X010000Y006632D02*
X012721Y006632D01*
X012820Y006533D02*
X010000Y006533D01*
X010000Y006434D02*
X012918Y006434D01*
X013017Y006336D02*
X010000Y006336D01*
X010000Y006237D02*
X013115Y006237D01*
X013214Y006139D02*
X010000Y006139D01*
X010000Y006040D02*
X013365Y006040D01*
X011162Y007223D02*
X010973Y007223D01*
X010167Y007223D02*
X010000Y007223D01*
X010000Y007321D02*
X010010Y007321D01*
X013123Y010069D02*
X013326Y010069D01*
X012145Y010463D02*
X012145Y011250D01*
X012145Y012431D01*
X013523Y013809D01*
X015491Y013809D01*
X015885Y013809D01*
X016278Y014203D01*
X016278Y014616D01*
X015767Y014616D02*
X015767Y015345D01*
X016278Y015345D01*
X016278Y015364D01*
X017263Y015364D01*
X016775Y015796D02*
X016767Y015796D01*
X017368Y016092D02*
X013769Y016092D01*
X013843Y016190D02*
X015313Y016190D01*
X015228Y016289D02*
X013884Y016289D01*
X013911Y016387D02*
X015223Y016387D01*
X015223Y016486D02*
X013911Y016486D01*
X013909Y016584D02*
X015638Y016584D01*
X015638Y016486D02*
X015738Y016486D01*
X015738Y016535D02*
X015738Y016179D01*
X016023Y016179D01*
X016061Y016189D01*
X016095Y016209D01*
X016123Y016237D01*
X016143Y016271D01*
X016153Y016309D01*
X016153Y016535D01*
X015738Y016535D01*
X015738Y016584D02*
X016357Y016584D01*
X016357Y016486D02*
X016153Y016486D01*
X016153Y016387D02*
X016387Y016387D01*
X016147Y016289D02*
X017258Y016289D01*
X017187Y016387D02*
X017106Y016387D01*
X017136Y016486D02*
X017170Y016486D01*
X017170Y016584D02*
X017136Y016584D01*
X017136Y016683D02*
X017170Y016683D01*
X017170Y016781D02*
X017136Y016781D01*
X016796Y016781D02*
X016697Y016781D01*
X016697Y016683D02*
X016796Y016683D01*
X016796Y016584D02*
X016697Y016584D01*
X016697Y016486D02*
X016796Y016486D01*
X016796Y016387D02*
X016697Y016387D01*
X016357Y016683D02*
X016153Y016683D01*
X016153Y016781D02*
X016357Y016781D01*
X016357Y016979D02*
X016229Y016979D01*
X016250Y017077D02*
X016357Y017077D01*
X016357Y017176D02*
X016250Y017176D01*
X016250Y017274D02*
X016357Y017274D01*
X016357Y017373D02*
X016250Y017373D01*
X016250Y017471D02*
X016406Y017471D01*
X016697Y017471D02*
X016796Y017471D01*
X016796Y017373D02*
X016697Y017373D01*
X016697Y017274D02*
X016796Y017274D01*
X016796Y017176D02*
X016697Y017176D01*
X016697Y017077D02*
X016796Y017077D01*
X016796Y016979D02*
X016697Y016979D01*
X016696Y016880D02*
X016155Y016880D01*
X015738Y016387D02*
X015638Y016387D01*
X015638Y016289D02*
X015738Y016289D01*
X015738Y016190D02*
X015638Y016190D01*
X016063Y016190D02*
X017360Y016190D01*
X017415Y015993D02*
X013671Y015993D01*
X013963Y015500D02*
X012609Y015500D01*
X012609Y015402D02*
X014261Y015402D01*
X013963Y015303D02*
X012525Y015303D01*
X012426Y015205D02*
X013963Y015205D01*
X013986Y015106D02*
X013568Y015106D01*
X013695Y015008D02*
X013986Y015008D01*
X013894Y014909D02*
X013762Y014909D01*
X013801Y014811D02*
X013866Y014811D01*
X013866Y014712D02*
X013079Y014712D01*
X012982Y014712D02*
X010520Y014712D01*
X010471Y014695D02*
X011751Y014695D01*
X011248Y014614D02*
X012254Y014614D01*
X012281Y014515D02*
X011220Y014515D01*
X011163Y014416D02*
X012339Y014416D01*
X012438Y014318D02*
X011063Y014318D01*
X010520Y014318D02*
X010423Y014318D01*
X010423Y014416D02*
X010520Y014416D01*
X010520Y014515D02*
X010423Y014515D01*
X010423Y014614D02*
X010520Y014614D01*
X010520Y014811D02*
X010423Y014811D01*
X010423Y014909D02*
X010520Y014909D01*
X010520Y015008D02*
X010423Y015008D01*
X010423Y015106D02*
X010520Y015106D01*
X011009Y015106D02*
X012493Y015106D01*
X012366Y015008D02*
X011136Y015008D01*
X011203Y014909D02*
X012299Y014909D01*
X012260Y014811D02*
X011241Y014811D01*
X011863Y015205D02*
X010000Y015205D01*
X010000Y015303D02*
X011764Y015303D01*
X011680Y015402D02*
X010000Y015402D01*
X010000Y015500D02*
X011680Y015500D01*
X011680Y015599D02*
X010000Y015599D01*
X010000Y015698D02*
X011660Y015698D01*
X011651Y015796D02*
X010000Y015796D01*
X010000Y015895D02*
X011651Y015895D01*
X011651Y015993D02*
X011112Y015993D01*
X011210Y016092D02*
X011651Y016092D01*
X011651Y016190D02*
X011284Y016190D01*
X011325Y016289D02*
X011651Y016289D01*
X011651Y016387D02*
X011352Y016387D01*
X011352Y016486D02*
X011651Y016486D01*
X011651Y016584D02*
X011350Y016584D01*
X011309Y016683D02*
X011651Y016683D01*
X011651Y016781D02*
X011268Y016781D01*
X011172Y016880D02*
X011651Y016880D01*
X011651Y016979D02*
X011025Y016979D01*
X011651Y017077D02*
X010000Y017077D01*
X010000Y017176D02*
X011651Y017176D01*
X011676Y017274D02*
X010000Y017274D01*
X010000Y017373D02*
X011745Y017373D01*
X011844Y017471D02*
X010000Y017471D01*
X010000Y017570D02*
X011942Y017570D01*
X012041Y017668D02*
X010000Y017668D01*
X010000Y017767D02*
X011928Y017767D01*
X011934Y017760D02*
X012079Y017760D01*
X012079Y018180D01*
X011659Y018180D01*
X011659Y018036D01*
X011934Y017760D01*
X012079Y017767D02*
X012139Y017767D01*
X012179Y017865D02*
X012079Y017865D01*
X012079Y017964D02*
X012179Y017964D01*
X012179Y018063D02*
X012079Y018063D01*
X012079Y018161D02*
X012179Y018161D01*
X011829Y017865D02*
X010000Y017865D01*
X010000Y017964D02*
X011731Y017964D01*
X011659Y018063D02*
X010773Y018063D01*
X011011Y018161D02*
X011659Y018161D01*
X010366Y018063D02*
X010000Y018063D01*
X010000Y018161D02*
X010128Y018161D01*
X012289Y017077D02*
X015126Y017077D01*
X015126Y017176D02*
X012388Y017176D01*
X012477Y016979D02*
X012245Y016979D01*
X012245Y016880D02*
X012330Y016880D01*
X012291Y016092D02*
X012245Y016092D01*
X012390Y015993D02*
X012390Y015993D01*
X012488Y015895D02*
X017513Y015895D01*
X018197Y015500D02*
X018297Y015500D01*
X018247Y015581D02*
X018247Y015364D01*
X017263Y014616D02*
X017263Y014203D01*
X017066Y014006D01*
X016475Y014006D01*
X015885Y013415D01*
X016200Y013415D01*
X016278Y013337D01*
X016278Y013022D01*
X016790Y012510D01*
X018562Y012510D01*
X018759Y012707D02*
X016987Y012707D01*
X016672Y013022D01*
X016672Y013415D01*
X015885Y013415D02*
X015688Y013415D01*
X015885Y013415D01*
X015688Y013415D02*
X013523Y013415D01*
X012538Y012431D01*
X012538Y011250D01*
X012735Y011053D01*
X014704Y010974D02*
X015970Y012241D01*
X015970Y012416D01*
X016591Y012037D02*
X015970Y011416D01*
X011741Y014022D02*
X010000Y014022D01*
X010000Y013924D02*
X011643Y013924D01*
X011544Y013825D02*
X010000Y013825D01*
X010000Y013727D02*
X011488Y013727D01*
X011473Y013628D02*
X010000Y013628D01*
X010000Y013530D02*
X011391Y013530D01*
X011278Y013431D02*
X010000Y013431D01*
X010000Y013332D02*
X010224Y013332D01*
X010034Y013234D02*
X010000Y013234D01*
X010916Y013332D02*
X011180Y013332D01*
X011131Y013234D02*
X011106Y013234D01*
X011840Y014121D02*
X010000Y014121D01*
X010000Y014219D02*
X011938Y014219D01*
X012982Y014811D02*
X013079Y014811D01*
X013079Y014909D02*
X012982Y014909D01*
X012982Y015008D02*
X013079Y015008D01*
X013079Y015106D02*
X012982Y015106D01*
X013807Y014614D02*
X013866Y014614D01*
X013848Y014515D02*
X013779Y014515D01*
X013749Y014416D02*
X013722Y014416D01*
X013651Y014318D02*
X013622Y014318D01*
X015294Y014616D02*
X015767Y014616D01*
X015223Y016683D02*
X013868Y016683D01*
X013827Y016781D02*
X015223Y016781D01*
X015221Y016880D02*
X013731Y016880D01*
X013584Y016979D02*
X015146Y016979D01*
X015126Y017274D02*
X014618Y017274D01*
X023011Y012058D02*
X023011Y012058D01*
X023010Y012051D02*
X023011Y012051D01*
X023136Y011953D02*
X022885Y011953D01*
X022918Y011657D02*
X022671Y011657D01*
X022671Y011559D02*
X022819Y011559D01*
X022721Y011460D02*
X022671Y011460D01*
X022671Y011362D02*
X022703Y011362D01*
X022703Y011263D02*
X022671Y011263D01*
X022671Y011165D02*
X022703Y011165D01*
X022703Y011066D02*
X022671Y011066D01*
X022671Y010967D02*
X022793Y010967D01*
X022892Y010869D02*
X022671Y010869D01*
X023444Y010869D02*
X023630Y010869D01*
X023630Y010967D02*
X023543Y010967D01*
X023264Y011756D02*
X022648Y011756D01*
X022580Y011854D02*
X023369Y011854D01*
X023673Y011953D02*
X023676Y011953D01*
X023750Y012051D02*
X023827Y012051D01*
X025334Y015364D02*
X025924Y015364D01*
X023661Y008602D02*
X023625Y008602D01*
X023740Y008504D02*
X023770Y008504D01*
X022381Y005758D02*
X022853Y005286D01*
X022853Y004911D01*
X022853Y005286D02*
X022381Y005758D01*
X021554Y004951D02*
X021357Y005148D01*
X021554Y004951D02*
X021593Y004911D01*
X021436Y004439D02*
X021121Y004439D01*
X020924Y004439D01*
X020609Y004754D01*
X020412Y004754D01*
X020609Y004360D02*
X019704Y004360D01*
X019507Y004557D01*
X019034Y004951D02*
X018444Y004360D01*
X016278Y004360D01*
X016082Y004163D01*
X016082Y003612D01*
X016082Y001191D01*
X016082Y001172D01*
X016082Y001191D02*
X017263Y001191D01*
X018050Y001191D01*
X017587Y001524D02*
X017455Y001656D01*
X017070Y001656D01*
X017037Y001623D01*
X017037Y001654D01*
X016999Y001745D01*
X016930Y001814D01*
X016839Y001852D01*
X016378Y001852D01*
X016378Y002928D01*
X016461Y002963D01*
X016531Y003032D01*
X016568Y003123D01*
X016568Y004063D01*
X016601Y004063D01*
X016601Y003662D01*
X016941Y003662D01*
X016941Y003562D01*
X016601Y003562D01*
X016601Y003152D01*
X016612Y003114D01*
X016631Y003080D01*
X016659Y003052D01*
X016694Y003032D01*
X016732Y003022D01*
X016941Y003022D01*
X016941Y003562D01*
X017041Y003562D01*
X017041Y003022D01*
X017251Y003022D01*
X017289Y003032D01*
X017323Y003052D01*
X017351Y003080D01*
X017371Y003114D01*
X017381Y003152D01*
X017381Y003562D01*
X017042Y003562D01*
X017042Y003662D01*
X017381Y003662D01*
X017381Y004063D01*
X017585Y004063D01*
X017585Y003997D01*
X018000Y003997D01*
X018000Y003897D01*
X017585Y003897D01*
X017585Y003671D01*
X017589Y003658D01*
X017526Y003595D01*
X017488Y003504D01*
X017488Y002894D01*
X017526Y002803D01*
X017595Y002734D01*
X017686Y002696D01*
X017753Y002696D01*
X017753Y002496D01*
X017674Y002463D01*
X017605Y002394D01*
X016378Y002394D01*
X016378Y002296D02*
X017567Y002296D01*
X017567Y002303D02*
X017567Y001732D01*
X017605Y001642D01*
X017642Y001604D01*
X017605Y001567D01*
X017587Y001524D01*
X017640Y001606D02*
X017505Y001606D01*
X017579Y001704D02*
X017016Y001704D01*
X016941Y001803D02*
X017567Y001803D01*
X017567Y001901D02*
X016378Y001901D01*
X016378Y002000D02*
X017567Y002000D01*
X017567Y002099D02*
X016378Y002099D01*
X016378Y002197D02*
X017567Y002197D01*
X017567Y002303D02*
X017605Y002394D01*
X017745Y002493D02*
X016378Y002493D01*
X016378Y002591D02*
X017753Y002591D01*
X017753Y002690D02*
X016378Y002690D01*
X016378Y002788D02*
X017541Y002788D01*
X017491Y002887D02*
X016378Y002887D01*
X016484Y002985D02*
X017488Y002985D01*
X017488Y003084D02*
X017354Y003084D01*
X017381Y003183D02*
X017488Y003183D01*
X017488Y003281D02*
X017381Y003281D01*
X017381Y003380D02*
X017488Y003380D01*
X017488Y003478D02*
X017381Y003478D01*
X017518Y003577D02*
X017042Y003577D01*
X016991Y003612D02*
X016991Y002514D01*
X016869Y002392D01*
X018050Y002018D02*
X018050Y003199D01*
X018511Y003658D02*
X018515Y003671D01*
X018515Y003897D01*
X018100Y003897D01*
X018100Y003997D01*
X018515Y003997D01*
X018515Y004069D01*
X018569Y004091D01*
X018569Y003997D01*
X018984Y003997D01*
X018984Y003897D01*
X018569Y003897D01*
X018569Y003671D01*
X018573Y003658D01*
X018542Y003627D01*
X018511Y003658D01*
X018515Y003675D02*
X018569Y003675D01*
X018569Y003774D02*
X018515Y003774D01*
X018515Y003872D02*
X018569Y003872D01*
X018569Y004069D02*
X018517Y004069D01*
X018100Y003971D02*
X018984Y003971D01*
X019034Y003947D02*
X018050Y003947D01*
X016991Y003947D01*
X016991Y003612D01*
X016941Y003577D02*
X016568Y003577D01*
X016568Y003675D02*
X016601Y003675D01*
X016601Y003774D02*
X016568Y003774D01*
X016568Y003872D02*
X016601Y003872D01*
X016601Y003971D02*
X016568Y003971D01*
X016941Y003971D02*
X017041Y003971D01*
X017041Y004063D02*
X017041Y003662D01*
X016941Y003662D01*
X016941Y004063D01*
X017041Y004063D01*
X017041Y003872D02*
X016941Y003872D01*
X016941Y003774D02*
X017041Y003774D01*
X017041Y003675D02*
X016941Y003675D01*
X016941Y003478D02*
X017041Y003478D01*
X017041Y003380D02*
X016941Y003380D01*
X016941Y003281D02*
X017041Y003281D01*
X017041Y003183D02*
X016941Y003183D01*
X016941Y003084D02*
X017041Y003084D01*
X016629Y003084D02*
X016552Y003084D01*
X016568Y003183D02*
X016601Y003183D01*
X016601Y003281D02*
X016568Y003281D01*
X016568Y003380D02*
X016601Y003380D01*
X016601Y003478D02*
X016568Y003478D01*
X017381Y003675D02*
X017585Y003675D01*
X017585Y003774D02*
X017381Y003774D01*
X017381Y003872D02*
X017585Y003872D01*
X017381Y003971D02*
X018000Y003971D01*
X019034Y003947D02*
X019054Y003967D01*
X019428Y003967D01*
X019546Y003849D01*
X019546Y002510D01*
X019428Y002392D01*
X019034Y002392D01*
X018837Y002195D01*
X018837Y000974D01*
X019428Y001230D02*
X020412Y001230D01*
X021397Y001230D01*
X021397Y001978D02*
X021200Y001978D01*
X021200Y002589D01*
X020601Y003197D02*
X020457Y003054D01*
X020220Y003054D01*
X019947Y002781D01*
X019947Y002433D01*
X019910Y002396D01*
X019863Y002444D01*
X019772Y002481D01*
X019106Y002481D01*
X019106Y002634D01*
X019168Y002696D01*
X019398Y002696D01*
X019489Y002734D01*
X019559Y002803D01*
X019596Y002894D01*
X019596Y003504D01*
X019559Y003595D01*
X019496Y003658D01*
X019499Y003671D01*
X019499Y003710D01*
X019708Y003502D01*
X019946Y003502D01*
X020121Y003326D01*
X020205Y003243D01*
X020314Y003197D01*
X020601Y003197D01*
X020586Y003183D02*
X019596Y003183D01*
X019596Y003281D02*
X020166Y003281D01*
X020068Y003380D02*
X019596Y003380D01*
X019596Y003478D02*
X019969Y003478D01*
X019633Y003577D02*
X019566Y003577D01*
X019534Y003675D02*
X019499Y003675D01*
X019436Y003897D02*
X019084Y003897D01*
X019084Y003997D01*
X019436Y003997D01*
X019436Y003897D01*
X019436Y003971D02*
X019084Y003971D01*
X019900Y003967D02*
X020373Y003494D01*
X021436Y003494D01*
X021436Y003809D02*
X020570Y003809D01*
X020412Y003967D01*
X020609Y004360D02*
X020845Y004124D01*
X021436Y004124D01*
X022223Y003219D02*
X022381Y003376D01*
X022853Y003376D01*
X022538Y003022D02*
X022538Y002667D01*
X022656Y002549D01*
X023168Y002589D02*
X023759Y002589D01*
X023562Y001978D02*
X023365Y001978D01*
X022223Y003022D02*
X022223Y003219D01*
X020488Y003084D02*
X019596Y003084D01*
X019596Y002985D02*
X020152Y002985D01*
X020053Y002887D02*
X019593Y002887D01*
X019544Y002788D02*
X019954Y002788D01*
X019947Y002690D02*
X019162Y002690D01*
X019106Y002591D02*
X019947Y002591D01*
X019947Y002493D02*
X019106Y002493D01*
X018641Y002589D02*
X019034Y002982D01*
X019034Y003199D01*
X018886Y002099D02*
X018533Y002099D01*
X013596Y001507D02*
X011446Y001507D01*
X011438Y001409D02*
X013498Y001409D01*
X013399Y001310D02*
X011397Y001310D01*
X011356Y001212D02*
X013301Y001212D01*
X013202Y001113D02*
X011315Y001113D01*
X011220Y001015D02*
X013103Y001015D01*
X010185Y002394D02*
X010000Y002394D01*
X010000Y002296D02*
X010021Y002296D01*
X010000Y002887D02*
X011183Y002887D01*
X011183Y002985D02*
X010000Y002985D01*
X010000Y003084D02*
X011183Y003084D01*
X011183Y003183D02*
X010000Y003183D01*
X010000Y003281D02*
X011255Y003281D01*
X011353Y003380D02*
X010000Y003380D01*
X010000Y003478D02*
X011452Y003478D01*
X010498Y003774D02*
X010000Y003774D01*
X010000Y003872D02*
X010400Y003872D01*
X010301Y003971D02*
X010000Y003971D01*
X010000Y004069D02*
X010202Y004069D01*
X010104Y004168D02*
X010000Y004168D01*
X010000Y004266D02*
X010005Y004266D01*
X010000Y004365D02*
X010003Y004365D01*
X010000Y004464D02*
X010003Y004464D01*
X010000Y004562D02*
X010003Y004562D01*
X010000Y004661D02*
X010003Y004661D01*
X026601Y002788D02*
X026972Y002788D01*
X026873Y002690D02*
X026699Y002690D01*
X027601Y002788D02*
X027972Y002788D01*
X027873Y002690D02*
X027699Y002690D01*
X028601Y002788D02*
X028972Y002788D01*
X028873Y002690D02*
X028699Y002690D01*
X030236Y002690D02*
X030336Y002690D01*
X030058Y001801D02*
X030286Y001573D01*
X030286Y001301D01*
X029446Y008110D02*
X029346Y008110D01*
X028880Y008110D02*
X028780Y008110D01*
D41*
X027499Y007904D03*
X026711Y007510D03*
X025924Y007510D03*
X024349Y007510D03*
X024349Y005738D03*
X025727Y004360D03*
X025727Y003770D03*
X024271Y003337D03*
X023759Y002589D03*
X022656Y002549D03*
X021200Y002589D03*
X020412Y002589D03*
X018641Y002589D03*
X016869Y002392D03*
X017263Y001191D03*
X014113Y001604D03*
X019900Y003967D03*
X020412Y003967D03*
X020412Y004754D03*
X019900Y004754D03*
X019625Y007116D03*
X019034Y007116D03*
X019625Y007904D03*
X018837Y008494D03*
X018837Y009085D03*
X017066Y010266D03*
X016869Y011447D03*
X018247Y011408D03*
X018956Y010463D03*
X020609Y011289D03*
X021200Y010856D03*
X021790Y011053D03*
X021790Y011644D03*
X023168Y011250D03*
X023168Y010463D03*
X023168Y009675D03*
X021987Y010069D03*
X021003Y009478D03*
X021200Y008888D03*
X024940Y010463D03*
X026711Y011053D03*
X026908Y010423D03*
X028247Y010502D03*
X028680Y010856D03*
X028286Y011250D03*
X029074Y011250D03*
X030255Y010856D03*
X030058Y010069D03*
X029664Y009478D03*
X030255Y009282D03*
X028680Y009400D03*
X030845Y007904D03*
X030452Y007510D03*
X030845Y007116D03*
X029861Y006329D03*
X027696Y006723D03*
X027696Y007313D03*
X031830Y008297D03*
X031633Y010660D03*
X031633Y011841D03*
X031042Y012037D03*
X029428Y013219D03*
X028680Y012628D03*
X027696Y012628D03*
X027105Y012037D03*
X024743Y012943D03*
X024074Y013415D03*
X025137Y013809D03*
X021200Y013534D03*
X020609Y013415D03*
X019034Y013022D03*
X016672Y013415D03*
X015491Y013809D03*
X012145Y015581D03*
X017066Y017943D03*
X019428Y017943D03*
X020412Y016368D03*
X019034Y016171D03*
X024743Y019518D03*
X024940Y017352D03*
X025530Y017352D03*
X032026Y014793D03*
X032026Y014203D03*
X017066Y007904D03*
X014507Y006919D03*
X012145Y010463D03*
X012735Y011053D03*
X014704Y010974D03*
X024940Y001998D03*
X025530Y001408D03*
D42*
X024743Y007116D02*
X023129Y007116D01*
X022066Y007116D01*
X022066Y008061D01*
X022223Y008061D02*
X022223Y007510D01*
X022538Y007510D01*
X024349Y007510D01*
X024743Y007116D02*
X024940Y007313D01*
X025727Y008100D01*
X026121Y008494D01*
X026121Y008671D01*
X026101Y008691D01*
X025353Y008691D02*
X024802Y009242D01*
X024192Y009242D01*
X023601Y009242D01*
X023168Y009675D01*
X022538Y009085D02*
X024192Y009085D01*
X023011Y008061D02*
X022853Y008061D01*
X022696Y008061D01*
X022538Y008061D01*
X022538Y007510D01*
X021908Y007116D02*
X019625Y007116D01*
X019822Y007510D02*
X020019Y007313D01*
X021751Y007313D01*
X021751Y008061D01*
X021751Y009833D01*
X021987Y010069D01*
X021593Y010266D02*
X021790Y010463D01*
X022381Y011053D01*
X022381Y011250D01*
X022381Y011644D01*
X022223Y011801D01*
X022223Y012471D01*
X022066Y012471D02*
X022066Y011919D01*
X021790Y011644D01*
X021436Y011604D02*
X021436Y012471D01*
X021593Y012471D02*
X021593Y012628D01*
X021593Y014006D01*
X021377Y014223D01*
X021200Y014223D01*
X021751Y013789D02*
X022184Y014223D01*
X021751Y013789D02*
X021751Y012471D01*
X021908Y012471D02*
X021908Y013534D01*
X021987Y013612D01*
X022558Y013612D01*
X023168Y014223D01*
X022971Y013612D02*
X023542Y013612D01*
X024152Y014223D01*
X022971Y013612D02*
X022538Y013179D01*
X022538Y012471D01*
X022381Y012471D02*
X022381Y012037D01*
X022676Y011742D01*
X022538Y011604D01*
X022538Y010856D01*
X022932Y010463D01*
X023168Y010463D01*
X022538Y010856D02*
X022538Y009085D01*
X022538Y008061D01*
X022381Y008061D02*
X022381Y008494D01*
X022381Y010463D01*
X022381Y011250D01*
X022676Y011742D02*
X022774Y011841D01*
X022971Y011841D01*
X023011Y011880D01*
X023011Y012471D01*
X022853Y012471D01*
X022696Y012471D02*
X022696Y012943D01*
X022774Y013022D01*
X023483Y013022D01*
X023168Y012471D02*
X023011Y012471D01*
X022971Y011841D02*
X023562Y011841D01*
X023956Y012234D01*
X025747Y012234D01*
X024782Y011604D02*
X024192Y011604D01*
X023523Y011604D01*
X023168Y011250D01*
X024192Y011132D02*
X024664Y011132D01*
X024940Y010856D01*
X024940Y010463D01*
X021790Y010856D02*
X021790Y011053D01*
X021790Y010856D02*
X021278Y010345D01*
X019782Y010345D01*
X019782Y010502D02*
X020845Y010502D01*
X021200Y010856D01*
X021003Y011171D02*
X021436Y011604D01*
X020963Y011644D02*
X020609Y011289D01*
X019782Y011289D01*
X019782Y011132D02*
X019349Y011132D01*
X019034Y011447D01*
X019034Y012431D01*
X018759Y012707D01*
X018562Y012510D02*
X018837Y012234D01*
X018837Y011250D01*
X019113Y010974D01*
X019782Y010974D01*
X019782Y010817D02*
X018326Y010817D01*
X018286Y010856D01*
X018956Y010463D02*
X019152Y010660D01*
X019782Y010660D01*
X019782Y010817D02*
X020649Y010817D01*
X021003Y011171D01*
X020963Y011644D02*
X020963Y012471D01*
X020963Y012864D01*
X020806Y013022D01*
X020412Y013022D01*
X020215Y013219D01*
X020609Y013415D02*
X020806Y013219D01*
X021003Y013219D01*
X021121Y013100D01*
X021121Y012471D01*
X021278Y012471D02*
X021278Y013455D01*
X019782Y012864D02*
X019782Y011762D01*
X019782Y011604D02*
X019389Y011604D01*
X019310Y011683D01*
X019310Y012746D01*
X019034Y013022D01*
X019625Y013022D02*
X019782Y012864D01*
X019782Y010187D02*
X021515Y010187D01*
X021593Y010266D01*
X021003Y009872D02*
X021003Y009478D01*
X021003Y009282D01*
X020806Y009085D01*
X019782Y009085D01*
X019782Y009242D02*
X019389Y009242D01*
X019231Y009085D01*
X019231Y008888D01*
X018837Y008494D01*
X019625Y007904D02*
X019822Y007904D01*
X020215Y007510D01*
X021593Y007510D01*
X021593Y008061D01*
X021436Y008061D02*
X021436Y008652D01*
X021200Y008888D01*
X020412Y009360D02*
X020412Y009597D01*
X020294Y009715D01*
X019782Y009715D01*
X019782Y009872D01*
X019782Y010030D02*
X020845Y010030D01*
X021003Y009872D01*
X020412Y009360D02*
X020294Y009242D01*
X019782Y009242D01*
X019782Y009400D02*
X019782Y009557D01*
X019349Y009557D01*
X019231Y009675D01*
X019231Y010069D01*
X019310Y010148D01*
X019349Y010187D01*
X019704Y010187D01*
X019782Y010187D01*
X019704Y010187D01*
X019231Y010069D02*
X018837Y010069D01*
X021908Y008061D02*
X021908Y007116D01*
X019822Y007510D02*
X019428Y007510D01*
X019034Y007116D01*
M02*
